<svg id="_001-award" data-name="001-award" xmlns="http://www.w3.org/2000/svg" viewBox="0 0 48.001 58">
  <g id="Group_163" data-name="Group 163" transform="translate(0)">
    <g id="Group_162" data-name="Group 162">
      <path id="Path_469" data-name="Path 469" d="M87.786,50.387,81.7,42.564A8.808,8.808,0,0,0,86.515,39c1.433-2.477.785-5.5.158-8.42A23,23,0,0,1,86,26a22.991,22.991,0,0,1,.677-4.584c.623-2.922,1.275-5.943-.158-8.416-1.484-2.564-4.472-3.513-7.362-4.429A21.416,21.416,0,0,1,75,6.943a20.316,20.316,0,0,1-3.331-2.7C69.521,2.253,67.09,0,64,0s-5.525,2.253-7.67,4.242A20.32,20.32,0,0,1,53,6.943,21.41,21.41,0,0,1,48.84,8.567c-2.89.916-5.878,1.865-7.362,4.429-1.433,2.477-.785,5.5-.158,8.42A22.99,22.99,0,0,1,42,26a22.991,22.991,0,0,1-.677,4.584c-.623,2.922-1.275,5.943.158,8.416A8.808,8.808,0,0,0,46.3,42.563l-6.09,7.823a1,1,0,0,0,.914,1.606l7.15-.893,1.765,6.176a1,1,0,0,0,.771.707A1.02,1.02,0,0,0,51,58a1,1,0,0,0,.79-.386L58.172,49.4A9.247,9.247,0,0,0,64,52a9.247,9.247,0,0,0,5.824-2.6l6.386,8.211A1,1,0,0,0,77,58a1.02,1.02,0,0,0,.19-.018,1,1,0,0,0,.771-.707L79.722,51.1l7.15.893a1,1,0,0,0,.914-1.606Zm-36.37,4.444-1.459-5.106a1,1,0,0,0-1.085-.717l-5.6.7,5.019-6.452.553.177A21.41,21.41,0,0,1,53,45.057a20.315,20.315,0,0,1,3.331,2.7l.344.318ZM64,50c-2.31,0-4.253-1.8-6.311-3.708A22.043,22.043,0,0,0,54,43.325a23.187,23.187,0,0,0-4.553-1.8C46.8,40.686,44.3,39.894,43.207,38c-1.046-1.809-.506-4.33.067-7A24.488,24.488,0,0,0,44,26a24.479,24.479,0,0,0-.721-5c-.573-2.669-1.113-5.19-.067-7,1.1-1.894,3.593-2.686,6.236-3.525A23.193,23.193,0,0,0,54,8.675a22.042,22.042,0,0,0,3.688-2.967C59.743,3.8,61.686,2,64,2s4.253,1.8,6.311,3.708A22.043,22.043,0,0,0,74,8.675a23.187,23.187,0,0,0,4.553,1.8c2.643.839,5.14,1.631,6.236,3.525,1.046,1.809.506,4.33-.067,7A24.488,24.488,0,0,0,84,26a24.478,24.478,0,0,0,.721,5c.573,2.669,1.113,5.19.067,7-1.1,1.894-3.593,2.686-6.236,3.525A23.194,23.194,0,0,0,74,43.325a22.042,22.042,0,0,0-3.688,2.967C68.249,48.2,66.306,50,64,50Zm15.129-.992a1,1,0,0,0-1.085.717l-1.464,5.106-5.254-6.755.344-.318a20.32,20.32,0,0,1,3.33-2.7,21.411,21.411,0,0,1,4.156-1.624l.553-.177,5.02,6.452Z" transform="translate(-39.995)"/>
    </g>
  </g>
  <g id="Group_165" data-name="Group 165" transform="translate(6.001 8)">
    <g id="Group_164" data-name="Group 164">
      <path id="Path_470" data-name="Path 470" d="M106,64a18,18,0,1,0,18,18A18,18,0,0,0,106,64Zm0,34a16,16,0,1,1,16-16A16,16,0,0,1,106,98Z" transform="translate(-88 -64)"/>
    </g>
  </g>
  <g id="Group_167" data-name="Group 167" transform="translate(12.078 13.797)">
    <g id="Group_166" data-name="Group 166">
      <path id="Path_471" data-name="Path 471" d="M160.077,118.4a2,2,0,0,0-1.616-.823h-6.122l-1.9-5.827a2,2,0,0,0-3.8,0l-1.9,5.827h-6.127a2,2,0,0,0-1.178,3.617l4.956,3.6-1.893,5.827a2,2,0,0,0,3.078,2.236l4.959-3.6,4.957,3.6a2,2,0,0,0,3.078-2.236l-1.893-5.828,4.956-3.6A2,2,0,0,0,160.077,118.4Zm-7.16,5.2a1,1,0,0,0-.363,1.119l2.118,6.518-5.545-4.028a1,1,0,0,0-1.175,0l-5.545,4.028,2.117-6.518a1,1,0,0,0-.363-1.118l-5.544-4.028h6.853a1,1,0,0,0,.951-.691l2.118-6.518,2.118,6.517a1,1,0,0,0,.951.691h6.853Z" transform="translate(-136.616 -110.376)"/>
    </g>
  </g>
</svg>
