<svg width="27" height="22" viewBox="0 0 27 22" fill="none" xmlns="http://www.w3.org/2000/svg">
<path d="M25.6601 1.10036C25.2309 0.671133 24.7151 0.456543 24.112 0.456543H2.19201C1.58922 0.456543 1.07333 0.671085 0.643818 1.10036C0.214542 1.52968 0 2.04557 0 2.64841V19.3076C0 19.9106 0.214542 20.4265 0.643818 20.8558C1.07333 21.2851 1.58922 21.4997 2.19201 21.4997H24.1124C24.7151 21.4997 25.231 21.2851 25.6603 20.8558C26.0895 20.4266 26.3043 19.9106 26.3043 19.3076V2.64841C26.3043 2.04557 26.0895 1.52968 25.6601 1.10036ZM24.5503 19.3076C24.5503 19.4265 24.5072 19.5289 24.4204 19.616C24.3336 19.7024 24.2308 19.7457 24.112 19.7457H2.19201C2.07335 19.7457 1.97056 19.7024 1.8838 19.616C1.79709 19.529 1.75367 19.4265 1.75367 19.3076V2.64822C1.75367 2.5295 1.79695 2.42696 1.8838 2.34001C1.97061 2.25349 2.07339 2.21007 2.19201 2.21007H24.1124C24.231 2.21007 24.3337 2.25349 24.4204 2.34001C24.5069 2.42696 24.5503 2.5295 24.5503 2.64822V19.3076Z" fill="#656972"/>
<path d="M6.13807 9.22441C6.86884 9.22441 7.48986 8.9688 8.00138 8.45727C8.51276 7.94575 8.76852 7.32477 8.76852 6.5942C8.76852 5.86338 8.51262 5.24241 8.00138 4.73084C7.48986 4.21951 6.86879 3.96375 6.13807 3.96375C5.4074 3.96375 4.78643 4.21951 4.2749 4.73084C3.76357 5.24236 3.50781 5.86334 3.50781 6.5942C3.50781 7.32477 3.76343 7.94589 4.2749 8.45727C4.78643 8.96865 5.4074 9.22441 6.13807 9.22441Z" fill="#656972"/>
<path d="M10.0819 13.1699L7.88979 10.9781L3.50586 15.362V17.9925H22.7956V11.8549L17.0964 6.15552L10.0819 13.1699Z" fill="#656972"/>
</svg>
