<svg id="_002-professor" data-name="002-professor" xmlns="http://www.w3.org/2000/svg" viewBox="0 0 64 64">
  <g id="Group_169" data-name="Group 169">
    <g id="Group_168" data-name="Group 168">
      <path id="Path_472" data-name="Path 472" d="M43.449,414.116a1.055,1.055,0,0,0,.426-.09c3.4-1.482,9.149-2.253,17.085-2.293l.77,1.542a1.067,1.067,0,0,0,1.908-.954l-1.066-2.133a1.068,1.068,0,0,0-.955-.59c-8.692,0-14.775.808-18.6,2.471a1.068,1.068,0,0,0,.427,2.046Z" transform="translate(-37.084 -358.399)"/>
      <path id="Path_473" data-name="Path 473" d="M61.867,341.333H59.733V336a1.069,1.069,0,0,0-.312-.754l-6.409-6.408a3.153,3.153,0,0,0,.321-1.372,3.2,3.2,0,1,0-3.2,3.2,3.162,3.162,0,0,0,1.371-.32l6.1,6.095v4.892H2.133A2.135,2.135,0,0,0,0,343.466v3.2a1.067,1.067,0,0,0,2.133,0v-3.2H61.867v3.2a1.067,1.067,0,0,0,2.133,0v-3.2A2.136,2.136,0,0,0,61.867,341.333Zm-11.733-12.8a1.067,1.067,0,1,1,1.067-1.067A1.068,1.068,0,0,1,50.133,328.533Z" transform="translate(0 -283.733)"/>
      <path id="Path_474" data-name="Path 474" d="M104.829,31.906c.778,2.024,3.35,8.553,5.217,11.353l.169.255c1.37,2.077,3.661,5.553,11.386,5.553s10.016-3.476,11.386-5.553l.168-.255c1.867-2.8,4.438-9.328,5.217-11.353A3.206,3.206,0,0,0,140.8,28.8V24.533a3.206,3.206,0,0,0-2.133-3.018V16c0-4.211-2.218-11.99-10.42-12.741a2.424,2.424,0,0,0-.368-1.208C126.83.355,123.886,0,121.6,0c-18.98,0-19.2,17.952-19.2,18.133a1.065,1.065,0,0,0,1.065,1.066h0a1.067,1.067,0,0,0,1.067-1.065c0-.653.242-16,17.067-16,3.017,0,4.225.653,4.464,1.039.033.054.124.2-.085.618a1.067,1.067,0,0,0,.955,1.543c9.457,0,9.6,10.233,9.6,10.667v6.4a1.066,1.066,0,0,0,1.067,1.067,1.068,1.068,0,0,1,1.067,1.067V28.8a1.068,1.068,0,0,1-1.067,1.067,1.069,1.069,0,0,0-1,.692c-.031.084-3.181,8.455-5.221,11.516l-.175.264c-1.278,1.939-3.029,4.594-9.6,4.594s-8.326-2.655-9.6-4.594l-.175-.264c-2.04-3.06-5.19-11.431-5.222-11.516a1.066,1.066,0,0,0-1-.692,1.068,1.068,0,0,1-1.067-1.067V24.533a1.06,1.06,0,0,1,.3-.744,2.95,2.95,0,0,0,2.506,1.784l3.65,2.737A4.259,4.259,0,0,0,115.2,32h2.133a4.271,4.271,0,0,0,4.267-4.267A4.271,4.271,0,0,0,125.867,32H128a4.258,4.258,0,0,0,4.208-3.691l3.9-2.923a1.067,1.067,0,0,0-1.28-1.707l-2.719,2.039a3.193,3.193,0,0,0-3.041-2.253H124.8a3.2,3.2,0,0,0-3.2,3.2,3.2,3.2,0,0,0-3.2-3.2h-4.267a3.2,3.2,0,0,0-3.041,2.253l-2.035-1.526a29.081,29.081,0,0,0,1.815-7.136c3.362-.06,13.089-.47,17.417-3.171a18.071,18.071,0,0,0,4.29,7.135,1.066,1.066,0,0,0,1.508-1.508c-.04-.039-3.954-4-3.954-7.779a1.066,1.066,0,0,0-1.981-.549c-1.553,2.587-11.628,3.749-18.286,3.749A1.067,1.067,0,0,0,108.8,16a24.831,24.831,0,0,1-1.688,7.317,1.046,1.046,0,0,1-.445-.917,1.067,1.067,0,0,0-1.067-1.067,3.2,3.2,0,0,0-3.2,3.2V28.8A3.206,3.206,0,0,0,104.829,31.906Zm18.9-5.24A1.068,1.068,0,0,1,124.8,25.6h4.267a1.068,1.068,0,0,1,1.067,1.067v1.067A2.136,2.136,0,0,1,128,29.867h-2.133a2.136,2.136,0,0,1-2.133-2.133V26.667Zm-10.667,0a1.068,1.068,0,0,1,1.067-1.067H118.4a1.068,1.068,0,0,1,1.067,1.067v1.067a2.136,2.136,0,0,1-2.133,2.133H115.2a2.136,2.136,0,0,1-2.133-2.133Z" transform="translate(-89.6)"/>
      <path id="Path_475" data-name="Path 475" d="M224,292.27a1.069,1.069,0,0,0-1.062-1.07,9.653,9.653,0,0,1-3.793-.955,1.071,1.071,0,0,0-.954,0,9.656,9.656,0,0,1-3.79.955,1.067,1.067,0,1,0,0,2.133,11.722,11.722,0,0,0,4.267-.957,11.718,11.718,0,0,0,4.267.957A1.066,1.066,0,0,0,224,292.27Z" transform="translate(-186.666 -253.867)"/>
      <path id="Path_476" data-name="Path 476" d="M300.795,409.936a1.071,1.071,0,0,0-.947.582l-1.067,2.089a1.067,1.067,0,0,0,1.9.971l.769-1.508a61.933,61.933,0,0,1,13.967,1.3,1.066,1.066,0,0,0,.509-2.071A64.221,64.221,0,0,0,300.795,409.936Z" transform="translate(-261.331 -358.692)"/>
      <path id="Path_477" data-name="Path 477" d="M247.467,410.667V412.8a1.067,1.067,0,0,0,2.133,0v-2.133a1.067,1.067,0,1,0-2.133,0Z" transform="translate(-216.534 -358.4)"/>
      <path id="Path_478" data-name="Path 478" d="M240,324.267a1.067,1.067,0,0,0,0,2.133h2.133a1.067,1.067,0,1,0,0-2.133Z" transform="translate(-209.067 -283.734)"/>
    </g>
  </g>
</svg>
