<svg id="_003-student" data-name="003-student" xmlns="http://www.w3.org/2000/svg" viewBox="0 0 64 64">
  <g id="Group_171" data-name="Group 171" transform="translate(0 0)">
    <g id="Group_170" data-name="Group 170">
      <path id="Path_479" data-name="Path 479" d="M52.129,5.324l24.533,3.2a1.183,1.183,0,0,0,.138.008,1.21,1.21,0,0,0,.138-.008l23.329-3.043v3.7a7.773,7.773,0,0,0-2.133,4.682,3.2,3.2,0,1,0,6.4,0A7.772,7.772,0,0,0,102.4,9.185V4.266a1.056,1.056,0,0,0-.08-.4,1.04,1.04,0,0,0-.072-.118,1.055,1.055,0,0,0-.141-.21.921.921,0,0,0-.125-.1,1,1,0,0,0-.191-.13.949.949,0,0,0-.164-.052.955.955,0,0,0-.156-.051L76.938.008a1.192,1.192,0,0,0-.275,0l-24.533,3.2a1.067,1.067,0,0,0,0,2.116ZM102.4,13.866a1.067,1.067,0,0,1-2.133,0,4.954,4.954,0,0,1,1.067-2.6A4.954,4.954,0,0,1,102.4,13.866ZM76.8,2.142,93.087,4.266,76.8,6.391,60.513,4.266Z" transform="translate(-44.8 0)"/>
      <path id="Path_480" data-name="Path 480" d="M157.862,196.257a4.258,4.258,0,0,0,4.208-3.691l3.9-2.923a1.067,1.067,0,1,0-1.28-1.707l-2.719,2.04a3.193,3.193,0,0,0-3.041-2.253h-4.267a3.2,3.2,0,0,0-3.2,3.2,3.2,3.2,0,0,0-3.2-3.2H144a3.193,3.193,0,0,0-3.041,2.253l-2.719-2.04a1.067,1.067,0,0,0-1.28,1.707l3.9,2.923a4.258,4.258,0,0,0,4.208,3.691H147.2a4.271,4.271,0,0,0,4.267-4.267,4.271,4.271,0,0,0,4.267,4.267Zm-8.533-4.267a2.136,2.136,0,0,1-2.133,2.133h-2.133a2.136,2.136,0,0,1-2.133-2.133v-1.067a1.068,1.068,0,0,1,1.067-1.067h4.267a1.068,1.068,0,0,1,1.067,1.067v1.067Zm4.267,0v-1.067a1.068,1.068,0,0,1,1.067-1.067h4.267A1.068,1.068,0,0,1,160,190.924v1.067a2.136,2.136,0,0,1-2.133,2.133h-2.133A2.136,2.136,0,0,1,153.6,191.99Z" transform="translate(-119.462 -164.257)"/>
      <path id="Path_481" data-name="Path 481" d="M153.661,412.534a1.126,1.126,0,0,0-.087-.214c-.02-.037-.025-.08-.048-.116-.012-.016-.029-.025-.04-.041a1.043,1.043,0,0,0-.158-.156.9.9,0,0,0-.162-.127.6.6,0,0,0-.049-.04l-4.267-2.132a1.065,1.065,0,0,0-1.069.066l-6.4,4.267a1.067,1.067,0,0,0-.475.887v3.782a7.018,7.018,0,0,1-4.267,1.551,7.1,7.1,0,0,1-4.267-1.554v-3.779a1.067,1.067,0,0,0-.475-.887l-6.4-4.267a1.065,1.065,0,0,0-1.069-.066l-4.267,2.132c-.019.01-.03.027-.047.037a.943.943,0,0,0-.172.134,1.02,1.02,0,0,0-.148.147c-.013.017-.032.027-.044.044a1.015,1.015,0,0,0-.05.123,1.1,1.1,0,0,0-.084.2,1.508,1.508,0,0,0-.025.4.989.989,0,0,0,.058.213,1.019,1.019,0,0,0,.034.128c.01.019.028.031.038.049a.992.992,0,0,0,.132.169,1.157,1.157,0,0,0,.148.149c.017.013.027.032.044.044l6.4,4.267a1.067,1.067,0,1,0,1.184-1.775l-4.871-3.247,2.069-1.035,5.41,3.606v3.7a1.064,1.064,0,0,0,.313.754,8.8,8.8,0,0,0,12.175,0,1.068,1.068,0,0,0,.313-.754v-3.7l5.411-3.606,2.068,1.034-4.871,3.248a1.067,1.067,0,0,0,1.184,1.775l6.4-4.267c.017-.012.026-.03.042-.042a1.089,1.089,0,0,0,.157-.157,1.13,1.13,0,0,0,.125-.161c.011-.019.03-.031.04-.051a.892.892,0,0,0,.037-.135,1.024,1.024,0,0,0,.054-.2,1.012,1.012,0,0,0,0-.212A.968.968,0,0,0,153.661,412.534Z" transform="translate(-104.638 -358.396)"/>
      <path id="Path_482" data-name="Path 482" d="M113.141,184.925a1.069,1.069,0,0,0,.991.67,1.068,1.068,0,0,0,.991-1.462,32.179,32.179,0,0,1-2.058-10.271v-8.533c0-9.088-4.658-11.521-4.856-11.62a1.066,1.066,0,0,0-1.543.954v4.267c0,4.034-3.087,12.321-4.155,14.456-.957,1.915-6.019,7.944-10.779,7.944s-9.822-6.029-10.78-7.944c-1.067-2.135-4.154-10.422-4.154-14.456v-4.267a1.066,1.066,0,0,0-1.543-.954c-.2.1-4.856,2.532-4.856,11.62v8.533a32.177,32.177,0,0,1-2.058,10.271,1.067,1.067,0,0,0,1.982.793,33.861,33.861,0,0,0,2.209-11.064v-8.533c0-4.325,1.128-6.838,2.133-8.221v1.821c0,4.578,3.359,13.371,4.379,15.41,1.3,2.6,6.979,9.123,12.688,9.123s11.39-6.527,12.687-9.123c1.021-2.04,4.38-10.832,4.38-15.41v-1.819c1.008,1.383,2.133,3.9,2.133,8.219v8.533A33.856,33.856,0,0,0,113.141,184.925Z" transform="translate(-59.732 -134.395)"/>
      <path id="Path_483" data-name="Path 483" d="M228.588,307.494a4.329,4.329,0,0,1-4.915,0,1.067,1.067,0,0,0-1.5,1.519,6.358,6.358,0,0,0,7.908,0,1.059,1.059,0,0,0,.006-1.489A1.074,1.074,0,0,0,228.588,307.494Z" transform="translate(-194.129 -268.794)"/>
      <path id="Path_484" data-name="Path 484" d="M422.342,435.92c-.094-.284-2.421-6.981-11.42-9.231a1.066,1.066,0,1,0-.516,2.069c7.816,1.954,9.833,7.6,9.914,7.836a1.066,1.066,0,1,0,2.022-.674Z" transform="translate(-358.398 -373.324)"/>
      <path id="Path_485" data-name="Path 485" d="M153.6,68.263V60.8a1.067,1.067,0,1,0-2.133,0v6.776a40.9,40.9,0,0,1-29.867,0V60.8a1.067,1.067,0,1,0-2.133,0v7.467a1.068,1.068,0,0,0,.59.955,42.641,42.641,0,0,0,32.953,0A1.068,1.068,0,0,0,153.6,68.263Z" transform="translate(-104.532 -52.264)"/>
      <path id="Path_486" data-name="Path 486" d="M11.475,426.689c-9,2.25-11.326,8.947-11.42,9.231a1.066,1.066,0,1,0,2.022.674c.02-.059,2.04-5.868,9.914-7.836a1.066,1.066,0,1,0-.516-2.069Z" transform="translate(0 -373.324)"/>
    </g>
  </g>
</svg>
