<svg width="27" height="24" viewBox="0 0 27 24" fill="none" xmlns="http://www.w3.org/2000/svg">
<path d="M24.6603 10.831L19.7283 14.1191C19.7283 13.1212 19.2745 12.2383 18.5725 11.635C20.2436 10.628 21.3723 8.81382 21.3723 6.72099C21.3723 3.54307 18.7961 0.966919 15.6182 0.966919C12.4403 0.966919 9.86413 3.54311 9.86413 6.72099C9.86413 8.33295 10.5308 9.78627 11.5994 10.831H8.58424C9.37174 9.95725 9.86413 8.81219 9.86413 7.54301C9.86413 4.81887 7.6562 2.61094 4.93207 2.61094C2.20793 2.61094 0 4.81887 0 7.54301C0 9.0292 0.671578 10.3461 1.71142 11.2503C0.696249 11.8101 0 12.8778 0 14.1191V20.6952C0 22.511 1.47223 23.9832 3.28804 23.9832H16.4402C18.256 23.9832 19.7283 22.511 19.7283 20.6952L24.6603 23.9832C25.5686 23.9832 26.3043 23.2475 26.3043 22.3392V12.4751C26.3043 11.5668 25.5686 10.831 24.6603 10.831ZM4.93207 10.831C3.11625 10.831 1.64402 9.35882 1.64402 7.54301C1.64402 5.72719 3.11625 4.25496 4.93207 4.25496C6.74788 4.25496 8.22011 5.72719 8.22011 7.54301C8.22011 9.35882 6.74788 10.831 4.93207 10.831ZM15.6182 10.8401C13.3429 10.8401 11.4991 8.99546 11.4991 6.72099C11.4991 4.44567 13.3437 2.60191 15.6182 2.60191C17.8927 2.60191 19.7373 4.44567 19.7373 6.72099C19.7373 8.99632 17.8935 10.8401 15.6182 10.8401Z" fill="#656972"/>
</svg>
