<?xml version="1.0" encoding="iso-8859-1"?>
<!-- Generator: Adobe Illustrator 19.0.0, SVG Export Plug-In . SVG Version: 6.00 Build 0)  -->
<svg version="1.1" id="Layer_1" xmlns="http://www.w3.org/2000/svg" xmlns:xlink="http://www.w3.org/1999/xlink" x="0px" y="0px"
	 viewBox="0 0 470 470" style="enable-background:new 0 0 470 470;" xml:space="preserve">
<g>
	<g>
		<g>
			<path d="M402.5,0h-335C30.28,0,0,30.28,0,67.5v335C0,439.72,30.28,470,67.5,470h335c37.22,0,67.5-30.28,67.5-67.5v-335
				C470,30.28,439.72,0,402.5,0z M455,402.5c0,28.949-23.551,52.5-52.5,52.5h-335C38.551,455,15,431.449,15,402.5v-335
				C15,38.551,38.551,15,67.5,15h335c28.949,0,52.5,23.551,52.5,52.5V402.5z"/>
			<path d="M402.5,30H133.333c-4.142,0-7.5,3.358-7.5,7.5c0,4.142,3.358,7.5,7.5,7.5H402.5c12.407,0,22.5,10.093,22.5,22.5v70.021
				c-6.272-4.719-14.064-7.521-22.5-7.521h-335c-8.436,0-16.228,2.801-22.5,7.521V67.5C45,55.093,55.093,45,67.5,45h35.833
				c4.142,0,7.5-3.358,7.5-7.5c0-4.142-3.358-7.5-7.5-7.5H67.5C46.822,30,30,46.822,30,67.5v195c0,20.678,16.822,37.5,37.5,37.5h335
				c20.678,0,37.5-16.822,37.5-37.5v-195C440,46.822,423.178,30,402.5,30z M425,262.5c0,12.407-10.093,22.5-22.5,22.5h-335
				C55.093,285,45,274.907,45,262.5v-95c0-12.407,10.093-22.5,22.5-22.5h335c12.407,0,22.5,10.093,22.5,22.5V262.5z"/>
			<path d="M95.833,67.5v40c0,4.142,3.358,7.5,7.5,7.5c4.142,0,7.5-3.358,7.5-7.5v-40c0-4.142-3.357-7.5-7.5-7.5
				C99.191,60,95.833,63.358,95.833,67.5z"/>
			<path d="M176.667,107.5v-40c0-4.142-3.358-7.5-7.5-7.5c-4.142,0-7.5,3.358-7.5,7.5v40c0,4.142,3.358,7.5,7.5,7.5
				C173.309,115,176.667,111.642,176.667,107.5z"/>
			<path d="M242.5,107.5v-40c0-4.142-3.358-7.5-7.5-7.5c-4.142,0-7.5,3.358-7.5,7.5v40c0,4.142,3.358,7.5,7.5,7.5
				C239.142,115,242.5,111.642,242.5,107.5z"/>
			<path d="M308.333,107.5v-40c0-4.142-3.358-7.5-7.5-7.5c-4.142,0-7.5,3.358-7.5,7.5v40c0,4.142,3.358,7.5,7.5,7.5
				C304.975,115,308.333,111.642,308.333,107.5z"/>
			<path d="M374.167,107.5v-40c0-4.142-3.358-7.5-7.5-7.5c-4.142,0-7.5,3.358-7.5,7.5v40c0,4.142,3.358,7.5,7.5,7.5
				C370.809,115,374.167,111.642,374.167,107.5z"/>
			<path d="M382.5,350c-15.164,0-27.5,12.336-27.5,27.5s12.336,27.5,27.5,27.5s27.5-12.336,27.5-27.5S397.664,350,382.5,350z
				 M382.5,390c-6.893,0-12.5-5.607-12.5-12.5s5.607-12.5,12.5-12.5s12.5,5.607,12.5,12.5S389.393,390,382.5,390z"/>
			<path d="M322.5,315h-255c-4.142,0-7.5,3.358-7.5,7.5v110c0,4.142,3.358,7.5,7.5,7.5h255c4.142,0,7.5-3.358,7.5-7.5v-110
				C330,318.358,326.642,315,322.5,315z M315,425H75v-95h240V425z"/>
			<path d="M122.091,398.431l34.161-26.446l34.161,26.446c2.704,2.092,6.479,2.093,9.183,0l34.156-26.445l34.157,26.445
				c1.366,1.058,2.982,1.57,4.586,1.57c2.241,0,4.458-1,5.936-2.909c2.536-3.275,1.937-7.986-1.339-10.521l-38.748-30
				c-2.703-2.093-6.479-2.093-9.183,0l-34.156,26.445l-34.161-26.446c-2.703-2.093-6.479-2.093-9.183,0l-38.752,30
				c-3.275,2.536-3.875,7.247-1.339,10.522C114.106,400.367,118.815,400.967,122.091,398.431z"/>
		</g>
	</g>
</g>
<g>
</g>
<g>
</g>
<g>
</g>
<g>
</g>
<g>
</g>
<g>
</g>
<g>
</g>
<g>
</g>
<g>
</g>
<g>
</g>
<g>
</g>
<g>
</g>
<g>
</g>
<g>
</g>
<g>
</g>
</svg>
