<svg width="15" height="15" viewBox="0 0 15 15" fill="none" xmlns="http://www.w3.org/2000/svg">
<path d="M11.5 8.99998H14.25C14.5261 8.99998 14.75 8.7761 14.75 8.49998V1.5C14.75 1.22388 14.5261 1 14.25 1H11.5" fill="black"/>
<path d="M11.5 8.06298V8.99998H14.25C14.5261 8.99998 14.75 8.77611 14.75 8.49999V4.16553C13.9177 5.65502 12.8157 6.97668 11.5 8.06298Z" fill="black"/>
<path d="M4.75 0H10.25C10.5261 0 10.75 0.223876 10.75 0.499998V9.49997C10.75 9.77609 10.5261 9.99997 10.25 9.99997H4.75C4.47388 9.99997 4.25 9.77609 4.25 9.49997V0.499998C4.25 0.223876 4.47388 0 4.75 0Z" fill="black"/>
<path d="M0.749998 1C0.473876 1 0.25 1.22388 0.25 1.5V8.49998C0.25 8.7761 0.473876 8.99998 0.749998 8.99998H3.49999V1H0.749998Z" fill="black"/>
<path d="M3.49963 9.00012V7.61816C2.89941 8.12268 2.26452 8.58447 1.59961 9.00012H3.49963Z" fill="black"/>
<path d="M6.5 7.25H8.49999C8.77611 7.25 8.99999 7.47388 8.99999 7.75C8.99999 8.02612 8.77611 8.25 8.49999 8.25H6.5C6.22388 8.25 6 8.02612 6 7.75C6 7.47388 6.22388 7.25 6.5 7.25Z" fill="black"/>
<path d="M2 6.75C1.72388 6.75 1.5 6.97388 1.5 7.25C1.5 7.52612 1.72388 7.75 2 7.75H3.49999V6.75H2Z" fill="black"/>
<path d="M13 6.75H11.5V7.75H13C13.2761 7.75 13.5 7.52612 13.5 7.25C13.5 6.97388 13.2761 6.75 13 6.75Z" fill="black"/>
<path d="M10.584 11.2566C10.4387 11.2318 10.2899 11.2725 10.1774 11.3676C10.0648 11.4627 9.99986 11.6026 9.99998 11.7499C9.99998 11.4738 9.77611 11.2499 9.49999 11.2499C9.22386 11.2499 8.99999 11.4738 8.99999 11.7499C8.99999 11.4738 8.77611 11.2499 8.49999 11.2499C8.22387 11.2499 7.99999 11.4738 7.99999 11.7499V9.77664C8.00561 9.52542 7.83031 9.30643 7.58398 9.25663C7.43871 9.23185 7.28991 9.2725 7.17736 9.36759C7.06481 9.46268 6.99987 9.60257 6.99999 9.74991V13.2499L5.95776 12.6249C5.82825 12.5469 5.66785 12.5407 5.53271 12.6084L5.49353 12.6282C5.34424 12.703 5.25 12.8556 5.25 13.0226C5.24988 13.1652 5.31873 13.2991 5.43469 13.3819L6.99999 14.4999H11V11.7766C11.0056 11.5254 10.8303 11.3064 10.584 11.2566Z" fill="black"/>
<path d="M6 1H6.5V1.5H6V1Z" fill="white"/>
<path d="M7 1H8.99999V1.5H7V1Z" fill="white"/>
<path d="M5.25 2.24976H5.75V3.24975H5.25V2.24976Z" fill="white"/>
<path d="M6.25 2.24976H6.75V3.24975H6.25V2.24976Z" fill="white"/>
<path d="M7.25 2.24976H7.75V3.24975H7.25V2.24976Z" fill="white"/>
<path d="M8.25 2.24976H8.75V3.24975H8.25V2.24976Z" fill="white"/>
<path d="M9.25 2.24976H9.75V3.24975H9.25V2.24976Z" fill="white"/>
<path d="M7.25 4H8.99999V4.5H7.25V4Z" fill="white"/>
<path d="M6 4H6.75V4.5H6V4Z" fill="white"/>
<path d="M6 5H8.99999V5.5H6V5Z" fill="white"/>
<path d="M6.5 5.99976H8.49999V6.49975H6.5V5.99976Z" fill="white"/>
<path d="M2.75 1.75024H3.5V2.25024H2.75V1.75024Z" fill="black"/>
<path d="M1 3H1.5V3.75H1V3Z" fill="black"/>
<path d="M2 3H2.5V3.75H2V3Z" fill="black"/>
<path d="M3 3H3.5V3.75H3V3Z" fill="black"/>
<path d="M1.75 1.75024H2.25V2.25024H1.75V1.75024Z" fill="black"/>
<path d="M2 4.5H3.5V5H2V4.5Z" fill="black"/>
<path d="M2.5 5.5H3.5V6H2.5V5.5Z" fill="black"/>
<path d="M11.5 1.75024H13.25V2.25024H11.5V1.75024Z" fill="black"/>
<path d="M13.5 3H14V3.75H13.5V3Z" fill="black"/>
<path d="M12.5 3H13V3.75H12.5V3Z" fill="black"/>
<path d="M11.5 3H12V3.75H11.5V3Z" fill="black"/>
<path d="M11.5 4.5H12.75V5H11.5V4.5Z" fill="black"/>
<path d="M11.5 5.5H12.25V6H11.5V5.5Z" fill="black"/>
<path d="M6.99963 14.4999H10.9996V12.5166C9.76537 13.5388 8.09558 14.1291 6.91992 14.4416L6.99963 14.4999Z" fill="black"/>
<path d="M0.749998 9.24997H3.49999V8.74997H0.749998C0.611936 8.74997 0.499998 8.63804 0.499998 8.49998V1.5C0.499998 1.36194 0.611936 1.25 0.749998 1.25H3.49999V0.75H0.749998C0.335814 0.75 0 1.08581 0 1.5V8.49998C0 8.91416 0.335814 9.24997 0.749998 9.24997Z" fill="black"/>
<path d="M6 1H6.5V1.5H6V1Z" fill="white"/>
<path d="M7 1H8.99999V1.5H7V1Z" fill="white"/>
<path d="M5.25 2.25H5.75V3.25H5.25V2.25Z" fill="white"/>
<path d="M6.25 2.25H6.75V3.25H6.25V2.25Z" fill="white"/>
<path d="M7.25 2.25H7.75V3.25H7.25V2.25Z" fill="white"/>
<path d="M8.25 2.25H8.75V3.25H8.25V2.25Z" fill="white"/>
<path d="M9.25 2.25H9.75V3.25H9.25V2.25Z" fill="white"/>
<path d="M7.25 4H8.99999V4.5H7.25V4Z" fill="white"/>
<path d="M6.75 8.5H8.24999C8.66418 8.5 8.99999 8.16418 8.99999 7.75C8.99999 7.33581 8.66418 7 8.24999 7H6.75C6.33581 7 6 7.33581 6 7.75C6 8.16418 6.33581 8.5 6.75 8.5ZM6.75 7.5H8.24999C8.38805 7.5 8.49999 7.61194 8.49999 7.75C8.49999 7.88806 8.38805 8 8.24999 8H6.75C6.61194 8 6.5 7.88806 6.5 7.75C6.5 7.61194 6.61194 7.5 6.75 7.5Z" fill="white"/>
<path d="M2.75 1.75024H3.5V2.25024H2.75V1.75024Z" fill="white"/>
<path d="M1 3H1.5V3.75H1V3Z" fill="white"/>
<path d="M2 3H2.5V3.75H2V3Z" fill="white"/>
<path d="M3 3H3.5V3.75H3V3Z" fill="white"/>
<path d="M1.75 1.75024H2.25V2.25024H1.75V1.75024Z" fill="white"/>
<path d="M2 8H3.49999V7.5H2C1.86194 7.5 1.75 7.38806 1.75 7.25C1.75 7.11194 1.86194 7 2 7H3.49999V6.5H2C1.58581 6.5 1.25 6.83581 1.25 7.25C1.25 7.66418 1.58581 8 2 8Z" fill="white"/>
<path d="M14.25 0.75H11.5V1.25H14.25C14.3881 1.25 14.5 1.36194 14.5 1.5V8.49998C14.5 8.63804 14.3881 8.74997 14.25 8.74997H11.5V9.24997H14.25C14.6642 9.24997 15 8.91416 15 8.49998V1.5C15 1.08581 14.6642 0.75 14.25 0.75Z" fill="black"/>
<path d="M11.5 1.75024H13.25V2.25024H11.5V1.75024Z" fill="white"/>
<path d="M13.5 3H14V3.75H13.5V3Z" fill="black"/>
<path d="M12.5 3H13V3.75H12.5V3Z" fill="white"/>
<path d="M11.5 3H12V3.75H11.5V3Z" fill="white"/>
<path d="M11.5 6.5V7H13C13.1381 7 13.25 7.11194 13.25 7.25C13.25 7.38806 13.1381 7.5 13 7.5H11.5V8H13C13.4142 8 13.75 7.66418 13.75 7.25C13.75 6.83581 13.4142 6.5 13 6.5H11.5Z" fill="white"/>
<path d="M11.25 14.5001V11.7768C11.2547 11.4037 10.9915 11.0808 10.625 11.0101C10.4069 10.9741 10.184 11.0357 10.0153 11.1786C10.0103 11.1826 10.0053 11.1869 10.0005 11.1914C9.71609 10.936 9.28494 10.936 9.00051 11.1914C8.79373 11.014 8.5093 10.9576 8.25052 11.0426V9.77682C8.25528 9.40366 7.99197 9.08078 7.62552 9.0101C7.40774 8.97312 7.1846 9.03403 7.0159 9.17673C6.84708 9.31931 6.74991 9.52914 6.75003 9.75009V12.8086L6.08658 12.4106C5.88407 12.2883 5.63285 12.2788 5.42179 12.3856L5.38199 12.4054C5.1652 12.5139 5.02103 12.728 5.00211 12.9697C4.98319 13.2114 5.09232 13.4454 5.28959 13.5864L6.85477 14.7041C6.89725 14.7342 6.94803 14.7503 7.00003 14.7501H11C11.1381 14.7501 11.25 14.6381 11.25 14.5001ZM10.75 14.2501H7.07999L5.57999 13.1788C5.52543 13.1399 5.49515 13.075 5.50028 13.0081C5.50541 12.9412 5.54508 12.8818 5.60502 12.8515L5.64481 12.8321C5.70316 12.8027 5.77262 12.8053 5.82853 12.8391L6.87076 13.4641C6.94803 13.5107 7.04434 13.5122 7.12283 13.4679C7.20145 13.4235 7.25003 13.3403 7.25003 13.2501V9.75009C7.25003 9.67612 7.28275 9.60593 7.33939 9.55844C7.39615 9.51083 7.47098 9.49094 7.54373 9.50388C7.66861 9.53439 7.75479 9.64841 7.75003 9.77682V11.7501C7.75003 11.8881 7.86197 12.0001 8.00003 12.0001C8.13809 12.0001 8.25003 11.8881 8.25003 11.7501C8.25003 11.612 8.36197 11.5001 8.50003 11.5001C8.63809 11.5001 8.75003 11.612 8.75003 11.7501C8.75003 11.8881 8.86196 12.0001 9.00003 12.0001C9.13809 12.0001 9.25002 11.8881 9.25002 11.7501C9.25002 11.612 9.36196 11.5001 9.50002 11.5001C9.63808 11.5001 9.75002 11.612 9.75002 11.7501C9.75002 11.8881 9.86196 12.0001 10 12.0001C10.1381 12.0001 10.25 11.8881 10.25 11.7501C10.25 11.6761 10.2827 11.6059 10.3394 11.5584C10.3961 11.5108 10.471 11.4909 10.5437 11.5039C10.6686 11.5344 10.7548 11.6484 10.75 11.7768V14.2501Z" fill="black"/>
<path d="M6 4H6.75V4.5H6V4Z" fill="white"/>
<path d="M6 5H8.99999V5.5H6V5Z" fill="white"/>
<path d="M6.5 6H8.49999V6.5H6.5V6Z" fill="white"/>
<path d="M2 4.5H3.5V5H2V4.5Z" fill="white"/>
<path d="M2.5 5.5H3.5V6H2.5V5.5Z" fill="white"/>
<path d="M11.5 4.5H12.75V5H11.5V4.5Z" fill="white"/>
<path d="M11.5 5.5H12.25V6H11.5V5.5Z" fill="white"/>
</svg>
