<svg width="15" height="11" viewBox="0 0 15 11" fill="none" xmlns="http://www.w3.org/2000/svg">
<path d="M6.07735 0.0668945H1.6798C1.34387 0.0668945 1.07178 0.338986 1.07178 0.674921C1.07178 1.01085 1.34387 1.28295 1.6798 1.28295H6.07735C6.4133 1.28295 6.68538 1.01085 6.68538 0.674921C6.68538 0.339001 6.41328 0.0668945 6.07735 0.0668945Z" fill="#4F4F4F"/>
<path d="M6.07707 4.41748H3.13879C2.80285 4.41748 2.53076 4.68957 2.53076 5.0255C2.53076 5.36141 2.80285 5.63351 3.13879 5.63351H6.07707C6.41302 5.63351 6.6851 5.36143 6.6851 5.0255C6.6851 4.68957 6.41301 4.41748 6.07707 4.41748Z" fill="#4F4F4F"/>
<path d="M6.07722 2.24219H0.608026C0.272092 2.24219 0 2.51428 0 2.85021C0 3.18615 0.272092 3.45824 0.608026 3.45824H6.07722C6.41317 3.45824 6.68524 3.18615 6.68524 2.85021C6.68524 2.51428 6.41315 2.24219 6.07722 2.24219Z" fill="#4F4F4F"/>
<path d="M6.07722 6.59424H0.608026C0.272092 6.59424 0 6.8663 0 7.20226C0 7.5382 0.272092 7.81029 0.608026 7.81029H6.07722C6.41317 7.81029 6.68524 7.5382 6.68524 7.20226C6.68524 6.86631 6.41315 6.59424 6.07722 6.59424Z" fill="#4F4F4F"/>
<path d="M6.07722 8.76904H0.608026C0.272092 8.76904 0 9.04113 0 9.37707C0 9.713 0.272092 9.9851 0.608026 9.9851H6.07722C6.41317 9.9851 6.68524 9.713 6.68524 9.37707C6.68524 9.04113 6.41315 8.76904 6.07722 8.76904Z" fill="#4F4F4F"/>
<path d="M14.0882 0H8.7011C8.19794 0 7.78906 0.408898 7.78906 0.912039V9.21615C7.78906 9.7193 8.19794 10.1282 8.7011 10.1282H14.0882C14.5914 10.1282 15.0002 9.7193 15.0002 9.21615V0.912039C15.0002 0.407377 14.5929 0 14.0882 0Z" fill="#4F4F4F"/>
</svg>
