<svg width="32" height="32" viewBox="0 0 32 32" fill="none" xmlns="http://www.w3.org/2000/svg">
<path d="M15.8841 17.2425C15.9173 17.2425 15.9504 17.2425 15.9901 17.2425C16.0034 17.2425 16.0167 17.2425 16.0299 17.2425C16.0498 17.2425 16.0763 17.2425 16.0962 17.2425C18.0378 17.2094 19.6083 16.5268 20.7679 15.2214C23.3192 12.3454 22.8951 7.4152 22.8487 6.94471C22.683 3.41272 21.0131 1.72292 19.6348 0.934355C18.6077 0.344585 17.4082 0.0265065 16.0697 0H16.0233C16.0167 0 16.0034 0 15.9968 0H15.957C15.2215 0 13.7769 0.119279 12.3919 0.907848C11.0003 1.69642 9.30388 3.38621 9.13821 6.94471C9.09183 7.4152 8.66772 12.3454 11.219 15.2214C12.372 16.5268 13.9425 17.2094 15.8841 17.2425ZM10.9075 7.11038C10.9075 7.0905 10.9142 7.07062 10.9142 7.05736C11.1328 2.30607 14.5058 1.79582 15.9504 1.79582H15.9769C15.9901 1.79582 16.01 1.79582 16.0299 1.79582C17.8191 1.83558 20.8607 2.56451 21.0661 7.05736C21.0661 7.07724 21.0661 7.09712 21.0728 7.11038C21.0794 7.15676 21.5433 11.6629 19.436 14.0352C18.601 14.9762 17.4878 15.4401 16.0233 15.4533C16.01 15.4533 16.0034 15.4533 15.9901 15.4533C15.9769 15.4533 15.9703 15.4533 15.957 15.4533C14.4992 15.4401 13.3793 14.9762 12.5509 14.0352C10.4503 11.6761 10.9009 7.15014 10.9075 7.11038Z" fill="#20A354"/>
<path d="M29.608 25.4197C29.608 25.4131 29.608 25.4064 29.608 25.3998C29.608 25.3468 29.6014 25.2938 29.6014 25.2341C29.5616 23.9221 29.4755 20.8539 26.5995 19.8732C26.5796 19.8666 26.5531 19.8599 26.5332 19.8533C23.5446 19.0913 21.0596 17.3683 21.0331 17.3484C20.6289 17.0635 20.0723 17.1629 19.7873 17.5671C19.5024 17.9714 19.6018 18.528 20.006 18.8129C20.1187 18.8925 22.7561 20.728 26.0561 21.5762C27.6001 22.1263 27.7724 23.7763 27.8188 25.2872C27.8188 25.3468 27.8188 25.3998 27.8254 25.4528C27.8321 26.0492 27.7923 26.9703 27.6863 27.5005C26.6128 28.1101 22.4049 30.2174 16.0035 30.2174C9.62871 30.2174 5.39429 28.1035 4.31415 27.4938C4.20813 26.9637 4.16174 26.0426 4.17499 25.4462C4.17499 25.3932 4.18162 25.3402 4.18162 25.2805C4.22801 23.7697 4.4003 22.1196 5.9443 21.5696C9.24437 20.7214 11.8818 18.8792 11.9944 18.8063C12.3986 18.5214 12.498 17.9647 12.2131 17.5605C11.9282 17.1563 11.3715 17.0569 10.9673 17.3418C10.9408 17.3617 8.46905 19.0846 5.46719 19.8467C5.44068 19.8533 5.4208 19.8599 5.40092 19.8666C2.52496 20.8539 2.43882 23.9221 2.39906 25.2275C2.39906 25.2872 2.39906 25.3402 2.39243 25.3932C2.39243 25.3998 2.39243 25.4064 2.39243 25.4131C2.3858 25.7576 2.37918 27.527 2.73039 28.4149C2.79665 28.5872 2.91593 28.733 3.07497 28.8324C3.27377 28.9649 8.03832 31.9999 16.0102 31.9999C23.982 31.9999 28.7465 28.9583 28.9453 28.8324C29.0978 28.733 29.2237 28.5872 29.2899 28.4149C29.6213 27.5336 29.6146 25.7643 29.608 25.4197Z" fill="#20A354"/>
</svg>
