<svg width="39" height="32" viewBox="0 0 39 32" fill="none" xmlns="http://www.w3.org/2000/svg">
<path d="M31.0757 7.5284L30.885 7.77562L30.8526 7.81752L30.3055 8.52686L29.8009 7.78666C29.2655 7.00135 28.6847 6.2775 28.0743 5.63348C25.2156 2.61732 21.2198 0.804791 17.1196 0.659635C16.9391 0.653243 16.7554 0.65 16.574 0.65C12.0012 0.65 7.61331 2.71707 4.54087 6.33725C1.4851 9.93802 0.13535 14.6194 0.827784 19.1787C0.885791 19.5605 0.958431 19.9466 1.04382 20.3261L1.04387 20.3263C2.18241 25.3935 5.06857 29.1635 8.88345 30.7678L8.88349 30.7679C9.81019 31.1576 10.7322 31.35 11.6255 31.35C13.8213 31.35 15.7581 30.1709 16.9381 28.0436L31.0757 7.5284ZM31.0757 7.5284L31.0019 7.22503C30.7806 6.31513 31.1967 5.24695 32.3822 4.3864L32.0003 3.86039M31.0757 7.5284L32.0003 3.86039M32.0003 3.86039L32.3822 4.38639C33.2376 3.76535 34.0262 3.47888 34.8644 3.17695C34.8645 3.17694 34.8645 3.17693 34.8645 3.17691L34.9168 3.15811C35.8762 2.81295 36.8895 2.44841 37.6772 1.43537C38.5482 3.77183 38.5561 5.93802 37.8017 7.57952L37.8016 7.57958C37.2721 8.73208 36.3948 9.50465 35.4344 9.77064L35.1559 9.84776L35.0266 10.1062C35.0141 10.131 35.0038 10.1507 34.9951 10.1664C34.1908 11.5946 33.3918 12.9229 32.4799 14.3478L32.371 14.5181L32.3778 14.7202C32.3987 15.3359 32.3495 15.9221 32.2349 16.4635L32.2348 16.4636C31.7808 18.6115 30.0471 20.5184 27.7948 21.2854L27.6076 21.3492L27.4876 21.5065C26.5387 22.7505 25.6334 23.8693 24.7959 24.8333L24.7959 24.8333C21.7566 28.3318 20.7337 28.5023 20.5436 28.534C20.5377 28.535 20.5325 28.5358 20.5282 28.5366L20.5279 28.5367C20.2788 28.5835 20.073 28.5337 19.9244 28.4318L21.5336 27.1171C22.2844 26.5037 23.232 25.537 24.292 24.3159C26.1952 22.1232 28.4139 19.169 30.5426 15.9975C31.8385 14.0674 32.9112 12.3585 33.9099 10.6316L34.3037 9.95066L33.5607 9.69229C33.2141 9.57178 32.8683 9.39351 32.5321 9.15757L32.1587 9.68967L32.5321 9.15757C32.3226 9.01058 32.1319 8.85821 31.964 8.70487L31.4395 8.2259L31.0088 8.79072C29.8274 10.3401 28.5849 12.08 27.4106 13.8297C25.2802 17.0025 23.3816 20.1812 22.0658 22.7834C21.332 24.2344 20.7906 25.486 20.5014 26.4218L19.8882 28.4053C19.6687 28.2346 19.5678 27.9633 19.5655 27.5734C19.563 27.1615 19.6744 26.7459 19.7503 26.4704C19.9776 25.6462 20.4216 24.5365 21.0859 23.1627L21.0859 23.1627C21.398 22.5172 21.7561 21.8189 22.1514 21.0857L22.5222 20.398M32.0003 3.86039L22.5222 20.398M22.5222 20.398L21.7785 20.1585M22.5222 20.398L21.7785 20.1585M21.7785 20.1585C21.3779 20.0295 20.9693 19.9618 20.5627 19.9618C19.8428 19.9618 19.1885 20.179 18.681 20.6176C18.1741 21.0557 17.862 21.6728 17.7496 22.3871C17.6559 22.9826 17.7135 23.563 17.7647 24.0785L17.768 24.1122C17.8211 24.6481 17.8636 25.1094 17.7986 25.5587M21.7785 20.1585L17.7986 25.5587M9.95742 13.4292L9.95731 13.4294C9.41387 14.3017 8.47465 14.827 7.4487 14.827C6.8897 14.827 6.34397 14.667 5.87113 14.3658C5.20309 13.9405 4.73858 13.2761 4.56453 12.5013C4.39054 11.7269 4.52556 10.9265 4.94493 10.2533L9.95742 13.4292ZM9.95742 13.4292C10.8226 12.0397 10.4114 10.1961 9.03084 9.31688C8.55804 9.01568 8.01227 8.85564 7.45321 8.85564C6.4273 8.85564 5.4881 9.38089 4.94504 10.2531L9.95742 13.4292ZM11.8726 5.10554L11.8727 5.10548C12.4159 4.23317 13.3551 3.70781 14.3811 3.70781C14.9399 3.70781 15.4856 3.86788 15.9584 4.16891L11.8726 5.10554ZM11.8726 5.10554C11.4535 5.7788 11.3184 6.57919 11.4926 7.35371C11.6667 8.12828 12.131 8.79271 12.799 9.21801C13.2718 9.51917 13.8175 9.6792 14.3764 9.6792C15.4024 9.6792 16.3416 9.15383 16.885 8.28152L16.885 8.28139M11.8726 5.10554L16.885 8.28139M16.885 8.28139C17.7502 6.89173 17.3392 5.0481 15.9584 4.16896L16.885 8.28139ZM17.7986 25.5587C17.6783 26.3896 17.3913 27.2255 16.9382 28.0433L17.7986 25.5587ZM25.504 10.3041L25.504 10.3041C25.9233 9.63082 26.0582 8.83051 25.8843 8.05617L25.8843 8.05608C25.7102 7.28143 25.2456 6.61685 24.5775 6.19155C24.1048 5.89041 23.5592 5.73039 23.0003 5.73039C21.9742 5.73039 21.0351 6.25571 20.4918 7.12794C20.0722 7.80145 19.9377 8.60195 20.1115 9.37602C20.2855 10.1507 20.7502 10.8152 21.4181 11.2406L21.4182 11.2406C21.8909 11.5417 22.4367 11.7018 22.9956 11.7018C24.0217 11.7018 24.9608 11.1764 25.504 10.3041ZM4.47576 18.9762L4.47571 18.9763C4.05681 19.6493 3.92161 20.4496 4.0954 21.2239L4.09541 21.2239C4.26936 21.9986 4.73378 22.663 5.40178 23.0884L5.40183 23.0885C5.87475 23.3896 6.42058 23.5497 6.9796 23.5497C8.00562 23.5497 8.94485 23.0242 9.48787 22.1521C9.9073 21.4787 10.0424 20.6783 9.86825 19.9039C9.69418 19.1294 9.2297 18.4649 8.56168 18.0396L8.5616 18.0395C8.08887 17.7386 7.54328 17.5784 6.9842 17.5784C5.95807 17.5784 5.01895 18.1038 4.47576 18.9762Z" stroke="#20A354" stroke-width="1.3"/>
</svg>
