<svg width="20" height="26" viewBox="0 0 20 26" fill="none" xmlns="http://www.w3.org/2000/svg">
<path d="M2.23283 24.2792C2.26162 24.9668 2.82742 25.5094 3.51549 25.5094H15.5003C16.1884 25.5094 16.7542 24.9668 16.783 24.2792L17.6389 6.21143H1.37695L2.23283 24.2792ZM12.219 10.6991C12.219 10.4113 12.4525 10.1778 12.7405 10.1778H13.5745C13.8623 10.1778 14.096 10.4112 14.096 10.6991V21.0217C14.096 21.3097 13.8625 21.5431 13.5745 21.5431H12.7405C12.4526 21.5431 12.219 21.3098 12.219 21.0217V10.6991ZM8.56951 10.6991C8.56951 10.4113 8.80295 10.1778 9.09091 10.1778H9.92493C10.2128 10.1778 10.4463 10.4112 10.4463 10.6991V21.0217C10.4463 21.3097 10.2129 21.5431 9.92493 21.5431H9.09091C8.80301 21.5431 8.56951 21.3098 8.56951 21.0217V10.6991ZM4.91987 10.6991C4.91987 10.4113 5.15331 10.1778 5.44126 10.1778H6.27535C6.56324 10.1778 6.79674 10.4112 6.79674 10.6991V21.0217C6.79674 21.3097 6.5633 21.5431 6.27535 21.5431H5.44126C5.15337 21.5431 4.91987 21.3098 4.91987 21.0217V10.6991Z" fill="#979797"/>
<path d="M18.2074 1.31414H12.6784V0.268847C12.6784 0.120404 12.558 0 12.4095 0H6.60347C6.45502 0 6.33468 0.120404 6.33468 0.268847V1.31407H0.805606C0.360649 1.31407 0 1.67479 0 2.11974V4.65065H19.013V2.1198C19.013 1.67485 18.6523 1.31414 18.2074 1.31414Z" fill="#979797"/>
</svg>
