<svg width="14" height="19" viewBox="0 0 14 19" fill="none" xmlns="http://www.w3.org/2000/svg">
<path d="M1.57093 17.8896C1.59119 18.3734 1.98928 18.7552 2.4734 18.7552H10.9058C11.3899 18.7552 11.788 18.3734 11.8083 17.8896L12.4104 5.17737H0.96875L1.57093 17.8896ZM8.5971 8.33487C8.5971 8.13231 8.76134 7.96802 8.96399 7.96802H9.55079C9.75331 7.96802 9.91768 8.13227 9.91768 8.33487V15.5977C9.91768 15.8003 9.75344 15.9645 9.55079 15.9645H8.96399C8.76143 15.9645 8.5971 15.8004 8.5971 15.5977V8.33487ZM6.02934 8.33487C6.02934 8.13231 6.19359 7.96802 6.39619 7.96802H6.983C7.18551 7.96802 7.34984 8.13227 7.34984 8.33487V15.5977C7.34984 15.8003 7.18564 15.9645 6.983 15.9645H6.39619C6.19363 15.9645 6.02934 15.8004 6.02934 15.5977V8.33487ZM3.4615 8.33487C3.4615 8.13231 3.62574 7.96802 3.82835 7.96802H4.4152C4.61776 7.96802 4.78204 8.13227 4.78204 8.33487V15.5977C4.78204 15.8003 4.6178 15.9645 4.4152 15.9645H3.82835C3.62579 15.9645 3.4615 15.8004 3.4615 15.5977V8.33487Z" fill="#656972"/>
<path d="M12.8105 1.73125H8.92033V0.995798C8.92033 0.891355 8.83566 0.806641 8.73117 0.806641H4.64611C4.54167 0.806641 4.457 0.891355 4.457 0.995798V1.73121H0.566814C0.253748 1.73121 0 1.985 0 2.29806V4.07878H13.3773V2.29811C13.3773 1.98504 13.1235 1.73125 12.8105 1.73125Z" fill="#656972"/>
</svg>
