<svg width="15" height="15" viewBox="0 0 15 15" fill="none" xmlns="http://www.w3.org/2000/svg">
<g clip-path="url(#clip0)">
<path d="M7.45614 8.03121C7.14537 8.03121 6.87635 7.9179 6.64943 7.69064C6.42245 7.46369 6.30867 7.19464 6.30867 6.88399V1.14737C6.30867 0.836568 6.42232 0.567706 6.64943 0.340755C6.87632 0.113554 7.14537 0 7.45614 0C7.76695 0 8.03581 0.113679 8.26289 0.340755C8.48996 0.567706 8.60352 0.836694 8.60352 1.14737V6.88402C8.60352 7.19467 8.48996 7.46369 8.26289 7.69067C8.03581 7.9179 7.76685 8.03121 7.45614 8.03121Z" fill="#222222"/>
<path d="M1.29353 4.95666C1.77465 3.99467 2.45129 3.18792 3.32368 2.53665C3.57465 2.34545 3.85849 2.27074 4.1752 2.31252C4.49193 2.35437 4.7429 2.50374 4.92813 2.76061C5.11935 3.01155 5.19241 3.29388 5.1477 3.60761C5.10303 3.92149 4.95497 4.17387 4.704 4.36509C4.11865 4.80725 3.66573 5.34812 3.34619 5.98749C3.02647 6.62681 2.8668 7.3081 2.8668 8.03099C2.8668 8.65263 2.98779 9.24558 3.22975 9.81037C3.47168 10.3751 3.79893 10.8635 4.2113 11.2758C4.62366 11.6881 5.11194 12.0152 5.67673 12.2573C6.24142 12.4993 6.83449 12.6205 7.45595 12.6205C8.07731 12.6205 8.67041 12.4993 9.2351 12.2573C9.79986 12.0152 10.2883 11.6881 10.7007 11.2758C11.1128 10.8635 11.44 10.3751 11.6821 9.81037C11.9241 9.24558 12.0451 8.65263 12.0451 8.03099C12.0451 7.3081 11.8852 6.62691 11.5656 5.98749C11.2459 5.34818 10.7932 4.80735 10.2077 4.36509C9.95671 4.17374 9.80887 3.92139 9.76397 3.60761C9.71917 3.29401 9.79232 3.01155 9.98358 2.76061C10.1688 2.50374 10.4182 2.35434 10.732 2.31252C11.0457 2.2707 11.3312 2.34545 11.5881 2.53665C12.4606 3.18792 13.1372 3.99467 13.6183 4.95666C14.0994 5.91877 14.3398 6.94355 14.3398 8.03102C14.3398 8.96334 14.1576 9.8536 13.7931 10.7021C13.4285 11.5507 12.9386 12.2825 12.323 12.8981C11.7076 13.5135 10.9756 14.0037 10.127 14.3678C9.27849 14.7325 8.38814 14.9149 7.45598 14.9149C6.52378 14.9149 5.63347 14.7325 4.78491 14.3678C3.93628 14.0035 3.20429 13.5135 2.5888 12.8981C1.97341 12.2827 1.4835 11.5507 1.11898 10.7021C0.754455 9.8536 0.572335 8.96312 0.572335 8.03102C0.572304 6.94352 0.81244 5.91874 1.29353 4.95666Z" fill="#222222"/>
</g>
<defs>
<clipPath id="clip0">
<rect width="14.915" height="14.915" transform="matrix(-1 0 0 1 14.9141 0)" fill="white"/>
</clipPath>
</defs>
</svg>
