<svg width="20" height="20" viewBox="0 0 20 20" fill="none" xmlns="http://www.w3.org/2000/svg">
<path d="M17.2676 9.99883L19.1701 8.73836C19.4493 8.55281 19.474 8.16154 19.2218 7.94376L17.2676 6.25977V9.99883Z" fill="#656972"/>
<path d="M9.71779 0.933247L8.64453 1.85894H12.16L11.0868 0.933247C10.6959 0.59647 10.1086 0.59647 9.71779 0.933247Z" fill="#656972"/>
<path d="M1.63912 8.73838L3.54162 9.99885V6.25977L1.58742 7.94376C1.33306 8.16156 1.35994 8.55483 1.63912 8.73838Z" fill="#656972"/>
<path d="M14.0625 12.9752L19.1227 17.7428C19.4515 18.0514 19.9995 17.8255 19.9995 17.3798V9.99442C19.9995 9.58904 19.5342 9.34906 19.193 9.57693L14.0625 12.9752Z" fill="#656972"/>
<path d="M1.6854 17.7428L6.74565 12.9752L1.61509 9.57694C1.27181 9.34905 0.808594 9.58904 0.808594 9.99443V17.3798C0.808594 17.8255 1.3566 18.0514 1.6854 17.7428Z" fill="#656972"/>
<path d="M18.5567 18.1919L13.4488 13.3799L11.1865 14.8784C10.9487 15.0357 10.6757 15.1144 10.4028 15.1144C10.1298 15.1144 9.85683 15.0357 9.61902 14.8784L7.35669 13.3799L2.24888 18.1919C1.91388 18.5066 2.14342 19.0591 2.60871 19.0591H18.1989C18.6621 19.0571 18.8917 18.5066 18.5567 18.1919Z" fill="#656972"/>
<path d="M7.94046 2.4646H5.19217C4.62142 2.4646 4.1582 2.91635 4.1582 3.47298V5.67326V5.72569V10.4106L9.77679 14.2122C9.96084 14.3473 10.18 14.4159 10.3993 14.4159C10.6185 14.4159 10.8376 14.3473 11.0217 14.2122L16.6403 10.4106V5.72569V5.67326V3.47298C16.6403 2.91635 16.1771 2.4646 15.6063 2.4646H12.8622H12.3783H8.42436H7.94046ZM6.92717 9.31551C6.92717 9.14812 7.06573 9.013 7.23736 9.013H13.5653C13.7369 9.013 13.8754 9.14812 13.8754 9.31551C13.8754 9.4829 13.7369 9.61803 13.5653 9.61803H7.23736C7.06573 9.61803 6.92717 9.4829 6.92717 9.31551ZM13.5653 6.23996C13.7369 6.23996 13.8754 6.37509 13.8754 6.54248C13.8754 6.70987 13.7369 6.84499 13.5653 6.84499H7.23736C7.06573 6.84499 6.92717 6.70987 6.92717 6.54248C6.92717 6.37509 7.06573 6.23996 7.23736 6.23996H13.5653Z" fill="#656972"/>
</svg>
