<svg width="32" height="32" viewBox="0 0 32 32" fill="none" xmlns="http://www.w3.org/2000/svg">
<path d="M26.2444 13.9453H25.7738V9.77631C25.7738 4.38774 21.3927 0 15.9975 0C10.609 0 6.22121 4.38111 6.22121 9.77631C6.22121 10.2734 6.61889 10.6711 7.11599 10.6711C7.61309 10.6711 8.01077 10.2734 8.01077 9.77631C8.01077 5.37531 11.5899 1.78956 15.9975 1.78956C20.3985 1.78956 23.9843 5.36868 23.9843 9.77631V13.9453H5.75725C4.80282 13.9453 4.02734 14.7208 4.02734 15.6752V26.8169C4.02734 29.6736 6.35377 32 9.21044 32H22.7912C25.6479 32 27.9743 29.6736 27.9743 26.8169V15.6752C27.9743 14.7208 27.1988 13.9453 26.2444 13.9453ZM26.1848 26.8169C26.1848 28.686 24.667 30.2104 22.7912 30.2104H9.21707C7.34797 30.2104 5.82353 28.6926 5.82353 26.8169V15.7349H26.1848V26.8169Z" fill="#20A354"/>
<path d="M16.0034 26.4523C17.8526 26.4523 19.3505 24.9478 19.3505 23.1052C19.3505 21.256 17.846 19.7581 16.0034 19.7581C14.1542 19.7581 12.6562 21.2626 12.6562 23.1052C12.6562 24.9478 14.1542 26.4523 16.0034 26.4523ZM16.0034 21.541C16.865 21.541 17.561 22.2436 17.561 23.0986C17.561 23.9536 16.865 24.6628 16.0034 24.6628C15.1418 24.6628 14.4458 23.9602 14.4458 23.1052C14.4458 22.2502 15.1418 21.541 16.0034 21.541Z" fill="#20A354"/>
</svg>
