<svg width="28" height="28" viewBox="0 0 28 28" fill="none" xmlns="http://www.w3.org/2000/svg">
<path d="M13.9998 27.4995C21.4555 27.4995 27.4995 21.4555 27.4995 13.9998C27.4995 6.54405 21.4555 0.5 13.9998 0.5C6.54405 0.5 0.5 6.54405 0.5 13.9998C0.5 21.4555 6.54405 27.4995 13.9998 27.4995Z" fill="#979797" stroke="#858585"/>
<path d="M10.6785 19.8643L17.3629 26.5488C22.8991 25.0724 27 20.0284 27 14.0001C27 13.8771 27 13.754 27 13.631L21.7509 8.79199L10.6785 19.8643Z" fill="#656972"/>
<path d="M14.3283 16.9116C14.9024 17.4858 14.9024 18.47 14.3283 19.0441L13.139 20.2333C12.5649 20.8075 11.5807 20.8075 11.0066 20.2333L5.79845 14.9842C5.22433 14.4101 5.22433 13.4259 5.79845 12.8518L6.9877 11.6625C7.56183 11.0884 8.54604 11.0884 9.12016 11.6625L14.3283 16.9116Z" fill="#E6E9ED"/>
<path d="M18.8801 7.84856C19.4542 7.27444 20.4384 7.27444 21.0126 7.84856L22.2018 9.03781C22.7759 9.61193 22.7759 10.5961 22.2018 11.1703L13.1799 20.1512C12.6058 20.7253 11.6216 20.7253 11.0475 20.1512L9.8582 18.9619C9.28408 18.3878 9.28408 17.4036 9.8582 16.8295L18.8801 7.84856Z" fill="#E6E9ED"/>
</svg>
