<svg width="28" height="32" viewBox="0 0 28 32" fill="none" xmlns="http://www.w3.org/2000/svg">
<path d="M23.25 22.4V22.7107L23.4697 22.9303L26.45 25.9107V26.45H0.75V25.9107L3.73033 22.9303L3.95 22.7107V22.4V13.6C3.95 9.00147 7.05789 5.29136 11.376 4.24906L11.95 4.11051V3.52V2.4C11.95 1.53421 12.7342 0.75 13.6 0.75C14.4658 0.75 15.25 1.53421 15.25 2.4V3.52V4.11051L15.824 4.24906C20.1421 5.29136 23.25 9.00147 23.25 13.6V22.4ZM15.9315 29.55C15.6123 30.5328 14.6846 31.25 13.6 31.25C12.5154 31.25 11.5877 30.5328 11.2685 29.55H15.9315Z" stroke="#20A354" stroke-width="1.5"/>
</svg>
