<svg id="Capa_1" enable-background="new 0 0 512.002 512.002" height="512" viewBox="0 0 512.002 512.002" width="512" xmlns="http://www.w3.org/2000/svg"><g><path d="m498.683 387.181h-25.644c6.131-7.405 9.809-16.846 9.809-26.916v-261.447c0-23.354-19.001-42.355-42.355-42.355h-166.992c-4.143 0-7.5 3.357-7.5 7.5s3.357 7.5 7.5 7.5h166.991c15.084 0 27.355 12.271 27.355 27.355v261.446c0 13.107-9.631 24.579-22.494 26.916-11.075 0-361.34 0-378.704 0-12.863-2.337-22.494-13.809-22.494-26.916v-261.446c0-15.084 12.271-27.355 27.355-27.355h166.99c4.143 0 7.5-3.357 7.5-7.5s-3.357-7.5-7.5-7.5h-166.989c-23.354 0-42.355 19.001-42.355 42.355v261.446c0 10.07 3.677 19.511 9.809 26.916h-25.645c-7.345 0-13.32 6.001-13.32 13.377v20.213c0 19.172 15.479 34.769 34.506 34.769h442.991c19.026 0 34.505-15.597 34.505-34.769v-20.213c0-7.375-5.975-13.376-13.319-13.376zm-307.674 15h129.985v6.062c0 2.503-2.062 4.618-4.501 4.618h-120.983c-2.439 0-4.501-2.115-4.501-4.618zm305.993 18.59c0 10.9-8.75 19.769-19.505 19.769h-442.991c-10.756-.001-19.506-8.869-19.506-19.769v-18.59h161.009v6.062c0 10.817 8.748 19.618 19.501 19.618h120.983c10.753 0 19.501-8.801 19.501-19.618v-6.062h161.008z"/><path d="m358.918 304.946c4.143 0 7.5-3.357 7.5-7.5 0-9.323 0-83.47 0-94.109v-5.003c0-4.143-3.357-7.5-7.5-7.5s-7.5 3.357-7.5 7.5v.235l-26.833 12.575v-10.144c0-15.227-12.388-27.614-27.614-27.614h-123.773c-15.226 0-27.613 12.388-27.613 27.614v93.778c0 15.227 12.388 27.614 27.613 27.614h123.772c15.227 0 27.614-12.388 27.614-27.614v-10.142l26.833 12.575v.233c.001 4.145 3.358 7.502 7.501 7.502zm-49.333-10.167c0 6.955-5.659 12.614-12.614 12.614h-123.773c-6.955 0-12.613-5.659-12.613-12.614v-93.778c0-6.955 5.658-12.614 12.613-12.614h123.772c6.955 0 12.614 5.659 12.614 12.614.001 9.794.001 83.271.001 93.778zm15-26.707v-40.362l26.833-12.575v65.513z"/><path d="m373.976 176.115c0 13.325 10.841 24.166 24.167 24.166s24.167-10.841 24.167-24.166c0-13.326-10.841-24.167-24.167-24.167s-24.167 10.841-24.167 24.167zm33.334 0c0 5.054-4.112 9.166-9.167 9.166s-9.167-4.112-9.167-9.166c0-5.055 4.112-9.167 9.167-9.167s9.167 4.113 9.167 9.167z"/><path d="m262.644 235.198-32.185-21.945c-10.186-6.947-24.016.364-24.016 12.691v43.892c0 12.325 13.827 19.638 24.016 12.691l32.185-21.945c8.935-6.095 8.931-19.291 0-25.384zm-8.452 12.991-32.185 21.945c-.249.173-.564.001-.564-.299v-43.892c0-.284.294-.484.564-.299l32.185 21.945c.216.148.216.454 0 .6z"/><path d="m444.035 237.891c4.143 0 7.5-3.357 7.5-7.5 0-.589 0-125.971 0-129.096 0-7.584-6.17-13.754-13.753-13.754-4.567 0-356.432 0-363.561 0-7.584 0-13.754 6.17-13.754 13.754v256.103c0 7.584 6.17 13.754 13.754 13.754h363.561c7.583 0 13.753-6.17 13.753-13.754v-92.007c0-4.143-3.357-7.5-7.5-7.5s-7.5 3.357-7.5 7.5v90.761h-361.067v-216.523h361.067v90.762c0 4.142 3.358 7.5 7.5 7.5zm-342.916-113.262h-25.651v-22.088h25.651zm15 0v-22.088h320.416v22.088z"/></g></svg>