<svg width="29" height="29" viewBox="0 0 29 29" fill="none" xmlns="http://www.w3.org/2000/svg">
<g clip-path="url(#clip0)">
<path d="M25.2031 0.248909C24.8715 -0.0829697 24.3334 -0.0829697 24.0017 0.248909L17.4538 6.79688H2.60547C1.20008 6.79688 0.0566406 7.94031 0.0566406 9.34571V21.24C0.0566406 22.6456 1.20008 23.7889 2.60547 23.7889H3.51172V28.1502C3.51172 28.4956 3.72081 28.8066 4.04052 28.937C4.36488 29.0693 4.73061 28.9876 4.96867 28.7445L9.81632 23.7889H19.711C21.1164 23.7889 22.2598 22.6456 22.2598 21.24V11.6029L28.8078 5.05496C29.1394 4.72308 29.1394 4.18521 28.8078 3.85334L25.2031 0.248909ZM17.3931 14.0664L14.9901 11.6633L22.1994 4.45426L24.6024 6.85728L17.3931 14.0664ZM14.085 13.1612L15.8952 14.9715L12.7924 16.2641L14.085 13.1612ZM20.5606 21.24C20.5606 21.7086 20.1794 22.0896 19.711 22.0896H9.459C9.23045 22.0896 9.01141 22.1819 8.85166 22.3452L5.21095 26.0669V22.9392C5.21095 22.4702 4.83061 22.0896 4.36134 22.0896H2.60547C2.13708 22.0896 1.75586 21.7086 1.75586 21.24V9.34571C1.75586 8.8771 2.13708 8.4961 2.60547 8.4961H15.7543L13.1878 11.0626C13.117 11.1334 13.0468 11.231 13.0002 11.3465L10.6485 16.9922H6.06056C5.59128 16.9922 5.21095 17.3725 5.21095 17.8418C5.21095 18.3109 5.59128 18.6908 6.06056 18.6908H11.2144H11.2151C11.3244 18.6908 11.4416 18.6684 11.549 18.6224L17.71 16.0563C17.8126 16.0163 17.9162 15.9466 17.9941 15.8687L20.5606 13.3021V21.24ZM25.8038 5.65566L23.4008 3.25263L24.6024 2.05123L27.0055 4.45426L25.8038 5.65566Z" fill="#20A354"/>
</g>
<defs>
<clipPath id="clip0">
<rect width="29" height="29" fill="white"/>
</clipPath>
</defs>
</svg>
