<svg width="65" height="66" viewBox="0 0 65 66" fill="none" xmlns="http://www.w3.org/2000/svg">
<path d="M55.5052 65.534H1.90407C0.852453 65.534 0 64.6815 0 63.6299V32.8842C0 31.8326 0.852453 30.9802 1.90407 30.9802C2.95568 30.9802 3.80814 31.8326 3.80814 32.8842V61.7258H53.6013V57.5233C53.6013 56.4717 54.4539 55.6193 55.5053 55.6193C56.5568 55.6193 57.4094 56.4717 57.4094 57.5233V63.6299C57.4093 64.6815 56.5567 65.534 55.5052 65.534Z" fill="#A1A1A1"/>
<path d="M1.9043 22.6709V22.0578L21.8456 1.90405V22.6709H1.9043Z" fill="#20A354"/>
<path d="M62.3731 28.0868H24.4785V49.0333H62.3731V28.0868Z" fill="#20A354"/>
<path d="M62.3731 26.1827H57.4091V1.90407C57.4091 0.852453 56.5566 0 55.5051 0H21.8452C21.8218 0 21.7987 0.00268792 21.7753 0.00345589C21.7539 0.00422387 21.7328 0.00511984 21.7116 0.00665579C21.6293 0.0125436 21.5475 0.0217593 21.4672 0.0380148C21.4656 0.0383988 21.4638 0.0389108 21.4619 0.0392948C21.3829 0.0554223 21.3057 0.0783336 21.2295 0.104445C21.2097 0.111357 21.19 0.118396 21.1703 0.12582C21.0954 0.154235 21.0219 0.18585 20.9513 0.223353C20.9488 0.224633 20.9459 0.225657 20.9435 0.227193C20.8708 0.266232 20.8017 0.31167 20.7342 0.360309C20.7169 0.372852 20.6999 0.385396 20.683 0.39858C20.6162 0.450034 20.5514 0.504432 20.4914 0.564974L0.550383 20.7185C0.505584 20.7636 0.463602 20.8107 0.423923 20.8598C0.397428 20.8923 0.37426 20.9265 0.350197 20.9601C0.338421 20.9769 0.325238 20.9929 0.313974 21.0098C0.286583 21.0512 0.262136 21.0943 0.238201 21.1375C0.232313 21.1481 0.225401 21.1583 0.219897 21.1689C0.196474 21.2133 0.176123 21.2586 0.156539 21.304C0.151803 21.315 0.146043 21.3255 0.141692 21.3368C0.123772 21.3805 0.108925 21.425 0.094461 21.4697C0.0898532 21.484 0.0842214 21.4977 0.0799975 21.5119C0.0678379 21.553 0.0582382 21.5946 0.0490225 21.6362C0.0447986 21.655 0.0392948 21.6737 0.0354549 21.6928C0.0280311 21.7312 0.0232953 21.7701 0.0183034 21.8089C0.0152315 21.8315 0.0110077 21.8538 0.00883176 21.8767C0.00524787 21.9155 0.00447988 21.9544 0.00307193 21.9934C0.00230395 22.0148 0 22.0359 0 22.0572V22.6705C0 23.7221 0.852453 24.5746 1.90407 24.5746H21.8453C22.8969 24.5746 23.7494 23.7221 23.7494 22.6705V3.80814H53.6013V26.1827H24.4787C23.4271 26.1827 22.5747 27.0352 22.5747 28.0868V49.0326C22.5747 50.0842 23.4271 50.9367 24.4787 50.9367H62.3731C63.4246 50.9367 64.2772 50.0842 64.2772 49.0326V28.0868C64.2772 27.0352 63.4246 26.1827 62.3731 26.1827ZM5.85979 20.7668L19.9411 6.53548V20.7668H5.85979ZM60.469 47.1285H26.3828V29.9909H60.4691L60.469 47.1285Z" fill="#A1A1A1"/>
<path d="M32.0989 40.1747L30.0416 43.6693C29.9429 43.8243 29.7456 43.8947 29.5202 43.8947C28.9143 43.8947 28.0547 43.4156 28.0547 42.8098C28.0547 42.6829 28.0969 42.5562 28.1817 42.4153L30.6195 38.6531L28.2803 34.905C28.1817 34.75 28.1394 34.6091 28.1394 34.4681C28.1394 33.8764 28.9426 33.4252 29.5627 33.4252C29.8727 33.4252 30.0841 33.538 30.225 33.7916L32.0991 37.0606L33.9731 33.7916C34.114 33.538 34.3256 33.4252 34.6355 33.4252C35.2555 33.4252 36.0588 33.8762 36.0588 34.4681C36.0588 34.6091 36.0163 34.75 35.9179 34.905L33.5787 38.6531L36.0166 42.4153C36.101 42.5562 36.1434 42.6831 36.1434 42.8098C36.1434 43.4157 35.2839 43.8947 34.678 43.8947C34.4526 43.8947 34.2411 43.8243 34.1566 43.6693L32.0989 40.1747Z" fill="white"/>
<path d="M37.9739 43.8101C37.4947 43.8101 37.0156 43.5847 37.0156 43.1338V34.1719C37.0156 33.7069 37.5654 33.5096 38.1146 33.5096C38.6643 33.5096 39.2136 33.7069 39.2136 34.1719V41.8938H42.4263C42.8492 41.8938 43.0605 42.373 43.0605 42.8521C43.0605 43.3312 42.8492 43.8103 42.4263 43.8103H37.9738V43.8101H37.9739Z" fill="white"/>
<path d="M48.1757 41.0483C48.1757 39.3433 43.7088 39.6391 43.7088 36.3419C43.7088 34.2282 45.5547 33.4251 47.3159 33.4251C48.0629 33.4251 50.1202 33.566 50.1202 34.6653C50.1202 35.0457 49.8667 35.8207 49.2464 35.8207C48.7391 35.8207 48.4714 35.2853 47.3158 35.2853C46.3154 35.2853 45.9068 35.6938 45.9068 36.1307C45.9068 37.5399 50.3738 37.2722 50.3738 40.823C50.3738 42.8521 48.8941 43.9512 46.8509 43.9512C45.0051 43.9512 43.4551 43.0495 43.4551 42.1194C43.4551 41.6401 43.878 40.9357 44.4133 40.9357C45.0756 40.9357 45.4982 41.9786 46.8087 41.9786C47.4571 41.9784 48.1757 41.7248 48.1757 41.0483Z" fill="white"/>
<path d="M54.8536 40.1747L52.7963 43.6693C52.6975 43.8243 52.5003 43.8947 52.275 43.8947C51.6689 43.8947 50.8096 43.4156 50.8096 42.8098C50.8096 42.6829 50.8518 42.5562 50.9364 42.4153L53.3742 38.6531L51.0351 34.905C50.9364 34.75 50.8942 34.6091 50.8942 34.4681C50.8942 33.8764 51.6975 33.4252 52.3175 33.4252C52.6275 33.4252 52.8388 33.538 52.9799 33.7916L54.854 37.0606L56.7281 33.7916C56.8688 33.538 57.0804 33.4252 57.3904 33.4252C58.0105 33.4252 58.8137 33.8762 58.8137 34.4681C58.8137 34.6091 58.7714 34.75 58.6728 34.905L56.3337 38.6531L58.7716 42.4153C58.856 42.5562 58.8984 42.6831 58.8984 42.8098C58.8984 43.4157 58.0387 43.8947 57.433 43.8947C57.2073 43.8947 56.996 43.8243 56.9117 43.6693L54.8536 40.1747Z" fill="white"/>
</svg>
