<svg xmlns="http://www.w3.org/2000/svg" width="53.45" height="43.328" viewBox="0 0 53.45 43.328"><defs><style>.a,.c{fill:none;stroke-linecap:round;stroke-linejoin:round;}.a{stroke:#4d5962;stroke-miterlimit:10;stroke-width:3px;}.b{fill:#2aaf0a;opacity:0.7;}.c{stroke:#fff;stroke-width:1.5px;}</style></defs><g transform="translate(-160.55 -299.713)"><g transform="matrix(0.985, 0.174, -0.174, 0.985, 176.688, 308.819)"><path class="a" d="M31.615,64.931H7.97L6,47H33.586Z" transform="translate(-6 -36.808)"/><path class="a" d="M34,15.8,42.236,6l8.118,9.672" transform="translate(-28.483 -6)"/><line class="a" y2="5.714" transform="translate(13.517 16.241)"/><line class="a" x2="0.355" y2="3.133" transform="translate(6.443 17.522)"/><line class="a" x1="0.355" y2="3.133" transform="translate(20.236 17.522)"/></g><g transform="matrix(0.809, -0.588, 0.588, 0.809, 149.522, 301.468)"><line class="a" y2="5.714" transform="translate(13.517 16.241)"/><line class="a" x2="1.753" y2="2.117" transform="translate(3.648 18.759)"/><line class="a" x1="1.204" y2="2.566" transform="translate(21.633 17.867)"/></g><g transform="translate(200 305)"><circle class="b" cx="7.5" cy="7.5" r="7.5" transform="translate(-1 -1)"/><path class="c" d="M3416.588,126.6l2.669-.044-.063-4.749" transform="translate(-2322.242 -2498.754) rotate(45)"/></g></g></svg>