<?xml version="1.0" encoding="utf-8"?>
<!-- Generator: Adobe Illustrator 16.0.0, SVG Export Plug-In . SVG Version: 6.00 Build 0)  -->
<!DOCTYPE svg PUBLIC "-//W3C//DTD SVG 1.1//EN" "http://www.w3.org/Graphics/SVG/1.1/DTD/svg11.dtd">
<svg version="1.1" id="Capa_1" xmlns="http://www.w3.org/2000/svg" xmlns:xlink="http://www.w3.org/1999/xlink" x="0px" y="0px"
	 width="595.279px" height="841.891px" viewBox="0 0 595.279 841.891" enable-background="new 0 0 595.279 841.891"
	 xml:space="preserve">
<g>
	<path fill="#4582ff" d="M576.501,154.29H316.418v-12.206c0-10.371-8.408-18.779-18.778-18.779s-18.778,8.408-18.778,18.779v12.206
		H18.779c-10.37,0-18.776,8.408-18.776,18.778v61.969c0,10.371,8.406,18.778,18.776,18.778h12.206v322.053
		c0,10.37,8.408,18.778,18.778,18.778h210.32l-70.419,93.895c-6.222,8.295-4.542,20.066,3.756,26.288
		c3.377,2.535,7.329,3.756,11.252,3.756c5.708,0,11.347-2.594,15.036-7.512l59.153-78.87v67.604c0,10.37,8.408,18.778,18.778,18.778
		s18.778-8.408,18.778-18.778v-67.604l59.153,78.87c3.689,4.918,9.326,7.512,15.036,7.512c3.923,0,7.875-1.223,11.252-3.756
		c8.298-6.222,9.979-17.995,3.757-26.288l-70.42-93.895h210.32c10.37,0,18.776-8.408,18.776-18.778V253.815h12.208
		c10.371,0,18.776-8.408,18.776-18.778v-61.969C595.278,162.698,586.872,154.29,576.501,154.29z M37.557,216.259v-24.413h520.164
		v24.413H37.557z M526.739,557.09H68.541V253.815h458.195V557.09H526.739z"/>
	<path fill="#4582ff" d="M142.717,408.741h278.861c10.37,0,18.778-8.408,18.778-18.779c0-10.37-8.408-18.778-18.778-18.778H142.717
		c-10.37,0-18.778,8.408-18.778,18.778C123.939,400.333,132.347,408.741,142.717,408.741z"/>
	<path fill="#4582ff" d="M142.717,346.771h61.969c10.371,0,18.778-8.406,18.778-18.778c0-10.37-8.407-18.778-18.778-18.778h-61.969
		c-10.37,0-18.778,8.408-18.778,18.778C123.939,338.365,132.347,346.771,142.717,346.771z"/>
	<path fill="#4582ff" d="M142.717,470.708h185.907c10.37,0,18.778-8.408,18.778-18.778s-8.408-18.778-18.778-18.778H142.717
		c-10.37,0-18.778,8.408-18.778,18.778S132.347,470.708,142.717,470.708z"/>
</g>
</svg>
