<?xml version="1.0" encoding="utf-8"?>
<!-- Generator: Adobe Illustrator 16.0.0, SVG Export Plug-In . SVG Version: 6.00 Build 0)  -->
<!DOCTYPE svg PUBLIC "-//W3C//DTD SVG 1.1//EN" "http://www.w3.org/Graphics/SVG/1.1/DTD/svg11.dtd">
<svg version="1.1" id="Layer_1" xmlns="http://www.w3.org/2000/svg" xmlns:xlink="http://www.w3.org/1999/xlink" x="0px" y="0px"
	 width="595.279px" height="841.891px" viewBox="0 0 595.279 841.891" enable-background="new 0 0 595.279 841.891"
	 xml:space="preserve">
<g>
	<g>
		<path fill="#4582ff" d="M502.268,179.113h-74.409V160.51c0-11.161-7.441-18.604-18.604-18.604
			c-11.163,0-18.604,7.44-18.604,18.604v18.603H204.628V160.51c0-11.161-7.44-18.604-18.603-18.604
			c-11.161,0-18.604,7.44-18.604,18.604v18.603H93.013C40.925,179.113,0,220.038,0,272.125v334.846
			c0,52.087,40.925,93.013,93.013,93.013h409.255c52.087,0,93.012-40.926,93.012-93.013V272.125
			C595.28,220.038,554.355,179.113,502.268,179.113L502.268,179.113z M37.204,272.125c0-29.764,26.044-55.808,55.809-55.808h74.409
			v18.604c0,11.161,7.44,18.604,18.604,18.604c11.16,0,18.603-7.44,18.603-18.604v-18.604h186.025v18.604
			c0,11.161,7.44,18.604,18.604,18.604s18.604-7.44,18.604-18.604v-18.604h74.409c29.764,0,55.808,26.044,55.808,55.808v55.808
			H37.204V272.125L37.204,272.125z M558.075,606.972c0,29.764-26.044,55.808-55.808,55.808H93.013
			c-29.765,0-55.809-26.044-55.809-55.808V365.138h520.871V606.972z"/>
		<path fill="#4582ff" d="M130.217,606.972c11.161,0,18.604-3.721,26.044-11.161s11.161-18.604,11.161-26.044
			s-3.721-18.604-11.161-26.044c-14.881-14.881-37.204-14.881-52.088,0c-7.44,7.44-11.16,14.881-11.16,26.044
			c0,7.44,3.72,18.604,11.16,26.044S119.057,606.972,130.217,606.972z"/>
		<path fill="#4582ff" d="M130.217,495.355c11.161,0,18.604-3.721,26.044-11.161s11.161-18.604,11.161-26.044
			s-3.721-18.604-11.161-26.044c-14.881-14.881-37.204-14.881-52.088,0c-7.44,7.44-11.16,14.882-11.16,26.044
			c0,11.163,3.72,18.604,11.16,26.044S119.057,495.355,130.217,495.355z"/>
		<path fill="#4582ff" d="M241.833,606.972c11.161,0,18.604-3.721,26.044-11.161s11.16-18.604,11.16-26.044
			s-3.72-18.604-11.16-26.044c-14.881-14.881-37.205-14.881-52.088,0c-7.44,7.44-11.161,18.604-11.161,26.044
			s3.721,18.604,11.161,26.044S230.672,606.972,241.833,606.972z"/>
		<path fill="#4582ff" d="M241.833,495.355c11.161,0,18.604-3.721,26.044-11.161s11.16-18.604,11.16-26.044
			s-3.72-18.604-11.16-26.044c-14.881-14.881-37.205-14.881-52.088,0c-7.44,7.44-11.161,18.604-11.161,26.044
			s3.721,18.604,11.161,26.044S230.672,495.355,241.833,495.355z"/>
		<path fill="#4582ff" d="M353.447,606.972c11.161,0,18.604-3.721,26.044-11.161s11.161-14.881,11.161-26.044
			s-3.721-18.604-11.161-26.044c-14.881-14.881-37.204-14.881-52.088,0c-7.44,7.44-11.16,18.604-11.16,26.044
			s3.72,18.604,11.16,26.044S342.286,606.972,353.447,606.972z"/>
		<path fill="#4582ff" d="M353.447,495.355c11.161,0,18.604-3.721,26.044-11.161s11.161-14.881,11.161-26.044
			c0-7.44-3.721-18.604-11.161-26.044c-14.881-14.881-37.204-14.881-52.088,0c-7.44,7.44-11.16,18.604-11.16,26.044
			s3.72,18.604,11.16,26.044S342.286,495.355,353.447,495.355z"/>
		<path fill="#4582ff" d="M465.063,606.972c11.161,0,18.604-3.721,26.044-11.161s11.161-18.604,11.161-26.044
			s-3.721-18.604-11.161-26.044c-14.881-14.881-37.205-14.881-52.088,0c-7.44,7.44-11.16,14.881-11.16,26.044
			c0,7.44,3.72,18.604,11.16,26.044S453.902,606.972,465.063,606.972z"/>
		<path fill="#4582ff" d="M465.063,495.355c11.161,0,18.604-3.721,26.044-11.161s11.161-14.881,11.161-26.044
			c0-7.44-3.721-18.604-11.161-26.044c-14.881-14.881-37.205-14.881-52.088,0c-7.44,7.44-11.16,18.604-11.16,26.044
			s3.72,18.604,11.16,26.044S453.902,495.355,465.063,495.355z"/>
	</g>
</g>
</svg>
