<?xml version="1.0" encoding="utf-8"?>
<!-- Generator: Adobe Illustrator 16.0.0, SVG Export Plug-In . SVG Version: 6.00 Build 0)  -->
<!DOCTYPE svg PUBLIC "-//W3C//DTD SVG 1.1//EN" "http://www.w3.org/Graphics/SVG/1.1/DTD/svg11.dtd">
<svg version="1.1" id="Capa_1" xmlns="http://www.w3.org/2000/svg" xmlns:xlink="http://www.w3.org/1999/xlink" x="0px" y="0px"
	 width="595.279px" height="841.891px" viewBox="0 0 595.279 841.891" enable-background="new 0 0 595.279 841.891"
	 xml:space="preserve">
<path fill="#A6368C" d="M297.64,123.305C133.522,123.305,0,256.826,0,420.945c0,164.118,133.521,297.64,297.64,297.64
	c164.119,0,297.64-133.521,297.64-297.64C595.28,256.826,461.759,123.305,297.64,123.305z M452.046,429.14l-218.27,148.82
	c-1.677,1.142-3.631,1.727-5.586,1.727c-1.587,0-3.185-0.377-4.633-1.151c-3.255-1.716-5.288-5.089-5.288-8.77V272.125
	c0-3.681,2.033-7.054,5.288-8.771c3.254-1.726,7.183-1.488,10.229,0.576l218.27,148.82c2.698,1.846,4.325,4.911,4.325,8.195
	S454.754,427.295,452.046,429.14z"/>
</svg>
