<?xml version="1.0" encoding="utf-8"?>
<!-- Generator: Adobe Illustrator 16.0.0, SVG Export Plug-In . SVG Version: 6.00 Build 0)  -->
<!DOCTYPE svg PUBLIC "-//W3C//DTD SVG 1.1//EN" "http://www.w3.org/Graphics/SVG/1.1/DTD/svg11.dtd">
<svg version="1.1" id="Capa_1" xmlns="http://www.w3.org/2000/svg" xmlns:xlink="http://www.w3.org/1999/xlink" x="0px" y="0px"
	 width="595.279px" height="841.891px" viewBox="0 0 595.279 841.891" enable-background="new 0 0 595.279 841.891"
	 xml:space="preserve">
<g>
	<g>
		<g>
			<path fill="#4582ff" d="M446.46,495.355H93.013C41.668,495.417,0.062,537.023,0,588.367v130.218h37.205V588.367
				c0-30.821,24.985-55.807,55.808-55.807h316.242v37.205H223.23v148.819h37.205V606.97H446.46V495.355z"/>
			<rect x="74.41" y="606.97" fill="#4582ff" width="37.205" height="111.615"/>
			<path fill="#4582ff" d="M167.422,458.15c51.37,0,93.013-41.644,93.013-93.013c0-51.37-41.643-93.013-93.013-93.013
				c-51.369,0-93.012,41.643-93.012,93.013C74.472,416.481,116.078,458.089,167.422,458.15z M167.422,309.33
				c30.822,0,55.808,24.985,55.808,55.808c0,30.822-24.985,55.808-55.808,55.808c-30.821,0-55.807-24.986-55.807-55.808
				C111.615,334.315,136.601,309.33,167.422,309.33z"/>
			<path fill="#4582ff" d="M0,123.305V234.92h520.87v37.205h37.205V234.92h37.204V123.305H0z M558.075,197.715H37.205V160.51h520.87
				V197.715z"/>
			<rect x="520.87" y="309.33" fill="#4582ff" width="37.205" height="37.205"/>
			<rect x="520.87" y="383.74" fill="#4582ff" width="37.205" height="37.205"/>
			<polygon fill="#4582ff" points="520.87,644.175 297.64,644.175 297.64,681.38 558.075,681.38 558.075,458.15 520.87,458.15 			
				"/>
			<rect x="297.64" y="309.33" fill="#4582ff" width="186.025" height="37.205"/>
			<rect x="372.05" y="383.74" fill="#4582ff" width="111.615" height="37.205"/>
			<rect x="297.64" y="383.74" fill="#4582ff" width="37.205" height="37.205"/>
		</g>
	</g>
</g>
</svg>
