<svg width="40" height="40" viewBox="0 0 40 40" fill="none" xmlns="http://www.w3.org/2000/svg">
<path d="M5.93271 13.1605H19.5544C19.8781 13.1605 20.1403 12.8982 20.1403 12.5746C20.1403 12.251 19.8781 11.9886 19.5544 11.9886H5.93271C5.60904 11.9886 5.34677 12.251 5.34677 12.5746C5.34677 12.8982 5.60911 13.1605 5.93271 13.1605Z" fill="black"/>
<path d="M5.93271 16.103H19.5544C19.8781 16.103 20.1403 15.8407 20.1403 15.5171C20.1403 15.1935 19.8781 14.9312 19.5544 14.9312H5.93271C5.60904 14.9312 5.34677 15.1935 5.34677 15.5171C5.34677 15.8407 5.60911 16.103 5.93271 16.103Z" fill="black"/>
<path d="M5.93271 19.0455H19.5544C19.8781 19.0455 20.1403 18.7832 20.1403 18.4596C20.1403 18.136 19.8781 17.8737 19.5544 17.8737H5.93271C5.60904 17.8737 5.34677 18.136 5.34677 18.4596C5.34677 18.7832 5.60911 19.0455 5.93271 19.0455Z" fill="black"/>
<path d="M5.93271 21.988H19.5544C19.8781 21.988 20.1403 21.7257 20.1403 21.4021C20.1403 21.0785 19.8781 20.8162 19.5544 20.8162H5.93271C5.60904 20.8162 5.34677 21.0785 5.34677 21.4021C5.34677 21.7257 5.60911 21.988 5.93271 21.988Z" fill="black"/>
<path d="M5.9327 24.9305H11.2735C11.5972 24.9305 11.8594 24.6682 11.8594 24.3446C11.8594 24.021 11.5972 23.7587 11.2735 23.7587H5.9327C5.60903 23.7587 5.34677 24.021 5.34677 24.3446C5.34677 24.6682 5.60911 24.9305 5.9327 24.9305Z" fill="black"/>
<path d="M37.5214 4.26159L38.0352 3.31041C38.4698 2.50587 38.1687 1.49774 37.3641 1.0632L35.7662 0.199992C35.3763 -0.010557 34.9279 -0.0566511 34.5033 0.0702249C34.0789 0.197023 33.7293 0.481478 33.5189 0.871013L32.523 2.71478C32.1939 2.83165 31.8896 3.02736 31.641 3.29861C31.0259 3.97018 30.3853 4.75089 29.7372 5.61675C23.2557 5.22745 16.6924 5.1673 10.2244 5.43941C8.4275 5.51394 6.61413 5.61543 4.83528 5.74113C2.86371 5.87824 1.27619 7.40224 1.06072 9.36506C0.351811 15.8443 0.351498 22.4165 1.05994 28.8991C1.27572 30.8655 2.86308 32.3928 4.83255 32.5305C4.9738 32.5408 5.1149 32.5503 5.25216 32.5588C5.63474 32.5847 5.99178 32.7709 6.23139 33.0697C6.34709 33.2141 6.51717 33.2892 6.68881 33.2892C6.81741 33.2892 6.94686 33.247 7.05507 33.1603C7.30749 32.9579 7.34804 32.5891 7.14554 32.3367C6.70131 31.7827 6.04006 31.4376 5.32787 31.3895C5.19161 31.381 5.05474 31.3717 4.91607 31.3616C3.51059 31.2634 2.3787 30.174 2.22487 28.7715C1.52565 22.3737 1.52596 15.8873 2.22558 9.4928C2.37925 8.09404 3.51098 7.00786 4.91724 6.91012C6.68553 6.7852 8.48742 6.68426 10.2734 6.61028C16.4551 6.3502 22.7237 6.3952 28.9237 6.74309C28.532 7.30403 28.1401 7.89154 27.7519 8.50193C27.5783 8.77498 27.659 9.13709 27.932 9.31077C28.2051 9.48428 28.5672 9.40382 28.7409 9.13077C30.0076 7.13888 31.3092 5.39589 32.505 4.09033C32.8217 3.74494 33.332 3.65986 33.7462 3.88346L35.3908 4.77175C35.8053 4.99565 36.014 5.46886 35.8982 5.92293C35.2113 8.62717 33.8168 11.9977 31.9717 15.4138C31.2203 16.8047 30.4331 18.1303 29.6366 19.3524L24.7086 16.6906C25.294 15.3541 25.97 13.9692 26.7215 12.5777C26.955 12.1455 27.1876 11.7271 27.4127 11.3344C27.5737 11.0537 27.4765 10.6956 27.1959 10.5346C26.9151 10.3737 26.557 10.4708 26.3961 10.7516C26.1661 11.1528 25.9287 11.5798 25.6904 12.0208C23.8288 15.4681 22.4073 18.894 21.6878 21.6674C21.0146 24.2621 21.0203 26.0032 21.7012 26.8615L21.5444 27.1168C21.3751 27.3926 21.4614 27.7534 21.7372 27.9228C21.8328 27.9815 21.9386 28.0094 22.0432 28.0094C22.2402 28.0094 22.4325 27.9101 22.5431 27.73L22.7225 27.4379C22.7918 27.4465 22.8627 27.4512 22.9352 27.4512C24.0079 27.4511 25.4141 26.499 27.1301 24.6071C29.0552 22.4848 31.1408 19.4176 33.0029 15.9707C33.5703 14.9202 34.0955 13.8729 34.5732 12.8456C34.613 13.406 34.6458 13.9671 34.675 14.5285C34.6278 14.5991 34.5807 14.6695 34.5338 14.7396C32.5528 17.7019 31.3447 19.5739 31.4656 20.682C31.4983 20.982 31.7522 21.2044 32.0474 21.2044C32.0685 21.2044 32.09 21.2032 32.1116 21.2009C32.4332 21.1658 32.6657 20.8766 32.6306 20.5548C32.5647 19.9515 33.6421 18.2106 34.7565 16.5202C34.8768 20.6101 34.7159 24.7132 34.2715 28.7773C34.239 29.0673 34.1657 29.345 34.0525 29.6055C33.6214 30.6126 32.674 31.2855 31.5799 31.3618C26.8507 31.6939 22.0385 31.8506 17.2751 31.8259C16.4325 31.8208 15.6459 32.2283 15.1717 32.9126C13.6535 35.0964 11.1453 37.2229 9.30868 38.6224C9.00055 38.8571 8.60922 38.8944 8.26211 38.7225C7.91429 38.5501 7.70663 38.2154 7.70663 37.8268V35.2299C7.70663 34.9063 7.44437 34.6439 7.12069 34.6439C6.79702 34.6439 6.53475 34.9063 6.53475 35.2299V37.8268C6.53475 38.6581 6.99733 39.4037 7.74195 39.7726C8.04976 39.9251 8.37961 40.0002 8.70727 40.0002C9.17149 40.0002 9.63157 39.8494 10.0188 39.5545C11.9224 38.104 14.5286 35.8904 16.1343 33.5808C16.3876 33.2153 16.8089 32.9978 17.2623 32.9978H17.2692C22.0598 33.0214 26.9034 32.8649 31.6615 32.5307C33.1959 32.4238 34.5248 31.4795 35.1285 30.0695C35.287 29.7046 35.3905 29.3137 35.4361 28.9059C35.9455 24.247 36.0881 19.5384 35.8654 14.8558C37.52 12.3756 39.134 9.87413 39.412 8.14896C39.6863 6.44528 39.0013 5.05933 37.5214 4.26159ZM26.2619 23.8197C24.1864 26.1079 23.0689 26.4136 22.7358 26.2336C22.4027 26.0538 22.0461 24.9516 22.8219 21.9614C23.1518 20.6897 23.6379 19.2716 24.2496 17.7744L28.9818 20.3305C28.0648 21.6634 27.1448 22.8462 26.2619 23.8197ZM34.3029 2.85212C34.1646 2.77743 34.0209 2.72079 33.8749 2.67798L34.5502 1.42797C34.6119 1.31375 34.7144 1.23031 34.8389 1.19312C34.9633 1.15586 35.0949 1.16937 35.2094 1.23117L36.8073 2.09438C37.0433 2.22188 37.1316 2.51759 37.0042 2.75361L36.329 4.00362C36.2128 3.90479 36.0864 3.81557 35.9478 3.74064L34.3029 2.85212ZM38.255 7.96255C38.0613 9.16444 36.9708 11.0207 35.7509 12.9006C35.6972 12.1269 35.6334 11.3542 35.5595 10.5829C36.1945 9.0203 36.6965 7.53966 37.0338 6.21168C37.1071 5.92402 37.1185 5.63316 37.0774 5.35316C38.0475 5.91637 38.4435 6.79161 38.255 7.96255Z" fill="black"/>
</svg>
