<svg width="181" height="134" viewBox="0 0 181 134" fill="none" xmlns="http://www.w3.org/2000/svg">
<rect width="181" height="133.783" rx="4.37198" fill="#DCEAF4"/>
<path d="M56.0994 55.7406C56.5834 54.6218 57.1195 53.5391 57.697 52.4983C58.4309 51.166 59.2376 49.9014 60.1065 48.6992C60.549 48.0851 61.4128 47.9498 62.0269 48.3922C62.641 48.8397 62.7764 49.6985 62.3341 50.3125C61.5118 51.4471 60.7677 52.618 60.0963 53.8307C59.7478 54.4551 59.4197 55.0952 59.1127 55.7406H64.1296C64.8947 55.7406 65.5088 56.3547 65.5088 57.1144V63.6353V69.1673C65.5088 70.4424 65.233 71.655 64.7386 72.7531C66.1855 73.3568 67.4191 74.1269 68.3609 75.017C69.714 76.2867 70.4895 77.8117 70.4895 79.4666V86.1852C70.4895 86.9451 69.87 87.5644 69.1102 87.5644H60.5595C61.0122 88.3397 61.4962 89.0996 62.0062 89.8334C62.9587 91.2021 63.9993 92.4876 65.1234 93.6793C65.6439 94.2308 65.6178 95.1 65.061 95.6204C64.5093 96.1409 63.6403 96.1147 63.1199 95.5632C61.8969 94.2569 60.7677 92.8673 59.7476 91.4049C58.8941 90.1767 58.1134 88.8965 57.4106 87.5642H44.3792C43.6194 87.5642 43 86.9449 43 86.185V79.4664C43 77.8219 43.765 76.3126 45.0974 75.0429C46.0445 74.1425 47.2935 73.3619 48.7507 72.7529C48.2563 71.6549 47.9805 70.4422 47.9805 69.1672V63.6351V61.2517C47.9805 59.7321 48.5998 58.3529 49.5991 57.3538C50.5982 56.3598 51.9776 55.7404 53.492 55.7404H56.0994V55.7406ZM129.266 67.0911L122.001 64.6295L117.25 66.9609V69.1675C117.25 70.8173 117.926 72.3213 119.014 73.4091C120.102 74.4967 121.606 75.1732 123.255 75.1732C124.911 75.1732 126.409 74.4967 127.502 73.4091C128.59 72.3215 129.266 70.8173 129.266 69.1675V67.0911ZM117.25 63.9061L121.226 61.9596C121.554 61.767 121.96 61.7151 122.35 61.8451L129.266 64.187V61.2519C129.266 60.492 128.959 59.8052 128.454 59.3054C127.955 58.8007 127.268 58.4936 126.508 58.4936H120.003C119.248 58.4936 118.561 58.8005 118.056 59.3054C117.557 59.805 117.249 60.492 117.249 61.2519V63.9061H117.25ZM50.7335 62.2563H62.7554V58.4938H53.4918C52.7373 58.4938 52.0451 58.8007 51.5454 59.3056C51.0458 59.8052 50.7333 60.4922 50.7333 61.2521V62.2563H50.7335ZM62.7554 65.0093H50.7335V69.1675C50.7335 70.8173 51.4102 72.3213 52.5032 73.4091C53.591 74.4967 55.095 75.1732 56.7447 75.1732C58.3943 75.1732 59.8985 74.4967 60.9861 73.4091C62.0791 72.3215 62.7556 70.8173 62.7556 69.1675V65.0093H62.7554ZM96.0109 92.2432C94.0437 92.5295 90.8377 92.4982 88.1786 90.1512C87.247 90.6924 85.774 91.2961 83.9891 91.1505V94.4864C83.9891 96.1362 84.6659 97.6402 85.7586 98.7331C86.8464 99.8207 88.3502 100.497 90 100.497C91.6549 100.497 93.1538 99.8207 94.2467 98.7331C95.3343 97.6402 96.0109 96.1362 96.0109 94.4864V92.2432ZM83.9891 88.392C85.9929 88.6731 87.4033 87.3615 87.4033 87.3563L87.4084 87.3615L87.4396 87.3303C88.012 86.8358 88.8759 86.8983 89.3756 87.4709C91.5301 89.9481 94.5173 89.7658 96.011 89.4745V86.5706C96.011 85.816 95.6987 85.1238 95.1992 84.6241C94.6994 84.1245 94.0126 83.8122 93.2527 83.8122H86.7473C85.9929 83.8122 85.3006 84.1245 84.8008 84.6241C84.3013 85.1238 83.989 85.816 83.989 86.5706V88.392H83.9891ZM63.1874 75.0901C61.5272 76.8959 59.201 77.9316 56.7446 77.9316C54.2881 77.9316 51.9618 76.8959 50.3015 75.0952C48.9328 75.6052 47.7982 76.2662 46.9917 77.0312C46.2059 77.7806 45.753 78.6132 45.753 79.4668V84.8115H67.7361V79.4668C67.7361 78.6081 67.2781 77.7702 66.4767 77.0156C65.67 76.2557 64.5456 75.6001 63.1874 75.0901ZM132.019 69.1675C132.019 70.4426 131.744 71.6552 131.249 72.7533C132.707 73.3621 133.95 74.1427 134.897 75.0379C136.235 76.3078 137 77.817 137 79.4668V86.1854C137 86.9453 136.386 87.5645 135.626 87.5645H122.542C121.835 88.8499 121.038 90.1093 120.169 91.3324C119.134 92.7845 117.999 94.1688 116.776 95.4699C116.256 96.0216 115.386 96.0477 114.835 95.5272C114.283 95.0067 114.257 94.1377 114.772 93.586C115.917 92.3736 116.974 91.0829 117.931 89.7401C118.436 89.0324 118.915 88.309 119.368 87.5647H110.89C110.13 87.5647 109.511 86.9455 109.511 86.1856V79.4669C109.511 77.812 110.286 76.2976 111.634 75.0227C112.576 74.1326 113.814 73.3573 115.267 72.7537C114.767 71.6556 114.491 70.443 114.491 69.1679V61.2522C114.491 59.7326 115.115 58.3535 116.109 57.3544C117.109 56.3604 118.488 55.7409 120.002 55.7409H120.903C120.606 55.1061 120.283 54.4815 119.94 53.8674C119.258 52.6391 118.493 51.4421 117.655 50.2972C117.207 49.6831 117.338 48.8244 117.952 48.377C118.561 47.9294 119.419 48.0594 119.872 48.6735C120.767 49.9018 121.595 51.1924 122.339 52.535C122.917 53.5707 123.442 54.6427 123.916 55.7408H126.508C128.027 55.7408 129.407 56.3602 130.406 57.3542C131.4 58.3533 132.019 59.7325 132.019 61.2521V69.1675H132.019ZM129.698 75.0952C128.038 76.8959 125.717 77.9316 123.255 77.9316C120.799 77.9316 118.478 76.8959 116.812 75.0952C115.454 75.6001 114.325 76.261 113.518 77.0207C112.722 77.7753 112.269 78.6132 112.269 79.4668V84.8115H134.247V79.4668C134.247 78.6132 133.794 77.7806 133.003 77.0312C132.202 76.2662 131.067 75.6052 129.698 75.0952ZM98.764 94.4862C98.764 95.7613 98.4883 96.979 97.9939 98.072C99.451 98.6861 100.695 99.4614 101.642 100.362C102.157 100.851 102.589 101.377 102.922 101.933C104.026 101.465 105.098 100.94 106.144 100.357C107.59 99.5499 108.985 98.6288 110.317 97.6139C110.921 97.1507 111.78 97.2653 112.243 97.8689C112.701 98.4726 112.586 99.3366 111.983 99.7944C110.557 100.882 109.053 101.876 107.476 102.756C106.263 103.432 105.014 104.041 103.739 104.567C103.744 104.639 103.744 104.718 103.744 104.791V111.509C103.744 112.269 103.13 112.883 102.371 112.883H77.6346C76.8747 112.883 76.2554 112.269 76.2554 111.509V104.791C76.2554 104.718 76.2606 104.645 76.2606 104.572C74.949 104.036 73.6741 103.432 72.4407 102.761C70.869 101.907 69.3701 100.94 67.9441 99.8727C67.3354 99.4199 67.2156 98.5612 67.6684 97.9523C68.1213 97.3484 68.9851 97.2236 69.5888 97.6816C70.9055 98.6652 72.295 99.5552 73.7521 100.351C74.8243 100.94 75.9329 101.465 77.0726 101.939C77.4057 101.387 77.8325 100.867 78.3424 100.378C79.2895 99.4721 80.5385 98.6914 82.0115 98.0773C81.5115 96.9792 81.2358 95.7666 81.2358 94.4864V86.5707C81.2358 85.0563 81.855 83.6773 82.8543 82.678C83.8536 81.6789 85.2328 81.0596 86.7471 81.0596H93.2525C94.7722 81.0596 96.1513 81.6789 97.1453 82.678C98.1446 83.6773 98.7638 85.0563 98.7638 86.5707V94.4862H98.764ZM96.4429 100.414C94.7828 102.22 92.4565 103.25 90 103.25C87.5437 103.25 85.2172 102.22 83.5571 100.414C82.1833 100.924 81.0485 101.595 80.2367 102.365C79.456 103.11 79.0086 103.942 79.0086 104.791V110.13H100.991V104.791C100.991 103.937 100.539 103.099 99.7529 102.355C98.9462 101.59 97.8117 100.924 96.4429 100.414ZM66.258 45.7902C65.7115 46.3158 64.8423 46.3002 64.3169 45.7536C63.7913 45.2073 63.8069 44.3381 64.3532 43.8125C65.4462 42.7612 66.5912 41.7829 67.7934 40.8825C68.7874 40.1384 69.8387 39.4358 70.9367 38.78C71.2907 34.0806 73.3411 29.8548 76.4846 26.7164C79.94 23.2557 84.723 21.1168 90 21.1168C95.2824 21.1168 100.06 23.2557 103.521 26.7164C106.638 29.8337 108.683 34.0284 109.058 38.6862C110.135 39.3471 111.176 40.0653 112.175 40.8251C113.378 41.741 114.533 42.735 115.626 43.8018C116.173 44.3275 116.183 45.1966 115.657 45.743C115.126 46.2842 114.257 46.2947 113.716 45.7691C112.701 44.7854 111.629 43.8643 110.51 43.0107C110.031 42.6412 109.542 42.2925 109.053 41.9543C108.626 47.1846 106.289 50.7391 104.046 54.1428C102.017 57.2288 100.07 60.1848 100.039 64.1558L100.044 70.5204C100.044 72.3523 99.2948 74.0126 98.0875 75.2199C96.8849 76.422 95.2198 77.1715 93.3932 77.1715H86.6121C84.7801 77.1715 83.1149 76.422 81.9123 75.2199C80.7102 74.0124 79.9609 72.3523 79.9609 70.5204L79.9659 64.1558C79.9295 60.185 77.9884 57.2288 75.9588 54.1428C73.7209 50.7496 71.3946 47.216 70.9575 42.0169C70.4423 42.3605 69.9374 42.7196 69.443 43.089C68.3086 43.9324 67.2469 44.8379 66.258 45.7902ZM82.7139 68.4339H97.2859V65.6444H82.7139V68.4339ZM97.2286 71.1869H82.7714C82.912 71.9934 83.3021 72.7169 83.859 73.2738C84.5667 73.9815 85.54 74.4187 86.6121 74.4187H93.3932C94.46 74.4187 95.4331 73.9815 96.141 73.2738C96.6979 72.7169 97.088 71.9934 97.2286 71.1869ZM88.6728 50.7395C88.449 49.9172 88.0587 48.793 87.6164 47.5075C86.3726 43.9115 84.7176 39.1235 84.7176 35.5065C84.7176 32.0353 86.0448 29.5581 89.9998 29.5581C93.9548 29.5581 95.2873 32.0353 95.2873 35.5065C95.2873 39.1235 93.6324 43.9115 92.3886 47.5075C91.941 48.7982 91.5508 49.9328 91.3217 50.7551C91.124 51.4889 90.3692 51.9156 89.6407 51.7179C89.1467 51.5824 88.7927 51.1974 88.6728 50.7395ZM87.4708 35.5065C87.4708 38.5145 88.8602 42.704 90 46.0191C91.1449 42.704 92.5345 38.5145 92.5345 35.5065C92.5345 33.6434 91.8945 32.3111 90 32.3111C88.1057 32.3113 87.4708 33.6436 87.4708 35.5065ZM88.6262 55.6001C88.6262 54.8402 89.2403 54.2263 90 54.2263C90.7597 54.2263 91.3792 54.8404 91.3792 55.6001V57.0312C91.3792 57.7911 90.7599 58.4053 90 58.4053C89.2401 58.4053 88.6262 57.7911 88.6262 57.0312V55.6001ZM82.6463 62.8914H97.3535C97.7179 58.7748 99.6956 55.7668 101.756 52.6389C104.01 49.2146 106.367 45.6288 106.367 40.2374C106.367 35.7149 104.535 31.6243 101.574 28.6631C98.6131 25.7019 94.5225 23.87 90 23.87C85.4827 23.87 81.392 25.7019 78.4308 28.6631C75.4695 31.6243 73.6378 35.7149 73.6378 40.2374C73.6378 45.629 75.9953 49.2146 78.2487 52.6389C80.3042 55.7668 82.2872 58.7747 82.6463 62.8914Z" fill="#7092AA"/>
</svg>
