<svg width="40" height="34" viewBox="0 0 40 34" fill="none" xmlns="http://www.w3.org/2000/svg">
<path d="M37.9575 24.3118H2.04278C0.916408 24.3118 0 23.3958 0 22.2696V2.95812C0 1.832 0.916408 0.915833 2.04278 0.915833H37.9575C39.0834 0.915833 40 1.832 40 2.95812V22.2696C40 23.3958 39.0834 24.3118 37.9575 24.3118ZM2.04278 2.56555C1.82612 2.56555 1.64955 2.74163 1.64955 2.95812V22.2696C1.64955 22.4861 1.82612 22.6623 2.04278 22.6623H37.9575C38.174 22.6623 38.3504 22.4861 38.3504 22.2696V2.95812C38.3504 2.74163 38.1741 2.56555 37.9575 2.56555H2.04278Z" fill="black"/>
<path d="M15.7298 18.8823C15.4589 18.7341 15.2828 18.458 15.2828 18.1494V7.07845C15.2828 6.76971 15.4553 6.48702 15.7298 6.34538C16.0041 6.20383 16.3342 6.22742 16.5858 6.40636L24.3701 11.9418C24.5879 12.0966 24.7169 12.347 24.7169 12.614C24.7169 12.881 24.5879 13.1314 24.3701 13.2862C24.3701 13.2862 18.5316 17.4375 16.5858 18.8215C16.4436 18.9226 16.1371 19.1052 15.7298 18.8823ZM16.9327 8.67714V16.5507L22.4687 12.614L16.9327 8.67714Z" fill="black"/>
<path d="M39.1753 28.994H23.4095C23.0434 27.5916 21.7657 26.5537 20.2502 26.5537C18.7349 26.5537 17.4575 27.5916 17.0913 28.994H0.824816C0.369388 28.994 0 29.3634 0 29.8189C0 30.2744 0.369388 30.6437 0.824816 30.6437H17.0913C17.4576 32.0461 18.735 33.0842 20.2503 33.0842C21.7658 33.0842 23.0435 32.046 23.4096 30.6437H39.1753C39.6304 30.6437 40 30.2745 40 29.8189C40 29.3634 39.6304 28.994 39.1753 28.994ZM20.2502 31.4344C19.3598 31.4344 18.6349 30.7096 18.6349 29.8188C18.6349 28.9281 19.3598 28.2034 20.2502 28.2034C21.1411 28.2034 21.8658 28.9281 21.8658 29.8188C21.8658 30.7097 21.1411 31.4344 20.2502 31.4344Z" fill="black"/>
</svg>
