<svg width="40" height="40" viewBox="0 0 40 40" fill="none" xmlns="http://www.w3.org/2000/svg">
<path d="M37.6562 7.09023V5.27344C37.6562 4.94984 37.394 4.6875 37.0703 4.6875H31.4315C31.139 2.05453 28.901 0 26.1914 0C25.8677 0 25.6055 0.262344 25.6055 0.585938V4.6875H22.3438C21.3864 4.6875 20.5349 5.14914 20 5.86141C19.4651 5.14914 18.6136 4.6875 17.6562 4.6875H2.92969C2.60602 4.6875 2.34375 4.94984 2.34375 5.27344V7.09023C1.00812 7.36242 0 8.54609 0 9.96094V35.8984C0 37.5139 1.31422 38.8281 2.92969 38.8281H15.0698L15.3836 39.142C15.937 39.6953 16.6727 40 17.4553 40H22.5448C23.3273 40 24.063 39.6953 24.6166 39.142L24.9303 38.8281H37.0703C38.6858 38.8281 40 37.5139 40 35.8984V9.96094C40 8.54609 38.9919 7.36242 37.6562 7.09023ZM36.4844 32.9688H22.3438C21.6848 32.9688 21.0759 33.1875 20.5859 33.5562C20.5859 32.5854 21.3745 31.7969 22.3438 31.7969H36.4844V32.9688ZM19.4141 33.5562C18.9241 33.1875 18.3152 32.9688 17.6562 32.9688H3.51562V31.7969H17.6562C18.6255 31.7969 19.4141 32.5854 19.4141 33.5562ZM3.51562 34.1406H17.6562C18.4201 34.1406 19.0714 34.6305 19.3133 35.3125H3.51562V34.1406ZM22.3438 34.1406H36.4844V35.3125H20.6867C20.9286 34.6305 21.5799 34.1406 22.3438 34.1406ZM36.4844 30.625H29.5009C30.6977 29.6575 31.4648 28.1787 31.4648 26.5234V5.85938H36.4844V30.625ZM26.7773 1.21359C28.7623 1.49875 30.293 3.2107 30.293 5.27344V23.2123C29.4412 22.1593 28.1928 21.4395 26.7773 21.2823V1.21359ZM22.3438 5.85938H25.6055V21.8359C25.6055 22.1595 25.8677 22.4219 26.1914 22.4219C28.453 22.4219 30.293 24.2618 30.293 26.5234C30.293 28.7851 28.453 30.625 26.1914 30.625H22.3438C21.6848 30.625 21.0759 30.8438 20.5859 31.2124V7.61719C20.5859 6.64789 21.3745 5.85938 22.3438 5.85938ZM38.8281 35.8984C38.8281 36.8677 38.0395 37.6562 37.0703 37.6562H24.6875C24.5321 37.6562 24.383 37.718 24.2731 37.8279L23.7878 38.3133C23.4557 38.6453 23.0143 38.8281 22.5448 38.8281H17.4552C16.9856 38.8281 16.5442 38.6453 16.2123 38.3133L15.7269 37.8279C15.617 37.718 15.4679 37.6562 15.3125 37.6562H2.92969C1.96047 37.6562 1.17188 36.8677 1.17188 35.8984V9.96094C1.17188 9.19711 1.6618 8.54578 2.34375 8.30391V28.8672C2.34375 29.1908 2.60602 29.4531 2.92969 29.4531C3.25336 29.4531 3.51562 29.1908 3.51562 28.8672V5.85938H17.6562C18.6255 5.85938 19.4141 6.64789 19.4141 7.61719V31.2124C18.9241 30.8438 18.3152 30.625 17.6562 30.625H2.92969C2.60602 30.625 2.34375 30.8873 2.34375 31.2109V35.8984C2.34375 36.222 2.60602 36.4844 2.92969 36.4844H37.0703C37.394 36.4844 37.6562 36.222 37.6562 35.8984V8.30391C38.3382 8.54578 38.8281 9.19703 38.8281 9.96094V35.8984Z" fill="black"/>
</svg>
