<svg height="512" viewBox="0 0 60 60" width="512" xmlns="http://www.w3.org/2000/svg"><g id="Page-1" fill="none" fill-rule="evenodd"><g id="077---Content-Management" fill-rule="nonzero" transform="translate(0 -1)"><path id="Shape" d="m21 41v19h-19c-.55228475 0-1-.4477153-1-1v-17c0-.5522847.44771525-1 1-1z" fill="#ffdc00"/><path id="Rectangle-path" d="m18 41h3v19h-3z" fill="#fec108"/><path id="Shape" d="m41 42v17c0 .5522847-.4477153 1-1 1h-19v-19h19c.5522847 0 1 .4477153 1 1z" fill="#e91e63"/><path id="Shape" d="m40 41h-3c.5522847 0 1 .4477153 1 1v17c0 .5522847-.4477153 1-1 1h3c.5522847 0 1-.4477153 1-1v-17c0-.5522847-.4477153-1-1-1z" fill="#ad1457"/><path id="Shape" d="m31 23v18h-20v-18c0-.5522847.4477153-1 1-1h18c.5522847 0 1 .4477153 1 1z" fill="#02a9f4"/><path id="Shape" d="m30 22h-3c.5522847 0 1 .4477153 1 1v18h3v-18c0-.5522847-.4477153-1-1-1z" fill="#0377bc"/><path id="Shape" d="m59 25c0 .52-.02 1.03-.06 1.53-.0323826.4315387-.3199137.8017844-.73.94l-2.82 1c-.1967692 1.0963758-.4878506 2.1737114-.87 3.22l1.95 2.28c.282188.3264083.3485748.7872106.17 1.18-.22.45-.46.9-.72 1.35s-.53.88-.82 1.3c-.2481605.3503171-.6786996.5225328-1.1.44l-2.94-.54c-.7203243.8503236-1.5096764 1.6396757-2.36 2.36l.54 2.94c.0825328.4213004-.0896829.8518395-.44 1.1-.42.29-.85.56-1.3.82s-.9.5-1.35.72c-.3927894.1785748-.8535917.112188-1.18-.17l-2.28-1.95c-.55.2-1.12.38-1.69.53v-2.05c0-.5522847-.4477153-1-1-1h-9v-18c0-.5522847-.4477153-1-1-1h-14.71l1.32-.47c.1967692-1.0963758.4878506-2.1737114.87-3.22l-1.95-2.28c-.282188-.3264083-.3485748-.7872106-.17-1.18.22-.45.46-.9.72-1.35s.53-.88.82-1.3c.2481605-.3503171.6786996-.5225328 1.1-.44l2.94.54c.7203243-.8503236 1.5096764-1.6396757 2.36-2.36l-.54-2.94c-.0825328-.42130045.0896829-.85183952.44-1.1.42-.29.85-.56 1.3-.82s.9-.5 1.35-.72c.3927894-.17857481.8535917-.11218804 1.18.17l2.28 1.95c1.0462886-.38214943 2.1236242-.67323077 3.22-.87l1-2.82c.1382156-.41008628.5084613-.69761744.94-.73.5-.04 1.01-.06 1.53-.06s1.03.02 1.53.06c.4315387.03238256.8017844.31991372.94.73l1 2.82c1.0963758.19676923 2.1737114.48785057 3.22.87l2.28-1.95c.3264083-.28218804.7872106-.34857481 1.18-.17.45.22.9.46 1.35.72s.88.53 1.3.82c.3503171.24816048.5225328.67869955.44 1.1l-.54 2.94c.8503236.7203243 1.6396757 1.5096764 2.36 2.36l2.94-.54c.4213004-.0825328.8518395.0896829 1.1.44.29.42.56.85.82 1.3s.5.9.72 1.35c.1785748.3927894.112188.8535917-.17 1.18l-1.95 2.28c.3821494 1.0462886.6732308 2.1236242.87 3.22l2.82 1c.4100863.1382156.6976174.5084613.73.94.04.5.06 1.01.06 1.53z" fill="#ffdc00"/><g fill="#fec108"><path id="Shape" d="m34.53 2.06c.4315387.03238256.8017844.31991372.94.73l1 2.82c1.0963758.19676923 2.1737114.48785057 3.22.87l.76-.65c-.326-.076-.648-.16-.98-.22l-1-2.82c-.1382156-.41008628-.5084613-.69761744-.94-.73-1.0084537-.07903929-2.0215463-.07903929-3.03 0z"/><path id="Shape" d="m44.5 5.08c.45.26.88.53 1.3.82.3503171.24816048.5225328.67869955.44 1.1l-.54 2.94c.8503236.7203243 1.6396757 1.5096764 2.36 2.36l2.566-.471c-.5991893-.6718811-1.2426238-1.3029547-1.926-1.889l.54-2.94c.0825328-.42130045-.0896829-.85183952-.44-1.1-.8448327-.57689577-1.730502-1.09158663-2.65-1.54-.3927894-.17857481-.8535917-.11218804-1.18.17l-.577.493c.036.02.071.036.107.057z"/><path id="Shape" d="m58.94 23.47c-.0323826-.4315387-.3199137-.8017844-.73-.94l-2.82-1c-.1967692-1.0963758-.4878506-2.1737114-.87-3.22l1.95-2.28c.282188-.3264083.3485748-.7872106.17-1.18-.4485223-.9194398-.9632086-1.8051014-1.54-2.65-.2481605-.3503171-.6786996-.5225328-1.1-.44l-1.973.362c.023.028.053.048.073.078.5769436.8448025 1.0916365 1.7304754 1.54 2.65.1785748.3927894.112188.8535917-.17 1.18l-1.95 2.28c.3821494 1.0462886.6732308 2.1236242.87 3.22l2.82 1c.4100863.1382156.6976174.5084613.73.94.0800021 1.0184313.0800021 2.0415687 0 3.06-.0323826.4315387-.3199137.8017844-.73.94l-2.82 1c-.1967692 1.0963758-.4878506 2.1737114-.87 3.22l1.95 2.28c.282188.3264083.3485748.7872106.17 1.18-.4481913.9196164-.9628914 1.8053016-1.54 2.65-.02.03-.05.05-.073.078l1.973.362c.4213004.0825328.8518395-.0896829 1.1-.44.5768958-.8448327 1.0915866-1.730502 1.54-2.65.1785748-.3927894.112188-.8535917-.17-1.18l-1.95-2.28c.3821494-1.0462886.6732308-2.1236242.87-3.22l2.82-1c.4100863-.1382156.6976174-.5084613.73-.94.0800021-1.0184313.0800021-2.0415687 0-3.06z"/><path id="Shape" d="m50.626 38.171-2.566-.471c-.7203243.8503236-1.5096764 1.6396757-2.36 2.36l.54 2.94c.0825328.4213004-.0896829.8518395-.44 1.1-.42.29-.85.56-1.3.82l-.107.057.577.493c.3264083.282188.7872106.3485748 1.18.17.9196298-.4481662 1.8053168-.9628673 2.65-1.54.3503171-.2481605.5225328-.6786996.44-1.1l-.54-2.94c.6833762-.5860453 1.3268107-1.2171189 1.926-1.889z"/></g><circle id="Oval" cx="7" cy="54" fill="#9d27b0" r="2"/><circle id="Oval" cx="15" cy="54" fill="#9d27b0" r="2"/><path id="Shape" d="m30.094 54.811 4.306-2.731c.3725043-.2261003.599966-.6302468.599966-1.066s-.2274617-.8398997-.599966-1.066l-4.306-2.731c-.4057061-.267874-.9240529-.2971082-1.357306-.0765505s-.714592.6568907-.736694 1.1425505v5.462c.0214795.4859588.3027333.9227859.7362277 1.1434664.4334944.2206806.9521906.1910869 1.3577723-.0774664z" fill="#f5f5f5"/><path id="Shape" d="m52 25c0 8.836556-7.163444 16-16 16h-5v-18c0-.5522847-.4477153-1-1-1h-9.72c1.5385988-8.1160018 9.0026742-13.72657311 17.2265304-12.94878091 8.2238561.77779219 14.5037249 7.68823211 14.4934696 15.94878091z" fill="#ffeb3a"/><path id="Shape" d="m36 9c-.514 0-1.021.027-1.522.075 8.4827252.82343937 14.8311274 8.1516082 14.4369874 16.6650876-.3941401 8.5134795-7.392466 15.223748-15.9149874 15.2599124h3c8.836556 0 16-7.163444 16-16s-7.163444-16-16-16z" fill="#fdd834"/><path id="Shape" d="m46 25c-.0000908 3.5726105-1.9061158 6.8737976-5.00011 8.6600635-3.0939942 1.786266-6.9059185 1.7862418-9.99989-.0000635v-10.66c0-.5522847-.4477153-1-1-1h-3.54c1.4803279-4.7104802 6.1771061-7.6354165 11.057531-6.8861189 4.880425.7492976 8.4834242 4.9485088 8.482469 9.8861189z" fill="#ff9801"/><path id="Shape" d="m36 15c-.5116346.0013132-1.0224328.0414282-1.528.12 4.8941133.7239778 8.5205304 4.9220099 8.5255389 9.8693793.0050084 4.9473694-3.6129014 9.1527353-8.5055389 9.8866207.4987561.0798356 1.002902.1212906 1.508.124 5.5228475 0 10-4.4771525 10-10s-4.4771525-10-10-10z" fill="#f57c00"/><path id="Shape" d="m31 34.4v6.6h-4l-4.64-5.8 3.86-4.82c.186951-.2411121.4749005-.3822116.78-.3822116s.593049.1410995.78.3822116z" fill="#607d8b"/><path id="Shape" d="m27.78 30.38c-.186951-.2411121-.4749005-.3822116-.78-.3822116s-.593049.1410995-.78.3822116l-.72.9 2.5 3.12v6.6h3v-6.6z" fill="#37474f"/><path id="Shape" d="m27 41h-16l7.22-9.02c.1897968-.2365713.4767035-.3742205.78-.3742205s.5902032.1376492.78.3742205l2.58 3.22z" fill="#7f8e94"/><path id="Shape" d="m17 22c0 3.3137085-2.6862915 6-6 6v-5c0-.5522847.4477153-1 1-1z" fill="#ffdc00"/><path id="Shape" d="m58.544 21.588-2.281-.809c-.1602363-.7614837-.3632243-1.5133404-.608-2.252l1.575-1.843c.5397369-.627688.6603521-1.5138965.308-2.263-.23-.48-.481-.9536667-.753-1.421-.27-.469-.555-.925-.855-1.363-.4713705-.6807317-1.2995947-1.0197823-2.113-.865l-2.38.442c-.5199247-.5799243-1.0710757-1.1310753-1.651-1.651l.442-2.379c.1560097-.81381245-.1832639-1.64297379-.865-2.114-.438-.3-.894-.585-1.363-.855s-.941-.523-1.423-.754c-.7483959-.35358528-1.6349212-.23242813-2.261.309l-1.844 1.576c-.7382199-.24511138-1.489763-.4481048-2.251-.608l-.809-2.281c-.2694794-.78218513-.9755487-1.33135013-1.8-1.4-1.0698398-.08000152-2.1441602-.08000152-3.214 0-.8243533.06890099-1.5303013.61797168-1.8 1.4l-.809 2.282c-.761237.1598952-1.5127801.36288862-2.251.608l-1.854-1.577c-.627688-.5397369-1.5138965-.66035211-2.263-.308-.48.23-.9536667.481-1.421.753-.469.27-.925.555-1.363.855-.68157.47069651-1.0208526 1.29948735-.865 2.113l.442 2.38c-.5799243.5199247-1.1310753 1.0710757-1.651 1.651l-2.379-.442c-.8138124-.1560097-1.6429738.1832639-2.114.865-.3.438-.585.894-.855 1.363s-.523.941-.754 1.423c-.3512071.7487604-.230235 1.633932.309 2.261l1.575 1.843c-.2447757.7386596-.4477637 1.4905163-.608 2.252l-.622.221h-3.115c-1.1045695 0-2 .8954305-2 2v17h-8c-1.1045695 0-2 .8954305-2 2v17c0 1.1045695.8954305 2 2 2h38c1.1045695 0 2-.8954305 2-2v-14.2c.158-.049.318-.092.474-.144l1.842 1.574c.3825945.3275097.869373.5079687 1.373.509.30787.0005448.6119624-.0677906.89-.2.48-.23.9536667-.481 1.421-.753.469-.27.925-.555 1.363-.855.68157-.4706965 1.0208526-1.2994873.865-2.113l-.442-2.379c.5807437-.519745 1.132255-1.0712563 1.652-1.652l2.378.442c.813866.1565469 1.6433122-.1828433 2.114-.865.3-.438.585-.894.855-1.363s.523-.941.754-1.423c.3512071-.7487604.230235-1.633932-.309-2.261l-1.575-1.843c.2443024-.7388832.4476119-1.4906946.609-2.252l2.279-.809c.7821851-.2694794 1.3313501-.9755487 1.4-1.8.038-.5346667.057-1.0723333.057-1.613s-.0196667-1.0763333-.059-1.607c-.0665126-.8254669-.6145886-1.533611-1.397-1.805zm-22.544 18.412h-4v-4.766c4.1423984 1.6184686 8.8518661.5818229 11.9318102-2.6264242 3.079944-3.2082471 3.9236248-7.9560808 2.137532-12.0290131-1.7860927-4.0729323-5.850104-6.6686081-10.2964951-6.5763506-4.446391.0922576-8.3992363 2.8542741-10.0148471 6.9977879h-4.214c2.0698879-7.4810054 9.5051782-12.14716689 17.1418877-10.757726 7.6367095 1.3894409 12.9519731 8.3754681 12.2542159 16.1061222s-7.1780241 13.6520345-14.9401036 13.6516038zm-15 0h-7.919l5.919-7.4 5.919 7.4zm6.481 0-3.84-4.8 3.359-4.195 3 3.746v5.249zm2.519-19h-2.061c1.6092396-3.2876633 5.0439967-5.2786261 8.6966575-5.0410324 3.6526608.2375938 6.8005548 2.6567368 7.9703324 6.1251662s.1300009 7.2999244-2.6326698 9.7011808c-2.7626708 2.4012564-6.7016476 2.8971911-9.9733201 1.2556854v-10.041c0-.530433-.2107137-1.0391408-.5857864-1.4142136-.3750728-.3750727-.8837806-.5857864-1.4142136-.5857864zm0 2v8.552l-1.434-1.79c-.3888517-.4595565-.9598881-.7251812-1.5618815-.7265289-.6019933-.0013476-1.1742132.261718-1.5651185.7195289l-3.078 3.845-1.8-2.247c-.3917126-.4548789-.9622055-.7164749-1.5625-.7164749s-1.1707874.261596-1.5625.7164749l-5.436 6.795v-9.228c3.0659953-.445776 5.474224-2.8540047 5.92-5.92zm-14.1 0c-.404488 1.9621984-1.9378016 3.495512-3.9 3.9v-3.9zm-13.9 19h18v17h-18zm38 17h-18v-17h18zm17.876-32.473-2.819 1c-.3391684.1199534-.5877641.4128457-.651.767-.1871664 1.0392881-.4628367 2.0606734-.824 3.053-.1224908.33835-.0537506.7164212.18.99l1.947 2.279c.0265501.025927.0365594.0644245.026.1-.2086667.434-.436.8633333-.682 1.288-.245.424-.5.837-.774 1.234l-.1.027-2.943-.545c-.352825-.0650062-.7134371.0639746-.945.338-.6836278.8074585-1.4328467 1.5570118-2.24 2.241-.2743712.2317568-.4033874.5928496-.338.946l.545 2.942-.027.1c-.4.272-.81.529-1.234.774s-.854.473-1.286.681c-.0353914.0108116-.0738601.0011944-.1-.025l-2.278-1.946c-.2735788-.2337506-.65165-.3024908-.99-.18-.114.041-.232.071-.347.111v-.702c-.0019763-.3561001-.1000983-.7050552-.284-1.01 7.6531695-2.7293496 12.3023792-10.4956631 11.093031-18.5304518-1.2093481-8.0347887-7.9386612-14.08847527-16.0561652-14.44411786s-15.3504628 5.08633146-17.2578658 12.98456966h-1.739c.1708778-.7956184.3933478-1.5792741.666-2.346.1224908-.33835.0537506-.7164212-.18-.99l-1.947-2.279c-.0265501-.025927-.0365594-.0644245-.026-.1.2086667-.434.436-.8633333.682-1.288.245-.424.5-.837.774-1.234l.1-.027 2.944.546c.3536613.0655323.7152707-.0639139.947-.339.6821912-.8071907 1.4308093-1.5558088 2.238-2.238.2750861-.2317293.4045323-.5933387.339-.947l-.546-2.944.027-.1c.4-.272.81-.529 1.234-.774s.854-.473 1.286-.681c.0354161-.0091376.0730505.000271.1.025l2.28 1.947c.2733607.23337931.6509414.30209976.989.18.9913285-.35574985 2.0109598-.62704938 3.048-.811.3541543-.06323593.6470466-.31183157.767-.651l1.069-2.891c.992955-.11892358 1.9978247-.09501414 2.984.071l1 2.82c.1199534.33916843.4128457.58776407.767.651 1.0390914.18758286 2.0604137.46290165 3.053.823.3380586.12209976.7156393.05337931.989-.18l2.28-1.947c.025927-.02655008.0644245-.03655944.1-.026.434.20933333.8633333.43666667 1.288.682.424.245.837.5 1.234.774l.027.1-.546 2.944c-.0655323.3536613.0639139.7152707.339.947.8071907.6821912 1.5558088 1.4308093 2.238 2.238.2317293.2750861.5933387.4045323.947.339l2.944-.546.1.027c.272.4.529.81.774 1.234s.473.854.681 1.286c.0108116.0353914.0011944.0738601-.025.1l-1.947 2.279c-.2337506.2735788-.3024908.65165-.18.99.3611307.9923369.6368003 2.0137194.824 3.053.0632359.3541543.3118316.6470466.651.767l2.89 1.069c.036.48.053.967.053 1.457.0062306.508786-.0379856 1.0169367-.132 1.517z" fill="#000"/><path id="Shape" d="m17.231 44.425c-.4830622-.383332-1.1178773-.5180683-1.715-.364l-6 1.5c-.89029481.2220513-1.51528767 1.021432-1.516 1.939v3.683c-.32031733-.1180967-.65861889-.1800059-1-.183-1.65685425 0-3 1.3431458-3 3s1.34314575 3 3 3 3-1.3431458 3-3v-6.5l6-1.5v5.183c-.3203173-.1180967-.6586189-.1800059-1-.183-1.6568542 0-3 1.3431458-3 3s1.3431458 3 3 3 3-1.3431458 3-3v-8c.0015732-.6157983-.2824577-1.1975261-.769-1.575zm-10.231 10.575c-.55228475 0-1-.4477153-1-1s.44771525-1 1-1 1 .4477153 1 1-.44771525 1-1 1zm8 0c-.5522847 0-1-.4477153-1-1s.4477153-1 1-1 1 .4477153 1 1-.4477153 1-1 1z" fill="#000"/><path id="Shape" d="m34.936 49.1-4.306-2.73c-.7387454-.4679784-1.6735622-.4970956-2.44-.076-.7350298.3908028-1.1931646 1.1565424-1.19 1.989v5.462c-.0012335.8308999.4565617 1.5945331 1.19 1.985.7658195.4213042 1.7001306.3929569 2.439-.074l4.307-2.731c.6616118-.4096046 1.0642072-1.1323573 1.0642072-1.9105s-.4025954-1.5008954-1.0642072-1.9105zm-1.071 2.131-4.306 2.732c-.1221435.0796841-.2787112.0839366-.405.011-.0897098-.0420067-.1489327-.1300721-.154-.229v-5.462c.0033362-.0999449.0624452-.1895742.153-.232.0615228-.033023.1301763-.0505296.2-.051.0739534.0005323.1461799.0224086.208.063l4.306 2.73c.0831261.0423266.13547.1277183.13547.221s-.0523439.1786734-.13547.221z" fill="#000"/></g></g></svg>