<?xml version="1.0"?>
<svg xmlns="http://www.w3.org/2000/svg" viewBox="0 0 64 64" width="512" height="512"><g id="support"><path d="M37,45V59a2.006,2.006,0,0,1-2,2H5a2.006,2.006,0,0,1-2-2V45a4,4,0,0,1,4-4h6l7,4,7-4h6A4,4,0,0,1,37,45Z" style="fill:#00d7df"/><path d="M37,45V59a2.006,2.006,0,0,1-2,2H5a2.006,2.006,0,0,1-2-2H23A12.035,12.035,0,0,0,35,47V43a3.931,3.931,0,0,0-.36-1.64A3.988,3.988,0,0,1,37,45Z" style="fill:#00b6bd"/><path d="M61,44A14.99,14.99,0,0,1,37,55.99c-.14-.1-.29-.22-.43-.33L33,57l.92-4.14A14.992,14.992,0,1,1,61,44Z" style="fill:#ff7956"/><path d="M61,44A14.99,14.99,0,0,1,37,55.99c-.14-.1-.29-.22-.43-.33L33,57l.92-4.14c-.1-.14-.2-.28-.28-.42A14.853,14.853,0,0,0,42,55,15.007,15.007,0,0,0,54.42,31.58,15.016,15.016,0,0,1,61,44Z" style="fill:#ff6243"/><path d="M51.61,36.84a6.042,6.042,0,0,1-2.53,7.31A2.094,2.094,0,0,0,48,45.92V46a2,2,0,0,1-4,0v-.08a6.054,6.054,0,0,1,3.02-5.2,2.022,2.022,0,0,0,.94-2.16,1.961,1.961,0,0,0-1.42-1.49A1.995,1.995,0,0,0,44,39H40a5.943,5.943,0,0,1,2.26-4.69,6.063,6.063,0,0,1,5.66-1.01A5.869,5.869,0,0,1,51.61,36.84Z" style="fill:#e0e0e2"/><circle cx="46" cy="53" r="2" style="fill:#e0e0e2"/><path d="M32,23v1a2.006,2.006,0,0,1-2,2H29V21h1A2.006,2.006,0,0,1,32,23Z" style="fill:#ffb655"/><path d="M32,7v7a5.985,5.985,0,0,1-3,5.19V18l-5.64-1.54A5.463,5.463,0,0,1,22,18c-2,1.55-4.85,1.47-5,1-.07-.22.48-.44,1-1a5.27,5.27,0,0,0,1-3H18l-7,3v2a3,3,0,0,1-3-3V15a8,8,0,0,1,8-8Z" style="fill:#ffde55"/><path d="M28.06,30A9,9,0,0,1,23,34.48a8.914,8.914,0,0,1-6,0A8.981,8.981,0,0,1,11,26V18l7-3h1a5.27,5.27,0,0,1-1,3c-.52.56-1.07.78-1,1,.15.47,3,.55,5-1a5.463,5.463,0,0,0,1.36-1.54L29,18v8A8.956,8.956,0,0,1,28.06,30Z" style="fill:#ffdaaa"/><path d="M29,18v8a9,9,0,0,1-6,8.48,8.914,8.914,0,0,1-6,0,9.044,9.044,0,0,1-4.31-3.23A8.991,8.991,0,0,0,15,32.48a8.914,8.914,0,0,0,6,0A9,9,0,0,0,27,24V17.45Z" style="fill:#ffc477"/><path d="M27,41l-7,4-7-4,4-3V34.48a8.914,8.914,0,0,0,6,0V38Z" style="fill:#ffdaaa"/><path d="M32,7v7a5.985,5.985,0,0,1-3,5.19V18l-.43-.12A5.957,5.957,0,0,0,30,14V7Z" style="fill:#ffcd00"/><path d="M27,41l-7,4-1-.57L25,41l-4-3V34.94a8.431,8.431,0,0,0,2-.46V38Z" style="fill:#ffc477"/><polygon points="13 49 13 55 10 57 7 55 7 49 13 49" style="fill:#57a4ff"/><path d="M11,21v5H10a2.006,2.006,0,0,1-2-2V23a2.006,2.006,0,0,1,2-2Z" style="fill:#ffb655"/><path d="M13,48H7a1,1,0,0,0-1,1v6a1,1,0,0,0,.445.832l3,2a1,1,0,0,0,1.11,0l3-2A1,1,0,0,0,14,55V49A1,1,0,0,0,13,48Zm-1,6.465L10,55.8,8,54.465V50h4Z"/><path d="M48.219,32.348a7.092,7.092,0,0,0-6.582,1.178A6.964,6.964,0,0,0,39,39a1,1,0,0,0,1,1h4a1,1,0,0,0,1-1,1,1,0,0,1,.377-.783,1.014,1.014,0,0,1,.92-.179.957.957,0,0,1,.678.723,1.015,1.015,0,0,1-.464,1.1A7.076,7.076,0,0,0,43,46a3,3,0,1,0,6-.077,1.105,1.105,0,0,1,.592-.914A7.074,7.074,0,0,0,52.553,36.5,6.864,6.864,0,0,0,48.219,32.348Zm.346,10.945A3.109,3.109,0,0,0,47,46a1,1,0,0,1-1,1,1.021,1.021,0,0,1-1-1.077,5.06,5.06,0,0,1,2.538-4.346,3.007,3.007,0,0,0,1.4-3.212A2.943,2.943,0,0,0,46.782,36.1a3.221,3.221,0,0,0-.791-.1,3.008,3.008,0,0,0-2.821,2H41.1a4.977,4.977,0,0,1,1.784-2.911,5.082,5.082,0,0,1,4.728-.835,4.85,4.85,0,0,1,3.063,2.931A5.071,5.071,0,0,1,48.565,43.293Z"/><path d="M46,50a3,3,0,1,0,3,3A3,3,0,0,0,46,50Zm0,4a1,1,0,1,1,1-1A1,1,0,0,1,46,54Z"/><path d="M46,28A16.005,16.005,0,0,0,30.53,40h-3.2L24,37.5V35.16A10.1,10.1,0,0,0,28.65,31H32a5,5,0,0,0,5-5V7a5,5,0,0,0-5-5H8A5,5,0,0,0,3,7V23a1,1,0,0,0,1,1H7a3.009,3.009,0,0,0,3,3h.05A10.024,10.024,0,0,0,16,35.16V37.5L12.67,40H7a5,5,0,0,0-5,5V59a3.009,3.009,0,0,0,3,3H35a3.009,3.009,0,0,0,3-3V57.84A15.994,15.994,0,1,0,46,28ZM35,26a3.009,3.009,0,0,1-3,3H29.54a10.137,10.137,0,0,0,.41-2H30a3.009,3.009,0,0,0,3-3h2Zm-5-1V22a1,1,0,0,1,1,1v1A1,1,0,0,1,30,25ZM7.18,22H5V7A3.009,3.009,0,0,1,8,4H32a3.009,3.009,0,0,1,3,3V22H32.82A3.01,3.01,0,0,0,30,20v-.28A7,7,0,0,0,33,14V7a1,1,0,0,0-1-1H16a9.014,9.014,0,0,0-9,9v2a4.008,4.008,0,0,0,1.73,3.29A3,3,0,0,0,7.18,22ZM10,25a1,1,0,0,1-1-1V23a1,1,0,0,1,1-1Zm0-7v.72A1.988,1.988,0,0,1,9,17V15a7.008,7.008,0,0,1,7-7H31v6a4.971,4.971,0,0,1-1.28,3.32.942.942,0,0,0-.46-.28L23.62,15.5a.983.983,0,0,0-1.11.44,4.485,4.485,0,0,1-1.12,1.27,5.479,5.479,0,0,1-2.28.99A7.362,7.362,0,0,0,20,15.09,1,1,0,0,0,19,14H18a1.006,1.006,0,0,0-.39.08l-7,3A1,1,0,0,0,10,18Zm2,8V18.66l5.8-2.48a2.94,2.94,0,0,1-.53,1.14,5.038,5.038,0,0,1-.52.45,1.4,1.4,0,0,0-.7,1.53,1.332,1.332,0,0,0,.95.86,7.2,7.2,0,0,0,5.6-1.36,6.049,6.049,0,0,0,1.18-1.19L28,18.76V26a7.9,7.9,0,0,1-.59,3H20v2h6.24A8,8,0,0,1,12,26Zm5.6,12.8A1.014,1.014,0,0,0,18,38V35.8a10.1,10.1,0,0,0,4,0V38a1.014,1.014,0,0,0,.4.8l2.78,2.09L20,43.85l-5.18-2.96ZM36,59a1,1,0,0,1-1,1H5a1,1,0,0,1-1-1V45a3.009,3.009,0,0,1,3-3h5.73l6.77,3.87a1.044,1.044,0,0,0,1,0L27.27,42h2.87A16.515,16.515,0,0,0,30,44a15.81,15.81,0,0,0,2.85,9.08l-.83,3.7a1.008,1.008,0,0,0,1.33,1.16l2.65-1Zm10-1a13.838,13.838,0,0,1-8.8-3.12,1.026,1.026,0,0,0-.63-.22,1.073,1.073,0,0,0-.35.06l-1.84.7.52-2.34a.982.982,0,0,0-.18-.81A13.868,13.868,0,0,1,32,44,14,14,0,1,1,46,58Z"/></g></svg>
