<svg width="50" height="50" viewBox="0 0 50 50" fill="none" xmlns="http://www.w3.org/2000/svg">
<g clip-path="url(#clip0)">
<path d="M41.6552 27.728L34.1895 16.0246C35.2473 15.4687 35.9709 14.3594 35.9709 13.0838C35.9709 11.6875 35.1042 10.4905 33.8807 10.0006L36.1424 2.09344C36.24 1.75231 36.1448 1.3852 35.894 1.1343C34.3896 -0.370085 31.9418 -0.370085 30.4373 1.1343C30.0774 1.49419 29.5989 1.69234 29.09 1.69234C28.5811 1.69234 28.1027 1.49419 27.7405 1.13196L27.7357 1.12717C26.2366 -0.372136 23.793 -0.376336 22.2878 1.11829L22.2598 1.14622C21.5169 1.88386 20.3103 1.88171 19.5701 1.14143L19.563 1.1343C18.0585 -0.370085 15.6107 -0.370085 14.1062 1.1343C13.8552 1.38539 13.7602 1.7528 13.8579 2.09413L16.1245 9.99871C14.8984 10.4874 14.0293 11.6856 14.0293 13.0839C14.0293 14.3595 14.7528 15.4688 15.8107 16.0247L8.34491 27.728C5.45665 32.2556 5.27364 37.7702 7.85533 42.4794C10.437 47.1886 15.1846 50.0001 20.5551 50.0001H29.4449C34.8154 50.0001 39.5629 47.1886 42.1447 42.4794C44.7264 37.7702 44.5435 32.2556 41.6552 27.728ZM18.1817 2.51544L18.1889 2.52257C19.6882 4.02178 22.1317 4.02588 23.6368 2.53146L23.6648 2.50353C24.4076 1.76588 25.6142 1.76803 26.3567 2.51056L26.3615 2.51534C27.866 4.01973 30.3138 4.01973 31.8183 2.51534C32.4305 1.9032 33.3589 1.79548 34.0824 2.19218L31.917 9.76324H18.0891L15.918 2.19208C16.6415 1.79548 17.5697 1.90339 18.1817 2.51544ZM40.432 41.5405C38.1985 45.6145 34.0912 48.0469 29.445 48.0469H20.5552C15.909 48.0469 11.8018 45.6146 9.56823 41.5405C7.3347 37.4664 7.49301 32.6956 9.99169 28.7785L17.8852 16.4043H20.6053C21.1447 16.4043 21.5819 15.967 21.5819 15.4276C21.5819 14.8883 21.1447 14.451 20.6053 14.451H17.3499C16.5959 14.451 15.9826 13.8377 15.9826 13.0838C15.9826 12.3298 16.5959 11.7165 17.3499 11.7165H17.3531H32.6503C33.4042 11.7165 34.0176 12.3298 34.0176 13.0838C34.0176 13.8377 33.4042 14.451 32.6503 14.451H29.3949C28.8555 14.451 28.4183 14.8883 28.4183 15.4276C28.4183 15.967 28.8555 16.4043 29.3949 16.4043H32.1149L40.0085 28.7785C42.5072 32.6955 42.6655 37.4663 40.432 41.5405Z" fill="black"/>
<path d="M26.7219 31.8944C26.4769 31.8078 26.2268 31.7176 25.9768 31.624V27.1977C26.6389 27.3926 27.0811 27.7085 27.0999 27.7222C27.5295 28.044 28.139 27.9586 28.4636 27.5302C28.7893 27.1003 28.7049 26.4877 28.2749 26.1619C28.2176 26.1185 27.3096 25.4444 25.9768 25.1892V24.2173C25.9768 23.6779 25.5395 23.2407 25.0001 23.2407C24.4608 23.2407 24.0235 23.6779 24.0235 24.2173V25.1822C23.8581 25.2139 23.6904 25.2541 23.5205 25.3051C22.146 25.7182 21.1186 26.8936 20.8391 28.3728C20.5841 29.7235 21.0169 31.0262 21.9685 31.7725C22.4849 32.1775 23.1302 32.5474 24.0235 32.9402V38.6042C23.2544 38.5555 22.7399 38.3805 21.8823 37.8195C21.431 37.524 20.8256 37.6507 20.5303 38.1021C20.235 38.5535 20.3616 39.1587 20.813 39.454C22.0636 40.2722 22.9105 40.5039 24.0235 40.5587V41.5686C24.0235 42.108 24.4608 42.5452 25.0001 42.5452C25.5395 42.5452 25.9768 42.108 25.9768 41.5686V40.4572C28.0681 39.9992 29.2912 38.2541 29.5657 36.6215C29.9244 34.4872 28.8082 32.6318 26.7219 31.8944ZM23.174 30.2355C22.7985 29.9411 22.6394 29.3661 22.7585 28.7351C22.8681 28.1548 23.2585 27.4551 24.0235 27.1962V30.7729C23.7024 30.6017 23.4126 30.4227 23.174 30.2355ZM27.6394 36.2976C27.4987 37.1341 26.9341 38.0212 25.9767 38.4133V33.7021C26.0085 33.7135 26.0387 33.7245 26.0709 33.7359C27.8219 34.3548 27.7142 35.8531 27.6394 36.2976Z" fill="black"/>
<path d="M25.0001 16.4042C25.2569 16.4042 25.5089 16.2997 25.6905 16.1181C25.8722 15.9364 25.9767 15.6845 25.9767 15.4276C25.9767 15.1708 25.8722 14.9188 25.6905 14.7371C25.5089 14.5555 25.2569 14.451 25.0001 14.451C24.7432 14.451 24.4912 14.5555 24.3096 14.7371C24.1279 14.9188 24.0234 15.1708 24.0234 15.4276C24.0234 15.6845 24.1279 15.9364 24.3096 16.1181C24.4912 16.2997 24.7431 16.4042 25.0001 16.4042Z" fill="black"/>
</g>
<defs>
<clipPath id="clip0">
<rect width="50" height="50" fill="white"/>
</clipPath>
</defs>
</svg>
