<svg width="50" height="50" viewBox="0 0 50 50" fill="none" xmlns="http://www.w3.org/2000/svg">
<path d="M33.3749 4.16669H33.3541C32.7791 4.16669 32.3229 4.63339 32.3229 5.20839C32.3229 5.78339 32.7999 6.24999 33.3749 6.24999C33.9499 6.24999 34.4166 5.78329 34.4166 5.20829C34.4166 4.63329 33.9499 4.16669 33.3749 4.16669Z" fill="black"/>
<path d="M25 45.8333C26.15 45.8333 27.0833 44.9 27.0833 43.75C27.0833 42.6 26.15 41.6667 25 41.6667C23.85 41.6667 22.9167 42.6 22.9167 43.75C22.9167 44.9 23.85 45.8333 25 45.8333Z" fill="black"/>
<path d="M27.0833 4.16669H22.9166C22.3416 4.16669 21.8749 4.63339 21.8749 5.20839C21.8749 5.78339 22.3417 6.24999 22.9167 6.24999H27.0834C27.6583 6.24999 28.125 5.78329 28.125 5.20829C28.125 4.63329 27.6583 4.16669 27.0833 4.16669Z" fill="black"/>
<path d="M35.4167 0H14.5833C11.7125 0 9.375 2.3375 9.375 5.2083V44.7916C9.375 47.6625 11.7125 50 14.5833 50H35.4166C38.2875 50 40.625 47.6625 40.625 44.7917V5.2083C40.625 2.3375 38.2875 0 35.4167 0ZM38.5417 44.7917C38.5417 46.5146 37.1396 47.9167 35.4167 47.9167H14.5833C12.8604 47.9167 11.4583 46.5146 11.4583 44.7917V39.5834H38.5416V44.7917H38.5417ZM38.5417 37.5H11.4583V10.4167H38.5416V37.5H38.5417ZM38.5417 8.3333H11.4583V5.2083C11.4583 3.48535 12.8604 2.0833 14.5833 2.0833H35.4166C37.1395 2.0833 38.5416 3.48535 38.5416 5.2083V8.3333H38.5417Z" fill="black"/>
</svg>
