<svg width="50" height="50" viewBox="0 0 50 50" fill="none" xmlns="http://www.w3.org/2000/svg">
<g clip-path="url(#clip0)">
<path d="M48.9583 50H1.04167C0.466667 50 0 49.5334 0 48.9584C0 48.3834 0.466667 47.9167 1.04167 47.9167H48.9583C49.5333 47.9167 50 48.3834 50 48.9584C50 49.5334 49.5333 50 48.9583 50Z" fill="black"/>
<path d="M13.5416 50H3.12492C2.54992 50 2.08325 49.5334 2.08325 48.9584V37.5C2.08325 36.3521 3.01659 35.4167 4.16659 35.4167H12.4999C13.6499 35.4167 14.5833 36.3521 14.5833 37.5V48.9584C14.5833 49.5334 14.1166 50 13.5416 50ZM4.16659 47.9167H12.4999V37.5H4.16659V47.9167Z" fill="black"/>
<path d="M30.2083 50H19.7917C19.2167 50 18.75 49.5333 18.75 48.9583V25C18.75 23.852 19.6833 22.9166 20.8333 22.9166H29.1667C30.3167 22.9166 31.25 23.852 31.25 25V48.9583C31.25 49.5333 30.7833 50 30.2083 50ZM20.8333 47.9167H29.1667V25H20.8333V47.9167Z" fill="black"/>
<path d="M46.8751 50H36.4584C35.8834 50 35.4167 49.5333 35.4167 48.9583V29.1666C35.4167 28.0187 36.3501 27.0833 37.5001 27.0833H45.8334C46.9834 27.0833 47.9167 28.0187 47.9167 29.1666V48.9583C47.9167 49.5333 47.4501 50 46.8751 50ZM37.5001 47.9166H45.8334V29.1666H37.5001V47.9166Z" fill="black"/>
<path d="M5.20833 22.9167C4.94166 22.9167 4.67499 22.8146 4.47083 22.6125C4.06458 22.2063 4.06458 21.5458 4.47083 21.1396L14.8875 10.7229C15.1458 10.4646 15.5187 10.3563 15.8771 10.4479L31.9729 14.4708L44.0562 2.38751C44.4625 1.98126 45.1229 1.98126 45.5292 2.38751C45.9354 2.79376 45.9354 3.45418 45.5292 3.86043L33.0292 16.3604C32.7729 16.6188 32.3979 16.7229 32.0396 16.6333L15.9437 12.6125L5.94374 22.6125C5.74166 22.8146 5.47499 22.9167 5.20833 22.9167Z" fill="black"/>
<path d="M44.7917 12.4999C44.2167 12.4999 43.7501 12.0333 43.7501 11.4583V4.16659H36.4584C35.8834 4.16659 35.4167 3.69992 35.4167 3.12492C35.4167 2.54992 35.8834 2.08325 36.4584 2.08325H44.7917C45.3667 2.08325 45.8334 2.54992 45.8334 3.12492V11.4583C45.8334 12.0333 45.3667 12.4999 44.7917 12.4999Z" fill="black"/>
</g>
<defs>
<clipPath id="clip0">
<rect width="50" height="50" fill="white"/>
</clipPath>
</defs>
</svg>
