<svg width="50" height="50" viewBox="0 0 50 50" fill="none" xmlns="http://www.w3.org/2000/svg">
<path d="M44.5956 24.6625H9.90952V23.1488C9.90952 22.9934 9.84779 22.8444 9.7379 22.7345C9.62802 22.6246 9.47898 22.5629 9.32358 22.5629C9.16818 22.5629 9.01915 22.6246 8.90926 22.7345C8.79938 22.8444 8.73765 22.9934 8.73765 23.1488V24.6625H5.40454C5.24914 24.6625 5.10011 24.7242 4.99022 24.8341C4.88034 24.944 4.8186 25.093 4.8186 25.2484C4.8186 25.4038 4.88034 25.5528 4.99022 25.6627C5.10011 25.7726 5.24914 25.8344 5.40454 25.8344H8.73765V27.348C8.73765 27.5034 8.79938 27.6525 8.90926 27.7623C9.01915 27.8722 9.16818 27.934 9.32358 27.934C9.47898 27.934 9.62802 27.8722 9.7379 27.7623C9.84779 27.6525 9.90952 27.5034 9.90952 27.348V25.8344H44.5956C44.751 25.8344 44.9 25.7726 45.0099 25.6627C45.1198 25.5528 45.1815 25.4038 45.1815 25.2484C45.1815 25.093 45.1198 24.944 45.0099 24.8341C44.9 24.7242 44.751 24.6625 44.5956 24.6625Z" fill="black"/>
<path d="M21.8515 19.7546C21.9769 19.8266 22.1189 19.8646 22.2635 19.8646C22.4081 19.8646 22.5501 19.8266 22.6755 19.7546L25.0778 18.3678C25.2124 18.2901 25.3106 18.1622 25.3508 18.012C25.3911 17.8619 25.37 17.702 25.2923 17.5674C25.2146 17.4328 25.0866 17.3346 24.9365 17.2944C24.7864 17.2541 24.6265 17.2752 24.4919 17.3529L22.6113 18.4386V10.1647L29.7765 14.3014L28.9782 14.7624C28.911 14.8006 28.8521 14.8517 28.8047 14.9127C28.7574 14.9738 28.7226 15.0436 28.7023 15.1182C28.6821 15.1928 28.6768 15.2706 28.6868 15.3473C28.6967 15.4239 28.7217 15.4978 28.7604 15.5647C28.799 15.6316 28.8505 15.6902 28.9119 15.7372C28.9733 15.7841 29.0433 15.8185 29.118 15.8382C29.1928 15.858 29.2706 15.8627 29.3472 15.8523C29.4238 15.8418 29.4975 15.8163 29.5642 15.7772L30.8845 15.015C31.0097 14.9427 31.1137 14.8387 31.186 14.7134C31.2583 14.5882 31.2964 14.4461 31.2964 14.3015C31.2964 14.1569 31.2583 14.0148 31.186 13.8895C31.1137 13.7643 31.0097 13.6603 30.8845 13.5879L22.6757 8.84839C22.5504 8.77609 22.4083 8.73803 22.2637 8.73804C22.1191 8.73804 21.977 8.77611 21.8518 8.84841C21.7266 8.92072 21.6225 9.02472 21.5502 9.14995C21.4779 9.27519 21.4398 9.41725 21.4398 9.56187V19.041C21.44 19.1855 21.4782 19.3275 21.5504 19.4527C21.6227 19.578 21.7265 19.682 21.8515 19.7546Z" fill="black"/>
<path d="M27.2551 15.7574L26.4384 16.2288C26.3717 16.2673 26.3133 16.3185 26.2665 16.3796C26.2196 16.4406 26.1853 16.5103 26.1654 16.5846C26.1454 16.659 26.1404 16.7365 26.1504 16.8128C26.1604 16.8891 26.1854 16.9626 26.2239 17.0293C26.2624 17.0959 26.3136 17.1543 26.3746 17.2012C26.4357 17.248 26.5053 17.2824 26.5797 17.3023C26.654 17.3222 26.7315 17.3273 26.8078 17.3173C26.8841 17.3072 26.9577 17.2823 27.0243 17.2438L27.841 16.7722C27.9745 16.6939 28.0716 16.5661 28.1111 16.4165C28.1507 16.2669 28.1295 16.1077 28.0521 15.9737C27.9747 15.8398 27.8475 15.7418 27.6982 15.7013C27.5489 15.6607 27.3896 15.6809 27.2551 15.7574Z" fill="black"/>
<path d="M46.5463 0.431519H3.45371C2.66752 0.432397 1.91377 0.745094 1.35784 1.30101C0.801908 1.85692 0.489186 2.61066 0.488281 3.39685V30.8105C0.489003 31.5962 0.801198 32.3495 1.35643 32.9054C1.91166 33.4612 2.66464 33.7743 3.45029 33.7759H3.6376V36.6831C3.6376 37.2656 3.75234 37.8425 3.97527 38.3807C4.1982 38.9189 4.52496 39.4079 4.93688 39.8198C5.34881 40.2318 5.83783 40.5585 6.37604 40.7814C6.91424 41.0044 7.49108 41.1191 8.07363 41.1191C8.65618 41.1191 9.23303 41.0044 9.77123 40.7814C10.3094 40.5585 10.7985 40.2318 11.2104 39.8198C11.6223 39.4079 11.9491 38.9189 12.172 38.3807C12.3949 37.8425 12.5097 37.2656 12.5097 36.6831V33.7759H20.2613V36.6831C20.2613 37.8596 20.7287 38.9879 21.5606 39.8198C22.3925 40.6517 23.5209 41.1191 24.6974 41.1191C25.8739 41.1191 27.0022 40.6517 27.8341 39.8198C28.666 38.9879 29.1334 37.8596 29.1334 36.6831V33.7759H36.2798V36.2018C36.2789 37.3734 36.7415 38.4978 37.5667 39.3294C38.3918 40.1611 39.5125 40.6325 40.6841 40.6407C41.8556 40.6489 42.9828 40.1933 43.8196 39.3733C44.6564 38.5534 45.1348 37.4356 45.1503 36.2641C45.8586 36.217 46.5236 35.9066 47.0148 35.3941C47.5059 34.8816 47.7877 34.204 47.8047 33.4943C48.3146 33.2551 48.7458 32.8756 49.0481 32.4004C49.3504 31.9252 49.5112 31.3737 49.5117 30.8105V3.39685C49.5108 2.61066 49.1981 1.85692 48.6422 1.30101C48.0862 0.745094 47.3325 0.432397 46.5463 0.431519ZM11.3379 36.6833C11.3379 37.549 10.994 38.3792 10.3818 38.9914C9.76969 39.6035 8.93944 39.9474 8.07373 39.9474C7.20802 39.9474 6.37777 39.6035 5.76562 38.9914C5.15347 38.3792 4.80957 37.549 4.80957 36.6833V35.0586H5.39453C6.02055 35.0579 6.62073 34.8089 7.0634 34.3663C7.50606 33.9236 7.75506 33.3234 7.75576 32.6974C7.75581 32.6373 7.77972 32.5797 7.82224 32.5372C7.86475 32.4946 7.9224 32.4707 7.98252 32.4707H9.75654C9.83382 32.8759 10.0229 33.2514 10.3023 33.5549C10.5817 33.8583 10.9404 34.0776 11.3379 34.188V36.6833ZM7.98252 31.2988C7.61171 31.2992 7.2562 31.4467 6.99399 31.7089C6.73179 31.9711 6.5843 32.3266 6.58389 32.6974C6.58352 33.0128 6.4581 33.315 6.23513 33.538C6.01216 33.761 5.70985 33.8864 5.39453 33.8867H4.80947V33.0258C4.81043 32.1603 5.15464 31.3306 5.76658 30.7187C6.37852 30.1068 7.20822 29.7626 8.07363 29.7616C8.29365 29.7616 8.68887 29.8433 9.15889 29.9862C9.53003 30.0994 9.91587 30.1572 10.3039 30.1576C10.6592 30.158 11.0057 30.2677 11.2965 30.4719C11.5872 30.6761 11.808 30.9648 11.929 31.2988H7.98252ZM11.3379 32.9127C11.1778 32.8022 11.0519 32.649 10.9745 32.4706H11.3379V32.9127ZM27.9616 36.6833C27.9616 37.549 27.6177 38.3792 27.0056 38.9914C26.3934 39.6035 25.5632 39.9474 24.6975 39.9474C23.8318 39.9474 23.0015 39.6035 22.3894 38.9914C21.7772 38.3792 21.4333 37.549 21.4333 36.6833V32.9486L23.4393 32.6677C23.9335 32.5987 24.4362 32.7098 24.8553 32.9808C25.2803 33.2545 25.7631 33.4257 26.2655 33.4809C26.768 33.536 27.2764 33.4737 27.7507 33.2988L27.9615 33.2207L27.9616 36.6833ZM21.4333 31.7654V29.7615H24.6973C25.3884 29.7624 26.0615 29.9823 26.6198 30.3896C27.1782 30.7969 27.5932 31.3706 27.8051 32.0285L27.3428 32.2002C27.0396 32.312 26.7145 32.3518 26.3933 32.3165C26.0721 32.2813 25.7634 32.1719 25.4917 31.9969C24.8361 31.5729 24.0498 31.3991 23.2766 31.5072L21.4333 31.7654ZM43.9801 36.202C43.9801 37.0677 43.6362 37.898 43.024 38.5101C42.4119 39.1223 41.5816 39.4662 40.7159 39.4662C39.8502 39.4662 39.02 39.1223 38.4078 38.5101C37.7957 37.898 37.4518 37.0677 37.4518 36.202V34.9592H37.7043C39.3205 34.9546 40.8881 34.4064 42.155 33.4028C42.5544 34.1321 43.1781 34.8614 43.9801 34.9906V36.202ZM43.9801 33.7636C43.4613 33.4953 43.0225 32.5463 42.9125 32.239C42.8794 32.1456 42.8231 32.0621 42.749 31.9963C42.6748 31.9305 42.5852 31.8846 42.4884 31.8629C42.3917 31.8412 42.291 31.8444 42.1959 31.8722C42.1007 31.9 42.0142 31.9515 41.9443 32.0218C40.8203 33.1482 39.2956 33.783 37.7043 33.7873H37.4518V33.5069C37.4518 32.6412 37.7957 31.8109 38.4078 31.1988C39.02 30.5866 39.8502 30.2427 40.7159 30.2427C41.5816 30.2427 42.4119 30.5866 43.024 31.1988C43.6362 31.8109 43.9801 32.6412 43.9801 33.5069V33.7636ZM45.152 35.0881V33.5069C45.1525 32.9063 45.0303 32.3119 44.793 31.7601H44.9649C45.3914 31.7602 45.8016 31.9235 46.1115 32.2165C46.4213 32.5095 46.6073 32.9099 46.6312 33.3357C46.6551 33.7615 46.5152 34.1803 46.2401 34.5061C45.9651 34.832 45.5757 35.0402 45.152 35.0881ZM48.3398 30.8105C48.3398 31.1007 48.2691 31.3864 48.134 31.6432C47.9989 31.8999 47.8034 32.12 47.5644 32.2844C47.3419 31.7802 46.9778 31.3516 46.5163 31.0505C46.0548 30.7493 45.5159 30.5887 44.9648 30.5881H44.0527C43.51 29.9665 42.8045 29.5087 42.0158 29.2663C41.227 29.0239 40.3862 29.0064 39.588 29.2159C38.7899 29.4254 38.0661 29.8536 37.498 30.4522C36.93 31.0507 36.5403 31.796 36.3729 32.604H29.1128C29.0067 31.506 28.4958 30.4868 27.6796 29.7448C26.8634 29.0028 25.8003 28.591 24.6973 28.5896H20.8473C20.6919 28.5896 20.5428 28.6514 20.4329 28.7612C20.3231 28.8711 20.2613 29.0202 20.2613 29.1756V32.6042H12.5098V32.4707H12.6172C12.7726 32.4707 12.9216 32.4089 13.0315 32.2991C13.1414 32.1892 13.2031 32.0401 13.2031 31.8847C13.2022 31.1161 12.8965 30.3792 12.353 29.8356C11.8095 29.2921 11.0726 28.9863 10.3039 28.9854C10.0312 28.985 9.7601 28.9443 9.49932 28.8646C8.89844 28.6822 8.41875 28.5897 8.07353 28.5897C6.97045 28.5911 5.90736 29.003 5.09119 29.745C4.27503 30.4871 3.76419 31.5063 3.65811 32.6043H3.45371C2.97816 32.6038 2.52223 32.4146 2.18598 32.0783C1.84973 31.742 1.66062 31.2861 1.66016 30.8105V3.39685C1.6607 2.92135 1.84984 2.46547 2.18608 2.12925C2.52232 1.79303 2.97821 1.60391 3.45371 1.60339H46.5463C47.0218 1.60391 47.4777 1.79303 47.8139 2.12925C48.1502 2.46547 48.3393 2.92135 48.3398 3.39685V30.8105Z" fill="black"/>
<path d="M27.0614 41.6797H22.333C21.4009 41.6807 20.5073 42.0515 19.8483 42.7106C19.1892 43.3696 18.8184 44.2632 18.8174 45.1953V48.9752C18.8174 49.1306 18.8791 49.2796 18.989 49.3895C19.0989 49.4994 19.2479 49.5611 19.4033 49.5611H29.9911C30.1465 49.5611 30.2955 49.4994 30.4054 49.3895C30.5153 49.2796 30.577 49.1306 30.577 48.9752V45.1953C30.576 44.2632 30.2053 43.3696 29.5462 42.7105C28.8871 42.0514 27.9935 41.6807 27.0614 41.6797ZM29.4052 48.3893H19.9893V45.1953C19.99 44.5739 20.2371 43.9782 20.6765 43.5388C21.1159 43.0994 21.7116 42.8523 22.333 42.8516H27.0614C27.6828 42.8523 28.2785 43.0994 28.7179 43.5388C29.1573 43.9782 29.4045 44.5739 29.4052 45.1953V48.3893Z" fill="black"/>
<path d="M27.6787 44.838H26.6224C26.467 44.838 26.318 44.8997 26.2081 45.0096C26.0982 45.1195 26.0365 45.2685 26.0365 45.424C26.0365 45.5794 26.0982 45.7284 26.2081 45.8383C26.318 45.9482 26.467 46.0099 26.6224 46.0099H27.6787C27.8341 46.0099 27.9831 45.9482 28.093 45.8383C28.2029 45.7284 28.2646 45.5794 28.2646 45.424C28.2646 45.2685 28.2029 45.1195 28.093 45.0096C27.9831 44.8997 27.8341 44.838 27.6787 44.838Z" fill="black"/>
<path d="M10.4378 41.6797H5.70935C4.77727 41.6807 3.88368 42.0515 3.2246 42.7106C2.56552 43.3696 2.19479 44.2632 2.19373 45.1953V48.9752C2.19373 49.1306 2.25546 49.2796 2.36534 49.3895C2.47523 49.4994 2.62426 49.5611 2.77966 49.5611H13.3675C13.5229 49.5611 13.6719 49.4994 13.7818 49.3895C13.8917 49.2796 13.9534 49.1306 13.9534 48.9752V45.1953C13.9523 44.2632 13.5816 43.3696 12.9225 42.7106C12.2634 42.0515 11.3698 41.6807 10.4378 41.6797ZM12.7815 48.3893H3.3656V45.1953C3.3663 44.5739 3.61345 43.9782 4.05284 43.5388C4.49223 43.0994 5.08796 42.8523 5.70935 42.8516H10.4378C11.0591 42.8523 11.6549 43.0994 12.0943 43.5388C12.5336 43.9782 12.7808 44.5739 12.7815 45.1953V48.3893Z" fill="black"/>
<path d="M11.0547 44.838H9.99866C9.84326 44.838 9.69422 44.8997 9.58434 45.0096C9.47445 45.1195 9.41272 45.2685 9.41272 45.424C9.41272 45.5794 9.47445 45.7284 9.58434 45.8383C9.69422 45.9482 9.84326 46.0099 9.99866 46.0099H11.0547C11.2101 46.0099 11.3591 45.9482 11.469 45.8383C11.5789 45.7284 11.6406 45.5794 11.6406 45.424C11.6406 45.2685 11.5789 45.1195 11.469 45.0096C11.3591 44.8997 11.2101 44.838 11.0547 44.838Z" fill="black"/>
<path d="M43.0801 41.1987H38.3517C37.4196 41.1998 36.526 41.5705 35.8669 42.2296C35.2079 42.8887 34.8371 43.7823 34.8361 44.7144V48.9825C34.8361 49.1379 34.8978 49.287 35.0077 49.3968C35.1176 49.5067 35.2666 49.5685 35.422 49.5685H46.0098C46.1652 49.5685 46.3142 49.5067 46.4241 49.3968C46.534 49.287 46.5957 49.1379 46.5957 48.9825V44.7144C46.5947 43.7823 46.2239 42.8887 45.5649 42.2296C44.9058 41.5705 44.0122 41.1998 43.0801 41.1987ZM45.4239 48.3966H36.0079V44.7144C36.0086 44.093 36.2558 43.4972 36.6952 43.0578C37.1346 42.6185 37.7303 42.3713 38.3517 42.3706H43.0801C43.7015 42.3713 44.2972 42.6185 44.7366 43.0578C45.176 43.4972 45.4232 44.093 45.4239 44.7144V48.3966Z" fill="black"/>
<path d="M43.6972 44.3568H42.6409C42.4855 44.3568 42.3364 44.4185 42.2265 44.5284C42.1167 44.6383 42.0549 44.7873 42.0549 44.9427C42.0549 45.0981 42.1167 45.2471 42.2265 45.357C42.3364 45.4669 42.4855 45.5286 42.6409 45.5286H43.6972C43.8526 45.5286 44.0017 45.4669 44.1115 45.357C44.2214 45.2471 44.2832 45.0981 44.2832 44.9427C44.2832 44.7873 44.2214 44.6383 44.1115 44.5284C44.0017 44.4185 43.8526 44.3568 43.6972 44.3568Z" fill="black"/>
</svg>
