<svg width="50" height="50" viewBox="0 0 50 50" fill="none" xmlns="http://www.w3.org/2000/svg">
<g clip-path="url(#clip0)">
<path d="M0.976616 45.4883L4.51162 49.0233C5.13674 49.6485 5.98462 49.9997 6.8687 49.9997C7.75279 49.9997 8.60066 49.6485 9.22578 49.0233L35.7416 22.5075L43.4016 14.8475C44.0268 14.2224 44.378 13.3745 44.378 12.4904C44.378 11.6063 44.0268 10.7584 43.4016 10.1333L39.8675 6.59749C38.5477 5.33982 36.473 5.33982 35.1533 6.59749L27.4933 14.2575L0.976616 40.7742C0.351457 41.3993 0.000244141 42.2472 0.000244141 43.1312C0.000244141 44.0153 0.351457 44.8632 0.976616 45.4883ZM36.3333 7.77582C36.6459 7.46312 37.0699 7.28743 37.512 7.28743C37.9542 7.28743 38.3782 7.46312 38.6908 7.77582L42.2258 11.3108C42.5385 11.6234 42.7142 12.0474 42.7142 12.4896C42.7142 12.9317 42.5385 13.3557 42.2258 13.6683L37.5116 18.3825L34.5658 15.4358C34.2402 15.1102 33.7122 15.1102 33.3866 15.4358C33.061 15.7614 33.061 16.2894 33.3866 16.615L36.3333 19.5608L35.155 20.74L29.2616 14.8475L30.4391 13.6667L31.0283 14.2558C31.358 14.5424 31.853 14.5257 32.1627 14.2175C32.4724 13.9094 32.4915 13.4145 32.2066 13.0833L31.6175 12.4942L36.3333 7.77582ZM2.15495 41.9525L28.0833 16.0258L33.9741 21.9167L8.04745 47.845C7.38786 48.4749 6.34954 48.4749 5.68995 47.845L2.15495 44.31C1.84224 43.9974 1.66656 43.5734 1.66656 43.1312C1.66656 42.6891 1.84224 42.2651 2.15495 41.9525Z" fill="black"/>
<path d="M27.4925 20.9841C27.7138 20.9843 27.926 20.8965 28.0825 20.74L28.6716 20.15C28.8821 19.9393 28.9643 19.6324 28.8871 19.3448C28.8099 19.0572 28.5852 18.8326 28.2975 18.7556C28.0098 18.6787 27.703 18.761 27.4925 18.9717L26.9033 19.5616C26.6651 19.8 26.5938 20.1583 26.7227 20.4697C26.8517 20.781 27.1555 20.9841 27.4925 20.9841Z" fill="black"/>
<path d="M14.5292 33.9467C14.7503 33.9473 14.9625 33.8594 15.1184 33.7026L25.725 23.0967C26.0509 22.7713 26.0513 22.2434 25.7259 21.9175C25.4005 21.5917 24.8726 21.5913 24.5467 21.9167L13.9401 32.5242C13.7018 32.7625 13.6305 33.1209 13.7595 33.4323C13.8884 33.7436 14.1922 33.9466 14.5292 33.9467Z" fill="black"/>
<path d="M26.6667 0.833333C26.6667 0.373096 26.2936 0 25.8333 0C25.3731 0 25 0.373096 25 0.833333V2.5C25 2.96024 25.3731 3.33333 25.8333 3.33333C26.2936 3.33333 26.6667 2.96024 26.6667 2.5V0.833333Z" fill="black"/>
<path d="M25.8333 6.66669C25.3731 6.66669 25 7.03978 25 7.50002V9.16669C25 9.62693 25.3731 10 25.8333 10C26.2936 10 26.6667 9.62693 26.6667 9.16669V7.50002C26.6667 7.03978 26.2936 6.66669 25.8333 6.66669Z" fill="black"/>
<path d="M21.6667 4.16663C21.2065 4.16663 20.8334 4.53972 20.8334 4.99996C20.8334 5.4602 21.2065 5.83329 21.6667 5.83329H23.3334C23.7936 5.83329 24.1667 5.4602 24.1667 4.99996C24.1667 4.53972 23.7936 4.16663 23.3334 4.16663H21.6667Z" fill="black"/>
<path d="M28.3333 4.16663C27.8731 4.16663 27.5 4.53972 27.5 4.99996C27.5 5.4602 27.8731 5.83329 28.3333 5.83329H30C30.4602 5.83329 30.8333 5.4602 30.8333 4.99996C30.8333 4.53972 30.4602 4.16663 30 4.16663H28.3333Z" fill="black"/>
<path d="M44.1666 22.5V24.1666C44.1666 24.6269 44.5397 25 45 25C45.4602 25 45.8333 24.6269 45.8333 24.1666V22.5C45.8333 22.0397 45.4602 21.6666 45 21.6666C44.5397 21.6666 44.1666 22.0397 44.1666 22.5Z" fill="black"/>
<path d="M45 28.3334C44.5397 28.3334 44.1666 28.7065 44.1666 29.1667V30.8334C44.1666 31.2936 44.5397 31.6667 45 31.6667C45.4602 31.6667 45.8333 31.2936 45.8333 30.8334V29.1667C45.8333 28.7065 45.4602 28.3334 45 28.3334Z" fill="black"/>
<path d="M42.5 27.5C42.9602 27.5 43.3333 27.1269 43.3333 26.6666C43.3333 26.2064 42.9602 25.8333 42.5 25.8333H40.8333C40.3731 25.8333 40 26.2064 40 26.6666C40 27.1269 40.3731 27.5 40.8333 27.5H42.5Z" fill="black"/>
<path d="M49.1667 25.8333H47.5001C47.0398 25.8333 46.6667 26.2064 46.6667 26.6666C46.6667 27.1269 47.0398 27.5 47.5001 27.5H49.1667C49.627 27.5 50 27.1269 50 26.6666C50 26.2064 49.627 25.8333 49.1667 25.8333Z" fill="black"/>
<path d="M45.8333 2.5C46.2936 2.5 46.6667 2.1269 46.6667 1.66667V0.833333C46.6667 0.373096 46.2936 0 45.8333 0C45.3731 0 45 0.373096 45 0.833333V1.66667C45 2.1269 45.3731 2.5 45.8333 2.5Z" fill="black"/>
<path d="M45 7.49998C45 7.96021 45.3731 8.33331 45.8333 8.33331C46.2936 8.33331 46.6667 7.96021 46.6667 7.49998V6.66665C46.6667 6.20641 46.2936 5.83331 45.8333 5.83331C45.3731 5.83331 45 6.20641 45 6.66665V7.49998Z" fill="black"/>
<path d="M41.6666 4.16665C41.6666 4.62688 42.0397 4.99998 42.5 4.99998H43.3333C43.7935 4.99998 44.1666 4.62688 44.1666 4.16665C44.1666 3.70641 43.7935 3.33331 43.3333 3.33331H42.5C42.0397 3.33331 41.6666 3.70641 41.6666 4.16665Z" fill="black"/>
<path d="M49.1667 3.33331H48.3333C47.8731 3.33331 47.5 3.70641 47.5 4.16665C47.5 4.62688 47.8731 4.99998 48.3333 4.99998H49.1667C49.6269 4.99998 50 4.62688 50 4.16665C50 3.70641 49.6269 3.33331 49.1667 3.33331Z" fill="black"/>
<path d="M15.6308 9.99997L15.0417 9.41081C14.7147 9.095 14.1949 9.09951 13.8735 9.42096C13.552 9.7424 13.5475 10.2622 13.8633 10.5891L14.4525 11.1783C14.6617 11.3949 14.9716 11.4818 15.2629 11.4056C15.5543 11.3293 15.7818 11.1018 15.8581 10.8104C15.9343 10.519 15.8475 10.2092 15.6308 9.99997Z" fill="black"/>
<path d="M19.1667 13.5359C18.8397 13.2201 18.3199 13.2246 17.9985 13.546C17.677 13.8675 17.6725 14.3872 17.9883 14.7142L18.5775 15.3034C18.9045 15.6192 19.4242 15.6147 19.7457 15.2932C20.0671 14.9718 20.0716 14.452 19.7558 14.125L19.1667 13.5359Z" fill="black"/>
<path d="M14.4525 13.5359L13.8633 14.125C13.6467 14.3343 13.5598 14.6441 13.6361 14.9355C13.7123 15.2268 13.9399 15.4544 14.2312 15.5306C14.5226 15.6069 14.8324 15.52 15.0417 15.3034L15.6308 14.7142C15.9466 14.3872 15.9421 13.8675 15.6207 13.546C15.2992 13.2246 14.7795 13.2201 14.4525 13.5359Z" fill="black"/>
<path d="M19.7558 9.4108C19.4304 9.08548 18.9029 9.08548 18.5775 9.4108L17.9883 9.99996C17.7717 10.2092 17.6848 10.519 17.7611 10.8104C17.8373 11.1017 18.0649 11.3293 18.3562 11.4055C18.6476 11.4818 18.9574 11.3949 19.1666 11.1783L19.7558 10.5891C20.0811 10.2637 20.0811 9.73621 19.7558 9.4108Z" fill="black"/>
<path d="M36.1783 31.6667L35.5891 31.0775C35.2622 30.7617 34.7424 30.7662 34.421 31.0876C34.0995 31.4091 34.095 31.9288 34.4108 32.2558L35 32.845C35.3269 33.1608 35.8467 33.1563 36.1681 32.8348C36.4896 32.5134 36.4941 31.9936 36.1783 31.6667Z" fill="black"/>
<path d="M39.7133 35.2025C39.5052 34.9808 39.1929 34.8901 38.8984 34.9658C38.6039 35.0415 38.374 35.2715 38.2986 35.5661C38.2231 35.8606 38.314 36.1728 38.5358 36.3808L39.125 36.97C39.4519 37.2858 39.9717 37.2812 40.2932 36.9598C40.6146 36.6384 40.6191 36.1186 40.3033 35.7916L39.7133 35.2025Z" fill="black"/>
<path d="M35.0001 35.2025L34.4109 35.7917C34.1943 36.0009 34.1074 36.3107 34.1837 36.6021C34.2599 36.8934 34.4875 37.121 34.7788 37.1972C35.0702 37.2735 35.38 37.1866 35.5893 36.97L36.1784 36.3808C36.4943 36.0538 36.4897 35.5341 36.1683 35.2126C35.8468 34.8912 35.3271 34.8867 35.0001 35.2025Z" fill="black"/>
<path d="M40.3033 31.0775C39.9779 30.7522 39.4504 30.7522 39.1249 31.0775L38.5358 31.6666C38.314 31.8746 38.2231 32.1869 38.2986 32.4814C38.374 32.7759 38.6039 33.0059 38.8984 33.0816C39.1928 33.1573 39.5051 33.0666 39.7133 32.845L40.3033 32.2558C40.6286 31.9304 40.6286 31.4029 40.3033 31.0775Z" fill="black"/>
</g>
<defs>
<clipPath id="clip0">
<rect width="50" height="50" fill="white"/>
</clipPath>
</defs>
</svg>
