<svg width="50" height="50" viewBox="0 0 50 50" fill="none" xmlns="http://www.w3.org/2000/svg">
<g clip-path="url(#clip0)">
<path d="M42.4189 31.4125C42.4189 31.817 42.7469 32.1449 43.1514 32.1449H49.2676C49.6721 32.1449 50 31.817 50 31.4125C50 25.1341 47.6808 19.1719 43.4562 14.5538L44.9841 12.4514C45.1959 12.16 45.1643 11.7579 44.9097 11.5031C44.9098 11.503 44.9098 11.5029 44.9099 11.5028C39.5918 6.18452 32.521 3.25562 25 3.25562C24.5955 3.25562 24.2676 3.58345 24.2676 3.98804C24.2676 4.39263 24.5955 4.72046 25 4.72046C31.8423 4.72046 38.2904 7.27895 43.2552 11.9412L41.8608 12.9544C37.2438 8.73101 31.2809 6.41245 25 6.41245C21.2239 6.41245 17.5956 7.23335 14.2158 8.85249C13.851 9.0272 13.697 9.4647 13.8717 9.82944C14.0465 10.1942 14.484 10.3484 14.8486 10.1735C17.8103 8.75474 20.9755 7.98804 24.2676 7.88901V12.5438C21.9771 12.6304 19.7538 13.1227 17.6493 14.0131C15.6253 14.869 13.7876 16.0586 12.1758 17.5523L8.88437 14.2609C9.84385 13.3592 10.878 12.5371 11.9681 11.8123C12.3049 11.5883 12.3964 11.1336 12.1724 10.7968C11.9484 10.4601 11.4938 10.3684 11.1569 10.5925C9.78408 11.5054 8.49375 12.5625 7.32187 13.7343C7.30684 13.7494 7.29248 13.7651 7.27891 13.7813C2.58447 18.4991 0 24.7579 0 31.4125C0 31.817 0.32793 32.1449 0.732422 32.1449H6.84863C7.25312 32.1449 7.58105 31.817 7.58105 31.4125C7.58105 26.7596 9.39297 22.3854 12.6829 19.0955C14.283 17.4953 16.1459 16.2394 18.2199 15.3624C20.3667 14.454 22.6479 13.9934 25 13.9934C28.8154 13.9934 32.5229 15.2495 35.5421 17.5462L28.8975 22.3749C27.8812 21.4094 26.5091 20.8152 25 20.8152C21.8764 20.8152 19.3352 23.3564 19.3352 26.48C19.3352 28.1441 20.0566 29.6427 21.2029 30.68H20.6595C18.0798 30.68 15.9812 32.7788 15.9812 35.3584V39.699C15.9812 40.1036 16.3091 40.4314 16.7136 40.4314H33.2865C33.691 40.4314 34.0189 40.1036 34.0189 39.699V35.3584C34.0189 33.5144 32.9462 31.9166 31.3922 31.1549L34.5788 26.7697C34.8166 26.4424 34.744 25.9844 34.4169 25.7465C34.0896 25.5087 33.6315 25.5813 33.3937 25.9084L29.9012 30.7147C29.7172 30.6926 29.5304 30.6799 29.3405 30.6799H28.7971C29.9434 29.6426 30.6648 28.144 30.6648 26.4799C30.6648 25.3927 30.3563 24.3765 29.8231 23.5129L41.0785 15.3336L35.4026 23.1439C35.1648 23.4711 35.2373 23.9291 35.5646 24.167C35.6946 24.2615 35.8452 24.3071 35.9945 24.3071C36.221 24.307 36.4443 24.2024 36.5876 24.0051L38.8663 20.8696C39.7495 22.0293 40.4825 23.2912 41.0501 24.6324C41.9584 26.7791 42.4189 29.0603 42.4189 31.4125ZM6.12998 30.68H1.47598C1.65117 24.9133 3.89473 19.5024 7.85059 15.2989L11.1398 18.5881C8.06074 21.9097 6.30137 26.1541 6.12998 30.68ZM25.7324 12.5437V7.88979C31.2749 8.05933 36.5157 10.1496 40.6484 13.8354L36.775 16.6502C33.6315 14.1409 29.7554 12.7001 25.7324 12.5437ZM29.3405 32.1449C31.1125 32.1449 32.554 33.5865 32.554 35.3584V38.9666H29.8756V37.7259C29.8756 37.3213 29.5477 36.9935 29.1432 36.9935C28.7387 36.9935 28.4107 37.3213 28.4107 37.7259V38.9666H21.5891V37.7259C21.5891 37.3213 21.2611 36.9935 20.8566 36.9935C20.4521 36.9935 20.1242 37.3213 20.1242 37.7259V38.9666H17.4458V35.3584C17.4458 33.5864 18.8874 32.1449 20.6593 32.1449H29.3405ZM25 30.68C22.6841 30.68 20.8 28.7959 20.8 26.48C20.8 24.1641 22.6841 22.28 25 22.28C27.3159 22.28 29.2 24.1641 29.2 26.48C29.2 28.7959 27.3159 30.68 25 30.68ZM42.5753 15.7659C46.2622 19.8997 48.3543 25.1398 48.5239 30.68H43.8699C43.7833 28.3894 43.2896 26.1663 42.399 24.0616C41.7269 22.4731 40.8405 20.9874 39.762 19.6371L42.5753 15.7659Z" fill="black"/>
<path d="M33.2861 42.1233H22.4043C21.9998 42.1233 21.6719 42.4511 21.6719 42.8557C21.6719 43.2603 21.9998 43.5881 22.4043 43.5881H32.5537V45.2795H17.4463V43.5881H18.9863C19.3908 43.5881 19.7188 43.2603 19.7188 42.8557C19.7188 42.4511 19.3908 42.1233 18.9863 42.1233H16.7139C16.3094 42.1233 15.9814 42.4511 15.9814 42.8557V46.012C15.9814 46.4165 16.3094 46.7444 16.7139 46.7444H33.2861C33.6906 46.7444 34.0186 46.4165 34.0186 46.012V42.8557C34.0186 42.4512 33.6906 42.1233 33.2861 42.1233Z" fill="black"/>
<path d="M49.2676 33.7493H43.1514C42.7469 33.7493 42.4189 34.0771 42.4189 34.4817C42.4189 34.8863 42.7469 35.2141 43.1514 35.2141H49.2676C49.6721 35.2141 50 34.8863 50 34.4817C50 34.0771 49.6721 33.7493 49.2676 33.7493Z" fill="black"/>
<path d="M47.2946 36.906H45.1243C44.7198 36.906 44.3918 37.2338 44.3918 37.6384C44.3918 38.043 44.7198 38.3708 45.1243 38.3708H47.2946C47.6991 38.3708 48.027 38.043 48.027 37.6384C48.027 37.2338 47.6991 36.906 47.2946 36.906Z" fill="black"/>
<path d="M6.84863 33.7493H0.732422C0.32793 33.7493 0 34.0771 0 34.4817C0 34.8863 0.32793 35.2141 0.732422 35.2141H6.84863C7.25312 35.2141 7.58105 34.8863 7.58105 34.4817C7.58105 34.0771 7.25312 33.7493 6.84863 33.7493Z" fill="black"/>
<path d="M4.87563 36.906H2.70532C2.30083 36.906 1.9729 37.2338 1.9729 37.6384C1.9729 38.043 2.30083 38.3708 2.70532 38.3708H4.87563C5.28013 38.3708 5.60806 38.043 5.60806 37.6384C5.60806 37.2338 5.28013 36.906 4.87563 36.906Z" fill="black"/>
</g>
<defs>
<clipPath id="clip0">
<rect width="50" height="50" fill="white"/>
</clipPath>
</defs>
</svg>
