<svg width="20" height="19" viewBox="0 0 20 19" fill="none" xmlns="http://www.w3.org/2000/svg">
<path d="M14.8661 5.85498C12.6477 5.85498 11.657 7.0743 11.1027 7.93034V6.15146H6.9248C6.97909 7.32903 6.9248 18.7216 6.9248 18.7216H11.1027V11.699C11.1027 11.3242 11.1267 10.9473 11.2394 10.679C11.5422 9.9274 12.2291 9.14966 13.3837 9.14966C14.8953 9.14966 15.4997 10.3022 15.4997 11.9934V18.7184H19.6776H19.6786V11.51C19.6766 7.6516 17.6148 5.85498 14.8661 5.85498ZM11.0995 7.97418H11.0734C11.0818 7.95957 11.0943 7.946 11.0995 7.93138V7.97418Z" fill="white"/>
<path d="M4.60852 6.15137H0.430664V18.7215H4.60852V6.15137Z" fill="white"/>
<path d="M2.54903 0.0915527C1.12092 0.0915527 0.185547 1.02901 0.185547 2.26295C0.185547 3.4687 1.09273 4.43435 2.4937 4.43435H2.52085C3.97819 4.43435 4.88537 3.4687 4.88537 2.26295C4.85719 1.03006 3.97923 0.0915527 2.54903 0.0915527Z" fill="white"/>
</svg>
