<svg width="69" height="61" viewBox="0 0 69 61" fill="none" xmlns="http://www.w3.org/2000/svg">
<path d="M12 45.3242C12 45.3242 12 33.5139 12 27.5656C12 21.6173 20.6787 9.32422 34.5001 9.32422C48.3215 9.32422 57 22.0139 57 27.5656C57 33.1173 57 41.0483 57 43.8242C57 46.6001 52.1785 54.5311 43.3393 55.3242" stroke="#656972" stroke-width="3"/>
<path d="M12 39.3242C12 39.3242 12 26.0821 12 20.24C12 14.3979 20.6787 2.32422 34.5001 2.32422C48.3215 2.32422 57 14.7874 57 20.24C57 25.6926 57 33.4821 57 36.2084" stroke="#656972" stroke-width="3"/>
<path d="M26 37.3242C27.1333 38.3242 30.42 40.3242 34.5 40.3242C38.58 40.3242 41.8667 38.3242 43 37.3242" stroke="#DD346B" stroke-width="3" stroke-linecap="round" stroke-linejoin="round"/>
<path d="M57 45.3242C62 45.3242 67 41.0997 67 34.0589C67 27.0181 62 22.3242 57 22.3242" stroke="#656972" stroke-width="3" stroke-linecap="round" stroke-linejoin="round"/>
<path d="M12 22.3242C7 22.3242 2 26.5487 2 33.5895C2 40.6303 7 45.3242 12 45.3242" stroke="#656972" stroke-width="3" stroke-linecap="round" stroke-linejoin="round"/>
<path d="M42.5 54.8242C42.5 52.6151 40.7091 50.8242 38.5 50.8242C36.2909 50.8242 34.5 52.6151 34.5 54.8242C34.5 57.0334 36.2909 58.8242 38.5 58.8242C40.7091 58.8242 42.5 57.0334 42.5 54.8242Z" stroke="#656972" stroke-width="3"/>
</svg>
