<svg width="36" height="35" viewBox="0 0 36 35" fill="none" xmlns="http://www.w3.org/2000/svg">
<g clip-path="url(#clip0)">
<path d="M22.9661 12.6805C22.5005 12.6805 22.123 13.0475 22.123 13.5002V28.992C22.123 29.4444 22.5005 29.8117 22.9661 29.8117C23.4318 29.8117 23.8092 29.4444 23.8092 28.992V13.5002C23.8092 13.0475 23.4318 12.6805 22.9661 12.6805Z" fill="#656972"/>
<path d="M13.0169 12.6805C12.5512 12.6805 12.1738 13.0475 12.1738 13.5002V28.992C12.1738 29.4444 12.5512 29.8117 13.0169 29.8117C13.4826 29.8117 13.86 29.4444 13.86 28.992V13.5002C13.86 13.0475 13.4826 12.6805 13.0169 12.6805Z" fill="#656972"/>
<path d="M5.76756 10.4198V30.6148C5.76756 31.8084 6.21775 32.9294 7.0042 33.7337C7.78702 34.5402 8.87645 34.9981 10.0166 35H25.9681C27.1086 34.9981 28.198 34.5402 28.9805 33.7337C29.7669 32.9294 30.2171 31.8084 30.2171 30.6148V10.4198C31.7805 10.0164 32.7935 8.54805 32.5844 6.98843C32.3749 5.42914 31.0085 4.26271 29.3908 4.26239H25.0743V3.2378C25.0792 2.37619 24.7288 1.54883 24.1014 0.940166C23.4741 0.331818 22.6218 -0.00693634 21.7355 0.000107698H14.2492C13.3629 -0.00693634 12.5106 0.331818 11.8832 0.940166C11.2559 1.54883 10.9055 2.37619 10.9104 3.2378V4.26239H6.59385C4.97617 4.26271 3.60978 5.42914 3.40032 6.98843C3.1912 8.54805 4.20422 10.0164 5.76756 10.4198ZM25.9681 33.3607H10.0166C8.57511 33.3607 7.45373 32.1568 7.45373 30.6148V10.4919H28.531V30.6148C28.531 32.1568 27.4096 33.3607 25.9681 33.3607ZM12.5966 3.2378C12.591 2.811 12.7635 2.4002 13.0751 2.09891C13.3863 1.79762 13.8098 1.63208 14.2492 1.63945H21.7355C22.1749 1.63208 22.5984 1.79762 22.9096 2.09891C23.2211 2.39988 23.3937 2.811 23.3881 3.2378V4.26239H12.5966V3.2378ZM6.59385 5.90173H29.3908C30.229 5.90173 30.9084 6.56227 30.9084 7.37713C30.9084 8.192 30.229 8.85254 29.3908 8.85254H6.59385C5.7557 8.85254 5.07629 8.192 5.07629 7.37713C5.07629 6.56227 5.7557 5.90173 6.59385 5.90173Z" fill="#656972"/>
<path d="M17.9915 12.6805C17.5258 12.6805 17.1484 13.0475 17.1484 13.5002V28.992C17.1484 29.4444 17.5258 29.8117 17.9915 29.8117C18.4572 29.8117 18.8346 29.4444 18.8346 28.992V13.5002C18.8346 13.0475 18.4572 12.6805 17.9915 12.6805Z" fill="#656972"/>
</g>
<defs>
<clipPath id="clip0">
<rect width="36" height="35" fill="white"/>
</clipPath>
</defs>
</svg>
