<svg width="15" height="16" viewBox="0 0 15 16" fill="none" xmlns="http://www.w3.org/2000/svg">
<path d="M7.8011 3.30536C7.78153 2.93959 7.40771 3.00181 7.04297 3.00181C7.3124 3.07357 7.56728 3.17341 7.8011 3.30536Z" fill="#222222"/>
<path d="M3.90218 2.38855C2.48623 2.38855 1.83449 4.18077 2.96641 5.08217C3.35228 4.05183 4.12043 3.31201 5.12745 3.02C4.85198 2.63917 4.40692 2.38855 3.90218 2.38855Z" fill="#222222"/>
<path d="M0.976416 4.80169C1.03412 4.98686 1.10888 5.16449 1.1977 5.33279L0.732578 5.79817C0.607671 5.92308 0.607671 6.12582 0.732578 6.25099L1.55242 7.07109C1.61213 7.1308 1.69394 7.1644 1.7792 7.1644C1.86353 7.1644 1.94479 7.1308 2.00553 7.07109L2.47013 6.60571C2.53986 6.64261 2.61714 6.66522 2.68935 6.69705C2.68935 6.69175 2.68883 6.68626 2.68883 6.68096C2.68883 6.30065 2.73252 5.94188 2.81028 5.605C2.24933 5.24397 1.87503 4.61731 1.87503 3.90182C1.87503 2.78418 2.78418 1.87477 3.90156 1.87477C4.65817 1.87477 5.31143 2.29599 5.66015 2.91138C6.03245 2.86521 6.38216 2.86521 6.80312 2.94476C6.74897 2.78095 6.68525 2.62063 6.60545 2.47036L7.07057 2.00475C7.13125 1.94479 7.16485 1.86324 7.16485 1.77846C7.16485 1.69365 7.13125 1.61213 7.07057 1.55217L6.25118 0.732578C6.1885 0.669866 6.10669 0.638753 6.02492 0.638753C5.94311 0.638753 5.86134 0.669866 5.79911 0.732578L5.3325 1.19819C5.16394 1.10888 4.98682 1.03412 4.80121 0.977676V0.319861C4.80121 0.143259 4.65869 0 4.48157 0H3.32206C3.14594 0 3.00191 0.143259 3.00191 0.319861V0.977644C2.81678 1.03409 2.63963 1.10885 2.47055 1.19815L2.00553 0.733063C1.94278 0.670351 1.86101 0.639237 1.7792 0.639237C1.69743 0.639237 1.61517 0.670351 1.55294 0.732805L0.732578 1.55239C0.672871 1.61262 0.639269 1.69387 0.639269 1.77894C0.639269 1.86398 0.672871 1.94527 0.732578 2.00524L1.1977 2.47059C1.10885 2.63918 1.03412 2.81655 0.97745 3.00168H0.320152C0.143033 3.00168 0 3.14517 0 3.32203V4.48157C0 4.65792 0.143033 4.80169 0.320152 4.80169H0.976416Z" fill="#222222"/>
<path d="M11.0209 11.0063C11.5337 10.7251 11.8859 10.1867 11.8859 9.56201C11.8859 8.65034 11.1439 7.90881 10.2322 7.90881C9.91162 7.90881 9.61454 8.00464 9.36069 8.16318C9.20867 8.76827 8.96933 9.34706 8.65625 9.84979C9.54378 10.0166 10.3581 10.4208 11.0209 11.0063Z" fill="#222222"/>
<path d="M14.4432 8.9363C14.4432 8.74539 14.2881 8.59082 14.0979 8.59082H13.3885C13.3273 8.39086 13.246 8.1992 13.1497 8.01733L13.6519 7.51512C13.7171 7.45037 13.7532 7.36259 13.7532 7.27102C13.7532 7.17943 13.7171 7.09161 13.6519 7.02667L12.7678 6.14233C12.7006 6.07481 12.6118 6.04095 12.5235 6.04095C12.4352 6.04095 12.3469 6.07481 12.2797 6.14233L11.7764 6.64481C11.5947 6.54846 11.4036 6.46772 11.2029 6.40672V5.69727C11.2029 5.50662 11.0489 5.35205 10.8582 5.35205H9.60738C9.52357 5.35205 9.44981 5.38565 9.38965 5.43534C9.49498 5.81966 9.55268 6.23639 9.55268 6.68093C9.55268 6.96315 9.53065 7.2497 9.48948 7.53463C9.72227 7.44882 9.97011 7.39493 10.2326 7.39493C11.4277 7.39493 12.4001 8.36708 12.4001 9.5619C12.4001 10.3256 12.0012 10.9949 11.4026 11.381C11.8381 11.8587 12.1843 12.4254 12.4096 13.0603C12.4467 13.0731 12.4854 13.0824 12.524 13.0824C12.6123 13.0824 12.7006 13.0488 12.7683 12.9813L13.6529 12.0969C13.7177 12.0322 13.7533 11.9444 13.7533 11.8529C13.7533 11.7613 13.7177 11.6735 13.6529 11.6085L13.1497 11.106C13.246 10.9244 13.3273 10.7327 13.3886 10.5325H14.098C14.1893 10.5325 14.2781 10.4964 14.3423 10.4312C14.4071 10.3667 14.4437 10.2787 14.4437 10.1871L14.4432 8.9363Z" fill="#222222"/>
<path d="M11.7046 13.373C11.1682 11.7948 9.75086 10.7093 8.11466 10.5615C7.56676 11.1417 6.88839 11.5098 6.12018 11.5098C5.35255 11.5098 4.67367 11.1418 4.12628 10.5615C2.48911 10.7093 1.07168 11.7948 0.53528 13.3733L0.238778 14.246C0.153967 14.4972 0.19458 14.7739 0.349147 14.9894C0.503681 15.2049 0.752559 15.3328 1.01746 15.3328H11.2224C11.4878 15.3328 11.7367 15.2049 11.8913 14.9894C12.0453 14.7739 12.0865 14.4972 12.0011 14.246L11.7046 13.373Z" fill="#222222"/>
<path d="M3.45996 6.68104C3.45996 8.63862 4.65162 10.7392 6.12069 10.7392C7.59033 10.7392 8.78193 8.63862 8.78193 6.68104C8.78196 2.6232 3.45996 2.61516 3.45996 6.68104Z" fill="#222222"/>
</svg>
