<svg width="14" height="16" viewBox="0 0 14 16" fill="none" xmlns="http://www.w3.org/2000/svg">
<path d="M1.21985 10.8412C0.451806 9.72575 0 8.37741 0 6.92026C0 3.09866 3.09735 0 6.91921 0C10.7413 0 13.8387 3.09866 13.8387 6.92026C13.8387 8.37663 13.3863 9.72575 12.6186 10.8412C13.0906 9.94654 13.3591 8.9286 13.3591 7.84616C13.3591 4.29071 10.4773 1.40707 6.91921 1.40707C3.36114 1.40707 0.479339 4.29071 0.479339 7.84616C0.479339 8.9286 0.749688 9.94654 1.21985 10.8412ZM10.7007 7.11718C10.7007 5.03043 9.00805 3.3357 6.91921 3.3357C4.83062 3.3357 3.13773 5.03043 3.13773 7.11718C3.13773 7.74258 3.30319 8.32182 3.57092 8.84049C3.47704 8.52295 3.41018 8.19333 3.41018 7.84563C3.41018 5.90887 4.9793 4.33739 6.91921 4.33739C8.85911 4.33739 10.428 5.90835 10.428 7.84563C10.428 8.1936 10.3635 8.52295 10.2678 8.84049C10.5358 8.32051 10.7007 7.74205 10.7007 7.11718ZM6.91921 5.96892C6.28516 5.96892 5.77199 6.48261 5.77199 7.11613C5.77199 7.75071 6.28516 8.26387 6.91921 8.26387C7.55326 8.26387 8.06642 7.75071 8.06642 7.11613C8.06642 6.48261 7.55326 5.96892 6.91921 5.96892ZM4.24272 15.3328L5.60496 8.82974H8.23398L9.59726 15.3328H8.85125L8.6239 14.2393H5.2174L4.989 15.3328H4.24272ZM5.88501 11.0489H7.95445L7.64241 9.5574H6.19653L5.88501 11.0489ZM5.36922 13.5099H8.46972L8.10707 11.7787H5.73082L5.36922 13.5099Z" fill="#222222"/>
</svg>
