<svg width="59" height="40" viewBox="0 0 59 40" fill="none" xmlns="http://www.w3.org/2000/svg">
<path d="M14.0572 17.3143C9.48577 17.3143 5.77148 21.0857 5.77148 25.7143C5.77148 30.3429 9.48577 34.0571 14.0572 34.0571C18.6286 34.0571 22.3429 30.3429 22.3429 25.7143C22.3429 21.0857 18.6286 17.3143 14.0572 17.3143ZM14.0572 32.2286C10.5143 32.2286 7.6572 29.3143 7.6572 25.7143C7.6572 22.1143 10.5143 19.2571 14.0572 19.2571C17.6001 19.2571 20.4572 22.1714 20.4572 25.7714C20.5143 29.3143 17.6001 32.2286 14.0572 32.2286Z" fill="#4F4F4F"/>
<path d="M44.629 19.2571H27.0862C26.5719 19.2571 26.1719 19.6571 26.1719 20.1714C26.1719 20.6857 26.5719 21.0857 27.0862 21.0857H44.629C45.1433 21.0857 45.5433 20.6857 45.5433 20.1714C45.6004 19.6571 45.1433 19.2571 44.629 19.2571Z" fill="#4F4F4F"/>
<path d="M44.629 24.5714H27.0862C26.5719 24.5714 26.1719 24.9714 26.1719 25.4857C26.1719 26 26.5719 26.4 27.0862 26.4H44.629C45.1433 26.4 45.5433 26 45.5433 25.4857C45.5433 24.9714 45.1433 24.5714 44.629 24.5714Z" fill="#4F4F4F"/>
<path d="M38.0004 29.2571H27.0862C26.5719 29.2571 26.1719 29.6571 26.1719 30.1714C26.1719 30.6857 26.5719 31.0857 27.0862 31.0857H38.0004C38.5147 31.0857 38.9147 30.6857 38.9147 30.1714C38.9147 29.7143 38.5147 29.2571 38.0004 29.2571Z" fill="#4F4F4F"/>
<path d="M45.5429 6.51429H30.6857V2.62857C30.6857 1.14286 29.4857 0 28.0571 0H23.2C21.7714 0 20.5714 1.2 20.5714 2.62857V6.51429H5.88571C2.62857 6.51429 0 9.2 0 12.4571V34C0 37.3143 2.62857 40 5.88571 40H45.4857C48.8 40 51.4286 37.3143 51.4286 34.0571V12.4571C51.4286 9.2 48.8 6.51429 45.5429 6.51429ZM22.4 2.62857C22.4 2.22857 22.7429 1.88571 23.1429 1.88571H28C28.4 1.88571 28.7429 2.22857 28.7429 2.62857V12.0571H22.4V2.62857ZM49.5429 34.0571C49.5429 36.2857 47.7143 38.1143 45.4857 38.1143H5.88571C3.65714 38.1143 1.82857 36.2857 1.82857 34.0571V12.4571C1.82857 10.2286 3.65714 8.4 5.88571 8.4H20.5143V12.1143H20C19.4857 12.1143 19.0857 12.5143 19.0857 13.0286C19.0857 13.5429 19.4857 13.9429 20 13.9429H20.5143H30.6286H31.1429C31.6571 13.9429 32.0571 13.5429 32.0571 13.0286C32.0571 12.5143 31.6571 12.1143 31.1429 12.1143H30.6286V8.4H45.4857C47.7143 8.4 49.5429 10.2286 49.5429 12.4571V34.0571Z" fill="#4F4F4F"/>
<path d="M47.5 23C53.8513 23 59 17.8513 59 11.5C59 5.14873 53.8513 0 47.5 0C41.1487 0 36 5.14873 36 11.5C36 17.8513 41.1487 23 47.5 23Z" fill="#4F4F4F"/>
<path d="M51.5486 7.38728L46.3478 12.5567L43.5824 9.79129C43.2276 9.36686 42.6636 9.17918 42.1252 9.30642C41.5868 9.43367 41.1665 9.85402 41.0392 10.3924C40.912 10.9308 41.0997 11.4948 41.5241 11.8496L45.2479 15.5735C45.8528 16.1422 46.7957 16.1422 47.4006 15.5735L53.6855 9.39848C54.1708 8.81796 54.1327 7.96302 53.5977 7.428C53.0627 6.89298 52.2077 6.85486 51.6272 7.34014L51.5486 7.38728Z" fill="white"/>
</svg>
