<svg width="16" height="16" viewBox="0 0 16 16" fill="none" xmlns="http://www.w3.org/2000/svg">
<path d="M5.90948 0H1.11798C0.501493 0 0 0.501493 0 1.11798V3.99288C0 4.60948 0.501493 5.11097 1.11798 5.11097H5.90948C6.52608 5.11097 7.02758 4.60948 7.02758 3.99288V1.11798C7.02758 0.501493 6.52608 0 5.90948 0Z" fill="#222222"/>
<path d="M5.90948 6.38867H1.11798C0.501493 6.38867 0 6.89017 0 7.50677V14.2149C0 14.8314 0.501493 15.3328 1.11798 15.3328H5.90948C6.52608 15.3328 7.02758 14.8314 7.02758 14.2149V7.50677C7.02758 6.89017 6.52608 6.38867 5.90948 6.38867Z" fill="#222222"/>
<path d="M14.2153 10.2219H9.42376C8.80716 10.2219 8.30566 10.7234 8.30566 11.34V14.2149C8.30566 14.8314 8.80716 15.3329 9.42376 15.3329H14.2153C14.8317 15.3329 15.3332 14.8314 15.3332 14.2149V11.34C15.3332 10.7234 14.8317 10.2219 14.2153 10.2219Z" fill="#222222"/>
<path d="M14.2153 0H9.42376C8.80716 0 8.30566 0.501493 8.30566 1.11798V7.82608C8.30566 8.44268 8.80716 8.94418 9.42376 8.94418H14.2153C14.8317 8.94418 15.3332 8.44268 15.3332 7.82608V1.11798C15.3332 0.501493 14.8317 0 14.2153 0V0Z" fill="#222222"/>
</svg>
