<svg width="51" height="38" viewBox="0 0 51 38" fill="none" xmlns="http://www.w3.org/2000/svg">
<path d="M10.7305 7.72537H6.73047C6.46525 7.72537 6.2109 7.83073 6.02336 8.01827C5.83583 8.2058 5.73047 8.46016 5.73047 8.72537C5.73047 8.99059 5.83583 9.24494 6.02336 9.43248C6.2109 9.62002 6.46525 9.72537 6.73047 9.72537H10.7305C10.9957 9.72537 11.25 9.62002 11.4376 9.43248C11.6251 9.24494 11.7305 8.99059 11.7305 8.72537C11.7305 8.46016 11.6251 8.2058 11.4376 8.01827C11.25 7.83073 10.9957 7.72537 10.7305 7.72537Z" fill="#4F4F4F"/>
<path d="M18.7305 9.72537C18.9957 9.72537 19.25 9.62002 19.4376 9.43248C19.6251 9.24494 19.7305 8.99059 19.7305 8.72537C19.7305 8.46016 19.6251 8.2058 19.4376 8.01827C19.25 7.83073 18.9957 7.72537 18.7305 7.72537H14.7305C14.4653 7.72537 14.2109 7.83073 14.0234 8.01827C13.8358 8.2058 13.7305 8.46016 13.7305 8.72537C13.7305 8.99059 13.8358 9.24494 14.0234 9.43248C14.2109 9.62002 14.4653 9.72537 14.7305 9.72537H18.7305Z" fill="#4F4F4F"/>
<path d="M27.7305 8.72537C27.7305 8.46016 27.6251 8.2058 27.4376 8.01827C27.25 7.83073 26.9957 7.72537 26.7305 7.72537H22.7305C22.4653 7.72537 22.2109 7.83073 22.0234 8.01827C21.8358 8.2058 21.7305 8.46016 21.7305 8.72537C21.7305 8.99059 21.8358 9.24494 22.0234 9.43248C22.2109 9.62002 22.4653 9.72537 22.7305 9.72537H26.7305C26.8618 9.72537 26.9918 9.69951 27.1132 9.64925C27.2345 9.599 27.3447 9.52534 27.4376 9.43248C27.5304 9.33962 27.6041 9.22938 27.6543 9.10806C27.7046 8.98673 27.7305 8.85669 27.7305 8.72537Z" fill="#4F4F4F"/>
<path d="M5.79004 22.3054V24.1154C5.79004 24.3806 5.8954 24.6349 6.08293 24.8225C6.27047 25.01 6.52482 25.1154 6.79004 25.1154C7.05526 25.1154 7.30961 25.01 7.49715 24.8225C7.68468 24.6349 7.79004 24.3806 7.79004 24.1154V22.3054C7.79004 22.0401 7.68468 21.7858 7.49715 21.5983C7.30961 21.4107 7.05526 21.3054 6.79004 21.3054C6.52482 21.3054 6.27047 21.4107 6.08293 21.5983C5.8954 21.7858 5.79004 22.0401 5.79004 22.3054Z" fill="#4F4F4F"/>
<path d="M10.7002 17.6254V24.1154C10.7002 24.3806 10.8056 24.6349 10.9931 24.8225C11.1806 25.01 11.435 25.1154 11.7002 25.1154C11.9654 25.1154 12.2198 25.01 12.4073 24.8225C12.5948 24.6349 12.7002 24.3806 12.7002 24.1154V17.6254C12.7002 17.3602 12.5948 17.1058 12.4073 16.9183C12.2198 16.7307 11.9654 16.6254 11.7002 16.6254C11.435 16.6254 11.1806 16.7307 10.9931 16.9183C10.8056 17.1058 10.7002 17.3602 10.7002 17.6254Z" fill="#4F4F4F"/>
<path d="M16.5996 19.2953C16.3344 19.2953 16.08 19.4007 15.8925 19.5882C15.705 19.7758 15.5996 20.0301 15.5996 20.2953V24.1154C15.5996 24.3806 15.705 24.6349 15.8925 24.8225C16.08 25.01 16.3344 25.1154 16.5996 25.1154C16.8648 25.1154 17.1192 25.01 17.3067 24.8225C17.4943 24.6349 17.5996 24.3806 17.5996 24.1154V20.2953C17.5996 20.0301 17.4943 19.7758 17.3067 19.5882C17.1192 19.4007 16.8648 19.2953 16.5996 19.2953Z" fill="#4F4F4F"/>
<path d="M20.5 15.1454V24.1454C20.5 24.4106 20.6054 24.6649 20.7929 24.8525C20.9804 25.04 21.2348 25.1454 21.5 25.1454C21.7652 25.1454 22.0196 25.04 22.2071 24.8525C22.3946 24.6649 22.5 24.4106 22.5 24.1454V15.1454C22.5 14.8801 22.3946 14.6258 22.2071 14.4382C22.0196 14.2507 21.7652 14.1454 21.5 14.1454C21.2348 14.1454 20.9804 14.2507 20.7929 14.4382C20.6054 14.6258 20.5 14.8801 20.5 15.1454Z" fill="#4F4F4F"/>
<path d="M25.4102 16.6254V24.1154C25.4102 24.3806 25.5155 24.6349 25.703 24.8225C25.8906 25.01 26.1449 25.1154 26.4102 25.1154C26.6754 25.1154 26.9297 25.01 27.1173 24.8225C27.3048 24.6349 27.4102 24.3806 27.4102 24.1154V16.6254C27.4102 16.3601 27.3048 16.1058 27.1173 15.9183C26.9297 15.7307 26.6754 15.6254 26.4102 15.6254C26.1449 15.6254 25.8906 15.7307 25.703 15.9183C25.5155 16.1058 25.4102 16.3601 25.4102 16.6254Z" fill="#4F4F4F"/>
<path d="M40.6695 27.8354C39.5169 27.8351 38.3995 28.2331 37.5066 28.9621C36.6137 29.691 36.0001 30.706 35.7695 31.8354H18.7695C18.5043 31.8354 18.25 31.9407 18.0624 32.1283C17.8749 32.3158 17.7695 32.5701 17.7695 32.8354C17.7695 33.1006 17.8749 33.3549 18.0624 33.5425C18.25 33.73 18.5043 33.8354 18.7695 33.8354H35.7695C35.9587 34.7623 36.407 35.6165 37.0623 36.2988C37.7176 36.9811 38.5531 37.4635 39.4716 37.69C40.3901 37.9164 41.354 37.8777 42.2514 37.5782C43.1488 37.2787 43.9428 36.7308 44.5412 35.998C45.1396 35.2653 45.5178 34.3778 45.632 33.4387C45.7461 32.4996 45.5915 31.5474 45.1861 30.6926C44.7807 29.8379 44.1411 29.1157 43.3416 28.6099C42.5421 28.1041 41.6156 27.8356 40.6695 27.8354ZM40.6695 35.8354C40.0762 35.8354 39.4962 35.6594 39.0028 35.3298C38.5095 35.0001 38.125 34.5316 37.8979 33.9834C37.6708 33.4352 37.6114 32.832 37.7272 32.2501C37.8429 31.6681 38.1287 31.1336 38.5482 30.714C38.9678 30.2945 39.5023 30.0088 40.0843 29.893C40.6662 29.7772 41.2694 29.8367 41.8176 30.0637C42.3658 30.2908 42.8343 30.6753 43.1639 31.1686C43.4936 31.662 43.6695 32.242 43.6695 32.8354C43.6695 33.631 43.3535 34.3941 42.7909 34.9567C42.2282 35.5193 41.4652 35.8354 40.6695 35.8354Z" fill="#4F4F4F"/>
<path d="M10.79 27.8354C9.80114 27.8354 8.83444 28.1286 8.01219 28.678C7.18994 29.2274 6.54908 30.0083 6.17064 30.9219C5.79221 31.8356 5.69319 32.8409 5.88611 33.8108C6.07904 34.7807 6.55524 35.6716 7.25451 36.3709C7.95377 37.0702 8.84469 37.5464 9.81459 37.7393C10.7845 37.9322 11.7898 37.8332 12.7035 37.4548C13.6171 37.0763 14.398 36.4355 14.9474 35.6132C15.4968 34.791 15.79 33.8243 15.79 32.8354C15.79 31.5093 15.2633 30.2375 14.3256 29.2998C13.3879 28.3621 12.1161 27.8354 10.79 27.8354ZM10.79 35.8354C10.1967 35.8354 9.61668 35.6594 9.12333 35.3298C8.62998 35.0001 8.24547 34.5316 8.0184 33.9834C7.79134 33.4352 7.73193 32.832 7.84769 32.2501C7.96344 31.6681 8.24916 31.1336 8.66872 30.714C9.08828 30.2945 9.62283 30.0088 10.2048 29.893C10.7867 29.7772 11.3899 29.8367 11.9381 30.0637C12.4863 30.2908 12.9548 30.6753 13.2845 31.1686C13.6141 31.662 13.79 32.242 13.79 32.8354C13.79 33.631 13.474 34.3941 12.9114 34.9567C12.3488 35.5193 11.5857 35.8354 10.79 35.8354Z" fill="#4F4F4F"/>
<path d="M39.88 9.70536H34.51C34.0585 9.70582 33.6122 9.80122 33.2 9.98536V4.08536C33.2001 3.232 32.8646 2.41284 32.2658 1.80476C31.6671 1.19668 30.8533 0.848486 30 0.835358H3.25C2.38805 0.835358 1.5614 1.17777 0.951903 1.78726C0.34241 2.39675 0 3.2234 0 4.08536L0 30.5954C0.00264684 31.4556 0.346225 32.2797 0.955431 32.887C1.56464 33.4943 2.38978 33.8354 3.25 33.8354C3.51522 33.8354 3.76957 33.73 3.95711 33.5425C4.14464 33.3549 4.25 33.1006 4.25 32.8354C4.25 32.5701 4.14464 32.3158 3.95711 32.1283C3.76957 31.9407 3.51522 31.8354 3.25 31.8354C2.9202 31.8354 2.60377 31.705 2.36963 31.4728C2.1355 31.2405 2.00264 30.9251 2 30.5954V4.08536C2 3.75384 2.1317 3.43589 2.36612 3.20147C2.60054 2.96705 2.91848 2.83536 3.25 2.83536H30C30.3228 2.84828 30.628 2.98566 30.8517 3.21869C31.0754 3.45173 31.2003 3.76232 31.2 4.08536V24.0854C31.2 24.3506 31.3054 24.6049 31.4929 24.7925C31.6804 24.98 31.9348 25.0854 32.2 25.0854C32.4652 25.0854 32.7196 24.98 32.9071 24.7925C33.0946 24.6049 33.2 24.3506 33.2 24.0854V13.2654C33.2363 13.1659 33.2565 13.0612 33.26 12.9554C33.26 12.6238 33.3917 12.3059 33.6261 12.0715C33.8605 11.8371 34.1785 11.7054 34.51 11.7054H39.88C42.0513 11.708 44.1329 12.5717 45.6683 14.1071C47.2036 15.6424 48.0674 17.724 48.07 19.8954V30.5954C48.0698 30.8365 47.9998 31.0724 47.8685 31.2747C47.7372 31.477 47.5502 31.637 47.33 31.7354C47.2023 31.7837 47.0859 31.8576 46.9878 31.9526C46.8898 32.0476 46.8123 32.1617 46.76 32.2878C46.7077 32.4139 46.6818 32.5494 46.6839 32.6859C46.686 32.8224 46.716 32.957 46.7721 33.0815C46.8281 33.2059 46.9091 33.3176 47.01 33.4096C47.1108 33.5016 47.2295 33.5719 47.3586 33.6163C47.4877 33.6607 47.6245 33.6782 47.7606 33.6677C47.8967 33.6572 48.0292 33.619 48.15 33.5554C48.7254 33.295 49.2125 32.8726 49.5518 32.3398C49.891 31.807 50.0676 31.1869 50.06 30.5554V19.8954C50.0574 17.1953 48.9843 14.6065 47.076 12.6964C45.1678 10.7863 42.58 9.71065 39.88 9.70536Z" fill="#4F4F4F"/>
</svg>
