<svg width="15" height="15" viewBox="0 0 15 15" fill="none" xmlns="http://www.w3.org/2000/svg">
<g clip-path="url(#clip0)">
<path d="M7.49942 2.63458C8.22182 2.63458 8.80743 2.04896 8.80743 1.32657C8.80743 0.604173 8.22182 0.0185547 7.49942 0.0185547C6.77702 0.0185547 6.19141 0.604173 6.19141 1.32657C6.19141 2.04896 6.77702 2.63458 7.49942 2.63458Z" fill="#4F4F4F"/>
<path d="M8.00626 2.94868C8.00009 2.94851 7.99391 2.94834 7.98774 2.94824H7.0111C6.00956 2.96707 5.21295 3.79426 5.23177 4.7958C5.23187 4.80197 5.23204 4.80815 5.23221 4.81433V5.09336C5.23221 5.23289 5.28451 5.38985 5.44147 5.38985H9.55733C9.71428 5.38985 9.76659 5.23289 9.76659 5.09336V4.81433C9.79567 3.81305 9.00753 2.97775 8.00626 2.94868Z" fill="#4F4F4F"/>
<path d="M1.83189 8.70394C1.97636 8.70394 2.0935 8.5868 2.0935 8.44233C2.08986 6.8008 2.83459 5.24713 4.11654 4.22182C4.22606 4.14317 4.25113 3.99062 4.17248 3.8811C4.16604 3.87212 4.159 3.8636 4.15142 3.85559C4.05952 3.7456 3.89619 3.73004 3.78519 3.82071C2.38492 4.94616 1.57038 6.64581 1.57031 8.44233C1.57031 8.58684 1.68741 8.70394 1.83189 8.70394Z" fill="#4F4F4F"/>
<path d="M9.22605 13.5694C8.11008 13.9355 6.90634 13.9355 5.79037 13.5694C5.6529 13.5249 5.50543 13.6003 5.46089 13.7377C5.46023 13.7397 5.45959 13.7418 5.45899 13.7438C5.42337 13.8827 5.49878 14.0259 5.63338 14.0752C6.23604 14.2711 6.86575 14.3712 7.49946 14.3717C8.14606 14.3723 8.78835 14.2663 9.40043 14.0578C9.52879 13.9915 9.57913 13.8336 9.51283 13.7053C9.45875 13.6006 9.34132 13.545 9.22605 13.5694Z" fill="#4F4F4F"/>
<path d="M10.6187 4.0276C10.6198 4.02837 10.6209 4.02914 10.6221 4.02991C12.0521 5.04486 12.9033 6.68859 12.9067 8.44224C12.9067 8.58672 13.0239 8.70385 13.1683 8.70385C13.3128 8.70385 13.43 8.58672 13.43 8.44224C13.4251 6.51534 12.4897 4.70948 10.9186 3.59391C10.7966 3.52024 10.6387 3.55032 10.5523 3.66368C10.4701 3.78252 10.4999 3.94545 10.6187 4.0276Z" fill="#4F4F4F"/>
<path d="M2.26797 12.2264C2.99037 12.2264 3.57599 11.6408 3.57599 10.9184C3.57599 10.196 2.99037 9.61035 2.26797 9.61035C1.54558 9.61035 0.959961 10.196 0.959961 10.9184C0.959961 11.6408 1.54558 12.2264 2.26797 12.2264Z" fill="#4F4F4F"/>
<path d="M2.77482 12.5405C2.76864 12.5403 2.76247 12.5401 2.75629 12.54H1.77965C0.778113 12.5589 -0.0185324 13.3861 0.000328094 14.3876C0.000428238 14.3938 0.000595145 14.3999 0.000762051 14.4061V14.6852C0.000762051 14.8247 0.0530706 14.9816 0.21003 14.9816H4.32588C4.48284 14.9816 4.53515 14.8247 4.53515 14.6852V14.4061C4.56426 13.4048 3.77612 12.5695 2.77482 12.5405Z" fill="#4F4F4F"/>
<path d="M12.7318 12.2264C13.4542 12.2264 14.0399 11.6408 14.0399 10.9184C14.0399 10.196 13.4542 9.61035 12.7318 9.61035C12.0094 9.61035 11.4238 10.196 11.4238 10.9184C11.4238 11.6408 12.0094 12.2264 12.7318 12.2264Z" fill="#4F4F4F"/>
<path d="M13.2387 12.5405C13.2325 12.5403 13.2263 12.5401 13.2202 12.54H12.2435C11.242 12.5589 10.4454 13.3861 10.4642 14.3876C10.4643 14.3938 10.4645 14.3999 10.4646 14.4061V14.6852C10.4646 14.8247 10.5169 14.9816 10.6739 14.9816H14.7898C14.9467 14.9816 14.999 14.8247 14.999 14.6852V14.4061C15.0281 13.4048 14.24 12.5695 13.2387 12.5405Z" fill="#4F4F4F"/>
</g>
<defs>
<clipPath id="clip0">
</clipPath>
</defs>
</svg>
