<svg width="15" height="15" viewBox="0 0 15 15" fill="none" xmlns="http://www.w3.org/2000/svg">
<g clip-path="url(#clip0)">
<path d="M7.49942 2.63422C8.22182 2.63422 8.80743 2.0486 8.80743 1.3262C8.80743 0.603806 8.22182 0.0181885 7.49942 0.0181885C6.77702 0.0181885 6.19141 0.603806 6.19141 1.3262C6.19141 2.0486 6.77702 2.63422 7.49942 2.63422Z" fill="black"/>
<path d="M8.00626 2.94855C8.00009 2.94839 7.99391 2.94822 7.98774 2.94812H7.0111C6.00956 2.96695 5.21295 3.79414 5.23177 4.79568C5.23187 4.80185 5.23204 4.80803 5.23221 4.8142V5.09324C5.23221 5.23277 5.28451 5.38973 5.44147 5.38973H9.55733C9.71428 5.38973 9.76659 5.23277 9.76659 5.09324V4.8142C9.79567 3.81293 9.00753 2.97763 8.00626 2.94855Z" fill="black"/>
<path d="M1.83189 8.70333C1.97636 8.70333 2.0935 8.58619 2.0935 8.44172C2.08986 6.80019 2.83459 5.24652 4.11654 4.22121C4.22606 4.14256 4.25113 3.99001 4.17248 3.88049C4.16604 3.87151 4.159 3.86299 4.15142 3.85498C4.05952 3.74499 3.89619 3.72943 3.78519 3.8201C2.38492 4.94555 1.57038 6.6452 1.57031 8.44172C1.57031 8.58623 1.68741 8.70333 1.83189 8.70333Z" fill="black"/>
<path d="M9.22605 13.5691C8.11008 13.9352 6.90634 13.9352 5.79037 13.5691C5.6529 13.5246 5.50543 13.5999 5.46089 13.7373C5.46023 13.7394 5.45959 13.7414 5.45899 13.7434C5.42337 13.8823 5.49878 14.0256 5.63338 14.0748C6.23604 14.2707 6.86575 14.3708 7.49946 14.3713C8.14606 14.372 8.78835 14.2659 9.40043 14.0574C9.52879 13.9911 9.57913 13.8333 9.51283 13.7049C9.45875 13.6002 9.34132 13.5446 9.22605 13.5691Z" fill="black"/>
<path d="M10.6187 4.02712C10.6198 4.02788 10.6209 4.02865 10.6221 4.02942C12.0521 5.04438 12.9033 6.6881 12.9067 8.44175C12.9067 8.58623 13.0239 8.70336 13.1683 8.70336C13.3128 8.70336 13.43 8.58623 13.43 8.44175C13.4251 6.51485 12.4897 4.70899 10.9186 3.59343C10.7966 3.51975 10.6387 3.54983 10.5523 3.66319C10.4701 3.78203 10.4999 3.94496 10.6187 4.02712Z" fill="black"/>
<path d="M2.26797 12.2261C2.99037 12.2261 3.57599 11.6405 3.57599 10.9181C3.57599 10.1957 2.99037 9.61011 2.26797 9.61011C1.54558 9.61011 0.959961 10.1957 0.959961 10.9181C0.959961 11.6405 1.54558 12.2261 2.26797 12.2261Z" fill="black"/>
<path d="M2.77482 12.5406C2.76864 12.5404 2.76247 12.5403 2.75629 12.5402H1.77965C0.778113 12.559 -0.0185324 13.3862 0.000328094 14.3877C0.000428238 14.3939 0.000595145 14.4001 0.000762051 14.4062V14.6853C0.000762051 14.8248 0.0530706 14.9818 0.21003 14.9818H4.32588C4.48284 14.9818 4.53515 14.8248 4.53515 14.6853V14.4062C4.56426 13.4049 3.77612 12.5697 2.77482 12.5406Z" fill="black"/>
<path d="M12.7318 12.2261C13.4542 12.2261 14.0399 11.6405 14.0399 10.9181C14.0399 10.1957 13.4542 9.61011 12.7318 9.61011C12.0094 9.61011 11.4238 10.1957 11.4238 10.9181C11.4238 11.6405 12.0094 12.2261 12.7318 12.2261Z" fill="black"/>
<path d="M13.2387 12.5406C13.2325 12.5404 13.2263 12.5403 13.2202 12.5402H12.2435C11.242 12.559 10.4454 13.3862 10.4642 14.3877C10.4643 14.3939 10.4645 14.4001 10.4646 14.4062V14.6853C10.4646 14.8248 10.5169 14.9818 10.6739 14.9818H14.7898C14.9467 14.9818 14.999 14.8248 14.999 14.6853V14.4062C15.0281 13.4049 14.24 12.5697 13.2387 12.5406Z" fill="black"/>
</g>
<defs>
<clipPath id="clip0">
<rect width="15" height="15" fill="white"/>
</clipPath>
</defs>
</svg>
