<svg width="23" height="23" viewBox="0 0 23 23" fill="none" xmlns="http://www.w3.org/2000/svg">
<g clip-path="url(#clip0)">
<path d="M21.2281 14.074C20.9117 14.074 20.6553 14.3304 20.6553 14.6468V19.7328C20.6542 20.6816 19.8856 21.4504 18.9368 21.4513H2.8641C1.91536 21.4504 1.14676 20.6816 1.14564 19.7328V4.80575C1.14676 3.85724 1.91536 3.08841 2.8641 3.08729H7.9501C8.2665 3.08729 8.52292 2.83086 8.52292 2.51447C8.52292 2.1983 8.2665 1.94165 7.9501 1.94165H2.8641C1.28303 1.94344 0.00179006 3.22468 0 4.80575V19.7331C0.00179006 21.3141 1.28303 22.5954 2.8641 22.5971H18.9368C20.5179 22.5954 21.7991 21.3141 21.8009 19.7331V14.6468C21.8009 14.3304 21.5445 14.074 21.2281 14.074Z" fill="#656972"/>
<path d="M21.574 0.842294C20.5673 -0.164391 18.9352 -0.164391 17.9285 0.842294L7.70906 11.0617C7.63903 11.1318 7.58846 11.2186 7.56206 11.3139L6.21817 16.1657C6.1629 16.3646 6.21906 16.5776 6.36495 16.7237C6.51107 16.8696 6.72408 16.9258 6.923 16.8707L11.7747 15.5266C11.8701 15.5002 11.9569 15.4496 12.0269 15.3796L22.2461 5.15992C23.2513 4.15256 23.2513 2.52182 22.2461 1.51446L21.574 0.842294ZM8.95718 11.4341L17.321 3.07002L20.0184 5.76742L11.6544 14.1315L8.95718 11.4341ZM8.41838 12.5153L10.5734 14.6705L7.59249 15.4964L8.41838 12.5153ZM21.4361 4.34992L20.8286 4.95742L18.131 2.2598L18.7387 1.6523C19.2979 1.09313 20.2046 1.09313 20.7638 1.6523L21.4361 2.32446C21.9944 2.88431 21.9944 3.7903 21.4361 4.34992Z" fill="#656972"/>
</g>
<defs>
<clipPath id="clip0">
<rect width="23" height="23" fill="white"/>
</clipPath>
</defs>
</svg>
