<svg width="136" height="40" viewBox="0 0 136 40" fill="none" xmlns="http://www.w3.org/2000/svg">
<circle cx="20" cy="20" r="19.0323" stroke="white" stroke-width="1.93548"/>
<path d="M18.1185 11.0119C20.2193 11.0119 22.0212 11.3922 23.5243 12.1528C25.0274 12.9134 26.1774 14.0091 26.9742 15.4397C27.771 16.8704 28.1695 18.5727 28.1695 20.5467C28.1695 22.5025 27.771 24.1958 26.9742 25.6265C26.1774 27.039 25.0274 28.1256 23.5243 28.8862C22.0212 29.6287 20.2193 30 18.1185 30H12.4954V11.0119H18.1185ZM18.1185 28.4244C20.7626 28.4244 22.7727 27.7363 24.1491 26.3599C25.5435 24.9655 26.2408 23.0277 26.2408 20.5467C26.2408 18.0475 25.5435 16.1007 24.1491 14.7063C22.7727 13.2937 20.7626 12.5874 18.1185 12.5874H14.397V28.4244H18.1185Z" fill="white"/>
<path d="M23.5243 12.1528L22.7577 13.6677L22.7577 13.6677L23.5243 12.1528ZM26.9742 15.4397L28.4575 14.6136L28.4575 14.6136L26.9742 15.4397ZM26.9742 25.6265L28.453 26.4607L28.4575 26.4526L26.9742 25.6265ZM23.5243 28.8862L24.2762 30.4085L24.2836 30.4048L24.2909 30.4011L23.5243 28.8862ZM12.4954 30H10.7976V31.6978H12.4954V30ZM12.4954 11.0119V9.31409H10.7976V11.0119H12.4954ZM24.1491 26.3599L22.9486 25.1594L24.1491 26.3599ZM24.1491 14.7063L22.9331 15.8911L22.9408 15.899L22.9486 15.9068L24.1491 14.7063ZM14.397 12.5874V10.8896H12.6992V12.5874H14.397ZM14.397 28.4244H12.6992V30.1222H14.397V28.4244ZM18.1185 12.7097C20.0173 12.7097 21.5437 13.0534 22.7577 13.6677L24.2909 10.6379C22.4987 9.73101 20.4212 9.31409 18.1185 9.31409V12.7097ZM22.7577 13.6677C23.9678 14.28 24.8639 15.14 25.491 16.2658L28.4575 14.6136C27.4909 12.8781 26.087 11.5468 24.2909 10.6379L22.7577 13.6677ZM25.491 16.2658C26.1209 17.3968 26.4717 18.8027 26.4717 20.5467H29.8673C29.8673 18.3428 29.4212 16.344 28.4575 14.6136L25.491 16.2658ZM26.4717 20.5467C26.4717 22.2696 26.1221 23.6672 25.491 24.8004L28.4575 26.4526C29.42 24.7244 29.8673 22.7355 29.8673 20.5467H26.4717ZM25.4955 24.7923C24.8702 25.9008 23.9737 26.7561 22.7577 27.3714L24.2909 30.4011C26.0812 29.4952 27.4846 28.1773 28.453 26.4606L25.4955 24.7923ZM22.7724 27.364C21.5547 27.9656 20.0228 28.3022 18.1185 28.3022V31.6978C20.4157 31.6978 22.4877 31.2919 24.2762 30.4085L22.7724 27.364ZM18.1185 28.3022H12.4954V31.6978H18.1185V28.3022ZM14.1932 30V11.0119H10.7976V30H14.1932ZM12.4954 12.7097H18.1185V9.31409H12.4954V12.7097ZM18.1185 30.1222C21.0472 30.1222 23.5543 29.3558 25.3496 27.5605L22.9486 25.1594C21.9912 26.1168 20.4779 26.7267 18.1185 26.7267V30.1222ZM25.3496 27.5605C27.1397 25.7703 27.9386 23.3555 27.9386 20.5467H24.543C24.543 22.6999 23.9474 24.1606 22.9486 25.1594L25.3496 27.5605ZM27.9386 20.5467C27.9386 17.7238 27.142 15.2981 25.3496 13.5058L22.9486 15.9068C23.9451 16.9033 24.543 18.3713 24.543 20.5467H27.9386ZM25.3651 13.5215C23.5718 11.6809 21.059 10.8896 18.1185 10.8896V14.2852C20.4661 14.2852 21.9737 14.9065 22.9331 15.8911L25.3651 13.5215ZM18.1185 10.8896H14.397V14.2852H18.1185V10.8896ZM12.6992 12.5874V28.4244H16.0948V12.5874H12.6992ZM14.397 30.1222H18.1185V26.7267H14.397V30.1222Z" fill="white"/>
<path d="M44.8121 20.3644C44.8121 19.4169 45.0038 18.5879 45.3873 17.8774C45.7708 17.1555 46.2953 16.6029 46.9607 16.2194C47.6374 15.8246 48.3988 15.6272 49.2447 15.6272C50.0568 15.6272 50.7899 15.8246 51.4441 16.2194C52.0983 16.6141 52.5776 17.1273 52.8821 17.7589V12.4804H54.0664V25H52.8821V22.936C52.6002 23.5789 52.1377 24.109 51.4948 24.5263C50.8519 24.9323 50.0962 25.1353 49.2278 25.1353C48.3819 25.1353 47.6205 24.938 46.9438 24.5432C46.2783 24.1484 45.7539 23.5901 45.3704 22.8683C44.9982 22.1464 44.8121 21.3118 44.8121 20.3644ZM52.8821 20.3813C52.8821 19.6369 52.7299 18.9827 52.4253 18.4188C52.1208 17.8548 51.7035 17.4206 51.1734 17.116C50.6546 16.8115 50.0793 16.6593 49.4477 16.6593C48.7935 16.6593 48.207 16.8059 47.6882 17.0991C47.1694 17.3924 46.7577 17.821 46.4532 18.3849C46.1599 18.9376 46.0133 19.5974 46.0133 20.3644C46.0133 21.1201 46.1599 21.7855 46.4532 22.3607C46.7577 22.9247 47.1694 23.3589 47.6882 23.6634C48.207 23.9567 48.7935 24.1033 49.4477 24.1033C50.0793 24.1033 50.6546 23.9511 51.1734 23.6465C51.7035 23.342 52.1208 22.9078 52.4253 22.3438C52.7299 21.7799 52.8821 21.1257 52.8821 20.3813ZM56.2287 20.3644C56.2287 19.4169 56.4148 18.5879 56.787 17.8774C57.1705 17.1555 57.6949 16.6029 58.3604 16.2194C59.0371 15.8246 59.7984 15.6272 60.6444 15.6272C61.5241 15.6272 62.2798 15.8303 62.9114 16.2363C63.5543 16.6423 64.0168 17.1612 64.2987 17.7928V15.7626H65.483V25H64.2987V22.9529C64.0055 23.5845 63.5374 24.109 62.8945 24.5263C62.2629 24.9323 61.5072 25.1353 60.6274 25.1353C59.7928 25.1353 59.0371 24.938 58.3604 24.5432C57.6949 24.1484 57.1705 23.5901 56.787 22.8683C56.4148 22.1464 56.2287 21.3118 56.2287 20.3644ZM64.2987 20.3813C64.2987 19.6369 64.1465 18.9827 63.8419 18.4188C63.5374 17.8548 63.1201 17.4206 62.59 17.116C62.0711 16.8115 61.4959 16.6593 60.8643 16.6593C60.2101 16.6593 59.6236 16.8059 59.1048 17.0991C58.586 17.3924 58.1743 17.821 57.8697 18.3849C57.5765 18.9376 57.4299 19.5974 57.4299 20.3644C57.4299 21.1201 57.5765 21.7855 57.8697 22.3607C58.1743 22.9247 58.586 23.3589 59.1048 23.6634C59.6236 23.9567 60.2101 24.1033 60.8643 24.1033C61.4959 24.1033 62.0711 23.9511 62.59 23.6465C63.1201 23.342 63.5374 22.9078 63.8419 22.3438C64.1465 21.7799 64.2987 21.1257 64.2987 20.3813ZM71.4688 23.8496L74.5818 15.7626H75.8337L72.1286 25H70.7921L67.0869 15.7626H68.3558L71.4688 23.8496ZM78.9784 16.7608V22.4961C78.9784 23.06 79.0856 23.4492 79.2999 23.6634C79.5142 23.8777 79.892 23.9849 80.4334 23.9849H81.5162V25H80.2473C79.4127 25 78.7923 24.8083 78.3863 24.4248C77.9803 24.03 77.7772 23.3871 77.7772 22.4961V16.7608H76.4914V15.7626H77.7772V13.4448H78.9784V15.7626H81.5162V16.7608H78.9784ZM87.5128 25.1353C86.6443 25.1353 85.8605 24.9436 85.1612 24.5601C84.4732 24.1654 83.9261 23.6127 83.5201 22.9021C83.1253 22.1803 82.9279 21.34 82.9279 20.3813C82.9279 19.4226 83.131 18.5879 83.537 17.8774C83.9431 17.1555 84.4957 16.6029 85.195 16.2194C85.8943 15.8246 86.6782 15.6272 87.5467 15.6272C88.4151 15.6272 89.199 15.8246 89.8983 16.2194C90.6089 16.6029 91.1615 17.1555 91.5563 17.8774C91.9624 18.5879 92.1654 19.4226 92.1654 20.3813C92.1654 21.3287 91.9624 22.1634 91.5563 22.8852C91.1503 23.6071 90.592 24.1654 89.8814 24.5601C89.1708 24.9436 88.3813 25.1353 87.5128 25.1353ZM87.5128 24.1033C88.1219 24.1033 88.6858 23.968 89.2047 23.6973C89.7235 23.4153 90.1408 22.998 90.4566 22.4453C90.7837 21.8814 90.9472 21.1934 90.9472 20.3813C90.9472 19.5692 90.7893 18.8868 90.4735 18.3342C90.1577 17.7702 89.7404 17.3529 89.2216 17.0822C88.7027 16.8002 88.1388 16.6593 87.5297 16.6593C86.9207 16.6593 86.3567 16.8002 85.8379 17.0822C85.3191 17.3529 84.9018 17.7702 84.5859 18.3342C84.2814 18.8868 84.1292 19.5692 84.1292 20.3813C84.1292 21.1934 84.2814 21.8814 84.5859 22.4453C84.9018 22.998 85.3134 23.4153 85.821 23.6973C86.3398 23.968 86.9038 24.1033 87.5128 24.1033ZM98.6553 15.5934C99.7606 15.5934 100.663 15.9374 101.362 16.6254C102.062 17.3021 102.411 18.2891 102.411 19.5861V25H101.244V19.7215C101.244 18.7177 100.99 17.9507 100.482 17.4206C99.9862 16.8905 99.3038 16.6254 98.4353 16.6254C97.5443 16.6254 96.8337 16.9074 96.3036 17.4713C95.7735 18.0353 95.5085 18.8643 95.5085 19.9583V25H94.3242V15.7626H95.5085V17.336C95.8017 16.772 96.2247 16.3434 96.7773 16.0502C97.33 15.7457 97.956 15.5934 98.6553 15.5934ZM106.215 12.4804V25H105.03V12.4804H106.215ZM119.893 15.5934C120.976 15.5934 121.856 15.9374 122.533 16.6254C123.221 17.3021 123.565 18.2891 123.565 19.5861V25H122.397V19.7215C122.397 18.7177 122.155 17.9507 121.67 17.4206C121.185 16.8905 120.525 16.6254 119.69 16.6254C118.822 16.6254 118.128 16.913 117.609 17.4882C117.091 18.0635 116.831 18.8981 116.831 19.9922V25H115.664V19.7215C115.664 18.7177 115.421 17.9507 114.936 17.4206C114.451 16.8905 113.786 16.6254 112.94 16.6254C112.071 16.6254 111.378 16.913 110.859 17.4882C110.34 18.0635 110.081 18.8981 110.081 19.9922V25H108.896V15.7626H110.081V17.3529C110.374 16.7777 110.791 16.3434 111.333 16.0502C111.874 15.7457 112.477 15.5934 113.143 15.5934C113.944 15.5934 114.643 15.7851 115.241 16.1686C115.85 16.5521 116.29 17.116 116.56 17.8605C116.809 17.1273 117.232 16.569 117.829 16.1855C118.438 15.7908 119.126 15.5934 119.893 15.5934ZM129.375 25.1353C128.315 25.1353 127.447 24.8929 126.77 24.4079C126.105 23.9116 125.732 23.2405 125.653 22.3946H126.872C126.928 22.9134 127.17 23.3364 127.599 23.6634C128.039 23.9793 128.625 24.1372 129.359 24.1372C130.001 24.1372 130.503 23.9849 130.864 23.6804C131.236 23.3758 131.423 22.998 131.423 22.5468C131.423 22.231 131.321 21.9716 131.118 21.7686C130.915 21.5656 130.656 21.4077 130.34 21.2949C130.035 21.1708 129.618 21.0411 129.088 20.9058C128.4 20.7253 127.842 20.5448 127.413 20.3644C126.984 20.1839 126.618 19.9189 126.313 19.5692C126.02 19.2083 125.873 18.7289 125.873 18.1311C125.873 17.68 126.009 17.2627 126.279 16.8792C126.55 16.4957 126.934 16.1912 127.43 15.9656C127.926 15.74 128.49 15.6272 129.122 15.6272C130.114 15.6272 130.915 15.881 131.524 16.3886C132.133 16.8848 132.46 17.5728 132.505 18.4526H131.321C131.287 17.9112 131.073 17.477 130.678 17.1499C130.295 16.8115 129.765 16.6423 129.088 16.6423C128.49 16.6423 128.005 16.7833 127.633 17.0653C127.261 17.3473 127.075 17.6969 127.075 18.1142C127.075 18.4752 127.182 18.774 127.396 19.0109C127.622 19.2365 127.898 19.4169 128.225 19.5523C128.552 19.6764 128.992 19.8173 129.545 19.9752C130.21 20.1557 130.74 20.3305 131.135 20.4997C131.53 20.6689 131.868 20.917 132.15 21.2441C132.432 21.5712 132.579 22.0055 132.59 22.5468C132.59 23.0431 132.455 23.4886 132.184 23.8834C131.913 24.2669 131.535 24.5714 131.05 24.797C130.565 25.0226 130.007 25.1353 129.375 25.1353Z" fill="white"/>
<path d="M45.3873 17.8774L45.5633 17.9724L45.5639 17.9712L45.3873 17.8774ZM46.9607 16.2194L47.0606 16.3927L47.0615 16.3921L46.9607 16.2194ZM51.4441 16.2194L51.5474 16.0481L51.4441 16.2194ZM52.8821 17.7589L52.702 17.8458L53.0821 17.7589H52.8821ZM52.8821 12.4804V12.2804H52.6821V12.4804H52.8821ZM54.0664 12.4804H54.2664V12.2804H54.0664V12.4804ZM54.0664 25V25.2H54.2664V25H54.0664ZM52.8821 25H52.6821V25.2H52.8821V25ZM52.8821 22.936H53.0821L52.699 22.8556L52.8821 22.936ZM51.4948 24.5263L51.6016 24.6954L51.6037 24.694L51.4948 24.5263ZM46.9438 24.5432L46.8418 24.7152L46.843 24.716L46.9438 24.5432ZM45.3704 22.8683L45.1926 22.96L45.1938 22.9621L45.3704 22.8683ZM52.4253 18.4188L52.6013 18.3237L52.4253 18.4188ZM51.1734 17.116L51.0721 17.2885L51.0738 17.2895L51.1734 17.116ZM47.6882 17.0991L47.7866 17.2732L47.6882 17.0991ZM46.4532 18.3849L46.2772 18.2899L46.2765 18.2912L46.4532 18.3849ZM46.4532 22.3607L46.2749 22.4516L46.2772 22.4558L46.4532 22.3607ZM47.6882 23.6635L47.5869 23.836L47.5898 23.8376L47.6882 23.6635ZM51.1734 23.6465L51.0738 23.4731L51.0721 23.474L51.1734 23.6465ZM52.4253 22.3438L52.6013 22.4388L52.4253 22.3438ZM45.0121 20.3644C45.0121 19.4443 45.1981 18.6491 45.5633 17.9724L45.2113 17.7824C44.8095 18.5268 44.6121 19.3895 44.6121 20.3644H45.0121ZM45.5639 17.9712C45.931 17.2803 46.4298 16.7562 47.0606 16.3927L46.8609 16.0461C46.1607 16.4495 45.6106 17.0307 45.2107 17.7835L45.5639 17.9712ZM47.0615 16.3921C47.7052 16.0166 48.4313 15.8272 49.2447 15.8272V15.4272C48.3663 15.4272 47.5697 15.6326 46.8599 16.0466L47.0615 16.3921ZM49.2447 15.8272C50.0227 15.8272 50.7197 16.0159 51.3407 16.3906L51.5474 16.0481C50.8601 15.6334 50.0908 15.4272 49.2447 15.4272V15.8272ZM51.3407 16.3906C51.9648 16.7672 52.4158 17.2523 52.702 17.8458L53.0623 17.6721C52.7394 17.0023 52.2317 16.4611 51.5474 16.0481L51.3407 16.3906ZM53.0821 17.7589V12.4804H52.6821V17.7589H53.0821ZM52.8821 12.6804H54.0664V12.2804H52.8821V12.6804ZM53.8664 12.4804V25H54.2664V12.4804H53.8664ZM54.0664 24.8H52.8821V25.2H54.0664V24.8ZM53.0821 25V22.936H52.6821V25H53.0821ZM52.699 22.8556C52.4341 23.4595 51.9992 23.9604 51.3859 24.3585L51.6037 24.694C52.2762 24.2575 52.7662 23.6982 53.0653 23.0163L52.699 22.8556ZM51.388 24.3572C50.7815 24.7403 50.0639 24.9353 49.2278 24.9353V25.3353C50.1285 25.3353 50.9224 25.1244 51.6016 24.6954L51.388 24.3572ZM49.2278 24.9353C48.4143 24.9353 47.6883 24.746 47.0446 24.3704L46.843 24.716C47.5528 25.13 48.3494 25.3353 49.2278 25.3353V24.9353ZM47.0458 24.3712C46.4138 23.9962 45.9143 23.4658 45.547 22.7745L45.1938 22.9621C45.5934 23.7145 46.1429 24.3007 46.8418 24.7152L47.0458 24.3712ZM45.5481 22.7766C45.1928 22.0875 45.0121 21.2852 45.0121 20.3644H44.6121C44.6121 21.3384 44.8036 22.2054 45.1926 22.9599L45.5481 22.7766ZM53.0821 20.3813C53.0821 19.6091 52.924 18.9213 52.6013 18.3237L52.2494 18.5138C52.5358 19.0441 52.6821 19.6647 52.6821 20.3813H53.0821ZM52.6013 18.3237C52.28 17.7287 51.837 17.2666 51.273 16.9426L51.0738 17.2895C51.57 17.5746 51.9616 17.9809 52.2494 18.5138L52.6013 18.3237ZM51.2746 16.9436C50.7235 16.6201 50.1131 16.4593 49.4477 16.4593V16.8593C50.0456 16.8593 50.5856 17.0029 51.0721 17.2885L51.2746 16.9436ZM49.4477 16.4593C48.7625 16.4593 48.1415 16.6132 47.5898 16.925L47.7866 17.2732C48.2725 16.9986 48.8246 16.8593 49.4477 16.8593V16.4593ZM47.5898 16.925C47.0357 17.2382 46.5982 17.6954 46.2772 18.2899L46.6291 18.48C46.9172 17.9465 47.3031 17.5466 47.7866 17.2732L47.5898 16.925ZM46.2765 18.2912C45.9648 18.8785 45.8133 19.572 45.8133 20.3644H46.2133C46.2133 19.6228 46.355 18.9966 46.6298 18.4787L46.2765 18.2912ZM45.8133 20.3644C45.8133 21.1463 45.9651 21.8438 46.275 22.4516L46.6313 22.2699C46.3547 21.7272 46.2133 21.0939 46.2133 20.3644H45.8133ZM46.2772 22.4558C46.5979 23.0497 47.0345 23.5117 47.587 23.8359L47.7894 23.491C47.3042 23.2062 46.9175 22.7997 46.6291 22.2657L46.2772 22.4558ZM47.5898 23.8376C48.1415 24.1494 48.7625 24.3033 49.4477 24.3033V23.9033C48.8246 23.9033 48.2725 23.764 47.7866 23.4893L47.5898 23.8376ZM49.4477 24.3033C50.1131 24.3033 50.7235 24.1425 51.2746 23.819L51.0721 23.474C50.5856 23.7596 50.0456 23.9033 49.4477 23.9033V24.3033ZM51.273 23.82C51.837 23.496 52.28 23.0339 52.6013 22.4388L52.2494 22.2488C51.9616 22.7817 51.57 23.188 51.0738 23.4731L51.273 23.82ZM52.6013 22.4388C52.924 21.8413 53.0821 21.1535 53.0821 20.3813H52.6821C52.6821 21.0979 52.5358 21.7184 52.2494 22.2488L52.6013 22.4388ZM56.787 17.8774L56.6103 17.7835L56.6098 17.7846L56.787 17.8774ZM58.3604 16.2194L58.4602 16.3927L58.4612 16.3921L58.3604 16.2194ZM62.9114 16.2363L62.8033 16.4045L62.8046 16.4054L62.9114 16.2363ZM64.2987 17.7928L64.1161 17.8743L64.4987 17.7928H64.2987ZM64.2987 15.7626V15.5626H64.0987V15.7626H64.2987ZM65.483 15.7626H65.683V15.5626H65.483V15.7626ZM65.483 25V25.2H65.683V25H65.483ZM64.2987 25H64.0987V25.2H64.2987V25ZM64.2987 22.9529H64.4987L64.1173 22.8687L64.2987 22.9529ZM62.8945 24.5263L63.0027 24.6945L63.0034 24.694L62.8945 24.5263ZM58.3604 24.5432L58.2583 24.7152L58.2596 24.716L58.3604 24.5432ZM56.787 22.8683L56.6092 22.96L56.6103 22.9621L56.787 22.8683ZM63.8419 18.4188L64.0179 18.3237L63.8419 18.4188ZM62.59 17.116L62.4887 17.2885L62.4903 17.2895L62.59 17.116ZM59.1048 17.0991L59.2032 17.2732L59.1048 17.0991ZM57.8697 18.3849L57.6938 18.2899L57.6931 18.2912L57.8697 18.3849ZM57.8697 22.3607L57.6915 22.4516L57.6938 22.4558L57.8697 22.3607ZM59.1048 23.6635L59.0035 23.836L59.0064 23.8376L59.1048 23.6635ZM62.59 23.6465L62.4903 23.4731L62.4887 23.474L62.59 23.6465ZM63.8419 22.3438L64.0179 22.4388L63.8419 22.3438ZM56.4287 20.3644C56.4287 19.4434 56.6094 18.6473 56.9641 17.9702L56.6098 17.7846C56.2201 18.5285 56.0287 19.3905 56.0287 20.3644H56.4287ZM56.9636 17.9712C57.3306 17.2803 57.8294 16.7562 58.4602 16.3927L58.2605 16.0461C57.5604 16.4495 57.0103 17.0307 56.6103 17.7835L56.9636 17.9712ZM58.4612 16.3921C59.1049 16.0166 59.8309 15.8272 60.6444 15.8272V15.4272C59.7659 15.4272 58.9694 15.6326 58.2596 16.0466L58.4612 16.3921ZM60.6444 15.8272C61.4925 15.8272 62.2091 16.0226 62.8033 16.4045L63.0196 16.0681C62.3505 15.6379 61.5558 15.4272 60.6444 15.4272V15.8272ZM62.8046 16.4054C63.4176 16.7925 63.8518 17.2823 64.1161 17.8743L64.4814 17.7112C64.1817 17.04 63.691 16.4921 63.0182 16.0672L62.8046 16.4054ZM64.4987 17.7928V15.7626H64.0987V17.7928H64.4987ZM64.2987 15.9626H65.483V15.5626H64.2987V15.9626ZM65.283 15.7626V25H65.683V15.7626H65.283ZM65.483 24.8H64.2987V25.2H65.483V24.8ZM64.4987 25V22.9529H64.0987V25H64.4987ZM64.1173 22.8687C63.8415 23.4628 63.4002 23.9596 62.7856 24.3585L63.0034 24.694C63.6745 24.2584 64.1695 23.7062 64.4801 23.0371L64.1173 22.8687ZM62.7863 24.358C62.1922 24.74 61.4755 24.9353 60.6274 24.9353V25.3353C61.5388 25.3353 62.3336 25.1247 63.0027 24.6945L62.7863 24.358ZM60.6274 24.9353C59.8258 24.9353 59.1053 24.7462 58.4612 24.3704L58.2596 24.716C58.9689 25.1297 59.7598 25.3353 60.6274 25.3353V24.9353ZM58.4624 24.3712C57.8303 23.9962 57.3309 23.4658 56.9636 22.7745L56.6103 22.9621C57.01 23.7145 57.5595 24.3007 58.2583 24.7152L58.4624 24.3712ZM56.9647 22.7766C56.6094 22.0875 56.4287 21.2852 56.4287 20.3644H56.0287C56.0287 21.3384 56.2201 22.2054 56.6092 22.9599L56.9647 22.7766ZM64.4987 20.3813C64.4987 19.6091 64.3406 18.9213 64.0179 18.3237L63.6659 18.5138C63.9523 19.0441 64.0987 19.6647 64.0987 20.3813H64.4987ZM64.0179 18.3237C63.6966 17.7287 63.2535 17.2666 62.6896 16.9426L62.4903 17.2895C62.9866 17.5746 63.3782 17.9809 63.6659 18.5138L64.0179 18.3237ZM62.6912 16.9436C62.1401 16.6201 61.5297 16.4593 60.8643 16.4593V16.8593C61.4622 16.8593 62.0022 17.0029 62.4887 17.2885L62.6912 16.9436ZM60.8643 16.4593C60.1791 16.4593 59.5581 16.6132 59.0064 16.925L59.2032 17.2732C59.6891 16.9986 60.2412 16.8593 60.8643 16.8593V16.4593ZM59.0064 16.925C58.4523 17.2382 58.0148 17.6954 57.6938 18.2899L58.0457 18.48C58.3338 17.9465 58.7196 17.5466 59.2032 17.2732L59.0064 16.925ZM57.6931 18.2912C57.3814 18.8785 57.2299 19.572 57.2299 20.3644H57.6299C57.6299 19.6228 57.7716 18.9966 58.0464 18.4787L57.6931 18.2912ZM57.2299 20.3644C57.2299 21.1463 57.3817 21.8438 57.6916 22.4516L58.0479 22.2699C57.7713 21.7272 57.6299 21.0939 57.6299 20.3644H57.2299ZM57.6938 22.4558C58.0145 23.0497 58.4511 23.5117 59.0035 23.8359L59.206 23.491C58.7208 23.2062 58.3341 22.7997 58.0457 22.2657L57.6938 22.4558ZM59.0064 23.8376C59.5581 24.1494 60.1791 24.3033 60.8643 24.3033V23.9033C60.2412 23.9033 59.6891 23.764 59.2032 23.4893L59.0064 23.8376ZM60.8643 24.3033C61.5297 24.3033 62.1401 24.1425 62.6912 23.819L62.4887 23.474C62.0022 23.7596 61.4622 23.9033 60.8643 23.9033V24.3033ZM62.6896 23.82C63.2535 23.496 63.6966 23.0339 64.0179 22.4388L63.6659 22.2488C63.3782 22.7817 62.9866 23.188 62.4903 23.4731L62.6896 23.82ZM64.0179 22.4388C64.3406 21.8413 64.4987 21.1535 64.4987 20.3813H64.0987C64.0987 21.0979 63.9523 21.7184 63.6659 22.2488L64.0179 22.4388ZM71.4688 23.8496L71.2822 23.9214L71.4688 24.4063L71.6555 23.9214L71.4688 23.8496ZM74.5818 15.7626V15.5626H74.4445L74.3951 15.6907L74.5818 15.7626ZM75.8337 15.7626L76.0194 15.837L76.1294 15.5626H75.8337V15.7626ZM72.1286 25V25.2H72.2639L72.3142 25.0745L72.1286 25ZM70.7921 25L70.6064 25.0745L70.6568 25.2H70.7921V25ZM67.0869 15.7626V15.5626H66.7912L66.9013 15.837L67.0869 15.7626ZM68.3558 15.7626L68.5425 15.6907L68.4931 15.5626H68.3558V15.7626ZM71.6555 23.9214L74.7684 15.8344L74.3951 15.6907L71.2822 23.7777L71.6555 23.9214ZM74.5818 15.9626H75.8337V15.5626H74.5818V15.9626ZM75.6481 15.6881L71.943 24.9255L72.3142 25.0745L76.0194 15.837L75.6481 15.6881ZM72.1286 24.8H70.7921V25.2H72.1286V24.8ZM70.9777 24.9255L67.2726 15.6881L66.9013 15.837L70.6064 25.0745L70.9777 24.9255ZM67.0869 15.9626H68.3558V15.5626H67.0869V15.9626ZM68.1692 15.8344L71.2822 23.9214L71.6555 23.7777L68.5425 15.6907L68.1692 15.8344ZM78.9784 16.7608V16.5608H78.7784V16.7608H78.9784ZM79.2999 23.6635L79.4413 23.522L79.2999 23.6635ZM81.5162 23.9849H81.7162V23.7849H81.5162V23.9849ZM81.5162 25V25.2H81.7162V25H81.5162ZM78.3863 24.4248L78.2469 24.5682L78.249 24.5702L78.3863 24.4248ZM77.7772 16.7608H77.9772V16.5608H77.7772V16.7608ZM76.4914 16.7608H76.2914V16.9608H76.4914V16.7608ZM76.4914 15.7626V15.5626H76.2914V15.7626H76.4914ZM77.7772 15.7626V15.9626H77.9772V15.7626H77.7772ZM77.7772 13.4448V13.2448H77.5772V13.4448H77.7772ZM78.9784 13.4448H79.1784V13.2448H78.9784V13.4448ZM78.9784 15.7626H78.7784V15.9626H78.9784V15.7626ZM81.5162 15.7626H81.7162V15.5626H81.5162V15.7626ZM81.5162 16.7608V16.9608H81.7162V16.7608H81.5162ZM78.7784 16.7608V22.4961H79.1784V16.7608H78.7784ZM78.7784 22.4961C78.7784 23.072 78.8852 23.5316 79.1585 23.8049L79.4413 23.522C79.286 23.3667 79.1784 23.048 79.1784 22.4961H78.7784ZM79.1585 23.8049C79.4306 24.077 79.8772 24.1849 80.4334 24.1849V23.7849C79.9068 23.7849 79.5977 23.6785 79.4413 23.522L79.1585 23.8049ZM80.4334 24.1849H81.5162V23.7849H80.4334V24.1849ZM81.3162 23.9849V25H81.7162V23.9849H81.3162ZM81.5162 24.8H80.2473V25.2H81.5162V24.8ZM80.2473 24.8C79.439 24.8 78.8778 24.6138 78.5236 24.2794L78.249 24.5702C78.7069 25.0027 79.3864 25.2 80.2473 25.2V24.8ZM78.5257 24.2814C78.1757 23.9411 77.9772 23.3632 77.9772 22.4961H77.5772C77.5772 23.411 77.7848 24.1189 78.2469 24.5682L78.5257 24.2814ZM77.9772 22.4961V16.7608H77.5772V22.4961H77.9772ZM77.7772 16.5608H76.4914V16.9608H77.7772V16.5608ZM76.6914 16.7608V15.7626H76.2914V16.7608H76.6914ZM76.4914 15.9626H77.7772V15.5626H76.4914V15.9626ZM77.9772 15.7626V13.4448H77.5772V15.7626H77.9772ZM77.7772 13.6448H78.9784V13.2448H77.7772V13.6448ZM78.7784 13.4448V15.7626H79.1784V13.4448H78.7784ZM78.9784 15.9626H81.5162V15.5626H78.9784V15.9626ZM81.3162 15.7626V16.7608H81.7162V15.7626H81.3162ZM81.5162 16.5608H78.9784V16.9608H81.5162V16.5608ZM85.1612 24.5601L85.0616 24.7336L85.065 24.7355L85.1612 24.5601ZM83.5201 22.9021L83.3446 22.9981L83.3464 23.0014L83.5201 22.9021ZM83.537 17.8774L83.7107 17.9766L83.7113 17.9754L83.537 17.8774ZM85.195 16.2194L85.2912 16.3947L85.2933 16.3935L85.195 16.2194ZM89.8983 16.2194L89.8 16.3936L89.8033 16.3954L89.8983 16.2194ZM91.5563 17.8774L91.3808 17.9734L91.3827 17.9766L91.5563 17.8774ZM91.5563 22.8852L91.7306 22.9833L91.5563 22.8852ZM89.8814 24.5601L89.9764 24.7361L89.9785 24.735L89.8814 24.5601ZM89.2047 23.6973L89.2972 23.8746L89.3002 23.873L89.2047 23.6973ZM90.4566 22.4453L90.2836 22.345L90.283 22.3461L90.4566 22.4453ZM90.4735 18.3342L90.299 18.4319L90.2999 18.4334L90.4735 18.3342ZM89.2216 17.0822L89.1261 17.258L89.1291 17.2595L89.2216 17.0822ZM85.8379 17.0822L85.9304 17.2596L85.9334 17.2579L85.8379 17.0822ZM84.5859 18.3342L84.4114 18.2364L84.4108 18.2376L84.5859 18.3342ZM84.5859 22.4453L84.4099 22.5404L84.4123 22.5446L84.5859 22.4453ZM85.821 23.6973L85.7238 23.8722L85.7285 23.8746L85.821 23.6973ZM87.5128 24.9353C86.6749 24.9353 85.9246 24.7507 85.2573 24.3848L85.065 24.7355C85.7963 25.1365 86.6138 25.3353 87.5128 25.3353V24.9353ZM85.2607 24.3867C84.6046 24.0102 84.0827 23.4836 83.6937 22.8029L83.3464 23.0014C83.7696 23.7418 84.3417 24.3205 85.0616 24.7336L85.2607 24.3867ZM83.6956 22.8062C83.3194 22.1183 83.1279 21.312 83.1279 20.3813H82.7279C82.7279 21.368 82.9313 22.2423 83.3446 22.9981L83.6956 22.8062ZM83.1279 20.3813C83.1279 19.4514 83.3246 18.6521 83.7107 17.9766L83.3634 17.7781C82.9373 18.5238 82.7279 19.3938 82.7279 20.3813H83.1279ZM83.7113 17.9754C84.0998 17.2848 84.6259 16.7595 85.2912 16.3947L85.0988 16.044C84.3655 16.4462 83.7863 17.0262 83.3627 17.7793L83.7113 17.9754ZM85.2933 16.3935C85.9602 16.0171 86.7097 15.8272 87.5467 15.8272V15.4272C86.6466 15.4272 85.8284 15.6321 85.0967 16.0452L85.2933 16.3935ZM87.5467 15.8272C88.3836 15.8272 89.1331 16.0171 89.8 16.3935L89.9966 16.0452C89.2649 15.6321 88.4467 15.4272 87.5467 15.4272V15.8272ZM89.8033 16.3954C90.4792 16.7601 91.0042 17.2847 91.3808 17.9733L91.7318 17.7814C91.3189 17.0263 90.7385 16.4456 89.9933 16.0434L89.8033 16.3954ZM91.3827 17.9766C91.7687 18.6521 91.9654 19.4514 91.9654 20.3813H92.3654C92.3654 19.3938 92.156 18.5238 91.73 17.7781L91.3827 17.9766ZM91.9654 20.3813C91.9654 21.2994 91.7689 22.0993 91.382 22.7872L91.7306 22.9833C92.1558 22.2274 92.3654 21.3581 92.3654 20.3813H91.9654ZM91.382 22.7872C90.9937 23.4774 90.4619 24.0088 89.7843 24.3853L89.9785 24.735C90.7221 24.3219 91.3068 23.7367 91.7306 22.9833L91.382 22.7872ZM89.7864 24.3841C89.1072 24.7507 88.3507 24.9353 87.5128 24.9353V25.3353C88.4119 25.3353 89.2344 25.1365 89.9764 24.7361L89.7864 24.3841ZM87.5128 24.3033C88.1527 24.3033 88.7486 24.1608 89.2972 23.8746L89.1121 23.52C88.6231 23.7751 88.091 23.9033 87.5128 23.9033V24.3033ZM89.3002 23.873C89.8542 23.5719 90.2975 23.1269 90.6303 22.5446L90.283 22.3461C89.9841 22.8691 89.5928 23.2587 89.1092 23.5216L89.3002 23.873ZM90.6296 22.5457C90.9782 21.9446 91.1473 21.22 91.1473 20.3813H90.7472C90.7472 21.1667 90.5892 21.8182 90.2836 22.345L90.6296 22.5457ZM91.1473 20.3813C91.1473 19.5438 90.9844 18.8251 90.6472 18.2349L90.2999 18.4334C90.5943 18.9486 90.7472 19.5946 90.7472 20.3813H91.1473ZM90.648 18.2364C90.3153 17.6422 89.871 17.1954 89.3141 16.9049L89.1291 17.2595C89.6098 17.5104 90.0002 17.8982 90.299 18.4319L90.648 18.2364ZM89.3171 16.9065C88.768 16.6081 88.1711 16.4593 87.5297 16.4593V16.8593C88.1065 16.8593 88.6375 16.9924 89.1261 17.2579L89.3171 16.9065ZM87.5297 16.4593C86.8884 16.4593 86.2915 16.6081 85.7424 16.9065L85.9334 17.2579C86.422 16.9924 86.9529 16.8593 87.5297 16.8593V16.4593ZM85.7454 16.9049C85.1885 17.1954 84.7442 17.6422 84.4114 18.2364L84.7604 18.4319C85.0593 17.8982 85.4496 17.5104 85.9304 17.2595L85.7454 16.9049ZM84.4108 18.2376C84.0859 18.8272 83.9292 19.5449 83.9292 20.3813H84.3292C84.3292 19.5935 84.4769 18.9465 84.7611 18.4307L84.4108 18.2376ZM83.9292 20.3813C83.9292 21.2179 84.086 21.9404 84.41 22.5404L84.7619 22.3503C84.4768 21.8223 84.3292 21.1689 84.3292 20.3813H83.9292ZM84.4123 22.5446C84.7444 23.1258 85.1813 23.5707 85.7239 23.8721L85.9181 23.5225C85.4455 23.2599 85.0591 22.8702 84.7596 22.3461L84.4123 22.5446ZM85.7285 23.8746C86.277 24.1608 86.8729 24.3033 87.5128 24.3033V23.9033C86.9346 23.9033 86.4026 23.7751 85.9135 23.52L85.7285 23.8746ZM101.362 16.6254L101.222 16.768L101.223 16.7691L101.362 16.6254ZM102.411 25V25.2H102.611V25H102.411ZM101.244 25H101.044V25.2H101.244V25ZM100.482 17.4206L100.336 17.5573L100.338 17.5589L100.482 17.4206ZM95.5085 25V25.2H95.7085V25H95.5085ZM94.3242 25H94.1242V25.2H94.3242V25ZM94.3242 15.7626V15.5626H94.1242V15.7626H94.3242ZM95.5085 15.7626H95.7085V15.5626H95.5085V15.7626ZM95.5085 17.336H95.3085L95.6859 17.4283L95.5085 17.336ZM96.7773 16.0502L96.8711 16.2269L96.8739 16.2254L96.7773 16.0502ZM98.6553 15.7934C99.7154 15.7934 100.565 16.1216 101.222 16.768L101.502 16.4828C100.761 15.7532 99.8059 15.3934 98.6553 15.3934V15.7934ZM101.223 16.7691C101.872 17.3969 102.211 18.3245 102.211 19.5861H102.611C102.611 18.2536 102.251 17.2074 101.501 16.4817L101.223 16.7691ZM102.211 19.5861V25H102.611V19.5861H102.211ZM102.411 24.8H101.244V25.2H102.411V24.8ZM101.444 25V19.7215H101.044V25H101.444ZM101.444 19.7215C101.444 18.6854 101.182 17.8615 100.627 17.2823L100.338 17.5589C100.798 18.0399 101.044 18.7499 101.044 19.7215H101.444ZM100.628 17.2839C100.087 16.7055 99.3474 16.4254 98.4353 16.4254V16.8254C99.2602 16.8254 99.8853 17.0754 100.336 17.5573L100.628 17.2839ZM98.4353 16.4254C97.4983 16.4254 96.7316 16.724 96.1579 17.3343L96.4494 17.6083C96.9358 17.0908 97.5904 16.8254 98.4353 16.8254V16.4254ZM96.1579 17.3343C95.5808 17.9483 95.3085 18.8345 95.3085 19.9583H95.7085C95.7085 18.8941 95.9663 18.1222 96.4494 17.6083L96.1579 17.3343ZM95.3085 19.9583V25H95.7085V19.9583H95.3085ZM95.5085 24.8H94.3242V25.2H95.5085V24.8ZM94.5242 25V15.7626H94.1242V25H94.5242ZM94.3242 15.9626H95.5085V15.5626H94.3242V15.9626ZM95.3085 15.7626V17.336H95.7085V15.7626H95.3085ZM95.6859 17.4283C95.9608 16.8997 96.3548 16.5008 96.8711 16.2269L96.6836 15.8735C96.0945 16.1861 95.6427 16.6444 95.331 17.2437L95.6859 17.4283ZM96.8739 16.2254C97.3939 15.9388 97.986 15.7934 98.6553 15.7934V15.3934C97.926 15.3934 97.2662 15.5525 96.6808 15.875L96.8739 16.2254ZM106.215 12.4804H106.415V12.2804H106.215V12.4804ZM106.215 25V25.2H106.415V25H106.215ZM105.03 25H104.83V25.2H105.03V25ZM105.03 12.4804V12.2804H104.83V12.4804H105.03ZM106.015 12.4804V25H106.415V12.4804H106.015ZM106.215 24.8H105.03V25.2H106.215V24.8ZM105.23 25V12.4804H104.83V25H105.23ZM105.03 12.6804H106.215V12.2804H105.03V12.6804ZM122.533 16.6254L122.39 16.7657L122.392 16.768L122.533 16.6254ZM123.565 25V25.2H123.765V25H123.565ZM122.397 25H122.197V25.2H122.397V25ZM121.67 17.4206L121.522 17.5556L121.67 17.4206ZM117.609 17.4882L117.461 17.3543L117.609 17.4882ZM116.831 25V25.2H117.031V25H116.831ZM115.664 25H115.464V25.2H115.664V25ZM114.936 17.4206L114.789 17.5556L114.936 17.4206ZM110.859 17.4882L110.71 17.3543L110.859 17.4882ZM110.081 25V25.2H110.281V25H110.081ZM108.896 25H108.696V25.2H108.896V25ZM108.896 15.7626V15.5626H108.696V15.7626H108.896ZM110.081 15.7626H110.281V15.5626H110.081V15.7626ZM110.081 17.3529H109.881L110.259 17.4437L110.081 17.3529ZM111.333 16.0502L111.428 16.2261L111.431 16.2245L111.333 16.0502ZM115.241 16.1686L115.133 16.337L115.134 16.3379L115.241 16.1686ZM116.56 17.8605L116.372 17.9288L116.567 18.4643L116.75 17.9246L116.56 17.8605ZM117.829 16.1855L117.937 16.3539L117.938 16.3534L117.829 16.1855ZM119.893 15.7934C120.93 15.7934 121.756 16.1207 122.39 16.7657L122.675 16.4852C121.956 15.7541 121.023 15.3934 119.893 15.3934V15.7934ZM122.392 16.768C123.03 17.3956 123.365 18.3236 123.365 19.5861H123.765C123.765 18.2545 123.411 17.2087 122.673 16.4828L122.392 16.768ZM123.365 19.5861V25H123.765V19.5861H123.365ZM123.565 24.8H122.397V25.2H123.565V24.8ZM122.597 25V19.7215H122.197V25H122.597ZM122.597 19.7215C122.597 18.6876 122.347 17.865 121.817 17.2856L121.522 17.5556C121.962 18.0364 122.197 18.7477 122.197 19.7215H122.597ZM121.817 17.2856C121.288 16.7072 120.571 16.4254 119.69 16.4254V16.8254C120.479 16.8254 121.081 17.0737 121.522 17.5556L121.817 17.2856ZM119.69 16.4254C118.773 16.4254 118.022 16.7317 117.461 17.3543L117.758 17.6222C118.234 17.0944 118.871 16.8254 119.69 16.8254V16.4254ZM117.461 17.3543C116.897 17.979 116.631 18.869 116.631 19.9922H117.031C117.031 18.9273 117.284 18.148 117.758 17.6222L117.461 17.3543ZM116.631 19.9922V25H117.031V19.9922H116.631ZM116.831 24.8H115.664V25.2H116.831V24.8ZM115.864 25V19.7215H115.464V25H115.864ZM115.864 19.7215C115.864 18.6876 115.614 17.865 115.084 17.2856L114.789 17.5556C115.229 18.0364 115.464 18.7477 115.464 19.7215H115.864ZM115.084 17.2856C114.554 16.7067 113.831 16.4254 112.94 16.4254V16.8254C113.741 16.8254 114.348 17.0743 114.789 17.5556L115.084 17.2856ZM112.94 16.4254C112.022 16.4254 111.272 16.7317 110.71 17.3543L111.007 17.6222C111.484 17.0944 112.12 16.8254 112.94 16.8254V16.4254ZM110.71 17.3543C110.147 17.979 109.881 18.869 109.881 19.9922H110.281C110.281 18.9273 110.533 18.148 111.007 17.6222L110.71 17.3543ZM109.881 19.9922V25H110.281V19.9922H109.881ZM110.081 24.8H108.896V25.2H110.081V24.8ZM109.096 25V15.7626H108.696V25H109.096ZM108.896 15.9626H110.081V15.5626H108.896V15.9626ZM109.881 15.7626V17.3529H110.281V15.7626H109.881ZM110.259 17.4437C110.535 16.9027 110.924 16.499 111.428 16.226L111.237 15.8743C110.659 16.1878 110.213 16.6526 109.903 17.2621L110.259 17.4437ZM111.431 16.2245C111.94 15.938 112.509 15.7934 113.143 15.7934V15.3934C112.446 15.3934 111.808 15.5533 111.235 15.8759L111.431 16.2245ZM113.143 15.7934C113.91 15.7934 114.571 15.9767 115.133 16.337L115.349 16.0003C114.715 15.5936 113.977 15.3934 113.143 15.3934V15.7934ZM115.134 16.3379C115.702 16.6953 116.115 17.2217 116.372 17.9288L116.748 17.7921C116.464 17.0104 115.998 16.4089 115.347 15.9994L115.134 16.3379ZM116.75 17.9246C116.985 17.2303 117.381 16.7106 117.937 16.3539L117.721 16.0172C117.082 16.4274 116.632 17.0243 116.371 17.7963L116.75 17.9246ZM117.938 16.3534C118.513 15.9808 119.163 15.7934 119.893 15.7934V15.3934C119.09 15.3934 118.364 15.6007 117.721 16.0177L117.938 16.3534ZM126.77 24.4079L126.65 24.5682L126.654 24.5704L126.77 24.4079ZM125.653 22.3946V22.1946H125.434L125.454 22.4132L125.653 22.3946ZM126.872 22.3946L127.07 22.373L127.051 22.1946H126.872V22.3946ZM127.599 23.6635L127.478 23.8225L127.482 23.8259L127.599 23.6635ZM130.864 23.6804L130.738 23.5256L130.735 23.5275L130.864 23.6804ZM131.118 21.7686L131.259 21.6272L131.118 21.7686ZM130.34 21.2949L130.264 21.4803L130.273 21.4832L130.34 21.2949ZM129.088 20.9058L129.037 21.0992L129.038 21.0995L129.088 20.9058ZM126.313 19.5692L126.158 19.6954L126.162 19.7006L126.313 19.5692ZM126.279 16.8792L126.116 16.7639L126.279 16.8792ZM127.43 15.9656L127.347 15.7835L127.43 15.9656ZM131.524 16.3886L131.396 16.5422L131.398 16.5436L131.524 16.3886ZM132.505 18.4526V18.6526H132.716L132.705 18.4424L132.505 18.4526ZM131.321 18.4526L131.121 18.4651L131.133 18.6526H131.321V18.4526ZM130.678 17.1499L130.546 17.2999L130.551 17.3039L130.678 17.1499ZM127.633 17.0653L127.754 17.2247L127.633 17.0653ZM127.396 19.0109L127.248 19.1453L127.255 19.1523L127.396 19.0109ZM128.225 19.5523L128.148 19.7372L128.154 19.7393L128.225 19.5523ZM129.545 19.9752L129.49 20.1676L129.492 20.1683L129.545 19.9752ZM131.135 20.4997L131.056 20.6835L131.135 20.4997ZM132.15 21.2441L132.302 21.1135L132.15 21.2441ZM132.59 22.5468H132.79L132.79 22.5427L132.59 22.5468ZM132.184 23.8834L132.347 23.9987L132.349 23.9965L132.184 23.8834ZM131.05 24.797L131.135 24.9783L131.05 24.797ZM129.375 24.9353C128.346 24.9353 127.521 24.7 126.887 24.2453L126.654 24.5704C127.372 25.0857 128.285 25.3353 129.375 25.3353V24.9353ZM126.89 24.2475C126.271 23.786 125.926 23.167 125.853 22.376L125.454 22.4132C125.538 23.314 125.938 24.0372 126.65 24.5682L126.89 24.2475ZM125.653 22.5946H126.872V22.1946H125.653V22.5946ZM126.673 22.4162C126.735 22.9915 127.007 23.4633 127.478 23.8224L127.72 23.5045C127.334 23.2094 127.121 22.8353 127.07 22.373L126.673 22.4162ZM127.482 23.8259C127.966 24.1734 128.598 24.3372 129.359 24.3372V23.9372C128.653 23.9372 128.111 23.7851 127.716 23.501L127.482 23.8259ZM129.359 24.3372C130.032 24.3372 130.585 24.1776 130.993 23.8332L130.735 23.5275C130.422 23.7922 129.971 23.9372 129.359 23.9372V24.3372ZM130.991 23.8352C131.406 23.4955 131.623 23.0624 131.623 22.5468H131.223C131.223 22.9336 131.067 23.2562 130.738 23.5256L130.991 23.8352ZM131.623 22.5468C131.623 22.1838 131.504 21.8716 131.259 21.6272L130.977 21.91C131.138 22.0716 131.223 22.2782 131.223 22.5468H131.623ZM131.259 21.6272C131.032 21.4 130.746 21.2276 130.407 21.1065L130.273 21.4832C130.565 21.5877 130.798 21.7312 130.977 21.91L131.259 21.6272ZM130.415 21.1097C130.099 20.9806 129.671 20.8483 129.137 20.712L129.038 21.0995C129.565 21.2339 129.972 21.361 130.264 21.4801L130.415 21.1097ZM129.139 20.7123C128.455 20.5331 127.907 20.3554 127.491 20.18L127.335 20.5487C127.776 20.7342 128.344 20.9175 129.037 21.0992L129.139 20.7123ZM127.491 20.18C127.09 20.0114 126.748 19.7644 126.464 19.4379L126.162 19.7006C126.487 20.0733 126.879 20.3564 127.335 20.5487L127.491 20.18ZM126.468 19.4431C126.212 19.1269 126.073 18.6963 126.073 18.1311H125.673C125.673 18.7615 125.828 19.2896 126.158 19.6953L126.468 19.4431ZM126.073 18.1311C126.073 17.723 126.195 17.3457 126.443 16.9945L126.116 16.7639C125.823 17.1796 125.673 17.6369 125.673 18.1311H126.073ZM126.443 16.9945C126.69 16.6444 127.043 16.361 127.513 16.1477L127.347 15.7835C126.824 16.0214 126.41 16.347 126.116 16.7639L126.443 16.9945ZM127.513 16.1477C127.979 15.9356 128.514 15.8272 129.122 15.8272V15.4272C128.466 15.4272 127.873 15.5444 127.347 15.7835L127.513 16.1477ZM129.122 15.8272C130.08 15.8272 130.831 16.0715 131.396 16.5422L131.652 16.2349C130.999 15.6905 130.149 15.4272 129.122 15.4272V15.8272ZM131.398 16.5436C131.957 16.9996 132.263 17.632 132.306 18.4628L132.705 18.4424C132.657 17.5137 132.309 16.77 131.65 16.2335L131.398 16.5436ZM132.505 18.2526H131.321V18.6526H132.505V18.2526ZM131.521 18.4401C131.484 17.8472 131.246 17.3604 130.806 16.9959L130.551 17.3039C130.9 17.5935 131.091 17.9752 131.121 18.4651L131.521 18.4401ZM130.81 16.9999C130.38 16.6201 129.797 16.4423 129.088 16.4423V16.8423C129.732 16.8423 130.209 17.0029 130.546 17.2999L130.81 16.9999ZM129.088 16.4423C128.459 16.4423 127.928 16.591 127.512 16.9059L127.754 17.2247C128.082 16.9756 128.521 16.8423 129.088 16.8423V16.4423ZM127.512 16.9059C127.097 17.2205 126.875 17.6262 126.875 18.1142H127.275C127.275 17.7676 127.425 17.474 127.754 17.2247L127.512 16.9059ZM126.875 18.1142C126.875 18.5178 126.996 18.8666 127.248 19.1451L127.544 18.8767C127.368 18.6815 127.275 18.4325 127.275 18.1142H126.875ZM127.255 19.1523C127.501 19.3984 127.8 19.5928 128.149 19.7371L128.301 19.3675C127.996 19.2411 127.742 19.0745 127.537 18.8695L127.255 19.1523ZM128.154 19.7393C128.489 19.8662 128.935 20.0089 129.49 20.1676L129.6 19.7829C129.049 19.6257 128.616 19.4865 128.296 19.3653L128.154 19.7393ZM129.492 20.1683C130.153 20.3476 130.674 20.5196 131.056 20.6835L131.214 20.3159C130.807 20.1415 130.267 19.9639 129.597 19.7822L129.492 20.1683ZM131.056 20.6835C131.423 20.8407 131.736 21.0705 131.999 21.3747L132.302 21.1135C132 20.7635 131.637 20.4971 131.214 20.3159L131.056 20.6835ZM131.999 21.3747C132.243 21.6584 132.379 22.044 132.39 22.551L132.79 22.5427C132.778 21.9669 132.621 21.4841 132.302 21.1135L131.999 21.3747ZM132.39 22.5468C132.39 23.0043 132.266 23.4101 132.019 23.7703L132.349 23.9965C132.643 23.5672 132.79 23.0819 132.79 22.5468H132.39ZM132.021 23.7681C131.773 24.1192 131.424 24.4027 130.966 24.6156L131.135 24.9783C131.647 24.7401 132.054 24.4145 132.347 23.9987L132.021 23.7681ZM130.966 24.6156C130.512 24.8269 129.983 24.9353 129.375 24.9353V25.3353C130.031 25.3353 130.619 25.2182 131.135 24.9783L130.966 24.6156Z" fill="white"/>
</svg>
