<svg width="27" height="21" viewBox="0 0 27 21" fill="none" xmlns="http://www.w3.org/2000/svg">
<path d="M3.22168 6.17271C3.54409 6.40022 4.51596 7.07593 6.13733 8.19949C7.75876 9.32305 9.00088 10.1882 9.86375 10.7949C9.95855 10.8614 10.16 11.0059 10.4681 11.2288C10.7762 11.4518 11.0323 11.6319 11.236 11.7694C11.4399 11.9068 11.6864 12.0609 11.9758 12.2315C12.265 12.402 12.5377 12.5302 12.7937 12.6151C13.0497 12.7007 13.2867 12.7431 13.5048 12.7431H13.5191H13.5334C13.7515 12.7431 13.9886 12.7007 14.2447 12.6151C14.5006 12.5302 14.7735 12.4019 15.0624 12.2315C15.3516 12.0607 15.5981 11.9067 15.802 11.7694C16.0059 11.6319 16.2617 11.4518 16.57 11.2288C16.8781 11.0057 17.0797 10.8614 17.1745 10.7949C18.0467 10.1882 20.2657 8.64729 23.8307 6.17241C24.5229 5.68904 25.1012 5.10579 25.5657 4.42305C26.0306 3.74062 26.2628 3.02471 26.2628 2.27571C26.2628 1.64982 26.0375 1.11405 25.587 0.668437C25.1366 0.222729 24.6032 0 23.9871 0H3.05096C2.3209 0 1.75907 0.246492 1.36557 0.739475C0.972116 1.23256 0.775391 1.84889 0.775391 2.58841C0.775391 3.18576 1.03623 3.83308 1.55766 4.52996C2.07904 5.22689 2.63389 5.77452 3.22168 6.17271Z" fill="white"/>
<path d="M24.8403 7.69437C21.7306 9.79917 19.3693 11.4349 17.7576 12.6013C17.2171 12.9994 16.7787 13.3102 16.442 13.5329C16.1053 13.7557 15.6575 13.9833 15.0979 14.2154C14.5386 14.448 14.0173 14.5639 13.5336 14.5639H13.5191H13.5048C13.0213 14.5639 12.4997 14.448 11.9403 14.2154C11.381 13.9833 10.9329 13.7557 10.5963 13.5329C10.2598 13.3102 9.82121 12.9994 9.2808 12.6013C8.00067 11.6627 5.64445 10.0268 2.21205 7.69437C1.67144 7.3343 1.1926 6.92157 0.775391 6.45703V17.7497C0.775391 18.3759 0.99812 18.9113 1.44383 19.357C1.88944 19.8028 2.42526 20.0256 3.0511 20.0256H23.9873C24.613 20.0256 25.1487 19.8028 25.5944 19.357C26.0402 18.9112 26.2628 18.3759 26.2628 17.7497V6.45703C25.855 6.91196 25.3811 7.32468 24.8403 7.69437Z" fill="white"/>
</svg>
