<svg width="65" height="65" viewBox="0 0 65 65" fill="none" xmlns="http://www.w3.org/2000/svg">
<g clip-path="url(#clip0)">
<path d="M55.676 64.9998H2.5116C1.46855 64.9998 0.623047 64.1543 0.623047 63.1112V32.6161C0.623047 31.573 1.46855 30.7275 2.5116 30.7275C3.55465 30.7275 4.40016 31.573 4.40016 32.6161V61.2227H53.7876V57.0544C53.7876 56.0114 54.6332 55.1659 55.6761 55.1659C56.7191 55.1659 57.5647 56.0114 57.5647 57.0544V63.1112C57.5646 64.1543 56.7189 64.9998 55.676 64.9998Z" fill="#F15642"/>
<path d="M2.51172 22.4863V21.8782L22.2905 1.88867V22.4863H2.51172Z" fill="#FAC2BB"/>
<path d="M62.4882 27.8584H24.9023V48.6343H62.4882V27.8584Z" fill="#FAC2BB"/>
<path d="M62.4889 25.9694H57.5654V1.88855C57.5654 0.845508 56.7198 0 55.6769 0H22.2912C22.268 0 22.2452 0.00266602 22.2219 0.00342773C22.2007 0.00418945 22.1798 0.00507813 22.1587 0.00660156C22.0771 0.0124414 21.9959 0.021582 21.9163 0.0377051C21.9147 0.0380859 21.9129 0.0385938 21.911 0.0389746C21.8327 0.0549707 21.7561 0.0776953 21.6806 0.103594C21.6609 0.110449 21.6414 0.117432 21.6218 0.124795C21.5475 0.152979 21.4747 0.184336 21.4046 0.221533C21.4022 0.222803 21.3993 0.223818 21.3969 0.225342C21.3247 0.264062 21.2562 0.309131 21.1893 0.357373C21.1721 0.369814 21.1553 0.382256 21.1385 0.395332C21.0722 0.446367 21.008 0.500322 20.9485 0.560371L1.16992 20.5496C1.12549 20.5945 1.08385 20.6412 1.04449 20.6898C1.01821 20.7221 0.995234 20.7559 0.971367 20.7893C0.959688 20.806 0.946611 20.8218 0.935439 20.8386C0.908271 20.8797 0.884023 20.9224 0.860283 20.9653C0.854443 20.9758 0.847588 20.9859 0.842129 20.9964C0.818896 21.0404 0.798711 21.0854 0.779287 21.1305C0.77459 21.1414 0.768877 21.1518 0.764561 21.163C0.746787 21.2063 0.732061 21.2504 0.717715 21.2947C0.713145 21.309 0.707559 21.3225 0.703369 21.3366C0.691309 21.3774 0.681787 21.4186 0.672647 21.4599C0.668457 21.4786 0.662998 21.4971 0.659189 21.516C0.651826 21.5541 0.647129 21.5927 0.642178 21.6312C0.639131 21.6536 0.634941 21.6757 0.632783 21.6984C0.629229 21.7369 0.628467 21.7755 0.62707 21.8142C0.626309 21.8354 0.624023 21.8564 0.624023 21.8775V22.4858C0.624023 23.5289 1.46953 24.3744 2.51258 24.3744H22.2914C23.3344 24.3744 24.1799 23.5289 24.1799 22.4858V3.77711H53.7886V25.9694H24.9033C23.8603 25.9694 23.0147 26.8149 23.0147 27.858V48.6331C23.0147 49.6761 23.8603 50.5216 24.9033 50.5216H62.4889C63.5318 50.5216 64.3775 49.6761 64.3775 48.6331V27.858C64.3775 26.8149 63.5318 25.9694 62.4889 25.9694ZM6.43606 20.5976L20.4027 6.48223V20.5976H6.43606ZM60.6004 46.7445H26.7919V29.7465H60.6005V46.7445H60.6004Z" fill="#F15642"/>
<path d="M29.8652 34.4064C29.8652 33.9145 30.2528 33.3779 30.8769 33.3779H34.318C36.2556 33.3779 37.9995 34.6746 37.9995 37.16C37.9995 39.515 36.2556 40.8266 34.318 40.8266H31.8308V42.794C31.8308 43.4498 31.4135 43.8206 30.8769 43.8206C30.385 43.8206 29.8652 43.4498 29.8652 42.794V34.4064ZM31.8308 35.2541V38.9653H34.318C35.3166 38.9653 36.1066 38.0841 36.1066 37.16C36.1066 36.1185 35.3166 35.2541 34.318 35.2541H31.8308Z" fill="white"/>
<path d="M40.9161 43.8202C40.4243 43.8202 39.8877 43.5519 39.8877 42.898V34.4358C39.8877 33.9011 40.4243 33.5117 40.9161 33.5117H44.3274C51.1352 33.5117 50.9861 43.8202 44.4616 43.8202H40.9161ZM41.8551 35.3301V42.0037H44.3274C48.3498 42.0037 48.5287 35.3301 44.3274 35.3301H41.8551Z" fill="white"/>
<path d="M53.4009 35.4502V37.8182H57.1998C57.7364 37.8182 58.2729 38.3548 58.2729 38.8746C58.2729 39.3664 57.7364 39.7689 57.1998 39.7689H53.4009V42.897C53.4009 43.4187 53.0302 43.8192 52.5085 43.8192C51.8527 43.8192 51.4521 43.4187 51.4521 42.897V34.4348C51.4521 33.9001 51.8546 33.5107 52.5085 33.5107H57.7382C58.394 33.5107 58.7816 33.9001 58.7816 34.4348C58.7816 34.9118 58.394 35.4484 57.7382 35.4484H53.4009V35.4502Z" fill="white"/>
</g>
<defs>
<clipPath id="clip0">
<rect width="65" height="65" fill="white"/>
</clipPath>
</defs>
</svg>
