<svg width="16" height="16" viewBox="0 0 16 16" fill="none" xmlns="http://www.w3.org/2000/svg">
<path d="M2.27632 7.18725C2.63872 7.18725 2.96674 7.04185 3.20912 6.80835L4.53883 7.47315C4.53216 7.52731 4.52234 7.58054 4.52234 7.63646C4.52234 8.37951 5.12689 8.98407 5.86995 8.98407C6.613 8.98407 7.21756 8.37951 7.21756 7.63646C7.21756 7.42905 7.16655 7.23486 7.08244 7.05916L8.88628 5.25533C9.06198 5.33944 9.25617 5.39044 9.46357 5.39044C10.2066 5.39044 10.8112 4.78589 10.8112 4.04283C10.8112 3.90292 10.7837 3.77062 10.7439 3.64369L12.3112 2.46851C12.5251 2.61135 12.7814 2.69522 13.0572 2.69522C13.8003 2.69522 14.4048 2.09067 14.4048 1.34761C14.4048 0.604553 13.8003 0 13.0572 0C12.3141 0 11.7096 0.604553 11.7096 1.34761C11.7096 1.48752 11.7371 1.61982 11.7769 1.74675L10.2096 2.92193C9.99572 2.77909 9.73941 2.69522 9.46357 2.69522C8.72052 2.69522 8.11596 3.29977 8.11596 4.04283C8.11596 4.25024 8.16697 4.44442 8.25108 4.62013L6.44724 6.42396C6.27154 6.33985 6.07735 6.28885 5.86995 6.28885C5.50754 6.28885 5.17953 6.43425 4.93715 6.66774L3.60744 6.00295C3.6141 5.94879 3.62393 5.89556 3.62393 5.83964C3.62393 5.09659 3.01938 4.49203 2.27632 4.49203C1.53326 4.49203 0.928711 5.09659 0.928711 5.83964C0.928711 6.5827 1.53326 7.18725 2.27632 7.18725Z" fill="#222222"/>
<path d="M14.8836 14.4344H14.4045V4.94127C14.4045 4.69304 14.2035 4.49207 13.9552 4.49207H12.1584C11.9102 4.49207 11.7092 4.69304 11.7092 4.94127V14.4344H10.8108V7.63649C10.8108 7.38826 10.6099 7.18729 10.3616 7.18729H8.56481C8.31658 7.18729 8.11561 7.38826 8.11561 7.63649V14.4344H7.2172V11.2301C7.2172 10.9819 7.01623 10.7809 6.768 10.7809H4.97118C4.72295 10.7809 4.52198 10.9819 4.52198 11.2301V14.4344H3.62357V9.4333C3.62357 9.18507 3.4226 8.9841 3.17437 8.9841H1.37756C1.12933 8.9841 0.928353 9.18507 0.928353 9.4333V14.4344H0.449203C0.200972 14.4344 0 14.6354 0 14.8836C0 15.1319 0.200972 15.3328 0.449203 15.3328H14.8836C15.1318 15.3328 15.3328 15.1319 15.3328 14.8836C15.3328 14.6354 15.1318 14.4344 14.8836 14.4344Z" fill="#222222"/>
</svg>
