<svg width="16" height="16" viewBox="0 0 16 16" fill="none" xmlns="http://www.w3.org/2000/svg">
<path fill-rule="evenodd" clip-rule="evenodd" d="M15.2844 6.81513C15.2602 6.5996 15.0089 6.43764 14.7916 6.43764C14.089 6.43764 13.4656 6.02512 13.2041 5.38714C12.937 4.7337 13.1093 3.97163 13.6329 3.49134C13.7977 3.34067 13.8177 3.08846 13.6795 2.91326C13.3199 2.45664 12.9112 2.04417 12.465 1.6867C12.2902 1.54648 12.0338 1.56599 11.8823 1.73377C11.4254 2.23985 10.6045 2.42794 9.97026 2.16329C9.3102 1.88563 8.89397 1.21679 8.9347 0.498826C8.94811 0.273311 8.78329 0.0772333 8.55846 0.0510478C7.9858 -0.0151863 7.40812 -0.01724 6.83375 0.0464838C6.61149 0.071015 6.44668 0.262472 6.45415 0.485134C6.47914 1.19602 6.05789 1.85317 5.40439 2.12085C4.7777 2.37683 3.96264 2.19033 3.50659 1.68876C3.35587 1.52354 3.10365 1.50323 2.92806 1.64009C2.46858 2.00059 2.0507 2.41339 1.68781 2.86625C1.54627 3.0423 1.56709 3.29749 1.73356 3.44895C2.26714 3.93216 2.43943 4.70084 2.16223 5.36181C1.89758 5.99197 1.24323 6.3981 0.494114 6.3981C0.251028 6.39029 0.077884 6.55345 0.0512991 6.77446C-0.016133 7.35043 -0.0169316 7.93729 0.0479903 8.51794C0.072065 8.73438 0.331011 8.89492 0.550707 8.89492C1.2183 8.87786 1.85924 9.29118 2.12811 9.94548C2.39613 10.5989 2.22384 11.3605 1.69945 11.8412C1.53543 11.9919 1.51461 12.2437 1.65284 12.4189C2.00905 12.8726 2.41781 13.2855 2.86565 13.6459C3.0413 13.7874 3.29688 13.7675 3.44914 13.5997C3.90782 13.0924 4.72858 12.9046 5.36035 13.1698C6.02206 13.4466 6.43829 14.1154 6.39756 14.8337C6.38426 15.0594 6.54988 15.2558 6.7738 15.2816C7.06674 15.3157 7.36146 15.3328 7.65697 15.3328C7.93748 15.3328 8.21805 15.3174 8.49856 15.2862C8.72088 15.2617 8.88558 15.0702 8.87811 14.8471C8.85238 14.1366 9.27437 13.4795 9.92701 13.2123C10.5579 12.9546 11.3696 13.1432 11.8257 13.6443C11.9772 13.8091 12.2277 13.829 12.4043 13.6926C12.8629 13.333 13.2799 12.9205 13.6445 12.4664C13.786 12.2908 13.766 12.0352 13.5987 11.8838C13.0651 11.4006 12.892 10.6318 13.1692 9.97126C13.4298 9.34948 14.0598 8.932 14.7375 8.932L14.8323 8.93445C15.0521 8.95231 15.2544 8.78299 15.281 8.55861C15.3486 7.98213 15.3494 7.39578 15.2844 6.81513ZM7.67837 10.2398C6.26823 10.2398 5.1212 9.09276 5.1212 7.68262C5.1212 6.27254 6.26823 5.12545 7.67837 5.12545C9.08845 5.12545 10.2355 6.27254 10.2355 7.68262C10.2355 9.09276 9.08845 10.2398 7.67837 10.2398Z" fill="#222222"/>
</svg>
