<svg width="48" height="40" viewBox="0 0 48 40" fill="none" xmlns="http://www.w3.org/2000/svg">
<path d="M3.24324 0C1.50386 0 0 1.35157 0 3.09122V29.3243C0 31.0639 1.50386 32.4324 3.24324 32.4324H17.804C17.7517 33.6756 17.6102 34.7828 17.2973 35.6588C16.9169 36.7235 16.3751 37.4108 15.4223 37.8378H13.5135C12.9164 37.8378 12.4324 38.3218 12.4324 38.9189C12.4324 39.516 12.9164 40 13.5135 40H34.054C34.6511 40 35.1351 39.516 35.1351 38.9189C35.1351 38.3218 34.6511 37.8378 34.054 37.8378H32.1453C31.1925 37.4108 30.6507 36.7235 30.2703 35.6588C29.9573 34.7828 29.8159 33.6756 29.7635 32.4324H44.3243C46.0637 32.4324 47.5676 31.0639 47.5676 29.3243V3.09122C47.5676 1.35157 46.0637 0 44.3243 0H3.24324ZM3.24324 2.16216H44.3243C44.9806 2.16216 45.4054 2.5949 45.4054 3.09122V29.3243C45.4054 29.8207 44.9806 30.2703 44.3243 30.2703H3.24324C2.58694 30.2703 2.16216 29.8207 2.16216 29.3243V3.09122C2.16216 2.5949 2.58694 2.16216 3.24324 2.16216ZM27.027 6.48649C25.6269 6.48649 24.4192 7.39454 23.9696 8.64865H13.5135C12.9165 8.64865 12.4324 9.13265 12.4324 9.72973C12.4324 10.3268 12.9165 10.8108 13.5135 10.8108H23.9696C24.4192 12.0649 25.6269 12.973 27.027 12.973C28.4272 12.973 29.6348 12.0649 30.0845 10.8108H34.054C34.6511 10.8108 35.1351 10.3268 35.1351 9.72973C35.1351 9.13265 34.6511 8.64865 34.054 8.64865H30.0845C29.6348 7.39454 28.4272 6.48649 27.027 6.48649ZM27.027 8.64865C27.6369 8.64865 28.1081 9.11984 28.1081 9.72973C28.1081 10.3396 27.6369 10.8108 27.027 10.8108C26.4172 10.8108 25.9459 10.3396 25.9459 9.72973C25.9459 9.11984 26.4172 8.64865 27.027 8.64865ZM18.3784 12.973C16.9783 12.973 15.7705 13.881 15.3209 15.1351H13.5135C12.9165 15.1351 12.4324 15.6191 12.4324 16.2162C12.4324 16.8133 12.9165 17.2973 13.5135 17.2973H15.3209C15.7705 18.5514 16.9783 19.4595 18.3784 19.4595C19.7785 19.4595 20.9862 18.5514 21.4358 17.2973H34.054C34.6511 17.2973 35.1351 16.8133 35.1351 16.2162C35.1351 15.6191 34.6511 15.1351 34.054 15.1351H21.4358C20.9862 13.881 19.7785 12.973 18.3784 12.973ZM18.3784 15.1351C18.9883 15.1351 19.4595 15.6063 19.4595 16.2162C19.4595 16.8261 18.9883 17.2973 18.3784 17.2973C17.7685 17.2973 17.2973 16.8261 17.2973 16.2162C17.2973 15.6063 17.7685 15.1351 18.3784 15.1351ZM29.1892 19.4595C27.7891 19.4595 26.5813 20.3675 26.1318 21.6216H13.5135C12.9165 21.6216 12.4324 22.1056 12.4324 22.7027C12.4324 23.2998 12.9165 23.7838 13.5135 23.7838H26.1318C26.5813 25.0379 27.7891 25.9459 29.1892 25.9459C30.5893 25.9459 31.797 25.0379 32.2466 23.7838H34.054C34.6511 23.7838 35.1351 23.2998 35.1351 22.7027C35.1351 22.1056 34.6511 21.6216 34.054 21.6216H32.2466C31.797 20.3675 30.5893 19.4595 29.1892 19.4595ZM29.1892 21.6216C29.7991 21.6216 30.2703 22.0928 30.2703 22.7027C30.2703 23.3126 29.7991 23.7838 29.1892 23.7838C28.5793 23.7838 28.1081 23.3126 28.1081 22.7027C28.1081 22.0928 28.5793 21.6216 29.1892 21.6216ZM19.9662 32.4324H27.6013C27.6528 33.8321 27.8085 35.1684 28.2432 36.3851C28.4253 36.8947 28.6718 37.3875 28.9696 37.8378H18.598C18.8958 37.3875 19.1423 36.8947 19.3243 36.3851C19.759 35.1684 19.9147 33.8321 19.9662 32.4324Z" fill="#4F4F4F"/>
</svg>
