<svg width="16" height="13" viewBox="0 0 16 13" fill="none" xmlns="http://www.w3.org/2000/svg">
<path d="M9.25269 2.21467C9.96164 2.65918 10.4588 3.41137 10.5493 4.2845C10.8384 4.41959 11.1593 4.49728 11.4995 4.49728C12.7416 4.49728 13.7482 3.49059 13.7482 2.24873C13.7482 1.00669 12.7416 0 11.4995 0C10.2693 0.000382698 9.27144 0.989084 9.25269 2.21467ZM7.77949 6.81892C9.02154 6.81892 10.0282 5.81204 10.0282 4.57018C10.0282 3.32833 9.02135 2.32164 7.77949 2.32164C6.53763 2.32164 5.53037 3.32852 5.53037 4.57037C5.53037 5.81223 6.53763 6.81892 7.77949 6.81892ZM8.73337 6.97219H6.82523C5.23761 6.97219 3.946 8.26399 3.946 9.85161V12.1851L3.95193 12.2217L4.11267 12.272C5.62777 12.7454 6.94406 12.9032 8.02748 12.9032C10.1436 12.9032 11.3702 12.2999 11.4457 12.2615L11.5959 12.1855H11.612V9.85161C11.6126 8.26399 10.321 6.97219 8.73337 6.97219ZM12.4538 4.65074H10.5604C10.5399 5.40829 10.2165 6.09045 9.70504 6.58107C11.1162 7.0007 12.1488 8.30934 12.1488 9.85505V10.5741C14.0182 10.5056 15.0955 9.9758 15.1665 9.9402L15.3167 9.86405H15.3328V7.52978C15.3328 5.94235 14.0412 4.65074 12.4538 4.65074ZM3.83368 4.49766C4.27359 4.49766 4.68289 4.36927 5.02961 4.15055C5.13983 3.43166 5.52521 2.80346 6.07572 2.3756C6.07801 2.3335 6.08203 2.29179 6.08203 2.24931C6.08203 1.00726 5.07515 0.000574006 3.83368 0.000574006C2.59144 0.000574006 1.58494 1.00726 1.58494 2.24931C1.58494 3.49078 2.59144 4.49766 3.83368 4.49766ZM5.85318 6.58107C5.34419 6.09294 5.02196 5.41441 4.99842 4.66146C4.9282 4.65629 4.85874 4.65074 4.78717 4.65074H2.87923C1.29161 4.65074 0 5.94235 0 7.52978V9.86366L0.00593182 9.89964L0.166665 9.95035C1.38211 10.3298 2.46687 10.5047 3.40908 10.5598V9.85505C3.40946 8.30934 4.4416 7.00108 5.85318 6.58107Z" fill="#222222"/>
</svg>
