<svg width="120" height="120" viewBox="0 0 120 120" fill="none" xmlns="http://www.w3.org/2000/svg">
<path d="M27.8002 37.0998C27.8002 38.5998 26.5002 39.8998 25.0002 39.8998C23.5002 39.8998 22.2002 38.6998 22.2002 37.0998C22.2002 35.5998 23.5002 34.2998 25.0002 34.2998C26.6002 34.2998 27.8002 35.4998 27.8002 37.0998Z" stroke="#d1386a" stroke-width="3" stroke-miterlimit="10" stroke-linecap="round" stroke-linejoin="round"/>
<path opacity="0.5" d="M41.0004 37.0998C41.0004 38.5998 39.8004 39.8998 38.2004 39.8998C36.7004 39.8998 35.4004 38.6998 35.4004 37.0998C35.4004 35.5998 36.6004 34.2998 38.2004 34.2998C39.8004 34.2998 41.0004 35.4998 41.0004 37.0998Z" stroke="#BDC5D1" stroke-width="3" stroke-miterlimit="10" stroke-linecap="round" stroke-linejoin="round"/>
<path opacity="0.5" d="M54.1996 37.0998C54.1996 38.5998 52.8996 39.8998 51.3996 39.8998C49.8996 39.8998 48.5996 38.6998 48.5996 37.0998C48.5996 35.5998 49.8996 34.2998 51.3996 34.2998C52.9996 34.2998 54.1996 35.4998 54.1996 37.0998Z" stroke="#BDC5D1" stroke-width="3" stroke-miterlimit="10" stroke-linecap="round" stroke-linejoin="round"/>
<path opacity="0.5" d="M105.8 61.7002C106.6 63.1002 107.2 64.6002 107.7 66.2002" stroke="#BDC5D1" stroke-width="3" stroke-miterlimit="10" stroke-linecap="round" stroke-linejoin="round"/>
<path opacity="0.5" d="M76.7998 48.0005C86.4998 46.2005 96.0998 49.7005 102.2 56.6005" stroke="#BDC5D1" stroke-width="3" stroke-miterlimit="10" stroke-linecap="round" stroke-linejoin="round"/>
<path opacity="0.5" d="M72.2004 41.2C74.6004 23.3 62.6004 6.40004 44.6004 3.00004C26.0004 -0.59996 8.00037 11.7 4.50037 30.3C2.70037 39.9 5.10037 49.3 10.3004 56.7L5.30037 71.8L21.4004 66.6C24.6004 68.4 28.1004 69.7 31.8004 70.4C37.3004 71.4 42.7004 71.1 47.7004 69.6" stroke="#BDC5D1" stroke-width="3" stroke-miterlimit="10" stroke-linecap="round" stroke-linejoin="round"/>
<path opacity="0.5" d="M74.2999 50.5001C92.9 47.0001 110.9 59.2001 114.4 77.8001C116.2 87.4001 113.8 96.8001 108.6 104.2L113.7 119.3L97.5999 114.1C94.3999 115.9 90.8999 117.2 87.1999 117.9C68.5999 121.4 50.5999 109.2 47.0999 90.6001C43.3999 72.0001 55.6999 54.1001 74.2999 50.5001Z" fill="#BDC5D1"/>
<path d="M75.3996 40.3995C93.9996 36.8995 112 49.0995 115.5 67.6995C117.3 77.2995 114.9 86.6995 109.7 94.0995L114.8 109.2L98.6996 104C95.4996 105.8 91.9996 107.1 88.2996 107.8C69.6996 111.3 51.6996 99.0995 48.1996 80.4995C44.4996 61.8995 56.7996 43.9995 75.3996 40.3995Z" fill="#d1386a"/>
<path opacity="0.5" d="M95.0002 77.3002C96.5466 77.3002 97.8002 76.0466 97.8002 74.5002C97.8002 72.9538 96.5466 71.7002 95.0002 71.7002C93.4538 71.7002 92.2002 72.9538 92.2002 74.5002C92.2002 76.0466 93.4538 77.3002 95.0002 77.3002Z" stroke="white" stroke-width="3" stroke-miterlimit="10" stroke-linecap="round" stroke-linejoin="round"/>
<path opacity="0.5" d="M81.8 77.3002C83.3464 77.3002 84.6 76.0466 84.6 74.5002C84.6 72.9538 83.3464 71.7002 81.8 71.7002C80.2536 71.7002 79 72.9538 79 74.5002C79 76.0466 80.2536 77.3002 81.8 77.3002Z" stroke="white" stroke-width="3" stroke-miterlimit="10" stroke-linecap="round" stroke-linejoin="round"/>
<path d="M68.5998 77.3002C70.1462 77.3002 71.3998 76.0466 71.3998 74.5002C71.3998 72.9538 70.1462 71.7002 68.5998 71.7002C67.0534 71.7002 65.7998 72.9538 65.7998 74.5002C65.7998 76.0466 67.0534 77.3002 68.5998 77.3002Z" stroke="white" stroke-width="3" stroke-miterlimit="10" stroke-linecap="round" stroke-linejoin="round"/>
</svg>
