<svg width="120" height="146" viewBox="0 0 120 146" fill="none" xmlns="http://www.w3.org/2000/svg">
<path d="M103 136.875V84.6797" stroke="#BDC5D1" stroke-width="3" stroke-miterlimit="10" stroke-linecap="round" stroke-linejoin="round"/>
<path d="M109.1 84.6797V136.875" stroke="#BDC5D1" stroke-width="3" stroke-miterlimit="10" stroke-linecap="round" stroke-linejoin="round"/>
<path d="M10.9004 136.875V84.6797" stroke="#BDC5D1" stroke-width="3" stroke-miterlimit="10" stroke-linecap="round" stroke-linejoin="round"/>
<path d="M17 84.6797V136.875" stroke="#BDC5D1" stroke-width="3" stroke-miterlimit="10" stroke-linecap="round" stroke-linejoin="round"/>
<path d="M41.5998 69.5935H35.5998C33.7998 69.5935 32.2998 67.7685 32.2998 65.5785V17.8851C32.2998 15.6951 33.7998 13.8701 35.5998 13.8701H84.4998C86.2998 13.8701 87.7998 15.6951 87.7998 17.8851V65.5785C87.7998 67.7685 86.2998 69.5935 84.4998 69.5935H78.3998" stroke="#BDC5D1" stroke-width="3" stroke-miterlimit="10" stroke-linecap="round" stroke-linejoin="round"/>
<path d="M61.2002 19.4668H64.0002" stroke="#d1386a" stroke-width="2" stroke-miterlimit="10" stroke-linecap="round" stroke-linejoin="round"/>
<path d="M36.2998 32.6064V44.8948" stroke="#d1386a" stroke-width="2" stroke-miterlimit="10" stroke-linecap="round" stroke-linejoin="round"/>
<path d="M36.2998 51.4648V55.8448" stroke="#d1386a" stroke-width="2" stroke-miterlimit="10" stroke-linecap="round" stroke-linejoin="round"/>
<path d="M57.4004 117.287V110.96H62.6004V117.287" stroke="#BDC5D1" stroke-width="3" stroke-miterlimit="10" stroke-linecap="round" stroke-linejoin="round"/>
<path d="M60 110.839V104.877" stroke="#BDC5D1" stroke-width="3" stroke-miterlimit="10" stroke-linecap="round" stroke-linejoin="round"/>
<path d="M78.8996 92.71L69.3996 99.28V102.687L59.9996 104.877L50.5996 102.687V99.28L41.0996 92.71" stroke="#BDC5D1" stroke-width="3" stroke-miterlimit="10" stroke-linecap="round" stroke-linejoin="round"/>
<path d="M81.3001 91.7366C80.9001 88.8166 78.2 87.2349 76.6 86.9915C74.1 86.6265 68.0001 87.2349 63.9001 87.7215C61.3001 88.0865 58.8001 88.0865 56.2001 87.7215C52.1001 87.2349 46 86.5049 43.5 86.9915C41.9 87.2349 39.2 88.8166 38.8 91.7366C38.7 92.4666 39.3 93.1966 39.9 92.9532C42.1 92.3449 47.3 91.7366 54.1 94.7782C56.4 95.8732 58.4 96.2382 60.1 96.1166C61.8 96.1166 63.8 95.7516 66.1 94.7782C72.9001 91.7366 78.1001 92.3449 80.3001 92.9532C80.8001 93.0749 81.4001 92.4666 81.3001 91.7366Z" stroke="#BDC5D1" stroke-width="3" stroke-miterlimit="10" stroke-linecap="round" stroke-linejoin="round"/>
<path d="M76.3996 35.8922C70.9996 32.8505 67.3996 33.3372 59.9996 33.3372C52.5996 33.3372 48.9996 32.8505 43.5996 35.8922C36.7996 39.7855 40.0996 49.2755 41.1996 52.5605C43.5996 59.3739 44.5996 62.4155 44.7996 69.5939C45.1996 83.7072 50.2996 81.1522 53.0996 80.4222C55.0996 79.9355 57.7996 79.6922 59.8996 79.6922C61.9996 79.6922 64.6996 79.9355 66.6996 80.4222C69.4996 81.0305 74.5996 83.7072 74.9996 69.5939C75.1996 62.4155 76.1996 59.3739 78.5996 52.5605C79.8996 49.2755 83.1996 39.6639 76.3996 35.8922Z" fill="#d1386a"/>
<path d="M55.0996 87.3569V66.6736C55.0996 63.3886 57.2996 60.7119 59.9996 60.7119C62.6996 60.7119 64.8996 63.3886 64.8996 66.6736V87.3569" stroke="#BDC5D1" stroke-width="3" stroke-miterlimit="10" stroke-linecap="round" stroke-linejoin="round"/>
<path d="M33.7998 130.67V124.952L59.9998 116.557" stroke="#BDC5D1" stroke-width="3" stroke-miterlimit="10" stroke-linecap="round" stroke-linejoin="round"/>
<path d="M86.2 130.67V124.952L60 116.557" stroke="#BDC5D1" stroke-width="3" stroke-miterlimit="10" stroke-linecap="round" stroke-linejoin="round"/>
<path d="M60 130.67V116.557" stroke="#BDC5D1" stroke-width="3" stroke-miterlimit="10" stroke-linecap="round" stroke-linejoin="round"/>
<path d="M76 130.67V121.788" stroke="#BDC5D1" stroke-width="3" stroke-miterlimit="10" stroke-linecap="round" stroke-linejoin="round"/>
<path d="M44 130.67V121.788" stroke="#BDC5D1" stroke-width="3" stroke-miterlimit="10" stroke-linecap="round" stroke-linejoin="round"/>
<path d="M47.6004 134.198C47.6004 136.632 46.0004 138.578 44.0004 138.578C42.0004 138.578 40.4004 136.632 40.4004 134.198C40.4004 131.765 42.0004 129.818 44.0004 129.818C46.0004 129.818 47.6004 131.765 47.6004 134.198Z" fill="#d1386a"/>
<path d="M37.4002 134.198C37.4002 136.632 35.8002 138.578 33.8002 138.578C31.8002 138.578 30.2002 136.632 30.2002 134.198C30.2002 131.765 31.8002 129.818 33.8002 129.818C35.8002 129.818 37.4002 131.765 37.4002 134.198Z" fill="#d1386a"/>
<path d="M89.8006 134.198C89.8006 136.632 88.2006 138.578 86.2006 138.578C84.2006 138.578 82.6006 136.632 82.6006 134.198C82.6006 131.765 84.2006 129.818 86.2006 129.818C88.2006 129.818 89.8006 131.765 89.8006 134.198Z" fill="#d1386a"/>
<path d="M79.6004 134.198C79.6004 136.632 78.0004 138.578 76.0004 138.578C74.0004 138.578 72.4004 136.632 72.4004 134.198C72.4004 131.765 74.0004 129.818 76.0004 129.818C78.0004 129.818 79.6004 131.765 79.6004 134.198Z" fill="#d1386a"/>
<path d="M63.6004 134.198C63.6004 136.632 62.0004 138.578 60.0004 138.578C58.0004 138.578 56.4004 136.632 56.4004 134.198C56.4004 131.765 58.0004 129.818 60.0004 129.818C62.0004 129.818 63.6004 131.765 63.6004 134.198Z" fill="#d1386a"/>
<path d="M87.6006 134.198C87.6006 135.171 86.9006 136.023 86.1006 136.023C85.3006 136.023 84.6006 135.171 84.6006 134.198C84.6006 133.225 85.3006 132.373 86.1006 132.373C87.0006 132.373 87.6006 133.225 87.6006 134.198Z" fill="white"/>
<path d="M77.5 134.441C77.5 135.415 76.8 136.266 76 136.266C75.2 136.266 74.5 135.415 74.5 134.441C74.5 133.468 75.2 132.616 76 132.616C76.8 132.616 77.5 133.468 77.5 134.441Z" fill="white"/>
<path d="M61.5 134.198C61.5 135.171 60.8 136.023 60 136.023C59.2 136.023 58.5 135.171 58.5 134.198C58.5 133.225 59.2 132.373 60 132.373C60.8 132.373 61.5 133.225 61.5 134.198Z" fill="white"/>
<path d="M45.5 134.198C45.5 135.171 44.8 136.023 44 136.023C43.2 136.023 42.5 135.171 42.5 134.198C42.5 133.225 43.2 132.373 44 132.373C44.8 132.373 45.5 133.225 45.5 134.198Z" fill="white"/>
<path d="M35.2998 134.198C35.2998 135.171 34.5998 136.023 33.7998 136.023C32.9998 136.023 32.2998 135.171 32.2998 134.198C32.2998 133.225 32.9998 132.373 33.7998 132.373C34.5998 132.373 35.2998 133.225 35.2998 134.198Z" fill="white"/>
<path d="M36.7996 84.0715H1.59961V75.3115H41.5996" stroke="#BDC5D1" stroke-width="3" stroke-miterlimit="10" stroke-linecap="round" stroke-linejoin="round"/>
<path d="M83.1998 84.0715H118.4V75.3115H78.2998" stroke="#BDC5D1" stroke-width="3" stroke-miterlimit="10" stroke-linecap="round" stroke-linejoin="round"/>
<path d="M117.3 136.875H95.4004" stroke="#BDC5D1" stroke-width="3" stroke-miterlimit="10" stroke-linecap="round" stroke-linejoin="round"/>
<path d="M24.6002 136.875H2.7002" stroke="#BDC5D1" stroke-width="3" stroke-miterlimit="10" stroke-linecap="round" stroke-linejoin="round"/>
</svg>
