<svg width="173" height="51" viewBox="0 0 173 51" fill="none" xmlns="http://www.w3.org/2000/svg">
<circle cx="25.5" cy="25.5" r="24.2661" stroke="#20A354" stroke-width="2.46774"/>
<path d="M23.1019 13.7902C25.7803 13.7902 28.0778 14.275 29.9942 15.2448C31.9107 16.2146 33.3769 17.6115 34.3929 19.4357C35.4088 21.2598 35.9168 23.4302 35.9168 25.947C35.9168 28.4407 35.4088 30.5997 34.3929 32.4238C33.3769 34.2248 31.9107 35.6102 29.9942 36.58C28.0778 37.5267 25.7803 38 23.1019 38H15.9324V13.7902H23.1019ZM23.1019 35.9912C26.473 35.9912 29.036 35.1138 30.7908 33.3589C32.5688 31.581 33.4577 29.1104 33.4577 25.947C33.4577 22.7606 32.5688 20.2784 30.7908 18.5005C29.036 16.6995 26.473 15.799 23.1019 15.799H18.3569V35.9912H23.1019Z" fill="#20A354"/>
<path d="M29.9942 15.2448L29.0168 17.1763L29.0168 17.1763L29.9942 15.2448ZM34.3929 19.4357L36.284 18.3824L36.284 18.3824L34.3929 19.4357ZM34.3929 32.4238L36.2783 33.4873L36.284 33.4771L34.3929 32.4238ZM29.9942 36.58L30.9529 38.5208L30.9623 38.5162L30.9716 38.5114L29.9942 36.58ZM15.9324 38H13.7677V40.1647H15.9324V38ZM15.9324 13.7902V11.6255H13.7677V13.7902H15.9324ZM30.7908 33.3589L29.2602 31.8282L29.2602 31.8282L30.7908 33.3589ZM30.7908 18.5005L29.2404 20.0112L29.2502 20.0212L29.2602 20.0312L30.7908 18.5005ZM18.3569 15.799V13.6343H16.1922V15.799H18.3569ZM18.3569 35.9912H16.1922V38.1559H18.3569V35.9912ZM23.1019 15.9548C25.5228 15.9548 27.469 16.393 29.0168 17.1763L30.9716 13.3133C28.6865 12.157 26.0378 11.6255 23.1019 11.6255V15.9548ZM29.0168 17.1763C30.5597 17.957 31.7022 19.0535 32.5017 20.4889L36.284 18.3824C35.0516 16.1696 33.2617 14.4722 30.9716 13.3133L29.0168 17.1763ZM32.5017 20.4889C33.3048 21.9309 33.7521 23.7234 33.7521 25.947H38.0815C38.0815 23.137 37.5128 20.5886 36.284 18.3824L32.5017 20.4889ZM33.7521 25.947C33.7521 28.1437 33.3064 29.9257 32.5017 31.3705L36.284 33.4771C37.5112 31.2736 38.0815 28.7378 38.0815 25.947H33.7521ZM32.5075 31.3602C31.7102 32.7736 30.5671 33.864 29.0168 34.6485L30.9716 38.5114C33.2542 37.3564 35.0436 35.676 36.2783 33.4873L32.5075 31.3602ZM29.0355 34.6392C27.4829 35.4061 25.5298 35.8353 23.1019 35.8353V40.1647C26.0308 40.1647 28.6726 39.6472 30.9529 38.5208L29.0355 34.6392ZM23.1019 35.8353H15.9324V40.1647H23.1019V35.8353ZM18.0971 38V13.7902H13.7677V38H18.0971ZM15.9324 15.9548H23.1019V11.6255H15.9324V15.9548ZM23.1019 38.1559C26.836 38.1559 30.0325 37.1786 32.3215 34.8896L29.2602 31.8282C28.0395 33.0489 26.11 33.8265 23.1019 33.8265V38.1559ZM32.3215 34.8896C34.6039 32.6072 35.6224 29.5283 35.6224 25.947H31.293C31.293 28.6924 30.5336 30.5548 29.2602 31.8282L32.3215 34.8896ZM35.6224 25.947C35.6224 22.3478 34.6068 19.2551 32.3215 16.9698L29.2602 20.0312C30.5307 21.3018 31.293 23.1734 31.293 25.947H35.6224ZM32.3412 16.9899C30.0547 14.6432 26.851 13.6343 23.1019 13.6343V17.9637C26.095 17.9637 28.0172 18.7558 29.2404 20.0112L32.3412 16.9899ZM23.1019 13.6343H18.3569V17.9637H23.1019V13.6343ZM16.1922 15.799V35.9912H20.5216V15.799H16.1922ZM18.3569 38.1559H23.1019V33.8265H18.3569V38.1559Z" fill="#20A354"/>
<path d="M57.1355 27.0146C57.1355 25.8066 57.38 24.7496 57.8689 23.8436C58.3579 22.9233 59.0266 22.2186 59.875 21.7297C60.7378 21.2264 61.7085 20.9747 62.7871 20.9747C63.8225 20.9747 64.7572 21.2264 65.5913 21.7297C66.4254 22.233 67.0365 22.8873 67.4248 23.6926V16.9625H68.9348V32.925H67.4248V30.2933C67.0653 31.113 66.4757 31.7889 65.656 32.321C64.8363 32.8387 63.8728 33.0976 62.7655 33.0976C61.687 33.0976 60.7163 32.8459 59.8534 32.3426C59.005 31.8393 58.3363 31.1274 57.8473 30.2071C57.3728 29.2867 57.1355 28.2225 57.1355 27.0146ZM67.4248 27.0361C67.4248 26.087 67.2307 25.2529 66.8424 24.5339C66.4541 23.8149 65.922 23.2612 65.2462 22.8729C64.5847 22.4847 63.8512 22.2905 63.0459 22.2905C62.2119 22.2905 61.4641 22.4775 60.8026 22.8514C60.141 23.2253 59.6162 23.7717 59.2279 24.4908C58.854 25.1954 58.667 26.0367 58.667 27.0146C58.667 27.9781 58.854 28.8265 59.2279 29.5599C59.6162 30.279 60.141 30.8326 60.8026 31.2209C61.4641 31.5948 62.2119 31.7817 63.0459 31.7817C63.8512 31.7817 64.5847 31.5876 65.2462 31.1993C65.922 30.811 66.4541 30.2574 66.8424 29.5384C67.2307 28.8193 67.4248 27.9853 67.4248 27.0361ZM71.6916 27.0146C71.6916 25.8066 71.9289 24.7496 72.4035 23.8436C72.8924 22.9233 73.5611 22.2186 74.4096 21.7297C75.2724 21.2264 76.2431 20.9747 77.3217 20.9747C78.4433 20.9747 79.4068 21.2336 80.2122 21.7513C81.0318 22.269 81.6215 22.9305 81.981 23.7358V21.1473H83.4909V32.925H81.981V30.3149C81.6071 31.1202 81.0103 31.7889 80.1906 32.321C79.3853 32.8387 78.4218 33.0976 77.3001 33.0976C76.2359 33.0976 75.2724 32.8459 74.4096 32.3426C73.5611 31.8393 72.8924 31.1274 72.4035 30.2071C71.9289 29.2867 71.6916 28.2225 71.6916 27.0146ZM81.981 27.0361C81.981 26.087 81.7868 25.2529 81.3986 24.5339C81.0103 23.8149 80.4782 23.2612 79.8023 22.8729C79.1408 22.4847 78.4074 22.2905 77.6021 22.2905C76.768 22.2905 76.0202 22.4775 75.3587 22.8514C74.6972 23.2253 74.1723 23.7717 73.784 24.4908C73.4101 25.1954 73.2232 26.0367 73.2232 27.0146C73.2232 27.9781 73.4101 28.8265 73.784 29.5599C74.1723 30.279 74.6972 30.8326 75.3587 31.2209C76.0202 31.5948 76.768 31.7817 77.6021 31.7817C78.4074 31.7817 79.1408 31.5876 79.8023 31.1993C80.4782 30.811 81.0103 30.2574 81.3986 29.5384C81.7868 28.8193 81.981 27.9853 81.981 27.0361ZM91.1228 31.4582L95.0919 21.1473H96.6881L91.9641 32.925H90.26L85.536 21.1473H87.1538L91.1228 31.4582ZM100.698 22.42V29.7325C100.698 30.4515 100.834 30.9477 101.107 31.2209C101.381 31.4941 101.862 31.6307 102.553 31.6307H103.933V32.925H102.315C101.251 32.925 100.46 32.6805 99.9426 32.1916C99.4249 31.6883 99.1661 30.8686 99.1661 29.7325V22.42H97.5267V21.1473H99.1661V18.1921H100.698V21.1473H103.933V22.42H100.698ZM111.579 33.0976C110.472 33.0976 109.472 32.8531 108.581 32.3641C107.703 31.8608 107.006 31.1562 106.488 30.2502C105.985 29.3298 105.733 28.2585 105.733 27.0361C105.733 25.8138 105.992 24.7496 106.51 23.8436C107.027 22.9233 107.732 22.2186 108.624 21.7297C109.515 21.2264 110.515 20.9747 111.622 20.9747C112.729 20.9747 113.729 21.2264 114.62 21.7297C115.526 22.2186 116.231 22.9233 116.734 23.8436C117.252 24.7496 117.511 25.8138 117.511 27.0361C117.511 28.2441 117.252 29.3083 116.734 30.2286C116.217 31.149 115.505 31.8608 114.599 32.3641C113.693 32.8531 112.686 33.0976 111.579 33.0976ZM111.579 31.7817C112.355 31.7817 113.075 31.6092 113.736 31.264C114.398 30.9045 114.93 30.3724 115.332 29.6678C115.749 28.9488 115.958 28.0715 115.958 27.0361C115.958 26.0007 115.757 25.1307 115.354 24.4261C114.951 23.707 114.419 23.1749 113.758 22.8298C113.096 22.4703 112.377 22.2905 111.601 22.2905C110.824 22.2905 110.105 22.4703 109.443 22.8298C108.782 23.1749 108.25 23.707 107.847 24.4261C107.459 25.1307 107.265 26.0007 107.265 27.0361C107.265 28.0715 107.459 28.9488 107.847 29.6678C108.25 30.3724 108.775 30.9045 109.422 31.264C110.083 31.6092 110.802 31.7817 111.579 31.7817ZM125.786 20.9316C127.195 20.9316 128.345 21.3702 129.237 22.2474C130.129 23.1102 130.574 24.3685 130.574 26.0223V32.925H129.086V26.1949C129.086 24.915 128.762 23.9371 128.115 23.2612C127.482 22.5853 126.612 22.2474 125.505 22.2474C124.369 22.2474 123.463 22.6069 122.787 23.3259C122.111 24.045 121.773 25.1019 121.773 26.4969V32.925H120.263V21.1473H121.773V23.1534C122.147 22.4343 122.687 21.8879 123.391 21.514C124.096 21.1257 124.894 20.9316 125.786 20.9316ZM135.424 16.9625V32.925H133.914V16.9625H135.424ZM152.864 20.9316C154.245 20.9316 155.366 21.3702 156.229 22.2474C157.106 23.1102 157.545 24.3685 157.545 26.0223V32.925H156.057V26.1949C156.057 24.915 155.747 23.9371 155.129 23.2612C154.511 22.5853 153.669 22.2474 152.605 22.2474C151.498 22.2474 150.614 22.6141 149.952 23.3475C149.291 24.0809 148.96 25.1451 148.96 26.54V32.925H147.471V26.1949C147.471 24.915 147.162 23.9371 146.544 23.2612C145.925 22.5853 145.077 22.2474 143.998 22.2474C142.891 22.2474 142.007 22.6141 141.345 23.3475C140.684 24.0809 140.353 25.1451 140.353 26.54V32.925H138.843V21.1473H140.353V23.1749C140.727 22.4415 141.259 21.8879 141.949 21.514C142.64 21.1257 143.409 20.9316 144.257 20.9316C145.278 20.9316 146.17 21.176 146.932 21.665C147.709 22.1539 148.27 22.8729 148.615 23.8221C148.931 22.8873 149.47 22.1755 150.232 21.6865C151.009 21.1832 151.886 20.9316 152.864 20.9316ZM164.954 33.0976C163.602 33.0976 162.495 32.7884 161.632 32.17C160.783 31.5373 160.309 30.6816 160.208 29.6031H161.761C161.833 30.2646 162.142 30.8038 162.689 31.2209C163.25 31.6235 163.997 31.8249 164.932 31.8249C165.752 31.8249 166.392 31.6307 166.852 31.2425C167.327 30.8542 167.564 30.3724 167.564 29.7972C167.564 29.3945 167.434 29.0638 167.176 28.8049C166.917 28.5461 166.586 28.3448 166.183 28.201C165.795 28.0428 165.263 27.8774 164.587 27.7048C163.71 27.4747 162.998 27.2446 162.452 27.0146C161.905 26.7845 161.438 26.4465 161.049 26.0007C160.676 25.5405 160.489 24.9294 160.489 24.1672C160.489 23.592 160.661 23.0599 161.006 22.571C161.351 22.082 161.84 21.6937 162.473 21.4061C163.106 21.1185 163.825 20.9747 164.63 20.9747C165.896 20.9747 166.917 21.2983 167.693 21.9454C168.47 22.5781 168.887 23.4554 168.944 24.577H167.434C167.391 23.8868 167.118 23.3331 166.615 22.9161C166.126 22.4847 165.45 22.269 164.587 22.269C163.825 22.269 163.207 22.4487 162.732 22.8082C162.257 23.1677 162.02 23.6135 162.02 24.1456C162.02 24.6058 162.157 24.9869 162.43 25.2889C162.718 25.5765 163.07 25.8066 163.487 25.9792C163.904 26.1373 164.465 26.3171 165.169 26.5184C166.018 26.7485 166.694 26.9714 167.197 27.1871C167.7 27.4028 168.132 27.7192 168.491 28.1362C168.851 28.5533 169.038 29.1069 169.052 29.7972C169.052 30.43 168.88 30.998 168.535 31.5013C168.189 31.9902 167.708 32.3785 167.089 32.6661C166.471 32.9537 165.759 33.0976 164.954 33.0976Z" fill="#20A354"/>
<path d="M57.8689 23.8436L58.0933 23.9647L58.0941 23.9633L57.8689 23.8436ZM59.875 21.7297L60.0023 21.9506L60.0035 21.95L59.875 21.7297ZM65.5913 21.7297L65.723 21.5114L65.723 21.5114L65.5913 21.7297ZM67.4248 23.6926L67.1951 23.8034L67.6798 23.6926H67.4248ZM67.4248 16.9625V16.7075H67.1698V16.9625H67.4248ZM68.9348 16.9625H69.1898V16.7075H68.9348V16.9625ZM68.9348 32.925V33.18H69.1898V32.925H68.9348ZM67.4248 32.925H67.1698V33.18H67.4248V32.925ZM67.4248 30.2933H67.6798L67.1913 30.1909L67.4248 30.2933ZM65.656 32.321L65.7922 32.5366L65.7948 32.5349L65.656 32.321ZM59.8534 32.3426L59.7233 32.5619L59.7249 32.5628L59.8534 32.3426ZM57.8473 30.2071L57.6207 30.3239L57.6221 30.3267L57.8473 30.2071ZM66.8424 24.5339L67.0668 24.4127L67.0668 24.4127L66.8424 24.5339ZM65.2462 22.8729L65.1171 23.0929L65.1191 23.0941L65.2462 22.8729ZM60.8026 22.8514L60.928 23.0734L60.928 23.0734L60.8026 22.8514ZM59.2279 24.4908L59.0035 24.3696L59.0026 24.3712L59.2279 24.4908ZM59.2279 29.5599L59.0006 29.6758L59.0035 29.6811L59.2279 29.5599ZM60.8026 31.2209L60.6735 31.4408L60.6771 31.4429L60.8026 31.2209ZM65.2462 31.1993L65.1191 30.9782L65.1171 30.9794L65.2462 31.1993ZM66.8424 29.5384L67.0668 29.6595L67.0668 29.6595L66.8424 29.5384ZM57.3905 27.0146C57.3905 25.8415 57.6277 24.8275 58.0933 23.9647L57.6445 23.7225C57.1323 24.6717 56.8805 25.7717 56.8805 27.0146H57.3905ZM58.0941 23.9633C58.5621 23.0824 59.1981 22.4141 60.0023 21.9506L59.7477 21.5087C58.855 22.0232 58.1536 22.7642 57.6437 23.724L58.0941 23.9633ZM60.0035 21.95C60.8242 21.4712 61.75 21.2297 62.7871 21.2297V20.7197C61.6671 20.7197 60.6514 20.9816 59.7465 21.5094L60.0035 21.95ZM62.7871 21.2297C63.7791 21.2297 64.6678 21.4702 65.4595 21.948L65.723 21.5114C64.8467 20.9825 63.8659 20.7197 62.7871 20.7197V21.2297ZM65.4595 21.948C66.2552 22.4281 66.8303 23.0467 67.1951 23.8034L67.6545 23.5819C67.2428 22.728 66.5956 22.0379 65.723 21.5114L65.4595 21.948ZM67.6798 23.6926V16.9625H67.1698V23.6926H67.6798ZM67.4248 17.2175H68.9348V16.7075H67.4248V17.2175ZM68.6798 16.9625V32.925H69.1898V16.9625H68.6798ZM68.9348 32.67H67.4248V33.18H68.9348V32.67ZM67.6798 32.925V30.2933H67.1698V32.925H67.6798ZM67.1913 30.1909C66.8536 30.9608 66.2991 31.5995 65.5172 32.1071L65.7948 32.5349C66.6523 31.9783 67.277 31.2652 67.6583 30.3958L67.1913 30.1909ZM65.5198 32.1054C64.7465 32.5939 63.8316 32.8426 62.7655 32.8426V33.3526C63.914 33.3526 64.9262 33.0836 65.7922 32.5366L65.5198 32.1054ZM62.7655 32.8426C61.7284 32.8426 60.8027 32.6011 59.9819 32.1223L59.7249 32.5628C60.6299 33.0907 61.6455 33.3526 62.7655 33.3526V32.8426ZM59.9835 32.1233C59.1776 31.6452 58.5408 30.9689 58.0725 30.0874L57.6221 30.3267C58.1317 31.2859 58.8323 32.0333 59.7233 32.5619L59.9835 32.1233ZM58.074 30.0902C57.6209 29.2115 57.3905 28.1886 57.3905 27.0146H56.8805C56.8805 28.2564 57.1246 29.3618 57.6207 30.3239L58.074 30.0902ZM67.6798 27.0361C67.6798 26.0516 67.4782 25.1746 67.0668 24.4127L66.618 24.6551C66.9832 25.3313 67.1698 26.1224 67.1698 27.0361H67.6798ZM67.0668 24.4127C66.6571 23.6541 66.0922 23.0649 65.3732 22.6518L65.1191 23.0941C65.7519 23.4575 66.2511 23.9756 66.618 24.6551L67.0668 24.4127ZM65.3752 22.653C64.6726 22.2406 63.8943 22.0355 63.0459 22.0355V22.5455C63.8082 22.5455 64.4967 22.7287 65.1171 23.0929L65.3752 22.653ZM63.0459 22.0355C62.1723 22.0355 61.3805 22.2318 60.6771 22.6294L60.928 23.0734C61.5476 22.7232 62.2514 22.5455 63.0459 22.5455V22.0355ZM60.6771 22.6294C59.9706 23.0287 59.4128 23.6116 59.0035 24.3696L59.4523 24.6119C59.8195 23.9318 60.3115 23.4218 60.928 23.0734L60.6771 22.6294ZM59.0026 24.3712C58.6053 25.1201 58.412 26.0043 58.412 27.0146H58.922C58.922 26.0691 59.1027 25.2707 59.4531 24.6103L59.0026 24.3712ZM58.412 27.0146C58.412 28.0115 58.6056 28.9008 59.0007 29.6757L59.4551 29.4441C59.1023 28.7522 58.922 27.9447 58.922 27.0146H58.412ZM59.0035 29.6811C59.4124 30.4383 59.9691 31.0274 60.6735 31.4408L60.9316 31.001C60.313 30.6378 59.8199 30.1196 59.4523 29.4388L59.0035 29.6811ZM60.6771 31.4429C61.3805 31.8405 62.1723 32.0367 63.0459 32.0367V31.5267C62.2514 31.5267 61.5476 31.3491 60.928 30.9989L60.6771 31.4429ZM63.0459 32.0367C63.8943 32.0367 64.6726 31.8316 65.3752 31.4192L65.1171 30.9794C64.4967 31.3435 63.8082 31.5267 63.0459 31.5267V32.0367ZM65.3732 31.4204C66.0922 31.0074 66.6571 30.4182 67.0668 29.6595L66.618 29.4172C66.2511 30.0966 65.7519 30.6147 65.1191 30.9782L65.3732 31.4204ZM67.0668 29.6595C67.4782 28.8977 67.6798 28.0207 67.6798 27.0361H67.1698C67.1698 27.9498 66.9832 28.741 66.618 29.4172L67.0668 29.6595ZM72.4035 23.8436L72.1783 23.724L72.1776 23.7253L72.4035 23.8436ZM74.4096 21.7297L74.5369 21.9506L74.5381 21.95L74.4096 21.7297ZM80.2122 21.7513L80.0743 21.9658L80.076 21.9669L80.2122 21.7513ZM81.981 23.7358L81.7481 23.8397L82.236 23.7358H81.981ZM81.981 21.1473V20.8923H81.726V21.1473H81.981ZM83.4909 21.1473H83.7459V20.8923H83.4909V21.1473ZM83.4909 32.925V33.18H83.7459V32.925H83.4909ZM81.981 32.925H81.726V33.18H81.981V32.925ZM81.981 30.3149H82.236L81.7497 30.2075L81.981 30.3149ZM80.1906 32.321L80.3285 32.5355L80.3294 32.5349L80.1906 32.321ZM74.4096 32.3426L74.2795 32.5619L74.2811 32.5628L74.4096 32.3426ZM72.4035 30.2071L72.1768 30.3239L72.1783 30.3267L72.4035 30.2071ZM81.3986 24.5339L81.6229 24.4127L81.6229 24.4127L81.3986 24.5339ZM79.8023 22.8729L79.6732 23.0929L79.6753 23.0941L79.8023 22.8729ZM75.3587 22.8514L75.4842 23.0734L75.4842 23.0734L75.3587 22.8514ZM73.784 24.4908L73.5596 24.3696L73.5588 24.3712L73.784 24.4908ZM73.784 29.5599L73.5568 29.6758L73.5596 29.6811L73.784 29.5599ZM75.3587 31.2209L75.2296 31.4408L75.2332 31.4429L75.3587 31.2209ZM79.8023 31.1993L79.6753 30.9782L79.6732 30.9794L79.8023 31.1993ZM81.3986 29.5384L81.6229 29.6595L81.6229 29.6595L81.3986 29.5384ZM71.9466 27.0146C71.9466 25.8404 72.1771 24.8254 72.6294 23.962L72.1776 23.7253C71.6807 24.6739 71.4366 25.7728 71.4366 27.0146H71.9466ZM72.6287 23.9633C73.0967 23.0824 73.7326 22.4141 74.5369 21.9506L74.2823 21.5087C73.3896 22.0232 72.6882 22.7642 72.1783 23.724L72.6287 23.9633ZM74.5381 21.95C75.3588 21.4712 76.2845 21.2297 77.3217 21.2297V20.7197C76.2017 20.7197 75.186 20.9816 74.2811 21.5094L74.5381 21.95ZM77.3217 21.2297C78.403 21.2297 79.3167 21.4788 80.0743 21.9658L80.35 21.5368C79.497 20.9883 78.4837 20.7197 77.3217 20.7197V21.2297ZM80.076 21.9669C80.8575 22.4605 81.4111 23.0849 81.7481 23.8397L82.2138 23.6318C81.8318 22.776 81.2062 22.0774 80.3483 21.5357L80.076 21.9669ZM82.236 23.7358V21.1473H81.726V23.7358H82.236ZM81.981 21.4023H83.4909V20.8923H81.981V21.4023ZM83.2359 21.1473V32.925H83.7459V21.1473H83.2359ZM83.4909 32.67H81.981V33.18H83.4909V32.67ZM82.236 32.925V30.3149H81.726V32.925H82.236ZM81.7497 30.2075C81.398 30.965 80.8354 31.5984 80.0517 32.1071L80.3294 32.5349C81.1851 31.9794 81.8162 31.2754 82.2123 30.4223L81.7497 30.2075ZM80.0527 32.1065C79.2952 32.5935 78.3814 32.8426 77.3001 32.8426V33.3526C78.4621 33.3526 79.4754 33.0839 80.3285 32.5355L80.0527 32.1065ZM77.3001 32.8426C76.278 32.8426 75.3593 32.6014 74.5381 32.1223L74.2811 32.5628C75.1855 33.0904 76.1938 33.3526 77.3001 33.3526V32.8426ZM74.5397 32.1233C73.7338 31.6452 73.097 30.9689 72.6287 30.0874L72.1783 30.3267C72.6879 31.2859 73.3885 32.0333 74.2795 32.5619L74.5397 32.1233ZM72.6301 30.0902C72.1771 29.2115 71.9466 28.1886 71.9466 27.0146H71.4366C71.4366 28.2564 71.6808 29.3618 72.1768 30.3239L72.6301 30.0902ZM82.236 27.0361C82.236 26.0516 82.0343 25.1746 81.6229 24.4127L81.1742 24.6551C81.5393 25.3313 81.726 26.1224 81.726 27.0361H82.236ZM81.6229 24.4127C81.2133 23.6541 80.6484 23.0649 79.9293 22.6518L79.6753 23.0941C80.308 23.4575 80.8073 23.9756 81.1742 24.6551L81.6229 24.4127ZM79.9314 22.653C79.2288 22.2406 78.4504 22.0355 77.6021 22.0355V22.5455C78.3644 22.5455 79.0528 22.7287 79.6732 23.0929L79.9314 22.653ZM77.6021 22.0355C76.7284 22.0355 75.9367 22.2318 75.2332 22.6294L75.4842 23.0734C76.1037 22.7232 76.8076 22.5455 77.6021 22.5455V22.0355ZM75.2332 22.6294C74.5267 23.0287 73.9689 23.6116 73.5596 24.3696L74.0084 24.6119C74.3757 23.9318 74.8676 23.4218 75.4842 23.0734L75.2332 22.6294ZM73.5588 24.3712C73.1614 25.1201 72.9682 26.0043 72.9682 27.0146H73.4782C73.4782 26.0691 73.6589 25.2707 74.0093 24.6103L73.5588 24.3712ZM72.9682 27.0146C72.9682 28.0115 73.1618 28.9008 73.5568 29.6757L74.0112 29.4441C73.6585 28.7522 73.4782 27.9447 73.4782 27.0146H72.9682ZM73.5596 29.6811C73.9686 30.4383 74.5253 31.0274 75.2296 31.4408L75.4878 31.001C74.8691 30.6378 74.376 30.1196 74.0084 29.4388L73.5596 29.6811ZM75.2332 31.4429C75.9367 31.8405 76.7284 32.0367 77.6021 32.0367V31.5267C76.8076 31.5267 76.1037 31.3491 75.4842 30.9989L75.2332 31.4429ZM77.6021 32.0367C78.4504 32.0367 79.2288 31.8316 79.9314 31.4192L79.6732 30.9794C79.0528 31.3435 78.3644 31.5267 77.6021 31.5267V32.0367ZM79.9293 31.4204C80.6484 31.0074 81.2133 30.4182 81.6229 29.6595L81.1742 29.4172C80.8073 30.0966 80.308 30.6147 79.6753 30.9782L79.9293 31.4204ZM81.6229 29.6595C82.0343 28.8977 82.236 28.0207 82.236 27.0361H81.726C81.726 27.9498 81.5393 28.741 81.1742 29.4172L81.6229 29.6595ZM91.1228 31.4582L90.8848 31.5498L91.1228 32.168L91.3608 31.5498L91.1228 31.4582ZM95.0919 21.1473V20.8923H94.9168L94.8539 21.0557L95.0919 21.1473ZM96.6881 21.1473L96.9248 21.2422L97.0651 20.8923H96.6881V21.1473ZM91.9641 32.925V33.18H92.1366L92.2008 33.0199L91.9641 32.925ZM90.26 32.925L90.0233 33.0199L90.0875 33.18H90.26V32.925ZM85.536 21.1473V20.8923H85.1589L85.2993 21.2422L85.536 21.1473ZM87.1538 21.1473L87.3917 21.0557L87.3289 20.8923H87.1538V21.1473ZM91.3608 31.5498L95.3298 21.2389L94.8539 21.0557L90.8848 31.3666L91.3608 31.5498ZM95.0919 21.4023H96.6881V20.8923H95.0919V21.4023ZM96.4514 21.0523L91.7274 32.8301L92.2008 33.0199L96.9248 21.2422L96.4514 21.0523ZM91.9641 32.67H90.26V33.18H91.9641V32.67ZM90.4967 32.8301L85.7726 21.0523L85.2993 21.2422L90.0233 33.0199L90.4967 32.8301ZM85.536 21.4023H87.1538V20.8923H85.536V21.4023ZM86.9158 21.2389L90.8848 31.5498L91.3608 31.3666L87.3917 21.0557L86.9158 21.2389ZM100.698 22.42V22.165H100.443V22.42H100.698ZM101.107 31.2209L101.288 31.0406L101.288 31.0406L101.107 31.2209ZM103.933 31.6307H104.188V31.3757H103.933V31.6307ZM103.933 32.925V33.18H104.188V32.925H103.933ZM99.9426 32.1916L99.7648 32.3744L99.7675 32.377L99.9426 32.1916ZM99.1661 22.42H99.4211V22.165H99.1661V22.42ZM97.5267 22.42H97.2717V22.675H97.5267V22.42ZM97.5267 21.1473V20.8923H97.2717V21.1473H97.5267ZM99.1661 21.1473V21.4023H99.4211V21.1473H99.1661ZM99.1661 18.1921V17.9371H98.9111V18.1921H99.1661ZM100.698 18.1921H100.953V17.9371H100.698V18.1921ZM100.698 21.1473H100.443V21.4023H100.698V21.1473ZM103.933 21.1473H104.188V20.8923H103.933V21.1473ZM103.933 22.42V22.675H104.188V22.42H103.933ZM100.443 22.42V29.7325H100.953V22.42H100.443ZM100.443 29.7325C100.443 30.4668 100.579 31.0528 100.927 31.4012L101.288 31.0406C101.09 30.8425 100.953 30.4362 100.953 29.7325H100.443ZM100.927 31.4012C101.274 31.7482 101.844 31.8857 102.553 31.8857V31.3757C101.881 31.3757 101.487 31.24 101.288 31.0406L100.927 31.4012ZM102.553 31.8857H103.933V31.3757H102.553V31.8857ZM103.678 31.6307V32.925H104.188V31.6307H103.678ZM103.933 32.67H102.315V33.18H103.933V32.67ZM102.315 32.67C101.285 32.67 100.569 32.4326 100.118 32.0062L99.7675 32.377C100.351 32.9284 101.218 33.18 102.315 33.18V32.67ZM100.12 32.0087C99.6741 31.5749 99.4211 30.8381 99.4211 29.7325H98.9111C98.9111 30.899 99.1757 31.8016 99.7649 32.3744L100.12 32.0087ZM99.4211 29.7325V22.42H98.9111V29.7325H99.4211ZM99.1661 22.165H97.5267V22.675H99.1661V22.165ZM97.7817 22.42V21.1473H97.2717V22.42H97.7817ZM97.5267 21.4023H99.1661V20.8923H97.5267V21.4023ZM99.4211 21.1473V18.1921H98.9111V21.1473H99.4211ZM99.1661 18.4471H100.698V17.9371H99.1661V18.4471ZM100.443 18.1921V21.1473H100.953V18.1921H100.443ZM100.698 21.4023H103.933V20.8923H100.698V21.4023ZM103.678 21.1473V22.42H104.188V21.1473H103.678ZM103.933 22.165H100.698V22.675H103.933V22.165ZM108.581 32.3641L108.454 32.5854L108.458 32.5877L108.581 32.3641ZM106.488 30.2502L106.264 30.3726L106.267 30.3767L106.488 30.2502ZM106.51 23.8436L106.731 23.9702L106.732 23.9687L106.51 23.8436ZM108.624 21.7297L108.746 21.9533L108.749 21.9517L108.624 21.7297ZM114.62 21.7297L114.495 21.9518L114.499 21.9541L114.62 21.7297ZM116.734 23.8436L116.511 23.966L116.513 23.9702L116.734 23.8436ZM116.734 30.2286L116.957 30.3536L116.957 30.3536L116.734 30.2286ZM114.599 32.3641L114.72 32.5886L114.723 32.5871L114.599 32.3641ZM113.736 31.264L113.854 31.4901L113.858 31.4881L113.736 31.264ZM115.332 29.6678L115.112 29.5398L115.111 29.5413L115.332 29.6678ZM115.354 24.4261L115.131 24.5506L115.132 24.5526L115.354 24.4261ZM113.758 22.8298L113.636 23.0539L113.64 23.0559L113.758 22.8298ZM109.443 22.8298L109.561 23.0559L109.565 23.0539L109.443 22.8298ZM107.847 24.4261L107.625 24.3015L107.624 24.303L107.847 24.4261ZM107.847 29.6678L107.623 29.789L107.626 29.7943L107.847 29.6678ZM109.422 31.264L109.298 31.487L109.304 31.4901L109.422 31.264ZM111.579 32.8426C110.511 32.8426 109.554 32.6071 108.703 32.1406L108.458 32.5877C109.39 33.0991 110.433 33.3526 111.579 33.3526V32.8426ZM108.707 32.143C107.871 31.663 107.206 30.9916 106.71 30.1237L106.267 30.3767C106.806 31.3208 107.536 32.0587 108.454 32.5853L108.707 32.143ZM106.712 30.1278C106.232 29.2508 105.988 28.2228 105.988 27.0361H105.478C105.478 28.2941 105.737 29.4089 106.264 30.3725L106.712 30.1278ZM105.988 27.0361C105.988 25.8505 106.239 24.8315 106.731 23.9702L106.288 23.7171C105.745 24.6678 105.478 25.7771 105.478 27.0361H105.988ZM106.732 23.9687C107.227 23.0881 107.898 22.4184 108.746 21.9533L108.501 21.5061C107.566 22.0189 106.828 22.7584 106.288 23.7186L106.732 23.9687ZM108.749 21.9517C109.599 21.4718 110.555 21.2297 111.622 21.2297V20.7197C110.475 20.7197 109.431 20.981 108.498 21.5076L108.749 21.9517ZM111.622 21.2297C112.689 21.2297 113.645 21.4718 114.495 21.9517L114.746 21.5076C113.813 20.981 112.77 20.7197 111.622 20.7197V21.2297ZM114.499 21.9541C115.361 22.4192 116.03 23.088 116.511 23.966L116.958 23.7213C116.432 22.7586 115.692 22.0181 114.742 21.5053L114.499 21.9541ZM116.513 23.9702C117.005 24.8315 117.256 25.8505 117.256 27.0361H117.766C117.766 25.7771 117.499 24.6678 116.956 23.7171L116.513 23.9702ZM117.256 27.0361C117.256 28.2067 117.005 29.2266 116.512 30.1036L116.957 30.3536C117.499 29.3899 117.766 28.2815 117.766 27.0361H117.256ZM116.512 30.1036C116.017 30.9837 115.339 31.6613 114.475 32.1412L114.723 32.5871C115.671 32.0604 116.416 31.3143 116.957 30.3536L116.512 30.1036ZM114.478 32.1397C113.612 32.6071 112.647 32.8426 111.579 32.8426V33.3526C112.725 33.3526 113.774 33.0991 114.72 32.5885L114.478 32.1397ZM111.579 32.0367C112.395 32.0367 113.155 31.855 113.854 31.4901L113.618 31.0379C112.994 31.3633 112.316 31.5267 111.579 31.5267V32.0367ZM113.858 31.4881C114.564 31.1042 115.129 30.5367 115.554 29.7943L115.111 29.5413C114.73 30.2081 114.231 30.7049 113.614 31.04L113.858 31.4881ZM115.553 29.7957C115.997 29.0294 116.213 28.1055 116.213 27.0361H115.703C115.703 28.0375 115.501 28.8682 115.112 29.5398L115.553 29.7957ZM116.213 27.0361C116.213 25.9684 116.005 25.0519 115.575 24.2995L115.132 24.5526C115.508 25.2095 115.703 26.0331 115.703 27.0361H116.213ZM115.576 24.3015C115.152 23.5438 114.586 22.9742 113.876 22.6037L113.64 23.0559C114.253 23.3757 114.75 23.8702 115.131 24.5506L115.576 24.3015ZM113.879 22.6058C113.179 22.2253 112.418 22.0355 111.601 22.0355V22.5455C112.336 22.5455 113.013 22.7153 113.636 23.0539L113.879 22.6058ZM111.601 22.0355C110.783 22.0355 110.022 22.2253 109.322 22.6058L109.565 23.0539C110.188 22.7153 110.865 22.5455 111.601 22.5455V22.0355ZM109.325 22.6037C108.615 22.9742 108.049 23.5438 107.625 24.3015L108.07 24.5506C108.451 23.8702 108.948 23.3757 109.561 23.0559L109.325 22.6037ZM107.624 24.303C107.21 25.0546 107.01 25.9697 107.01 27.0361H107.52C107.52 26.0317 107.708 25.2068 108.071 24.5491L107.624 24.303ZM107.01 27.0361C107.01 28.1028 107.21 29.024 107.623 29.7889L108.072 29.5466C107.708 28.8735 107.52 28.0403 107.52 27.0361H107.01ZM107.626 29.7943C108.049 30.5354 108.606 31.1027 109.298 31.4869L109.546 31.0411C108.943 30.7064 108.45 30.2095 108.069 29.5413L107.626 29.7943ZM109.304 31.4901C110.003 31.855 110.763 32.0367 111.579 32.0367V31.5267C110.842 31.5267 110.163 31.3633 109.54 31.0379L109.304 31.4901ZM129.237 22.2474L129.058 22.4292L129.06 22.4306L129.237 22.2474ZM130.574 32.925V33.18H130.829V32.925H130.574ZM129.086 32.925H128.831V33.18H129.086V32.925ZM128.115 23.2612L127.929 23.4355L127.931 23.4376L128.115 23.2612ZM121.773 32.925V33.18H122.028V32.925H121.773ZM120.263 32.925H120.008V33.18H120.263V32.925ZM120.263 21.1473V20.8923H120.008V21.1473H120.263ZM121.773 21.1473H122.028V20.8923H121.773V21.1473ZM121.773 23.1534H121.518L122 23.271L121.773 23.1534ZM123.391 21.514L123.511 21.7393L123.514 21.7373L123.391 21.514ZM125.786 21.1866C127.137 21.1866 128.22 21.605 129.058 22.4292L129.416 22.0656C128.47 21.1354 127.253 20.6766 125.786 20.6766V21.1866ZM129.06 22.4306C129.887 23.231 130.319 24.4137 130.319 26.0223H130.829C130.829 24.3233 130.37 22.9894 129.414 22.0641L129.06 22.4306ZM130.319 26.0223V32.925H130.829V26.0223H130.319ZM130.574 32.67H129.086V33.18H130.574V32.67ZM129.341 32.925V26.1949H128.831V32.925H129.341ZM129.341 26.1949C129.341 24.8739 129.007 23.8234 128.299 23.0849L127.931 23.4376C128.518 24.0508 128.831 24.9561 128.831 26.1949H129.341ZM128.301 23.0869C127.611 22.3496 126.668 21.9924 125.505 21.9924V22.5024C126.557 22.5024 127.354 22.8211 127.929 23.4355L128.301 23.0869ZM125.505 21.9924C124.31 21.9924 123.333 22.3731 122.601 23.1513L122.973 23.5006C123.593 22.8407 124.428 22.5024 125.505 22.5024V21.9924ZM122.601 23.1513C121.866 23.9341 121.518 25.0639 121.518 26.4969H122.028C122.028 25.14 122.357 24.1558 122.973 23.5006L122.601 23.1513ZM121.518 26.4969V32.925H122.028V26.4969H121.518ZM121.773 32.67H120.263V33.18H121.773V32.67ZM120.518 32.925V21.1473H120.008V32.925H120.518ZM120.263 21.4023H121.773V20.8923H120.263V21.4023ZM121.518 21.1473V23.1534H122.028V21.1473H121.518ZM122 23.271C122.35 22.5971 122.853 22.0885 123.511 21.7392L123.272 21.2887C122.521 21.6873 121.944 22.2716 121.547 23.0357L122 23.271ZM123.514 21.7373C124.177 21.372 124.932 21.1866 125.786 21.1866V20.6766C124.856 20.6766 124.014 20.8794 123.268 21.2906L123.514 21.7373ZM135.424 16.9625H135.679V16.7075H135.424V16.9625ZM135.424 32.925V33.18H135.679V32.925H135.424ZM133.914 32.925H133.659V33.18H133.914V32.925ZM133.914 16.9625V16.7075H133.659V16.9625H133.914ZM135.169 16.9625V32.925H135.679V16.9625H135.169ZM135.424 32.67H133.914V33.18H135.424V32.67ZM134.169 32.925V16.9625H133.659V32.925H134.169ZM133.914 17.2175H135.424V16.7075H133.914V17.2175ZM156.229 22.2474L156.047 22.4262L156.05 22.4292L156.229 22.2474ZM157.545 32.925V33.18H157.8V32.925H157.545ZM156.057 32.925H155.802V33.18H156.057V32.925ZM155.129 23.2612L154.941 23.4334L154.941 23.4334L155.129 23.2612ZM149.952 23.3475L149.763 23.1767L149.763 23.1767L149.952 23.3475ZM148.96 32.925V33.18H149.215V32.925H148.96ZM147.471 32.925H147.216V33.18H147.471V32.925ZM146.544 23.2612L146.356 23.4334L146.356 23.4334L146.544 23.2612ZM141.345 23.3475L141.156 23.1767L141.156 23.1767L141.345 23.3475ZM140.353 32.925V33.18H140.608V32.925H140.353ZM138.843 32.925H138.588V33.18H138.843V32.925ZM138.843 21.1473V20.8923H138.588V21.1473H138.843ZM140.353 21.1473H140.608V20.8923H140.353V21.1473ZM140.353 23.1749H140.098L140.58 23.2908L140.353 23.1749ZM141.949 21.514L142.071 21.7382L142.074 21.7362L141.949 21.514ZM146.932 21.665L146.794 21.8796L146.796 21.8808L146.932 21.665ZM148.615 23.8221L148.375 23.9092L148.623 24.592L148.856 23.9038L148.615 23.8221ZM150.232 21.6865L150.37 21.9012L150.371 21.9005L150.232 21.6865ZM152.864 21.1866C154.185 21.1866 155.239 21.6039 156.047 22.4262L156.411 22.0686C155.494 21.1365 154.304 20.6766 152.864 20.6766V21.1866ZM156.05 22.4292C156.864 23.2294 157.29 24.4126 157.29 26.0223H157.8C157.8 24.3245 157.349 22.9911 156.408 22.0656L156.05 22.4292ZM157.29 26.0223V32.925H157.8V26.0223H157.29ZM157.545 32.67H156.057V33.18H157.545V32.67ZM156.312 32.925V26.1949H155.802V32.925H156.312ZM156.312 26.1949C156.312 24.8766 155.993 23.8278 155.317 23.0891L154.941 23.4334C155.502 24.0464 155.802 24.9533 155.802 26.1949H156.312ZM155.317 23.0891C154.643 22.3517 153.728 21.9924 152.605 21.9924V22.5024C153.611 22.5024 154.379 22.8189 154.941 23.4334L155.317 23.0891ZM152.605 21.9924C151.436 21.9924 150.479 22.3829 149.763 23.1767L150.141 23.5183C150.748 22.8453 151.56 22.5024 152.605 22.5024V21.9924ZM149.763 23.1767C149.044 23.9732 148.705 25.1079 148.705 26.54H149.215C149.215 25.1823 149.537 24.1886 150.141 23.5183L149.763 23.1767ZM148.705 26.54V32.925H149.215V26.54H148.705ZM148.96 32.67H147.471V33.18H148.96V32.67ZM147.726 32.925V26.1949H147.216V32.925H147.726ZM147.726 26.1949C147.726 24.8766 147.408 23.8278 146.732 23.0891L146.356 23.4334C146.917 24.0464 147.216 24.9533 147.216 26.1949H147.726ZM146.732 23.0891C146.057 22.351 145.135 21.9924 143.998 21.9924V22.5024C145.019 22.5024 145.794 22.8197 146.356 23.4334L146.732 23.0891ZM143.998 21.9924C142.829 21.9924 141.872 22.3829 141.156 23.1767L141.535 23.5183C142.142 22.8453 142.954 22.5024 143.998 22.5024V21.9924ZM141.156 23.1767C140.438 23.9732 140.098 25.1079 140.098 26.54H140.608C140.608 25.1823 140.93 24.1886 141.535 23.5183L141.156 23.1767ZM140.098 26.54V32.925H140.608V26.54H140.098ZM140.353 32.67H138.843V33.18H140.353V32.67ZM139.098 32.925V21.1473H138.588V32.925H139.098ZM138.843 21.4023H140.353V20.8923H138.843V21.4023ZM140.098 21.1473V23.1749H140.608V21.1473H140.098ZM140.58 23.2908C140.932 22.601 141.428 22.0863 142.071 21.7382L141.828 21.2898C141.09 21.6895 140.522 22.2821 140.126 23.0591L140.58 23.2908ZM142.074 21.7362C142.724 21.371 143.449 21.1866 144.257 21.1866V20.6766C143.368 20.6766 142.555 20.8805 141.824 21.2917L142.074 21.7362ZM144.257 21.1866C145.236 21.1866 146.078 21.4203 146.794 21.8796L147.07 21.4503C146.261 20.9318 145.321 20.6766 144.257 20.6766V21.1866ZM146.796 21.8808C147.52 22.3365 148.047 23.0076 148.375 23.9092L148.854 23.7349C148.492 22.7383 147.897 21.9714 147.068 21.4492L146.796 21.8808ZM148.856 23.9038C149.156 23.0186 149.661 22.356 150.37 21.9012L150.095 21.4719C149.279 21.995 148.706 22.756 148.373 23.7403L148.856 23.9038ZM150.371 21.9005C151.104 21.4255 151.933 21.1866 152.864 21.1866V20.6766C151.84 20.6766 150.914 20.9409 150.094 21.4726L150.371 21.9005ZM161.632 32.17L161.479 32.3745L161.483 32.3773L161.632 32.17ZM160.208 29.6031V29.3481H159.928L159.954 29.6268L160.208 29.6031ZM161.761 29.6031L162.015 29.5755L161.99 29.3481H161.761V29.6031ZM162.689 31.2209L162.534 31.4237L162.54 31.428L162.689 31.2209ZM166.852 31.2425L166.691 31.0451L166.688 31.0476L166.852 31.2425ZM167.176 28.8049L167.356 28.6246L167.356 28.6246L167.176 28.8049ZM166.183 28.201L166.087 28.4373L166.098 28.4411L166.183 28.201ZM164.587 27.7048L164.522 27.9515L164.524 27.9519L164.587 27.7048ZM161.049 26.0007L160.851 26.1616L160.857 26.1682L161.049 26.0007ZM161.006 22.571L160.798 22.4239L160.798 22.4239L161.006 22.571ZM162.473 21.4061L162.368 21.174L162.368 21.174L162.473 21.4061ZM167.693 21.9454L167.53 22.1413L167.532 22.1431L167.693 21.9454ZM168.944 24.577V24.832H169.213L169.199 24.564L168.944 24.577ZM167.434 24.577L167.18 24.593L167.195 24.832H167.434V24.577ZM166.615 22.9161L166.446 23.1074L166.452 23.1124L166.615 22.9161ZM162.732 22.8082L162.886 23.0115L162.886 23.0115L162.732 22.8082ZM162.43 25.2889L162.241 25.4602L162.25 25.4692L162.43 25.2889ZM163.487 25.9792L163.389 26.2149L163.397 26.2176L163.487 25.9792ZM165.169 26.5184L165.099 26.7636L165.103 26.7645L165.169 26.5184ZM167.197 27.1871L167.097 27.4215L167.097 27.4215L167.197 27.1871ZM168.491 28.1362L168.685 27.9697L168.685 27.9697L168.491 28.1362ZM169.052 29.7972H169.307L169.307 29.7919L169.052 29.7972ZM168.535 31.5013L168.743 31.6484L168.745 31.6455L168.535 31.5013ZM167.089 32.6661L167.197 32.8974L167.197 32.8974L167.089 32.6661ZM164.954 32.8426C163.641 32.8426 162.589 32.5425 161.78 31.9627L161.483 32.3773C162.4 33.0342 163.563 33.3526 164.954 33.3526V32.8426ZM161.784 31.9656C160.995 31.3771 160.556 30.588 160.462 29.5794L159.954 29.6268C160.061 30.7753 160.572 31.6974 161.479 32.3744L161.784 31.9656ZM160.208 29.8581H161.761V29.3481H160.208V29.8581ZM161.508 29.6306C161.588 30.3641 161.934 30.9658 162.534 31.4236L162.844 31.0182C162.351 30.6419 162.079 30.165 162.015 29.5755L161.508 29.6306ZM162.54 31.428C163.157 31.8711 163.963 32.0799 164.932 32.0799V31.5699C164.032 31.5699 163.342 31.376 162.838 31.0137L162.54 31.428ZM164.932 32.0799C165.79 32.0799 166.496 31.8765 167.016 31.4374L166.688 31.0476C166.288 31.385 165.713 31.5699 164.932 31.5699V32.0799ZM167.014 31.4398C167.543 31.0068 167.819 30.4545 167.819 29.7972H167.309C167.309 30.2903 167.11 30.7016 166.691 31.0451L167.014 31.4398ZM167.819 29.7972C167.819 29.3343 167.668 28.9363 167.356 28.6246L166.995 28.9853C167.201 29.1913 167.309 29.4548 167.309 29.7972H167.819ZM167.356 28.6246C167.066 28.335 166.701 28.1152 166.269 27.9608L166.098 28.4411C166.471 28.5743 166.767 28.7572 166.995 28.9853L167.356 28.6246ZM166.28 27.9648C165.876 27.8003 165.331 27.6316 164.65 27.4578L164.524 27.9519C165.195 28.1232 165.714 28.2852 166.087 28.4371L166.28 27.9648ZM164.652 27.4582C163.781 27.2297 163.082 27.0032 162.551 26.7795L162.353 27.2496C162.914 27.4861 163.639 27.7198 164.522 27.9515L164.652 27.4582ZM162.551 26.7795C162.04 26.5645 161.604 26.2496 161.242 25.8332L160.857 26.1682C161.271 26.6434 161.77 27.0044 162.353 27.2496L162.551 26.7795ZM161.247 25.8399C160.92 25.4368 160.744 24.8878 160.744 24.1672H160.234C160.234 24.971 160.431 25.6443 160.852 26.1615L161.247 25.8399ZM160.744 24.1672C160.744 23.6469 160.899 23.1658 161.215 22.718L160.798 22.4239C160.424 22.954 160.234 23.5371 160.234 24.1672H160.744ZM161.215 22.718C161.53 22.2717 161.98 21.9102 162.579 21.6383L162.368 21.174C161.7 21.4773 161.173 21.8924 160.798 22.4239L161.215 22.718ZM162.579 21.6383C163.173 21.3679 163.856 21.2297 164.63 21.2297V20.7197C163.794 20.7197 163.038 20.8691 162.368 21.174L162.579 21.6383ZM164.63 21.2297C165.852 21.2297 166.81 21.5412 167.53 22.1413L167.857 21.7495C167.024 21.0553 165.94 20.7197 164.63 20.7197V21.2297ZM167.532 22.1431C168.246 22.7245 168.635 23.5307 168.69 24.5901L169.199 24.564C169.138 23.38 168.694 22.4318 167.854 21.7477L167.532 22.1431ZM168.944 24.322H167.434V24.832H168.944V24.322ZM167.689 24.5611C167.642 23.8052 167.338 23.1845 166.777 22.7197L166.452 23.1124C166.898 23.4817 167.141 23.9683 167.18 24.593L167.689 24.5611ZM166.783 22.7249C166.235 22.2406 165.492 22.014 164.587 22.014V22.524C165.408 22.524 166.017 22.7287 166.446 23.1073L166.783 22.7249ZM164.587 22.014C163.785 22.014 163.108 22.2035 162.578 22.605L162.886 23.0115C163.305 22.6939 163.865 22.524 164.587 22.524V22.014ZM162.578 22.605C162.048 23.0061 161.765 23.5234 161.765 24.1456H162.275C162.275 23.7037 162.466 23.3294 162.886 23.0115L162.578 22.605ZM161.765 24.1456C161.765 24.6602 161.92 25.1049 162.241 25.46L162.619 25.1178C162.394 24.8689 162.275 24.5514 162.275 24.1456H161.765ZM162.25 25.4692C162.563 25.783 162.945 26.0308 163.389 26.2148L163.584 25.7435C163.195 25.5824 162.872 25.37 162.61 25.1086L162.25 25.4692ZM163.397 26.2176C163.823 26.3794 164.392 26.5614 165.099 26.7636L165.24 26.2732C164.538 26.0728 163.985 25.8953 163.577 25.7407L163.397 26.2176ZM165.103 26.7645C165.946 26.9931 166.609 27.2124 167.097 27.4215L167.298 26.9527C166.779 26.7304 166.09 26.5039 165.236 26.2723L165.103 26.7645ZM167.097 27.4215C167.564 27.6218 167.964 27.9149 168.298 28.3027L168.685 27.9697C168.3 27.5235 167.837 27.1838 167.298 26.9527L167.097 27.4215ZM168.298 28.3027C168.61 28.6644 168.784 29.1561 168.797 29.8025L169.307 29.7919C169.292 29.0578 169.092 28.4422 168.685 27.9697L168.298 28.3027ZM168.797 29.7972C168.797 30.3805 168.639 30.8979 168.324 31.3571L168.745 31.6455C169.12 31.0981 169.307 30.4794 169.307 29.7972H168.797ZM168.326 31.3543C168.01 31.802 167.565 32.1634 166.982 32.4349L167.197 32.8974C167.85 32.5936 168.369 32.1785 168.743 31.6484L168.326 31.3543ZM166.982 32.4349C166.403 32.7043 165.729 32.8426 164.954 32.8426V33.3526C165.79 33.3526 166.539 33.2032 167.197 32.8974L166.982 32.4349Z" fill="#20A354"/>
</svg>
