<svg width="15" height="15" viewBox="0 0 15 15" fill="none" xmlns="http://www.w3.org/2000/svg">
<path d="M12.8809 1.89106C11.513 0.630355 9.8117 0 7.77987 0C5.64401 0 3.82332 0.716034 2.32088 2.15116C0.818428 3.58629 0.0656738 5.37026 0.0656738 7.50612C0.0656738 9.55324 0.781708 11.3127 2.21072 12.7876C3.64584 14.2625 5.57363 15 8.00019 15C9.46286 15 10.898 14.7001 12.3056 14.0973C12.7646 13.9015 12.9879 13.3752 12.8013 12.9131C12.6085 12.4357 12.0638 12.2154 11.5895 12.4174C10.3656 12.9437 9.16604 13.2069 7.99713 13.2069C6.13667 13.2069 4.69542 12.6408 3.67338 11.5055C2.65441 10.3733 2.1434 9.04223 2.1434 7.5153C2.1434 5.85679 2.69113 4.47368 3.78354 3.36291C4.87289 2.2552 6.21622 1.69829 7.80741 1.69829C9.27314 1.69829 10.5124 2.15422 11.5222 3.0661C12.532 3.97797 13.0369 5.12546 13.0369 6.50857C13.0369 7.4541 12.8044 8.24357 12.3423 8.87087C11.8802 9.50122 11.3998 9.81334 10.901 9.81334C10.6318 9.81334 10.4971 9.66952 10.4971 9.37882C10.4971 9.14321 10.5155 8.86781 10.5491 8.54957L11.1183 3.89535H9.15992L9.03446 4.35128C8.53569 3.94431 7.98795 3.73929 7.39431 3.73929C6.45184 3.73929 5.64401 4.11567 4.97387 4.86536C4.30068 5.61506 3.96714 6.58201 3.96714 7.76316C3.96714 8.91677 4.26396 9.85006 4.86066 10.5569C5.45735 11.2668 6.17338 11.6187 7.01182 11.6187C7.76151 11.6187 8.40105 11.3035 8.93348 10.6763C9.33434 11.2791 9.92491 11.5789 10.7052 11.5789C11.8527 11.5789 12.8441 11.0802 13.6795 10.0796C14.5149 9.08201 14.9341 7.87638 14.9341 6.46573C14.9341 4.6787 14.2517 3.15177 12.8809 1.89106ZM8.37045 8.93207C8.02467 9.39718 7.61157 9.6328 7.13116 9.6328C6.80374 9.6328 6.54058 9.46144 6.34168 9.11873C6.13972 8.77601 6.03875 8.35067 6.03875 7.83966C6.03875 7.2093 6.1795 6.70135 6.46102 6.31579C6.74254 5.93023 7.09138 5.73439 7.50753 5.73439C7.86861 5.73439 8.18991 5.87821 8.47143 6.16891C8.75294 6.45961 8.8937 6.84517 8.8937 7.32864C8.89064 7.93146 8.71622 8.46389 8.37045 8.93207Z" fill="#14B855"/>
</svg>
