<svg width="202" height="122" viewBox="0 0 202 122" fill="none" xmlns="http://www.w3.org/2000/svg">
<path d="M93.8677 42.9674C94.8396 42.1272 95.6039 41.4388 96.1606 40.9023C96.7275 40.3556 97.1983 39.7887 97.5728 39.2016C97.9474 38.6144 98.1347 38.0273 98.1347 37.4401C98.1347 36.8327 97.9879 36.3569 97.6943 36.0128C97.4109 35.6686 96.9604 35.4965 96.3429 35.4965C95.7456 35.4965 95.2799 35.6888 94.9459 36.0735C94.6219 36.4481 94.4498 36.9542 94.4296 37.592H92.7592C92.7896 36.4379 93.1338 35.5572 93.7918 34.9498C94.4599 34.3323 95.3052 34.0235 96.3277 34.0235C97.4311 34.0235 98.2916 34.3272 98.9091 34.9346C99.5367 35.542 99.8505 36.3519 99.8505 37.3642C99.8505 38.0931 99.6633 38.7966 99.2887 39.4749C98.9243 40.143 98.4839 40.7454 97.9676 41.2819C97.4615 41.8083 96.8136 42.4207 96.024 43.1192L95.3407 43.7266H100.154V45.1692H92.7744V43.9089L93.8677 42.9674ZM108.812 35.7394H103.725V38.7612C103.938 38.4778 104.251 38.2399 104.666 38.0475C105.092 37.8552 105.542 37.759 106.018 37.759C106.868 37.759 107.557 37.9412 108.083 38.3057C108.62 38.6701 108.999 39.1307 109.222 39.6875C109.455 40.2443 109.571 40.8314 109.571 41.4489C109.571 42.198 109.424 42.8662 109.131 43.4533C108.847 44.0303 108.417 44.4859 107.84 44.8199C107.273 45.154 106.575 45.321 105.745 45.321C104.641 45.321 103.755 45.0477 103.087 44.5011C102.419 43.9544 102.019 43.2306 101.888 42.3296H103.573C103.684 42.8054 103.932 43.185 104.317 43.4685C104.702 43.7418 105.183 43.8785 105.76 43.8785C106.478 43.8785 107.015 43.6608 107.369 43.2255C107.734 42.7902 107.916 42.2132 107.916 41.4945C107.916 40.7656 107.734 40.2088 107.369 39.8241C107.005 39.4293 106.468 39.2319 105.76 39.2319C105.264 39.2319 104.844 39.3585 104.499 39.6116C104.165 39.8545 103.922 40.1886 103.77 40.6138H102.131V34.2209H108.812V35.7394ZM111.1 36.9238C111.1 36.1848 111.312 35.6078 111.738 35.1928C112.173 34.7676 112.73 34.555 113.408 34.555C114.086 34.555 114.638 34.7676 115.063 35.1928C115.498 35.6078 115.716 36.1848 115.716 36.9238C115.716 37.6628 115.498 38.2449 115.063 38.6701C114.638 39.0953 114.086 39.3079 113.408 39.3079C112.73 39.3079 112.173 39.0953 111.738 38.6701C111.312 38.2449 111.1 37.6628 111.1 36.9238ZM120.363 34.7524L114.304 45.321H112.603L118.662 34.7524H120.363ZM113.408 35.6028C112.77 35.6028 112.451 36.0431 112.451 36.9238C112.451 37.8147 112.77 38.2601 113.408 38.2601C113.712 38.2601 113.944 38.1538 114.106 37.9412C114.278 37.7185 114.365 37.3794 114.365 36.9238C114.365 36.0431 114.046 35.6028 113.408 35.6028ZM117.28 43.1344C117.28 42.3954 117.493 41.8184 117.918 41.4034C118.353 40.9782 118.91 40.7656 119.588 40.7656C120.256 40.7656 120.803 40.9782 121.228 41.4034C121.663 41.8184 121.881 42.3954 121.881 43.1344C121.881 43.8734 121.663 44.4555 121.228 44.8807C120.803 45.3059 120.256 45.5184 119.588 45.5184C118.91 45.5184 118.353 45.3059 117.918 44.8807C117.493 44.4555 117.28 43.8734 117.28 43.1344ZM119.573 41.8134C118.935 41.8134 118.616 42.2537 118.616 43.1344C118.616 44.0152 118.935 44.4555 119.573 44.4555C120.211 44.4555 120.53 44.0152 120.53 43.1344C120.53 42.2537 120.211 41.8134 119.573 41.8134ZM134.981 37.9109C134.981 38.4474 134.855 38.9535 134.601 39.4293C134.348 39.9051 133.943 40.2949 133.387 40.5986C132.83 40.8921 132.116 41.0389 131.246 41.0389H129.332V45.321H127.601V34.7676H131.246C132.055 34.7676 132.739 34.9093 133.296 35.1928C133.862 35.4661 134.283 35.8407 134.556 36.3164C134.839 36.7922 134.981 37.3237 134.981 37.9109ZM131.246 39.6267C131.904 39.6267 132.395 39.48 132.719 39.1864C133.042 38.8827 133.204 38.4575 133.204 37.9109C133.204 36.7568 132.552 36.1798 131.246 36.1798H129.332V39.6267H131.246ZM136.055 41.0997C136.055 40.2594 136.227 39.5154 136.571 38.8675C136.926 38.2196 137.401 37.7185 137.999 37.3642C138.606 36.9998 139.274 36.8175 140.003 36.8175C140.661 36.8175 141.233 36.9492 141.719 37.2124C142.215 37.4654 142.61 37.7843 142.903 38.169V36.9542H144.65V45.321H142.903V44.0759C142.61 44.4707 142.21 44.7997 141.704 45.0629C141.198 45.3261 140.621 45.4577 139.973 45.4577C139.254 45.4577 138.596 45.2755 137.999 44.9111C137.401 44.5365 136.926 44.0202 136.571 43.3622C136.227 42.6941 136.055 41.9399 136.055 41.0997ZM142.903 41.13C142.903 40.553 142.782 40.0519 142.539 39.6267C142.306 39.2016 141.997 38.8776 141.613 38.6549C141.228 38.4322 140.813 38.3208 140.368 38.3208C139.922 38.3208 139.507 38.4322 139.122 38.6549C138.738 38.8675 138.424 39.1864 138.181 39.6116C137.948 40.0266 137.832 40.5226 137.832 41.0997C137.832 41.6767 137.948 42.1828 138.181 42.6181C138.424 43.0534 138.738 43.3875 139.122 43.6203C139.517 43.8431 139.932 43.9544 140.368 43.9544C140.813 43.9544 141.228 43.8431 141.613 43.6203C141.997 43.3976 142.306 43.0737 142.539 42.6485C142.782 42.2132 142.903 41.7071 142.903 41.13ZM147.804 35.8457C147.49 35.8457 147.227 35.7394 147.014 35.5268C146.802 35.3143 146.696 35.051 146.696 34.7372C146.696 34.4234 146.802 34.1602 147.014 33.9476C147.227 33.735 147.49 33.6287 147.804 33.6287C148.108 33.6287 148.366 33.735 148.579 33.9476C148.791 34.1602 148.897 34.4234 148.897 34.7372C148.897 35.051 148.791 35.3143 148.579 35.5268C148.366 35.7394 148.108 35.8457 147.804 35.8457ZM148.654 36.9542V45.321H146.923V36.9542H148.654ZM150.35 41.0997C150.35 40.2594 150.522 39.5154 150.866 38.8675C151.221 38.2196 151.697 37.7185 152.294 37.3642C152.901 36.9998 153.574 36.8175 154.313 36.8175C154.86 36.8175 155.397 36.939 155.923 37.182C156.459 37.4148 156.885 37.7286 157.198 38.1234V34.0843H158.945V45.321H157.198V44.0607C156.915 44.4656 156.52 44.7997 156.014 45.0629C155.518 45.3261 154.946 45.4577 154.298 45.4577C153.569 45.4577 152.901 45.2755 152.294 44.9111C151.697 44.5365 151.221 44.0202 150.866 43.3622C150.522 42.6941 150.35 41.9399 150.35 41.0997ZM157.198 41.13C157.198 40.553 157.077 40.0519 156.834 39.6267C156.601 39.2016 156.292 38.8776 155.908 38.6549C155.523 38.4322 155.108 38.3208 154.663 38.3208C154.217 38.3208 153.802 38.4322 153.417 38.6549C153.033 38.8675 152.719 39.1864 152.476 39.6116C152.243 40.0266 152.127 40.5226 152.127 41.0997C152.127 41.6767 152.243 42.1828 152.476 42.6181C152.719 43.0534 153.033 43.3875 153.417 43.6203C153.812 43.8431 154.227 43.9544 154.663 43.9544C155.108 43.9544 155.523 43.8431 155.908 43.6203C156.292 43.3976 156.601 43.0737 156.834 42.6485C157.077 42.2132 157.198 41.7071 157.198 41.13Z" fill="#DD346B"/>
<path d="M48.5476 60.8421C44.6602 62.5423 36.1625 67.7688 35.9385 82.2303C35.5647 106.34 28.2873 120.027 2 120.027M80.8363 25.7831C80.532 25.2389 78.4496 21.4778 75.4729 23.1647C73.871 24.0728 73.4801 26.2853 73.7327 28.1013C73.9845 29.9166 74.8866 31.5686 75.8197 33.1421L80.8363 25.7831Z" stroke="#DD346B" stroke-width="3" stroke-linecap="round" stroke-linejoin="round"/>
<path d="M75.8207 33.1422C80.3391 52.0209 77.3654 69.7583 72.1464 81.4584C71.6907 82.4768 70.6828 83.1298 69.5744 83.1298H45.8978C43.8124 83.1298 42.4514 80.9321 43.3644 79.043C46.4076 72.7444 51.0704 59.4716 48.0504 41.3695C46.9173 34.5765 43.1381 25.0166 49.2723 16.9494C50.5112 15.32 52.7372 12.2756 53.3737 10.3274C54.0117 8.37844 54.007 5.86118 52.9218 4.12366C51.8042 2.33561 49.5156 1.37939 47.4688 1.84584C45.646 2.26098 44.0981 3.78626 43.7289 5.63029C43.3597 7.47276 44.2387 9.52513 45.8669 10.4502C49.0012 12.2329 53.4247 10.5606 56.0793 9.18773C58.9109 7.72386 62.0166 6.76842 65.1703 6.34784C71.4158 5.51601 76.8858 6.97754 80.8365 10.3787M78.0922 49.0978C88.2954 45.6204 90.1393 30.3012 84.7782 17.4956M137.61 74.7796V80.3521C137.61 85.3711 141.652 89.4401 146.639 89.4401H200.138M86.1273 85.7684C86.7167 93.5409 90.7408 101.643 96.1544 107.203" stroke="#DD346B" stroke-width="3" stroke-linecap="round" stroke-linejoin="round"/>
<path d="M101.953 74.0947H170.229C173.512 74.0947 176.2 71.3893 176.2 68.0853V14.3117C176.2 11.0076 173.512 8.30225 170.229 8.30225H78.0964" stroke="#DD346B" stroke-width="3" stroke-linecap="round" stroke-linejoin="round"/>
<path d="M103.502 67.8124C109.415 67.8124 167.021 67.8124 167.021 67.8124C168.643 67.8124 169.958 66.4884 169.958 64.8559V17.5425C169.958 15.9099 168.644 14.5852 167.021 14.5852H83.6037L84.7785 18.481L76.4244 32.2774M108.426 74.0838V79.6562C108.426 82.1502 107.427 84.4101 105.81 86.052C105.728 86.1375 105.644 86.2192 105.557 86.3008M118.308 82.7791C118.308 80.3202 120.289 78.3269 122.732 78.3269C125.175 78.3269 127.154 80.3202 127.154 82.7791C127.154 85.2381 125.175 87.2314 122.732 87.2314C120.289 87.2314 118.308 85.2381 118.308 82.7791ZM78.567 30.715C77.3683 30.5906 76.3711 29.426 76.4244 28.214C76.463 27.334 77.05 26.5286 77.8301 26.1461L78.567 30.715ZM160.107 105.72C160.107 103.641 158.417 101.94 156.352 101.94H147.446C145.38 101.94 143.69 103.641 143.69 105.72H160.107Z" stroke="#DD346B" stroke-width="3" stroke-linecap="round" stroke-linejoin="round"/>
<path d="M149.603 101.942H154.592C155.442 101.942 156.137 101.242 156.137 100.387C156.137 99.5318 155.442 98.8321 154.592 98.8321H145.901C144.474 98.8321 143.07 99.1765 141.806 99.8389C139.101 101.254 136.098 101.992 133.048 101.992H132.509C121.688 101.992 108.426 97.334 104.003 82.7568C101.037 72.9769 98.2818 46.5814 80.5571 52.943M143.7 105.427C143.7 107.963 141.537 107.562 136.681 107.562M135.092 101.897C136.682 104.564 137.034 108.118 135.975 110.785L135.092 101.897Z" stroke="#DD346B" stroke-width="3" stroke-linecap="round" stroke-linejoin="round"/>
</svg>
