<svg width="15" height="15" viewBox="0 0 15 15" fill="none" xmlns="http://www.w3.org/2000/svg">
<path d="M12.8125 5.625H11.875V4.37499C11.875 1.9626 9.91242 0 7.5 0C5.08758 0 3.12501 1.9626 3.12501 4.37499V5.625H2.18751C2.01478 5.625 1.875 5.76478 1.875 5.93751V13.75C1.875 14.4394 2.4356 15 3.12501 15H11.875C12.5644 15 13.125 14.4394 13.125 13.75V5.93751C13.125 5.76478 12.9852 5.625 12.8125 5.625ZM8.43568 12.153C8.44544 12.2412 8.41708 12.3297 8.35787 12.3959C8.29866 12.4622 8.21382 12.5 8.12502 12.5H6.87501C6.78621 12.5 6.70137 12.4622 6.64216 12.3959C6.58295 12.3297 6.55456 12.2412 6.56435 12.153L6.76148 10.3803C6.44136 10.1474 6.25002 9.77906 6.25002 9.375C6.25002 8.68562 6.81062 8.12499 7.50003 8.12499C8.18944 8.12499 8.75004 8.68559 8.75004 9.375C8.75004 9.77906 8.5587 10.1474 8.23857 10.3803L8.43568 12.153ZM9.99999 5.625H5.00001V4.37499C5.00001 2.99651 6.12152 1.875 7.5 1.875C8.87848 1.875 9.99999 2.99651 9.99999 4.37499V5.625Z" fill="#14B855"/>
</svg>
