<svg width="212" height="120" viewBox="0 0 212 120" fill="none" xmlns="http://www.w3.org/2000/svg">
<path fill-rule="evenodd" clip-rule="evenodd" d="M103.743 60.0681L102.807 61.332C102.426 61.8466 101.703 61.9513 101.191 61.569L100.377 60.9573C99.8657 60.5727 99.7601 59.8448 100.141 59.3302L101.078 58.0663C101.46 57.5517 102.183 57.4454 102.695 57.8293L103.51 58.441C104.022 58.8248 104.127 59.5535 103.745 60.0681H103.743Z" stroke="#DD346B" stroke-width="3" stroke-linecap="round" stroke-linejoin="round"/>
<path fill-rule="evenodd" clip-rule="evenodd" d="M106.062 56.9409L105.125 58.2048C104.742 58.7194 104.019 58.8241 103.507 58.4418L102.692 57.8301C102.181 57.4455 102.077 56.7176 102.457 56.203L103.394 54.9391C103.777 54.4245 104.5 54.3182 105.012 54.7021L105.826 55.3138C106.337 55.6976 106.442 56.4263 106.062 56.9409Z" stroke="#DD346B" stroke-width="3" stroke-linecap="round" stroke-linejoin="round"/>
<path d="M160.992 60.1622C163.44 60.1507 166.837 61.0522 168.891 62.3918C172.393 64.6765 176.961 65.0603 180.875 63.6993C184.938 62.2878 187.954 61.722 192.369 63.5334C207.004 69.5372 213.878 95.6352 208.716 118.277M108.379 53.8135L107.442 55.0774C107.06 55.592 106.337 55.6968 105.826 55.3145L105.011 54.7028C104.499 54.3182 104.393 53.5903 104.775 53.0757L105.711 51.8117C106.092 51.2972 106.816 51.1909 107.327 51.5747L108.141 52.1864C108.652 52.5703 108.758 53.2989 108.377 53.8135H108.379ZM101.426 63.1954L100.986 63.7903C100.606 64.3056 99.882 64.4112 99.3708 64.0273L99.1262 63.8438C98.6149 63.46 98.5093 62.7321 98.8907 62.2175L99.3313 61.6226C99.7126 61.108 100.436 61.0017 100.947 61.3856L101.19 61.5691C101.702 61.9529 101.808 62.6816 101.426 63.1962L101.426 63.1954ZM34.3306 50.1961L32.2393 59.0313C32.2393 59.0313 40.4035 67.0621 45.9096 67.2326C51.9224 67.4192 50.3461 59.5612 50.3461 59.5612L49.2096 54.4657L34.3306 50.1961ZM185.712 33.7499C186.858 33.8692 187.81 34.9809 187.759 36.1393C187.709 37.297 186.662 38.32 185.511 38.3368L185.712 33.7499Z" stroke="#DD346B" stroke-width="3" stroke-linecap="round" stroke-linejoin="round"/>
<path d="M157.722 24.9125C157.722 27.1222 158.094 29.5293 157.606 31.911C157.047 34.6354 155.942 37.8636 155.346 39.4043C155 40.3012 155.87 41.023 156.788 40.7516C159.34 39.9946 159.056 40.51 160.267 43.8376C161.237 46.5 161.262 46.6009 162.119 48.4957C167.325 60.0261 179.008 55.209 184.39 50.1954C187.925 46.9022 190.359 42.8352 190.775 37.9661" stroke="#DD346B" stroke-width="3" stroke-linecap="round" stroke-linejoin="round"/>
<path d="M168.148 55.2372C168.017 57.3552 167.886 58.4731 167.753 60.7196M164.292 15.6796C163.004 23.1423 167.44 30.1538 176.459 32.1342C177.13 32.2818 182.486 33.0273 182.505 32.6908C182.617 28.3937 188.239 27.2467 190.259 30.9299C191.41 33.0273 191.109 35.5941 190.776 37.966L164.292 15.6796ZM161.902 46.5702C165.012 47.2148 167.904 45.9341 169.118 44.6205L161.902 46.5702Z" stroke="#DD346B" stroke-width="3" stroke-linecap="round" stroke-linejoin="round"/>
<path fill-rule="evenodd" clip-rule="evenodd" d="M162.896 33.0174C162.896 33.8065 163.533 34.4472 164.317 34.4472C165.102 34.4472 165.739 33.8065 165.739 33.0174C165.739 32.2275 165.102 31.5875 164.318 31.5875C163.533 31.586 162.896 32.2275 162.896 33.0174Z" fill="#686868"/>
<path d="M164.292 15.6796C160.15 17.9253 157.957 23.2991 157.321 27.1184C155.724 22.3594 157.227 16.8572 160.552 13.112C165.325 7.73446 172.843 6.2381 179.699 7.15335C183.162 7.61442 186.571 8.66348 189.681 10.2707C192.595 11.777 196.306 13.5318 199.747 11.5752C201.534 10.5597 202.5 8.30716 202.094 6.28397C201.689 4.25926 199.99 2.58474 197.99 2.12902C195.743 1.61673 193.229 2.66655 192.002 4.62933C190.811 6.5363 191.083 9.58714 192.107 11.5904C193.123 13.5785 195.946 16.4198 197.153 18.7909C202.21 28.7172 197.773 35.429 198.057 42.1057C198.335 48.6126 207.405 55.2365 197.972 67.2273M184.39 50.1962V61.6563M152.185 118.127C152.185 118.127 154.655 109.021 154.365 87.0517M166.532 62.057L166.533 69.5372L175.677 64.9801L166.532 62.057ZM186.636 62.4026L182.761 72.3465L177.199 64.6391L186.636 62.4026Z" stroke="#DD346B" stroke-width="3" stroke-linecap="round" stroke-linejoin="round"/>
<path d="M160.992 60.1622C154.928 59.8701 151.223 64.8172 141.76 82.8714C141.76 82.8714 133.702 99.5608 132.31 99.4454C130.92 99.3307 125.688 93.1831 124.311 86.9897C124.311 86.9897 110.442 89.8784 110.482 91.5331C110.795 104.478 122.8 116.607 134.992 116.626C146.514 116.646 154.11 97.9574 154.11 97.9574" stroke="#DD346B" stroke-width="3" stroke-linecap="round" stroke-linejoin="round"/>
<path d="M50.5325 64.6153C50.5325 64.6153 54.6522 69.57 55.5418 70.0257C56.4306 70.4814 54.4463 61.2991 54.4463 61.2991M122.581 87.3681C122.581 87.3681 121.577 83.0419 123.732 79.4084C125.885 75.7764 129.058 65.9006 126.98 64.6015C126.59 64.3584 125.821 63.9386 125.374 64.158L122.581 87.3681ZM110.481 83.8149C112.286 87.401 112.603 89.6948 112.603 89.6948L110.481 83.8149ZM27.7454 60.3563L38.127 72.3456L42.4671 66.351L27.7454 60.3563Z" stroke="#DD346B" stroke-width="3" stroke-linecap="round" stroke-linejoin="round"/>
<path d="M98.7416 65.5498L115.154 77.9084M128.164 60.41L111.702 82.5534C110.669 83.945 108.709 84.2279 107.326 83.1881L95.9233 74.5937C94.5407 73.5538 94.252 71.5811 95.2927 70.1895L99.7368 64.2102C100.185 64.3402 100.686 64.1872 100.983 63.7896L101.423 63.1932C101.72 62.7956 101.727 62.2757 101.469 61.8781V61.8704L101.56 61.7481C102.008 61.8857 102.51 61.7328 102.806 61.3275L103.74 60.0659C104.037 59.6683 104.044 59.1484 103.793 58.7508L103.885 58.6284C104.333 58.7584 104.827 58.5978 105.123 58.2002L106.065 56.9386C106.354 56.5487 106.361 56.0287 106.11 55.6311L106.209 55.5011C106.65 55.6311 107.144 55.4706 107.44 55.0729L108.382 53.8113C108.671 53.4214 108.678 52.9091 108.427 52.5115L111.747 48.0461C112.78 46.6545 114.74 46.3716 116.123 47.4114L127.533 56.0058C128.916 57.0457 129.197 59.0184 128.164 60.41V60.41ZM109.68 50.8331L126.093 63.1917L109.68 50.8331Z" stroke="#DD346B" stroke-width="3" stroke-linecap="round" stroke-linejoin="round"/>
<path fill-rule="evenodd" clip-rule="evenodd" d="M105.627 75.9601C105.145 76.61 104.229 76.7431 103.584 76.2568C102.937 75.7705 102.804 74.8483 103.287 74.1984C103.771 73.5485 104.687 73.4147 105.333 73.9017C105.979 74.388 106.111 75.3086 105.628 75.9601H105.627Z" stroke="#DD346B" stroke-width="3" stroke-linecap="round" stroke-linejoin="round"/>
<path d="M25.8046 32.7261C23.6548 29.5804 24.6833 22.4802 25.2994 20.7842C28.1786 12.8574 39.6892 1.83694 51.8485 8.98614C64.007 16.1369 66.909 37.1066 66.909 37.1066C66.909 37.1066 62.3639 36.2173 61.8055 38.1373" stroke="#DD346B" stroke-width="3" stroke-linecap="round" stroke-linejoin="round"/>
<path fill-rule="evenodd" clip-rule="evenodd" d="M52.4259 31.9989C52.3933 32.8675 53.0664 33.597 53.9301 33.6298C54.7916 33.6627 55.5178 32.9853 55.5497 32.1174C55.5824 31.2488 54.9093 30.5194 54.0456 30.4857C53.1841 30.4536 52.4579 31.1311 52.4259 31.9997" fill="#686868"/>
<path d="M61.8054 38.1364C61.8054 38.1364 57.8476 58.0013 43.198 53.9106C28.5508 49.8198 26.173 38.0279 25.8615 35.0153C25.547 32.0026 26.1973 24.7005 30.7743 24.7663C35.3506 24.832 36.3974 27.4654 36.3974 27.4654C36.3974 27.4654 38.074 30.5009 38.8489 30.8221C39.6238 31.1417 40.862 19.3069 40.862 19.3069" stroke="#DD346B" stroke-width="3" stroke-linecap="round" stroke-linejoin="round"/>
<path d="M50.3459 59.5612C50.3459 59.5612 63.906 63.3743 68.7072 72.3456C74.3895 82.9662 75.2662 108.258 75.9111 113.127M32.0811 58.7155C32.0811 58.7155 21.1517 60.757 8.7819 75.0784C0.964868 84.1292 1.97523 112.644 2.11957 116.252M63.1289 89.6949C63.1289 89.6949 65.6077 113.126 65.2279 115.547M31.9755 29.8404C31.9755 29.8404 29.7496 29.3005 29.619 32.0019C29.5354 33.7269 31.3541 34.7202 31.3541 34.7202L31.9755 29.8404ZM61.0725 19.2985C46.4313 21.4678 38.8216 18.2403 35.0841 15.3286L61.0725 19.2985ZM18.1722 118.127C18.1722 116.973 21.8779 88.2574 21.8779 88.2574L18.1722 118.127ZM57.9198 47.6744C57.9198 47.6744 52.0475 45.5793 51.2939 44.6212C51.2939 44.6212 47.9225 48.9895 54.6061 51.5747L57.9198 47.6744ZM196.094 88.4027C196.094 88.4027 195.393 111.464 196.094 118.276V88.4027Z" stroke="#DD346B" stroke-width="3" stroke-linecap="round" stroke-linejoin="round"/>
</svg>
