<svg width="121" height="122" viewBox="0 0 121 122" fill="none" xmlns="http://www.w3.org/2000/svg">
<g clip-path="url(#clip0)">
<path d="M91.8099 0.728394H29.19C24.9658 0.728394 21.5297 4.16484 21.5297 8.38899V114.068C21.5297 118.292 24.9661 121.729 29.1903 121.729H91.8099C96.034 121.729 99.4705 118.292 99.4705 114.068V8.38899C99.4702 4.16484 96.034 0.728394 91.8099 0.728394ZM25.3684 19.9825H95.6317V100.004H25.3684V19.9825ZM29.19 4.56714H91.8099C93.9171 4.56714 95.6317 6.28152 95.6317 8.38899V17.4233H25.3684V8.38899C25.3684 6.28152 27.0828 4.56714 29.19 4.56714ZM91.8099 117.89H29.19C27.0828 117.89 25.3681 116.175 25.3681 114.068V102.563H95.6315V114.068C95.6315 116.175 93.9171 117.89 91.8099 117.89Z" fill="#DD346B"/>
<path d="M60.5001 104.26C57.0337 104.26 54.2137 107.08 54.2137 110.546C54.2137 114.013 57.0339 116.833 60.5001 116.833C63.9662 116.833 66.7864 114.012 66.7864 110.546C66.7864 107.08 63.9664 104.26 60.5001 104.26ZM60.5001 114.273C58.4448 114.273 56.7729 112.601 56.7729 110.546C56.7729 108.491 58.4448 106.819 60.5001 106.819C62.5553 106.819 64.2272 108.491 64.2272 110.546C64.2272 112.601 62.5553 114.273 60.5001 114.273Z" fill="#DD346B"/>
<path d="M51.799 12.9215H69.2013C69.9081 12.9215 70.4809 12.3485 70.4809 11.6419C70.4809 10.9353 69.9081 10.3623 69.2013 10.3623H51.799C51.0921 10.3623 50.5194 10.9353 50.5194 11.6419C50.5194 12.3485 51.0921 12.9215 51.799 12.9215Z" fill="#DD346B"/>
<path d="M47.1932 12.9215C47.5284 12.9215 47.8585 12.7858 48.0965 12.5478C48.3345 12.3073 48.4727 11.9797 48.4727 11.6419C48.4727 11.3041 48.3345 10.9765 48.0965 10.7359C47.8583 10.4979 47.5281 10.3623 47.1932 10.3623C46.8553 10.3623 46.5275 10.4979 46.2872 10.7359C46.0492 10.9739 45.9136 11.3041 45.9136 11.6419C45.9136 11.9797 46.0492 12.3073 46.2872 12.5478C46.5252 12.7858 46.8553 12.9215 47.1932 12.9215Z" fill="#DD346B"/>
</g>
<defs>
<clipPath id="clip0">
<rect width="121" height="121" fill="white" transform="translate(0 0.728394)"/>
</clipPath>
</defs>
</svg>
