<svg width="120" height="120" viewBox="0 0 120 120" fill="none" xmlns="http://www.w3.org/2000/svg">
<path opacity="0.5" d="M117.8 120H74.6004C73.4004 120 72.4004 119 72.4004 117.8V74.6004C72.4004 73.4004 73.4004 72.4004 74.6004 72.4004H117.8C119 72.4004 120 73.4004 120 74.6004V117.8C120 119 119 120 117.8 120Z" fill="#d1386a"/>
<path d="M107.5 111H67.1998C65.2998 111 63.7998 109.5 63.7998 107.6V67.1998C63.7998 65.2998 65.2998 63.7998 67.1998 63.7998H107.5C109.4 63.7998 110.9 65.2998 110.9 67.1998V107.5C110.9 109.5 109.4 111 107.5 111Z" fill="#d1386a"/>
<path opacity="0.5" d="M95.4998 97.3004H83.9998C83.0998 97.3004 82.2998 96.5004 82.2998 95.6004V84.1004C82.2998 83.2004 83.0998 82.4004 83.9998 82.4004H95.4998C96.3998 82.4004 97.1998 83.2004 97.1998 84.1004V95.6004C97.1998 96.5004 96.4998 97.3004 95.4998 97.3004Z" fill="white"/>
<path d="M90.6 92.4H79.2C78.3 92.4 77.5 91.6 77.5 90.7V79.2C77.5 78.3 78.3 77.5 79.2 77.5H90.7C91.6 77.5 92.4 78.3 92.4 79.2V90.7C92.3 91.6 91.6 92.4 90.6 92.4Z" fill="white"/>
<path d="M28.8 118.2C43.6012 118.2 55.6 106.201 55.6 91.3996C55.6 76.5984 43.6012 64.5996 28.8 64.5996C13.9988 64.5996 2 76.5984 2 91.3996C2 106.201 13.9988 118.2 28.8 118.2Z" stroke="#d1386a" stroke-width="3" stroke-miterlimit="10" stroke-linecap="round" stroke-linejoin="round"/>
<path opacity="0.5" d="M31.2998 105.5C37.3749 105.5 42.2998 100.575 42.2998 94.5C42.2998 88.4249 37.3749 83.5 31.2998 83.5C25.2247 83.5 20.2998 88.4249 20.2998 94.5C20.2998 100.575 25.2247 105.5 31.2998 105.5Z" fill="#d1386a"/>
<path d="M26.2998 99.2998C32.3749 99.2998 37.2998 94.3749 37.2998 88.2998C37.2998 82.2247 32.3749 77.2998 26.2998 77.2998C20.2247 77.2998 15.2998 82.2247 15.2998 88.2998C15.2998 94.3749 20.2247 99.2998 26.2998 99.2998Z" fill="#d1386a"/>
<path d="M61.0996 49.1996L88.1996 2.19961C88.6996 1.39961 89.8996 1.39961 90.3996 2.19961L117.5 49.1996C118 49.9996 117.4 51.0996 116.4 51.0996H62.1996C61.1996 51.0996 60.5996 49.9996 61.0996 49.1996Z" stroke="#d1386a" stroke-width="3" stroke-miterlimit="10" stroke-linecap="round" stroke-linejoin="round"/>
<path opacity="0.5" d="M86.1001 41.2002L94.2001 27.2002C94.5001 26.7002 95.2001 26.7002 95.5001 27.2002L103.6 41.2002C103.9 41.7002 103.5 42.3002 103 42.3002H86.7001C86.1001 42.3002 85.8001 41.7002 86.1001 41.2002Z" fill="#d1386a"/>
<path d="M79.3 36.5L87.4 22.5C87.7 22 88.4 22 88.7 22.5L96.8 36.5C97.1 37 96.7 37.6 96.2 37.6H80C79.4 37.6 79.1 37 79.3 36.5Z" fill="#d1386a"/>
</svg>
