<svg id="Layer_1" enable-background="new 0 0 512 512" height="512" viewBox="0 0 512 512" width="512" xmlns="http://www.w3.org/2000/svg"><g><path d="m134 159h-60c-8.284 0-15 6.716-15 15v24.215l87.911-31.823c-2.61-4.418-7.407-7.392-12.911-7.392z"/><path d="m453 174c0-8.284-6.716-15-15-15h-60c-5.504 0-10.301 2.973-12.911 7.392l87.911 31.824z"/><path d="m502.105 247.896-153.105-55.423v123.527h133v12c0 8.284 6.716 15 15 15s15-6.716 15-15v-65.999c0-6.315-3.956-11.955-9.895-14.105z"/><path d="m318.863 59.038c-2.054-32.898-29.457-59.038-62.863-59.038-33.407 0-60.81 26.14-62.864 59.038 16.893-14.555 38.868-23.368 62.864-23.368 23.995 0 45.97 8.813 62.863 23.368z"/><path d="m319 396.998v-285.914c-8.815-26.357-33.716-45.414-63-45.414-29.285 0-54.186 19.057-63.001 45.414v285.913c0 2.247.505 4.465 1.478 6.491l48.001 100.003c2.496 5.201 7.753 8.509 13.522 8.509s11.026-3.309 13.522-8.509l48-100.002c.973-2.026 1.478-4.244 1.478-6.491z"/><path d="m162.999 192.474-153.104 55.422c-5.939 2.15-9.895 7.79-9.895 14.105v65.999c0 8.284 6.716 15 15 15s15-6.716 15-15v-12h132.999z"/><path d="m163.255 401.675-58.381 21.229c-5.928 2.155-9.874 7.789-9.874 14.096v40c0 8.284 6.716 15 15 15h93.685l-36.254-75.53c-2.224-4.631-3.636-9.673-4.176-14.795z"/><path d="m407.126 422.904-58.382-21.23c-.541 5.123-1.953 10.167-4.179 14.801l-36.25 75.525h93.685c8.284 0 15-6.716 15-15v-40c0-6.307-3.946-11.941-9.874-14.096z"/></g></svg>