<svg width="69" height="61" viewBox="0 0 69 61" fill="none" xmlns="http://www.w3.org/2000/svg">
<path d="M12 45.4888C12 45.4888 12 33.6785 12 27.7302C12 21.7819 20.6787 9.48877 34.5001 9.48877C48.3215 9.48877 57 22.1785 57 27.7302C57 33.2819 57 41.2129 57 43.9888C57 46.7647 52.1785 54.6957 43.3393 55.4888" stroke="#3b7ff7" stroke-width="3"/>
<path d="M12 39.4888C12 39.4888 12 26.2467 12 20.4046C12 14.5625 20.6787 2.48877 34.5001 2.48877C48.3215 2.48877 57 14.952 57 20.4046C57 25.8572 57 33.6467 57 36.373" stroke="#3b7ff7" stroke-width="3"/>
<path d="M26 37.4888C27.1333 38.4888 30.42 40.4888 34.5 40.4888C38.58 40.4888 41.8667 38.4888 43 37.4888" stroke="#3b7ff7" stroke-width="3" stroke-linecap="round" stroke-linejoin="round"/>
<path d="M57 45.4888C62 45.4888 67 41.2643 67 34.2235C67 27.1827 62 22.4888 57 22.4888" stroke="#3b7ff7" stroke-width="3" stroke-linecap="round" stroke-linejoin="round"/>
<path d="M12 22.4888C7 22.4888 2 26.7133 2 33.7541C2 40.7949 7 45.4888 12 45.4888" stroke="#3b7ff7" stroke-width="3" stroke-linecap="round" stroke-linejoin="round"/>
<path d="M42.5 54.9888C42.5 52.7796 40.7091 50.9888 38.5 50.9888C36.2909 50.9888 34.5 52.7796 34.5 54.9888C34.5 57.1979 36.2909 58.9888 38.5 58.9888C40.7091 58.9888 42.5 57.1979 42.5 54.9888Z" stroke="#3b7ff7" stroke-width="3"/>
</svg>
