<svg width="44" height="101" viewBox="0 0 44 101" fill="none" xmlns="http://www.w3.org/2000/svg">
<path fill-rule="evenodd" clip-rule="evenodd" d="M3.79372 79.2518L0.538116 65.4515L0.551569 65.194C0.565022 65.0855 0.766816 62.2252 2.82511 59.3919L2.91928 59.2563L0 48.6553C0.0672646 48.4926 0.174888 48.2757 0.228699 48.1266C0.228699 48.1131 0.309417 47.9233 0.470852 47.6522C1.1435 46.5405 3.2556 43.9784 7.53363 46.5948L7.89686 46.8117L7.88341 46.8252C8.15246 47.0286 8.52915 47.3404 8.90583 47.7742C9.12107 48.0182 9.32287 48.3029 9.51121 48.6282C10.5471 46.9066 11.2063 45.7949 11.2466 45.7136C11.2466 45.7136 11.6502 45.0358 11.7175 44.9273C12.0269 44.9273 12.3229 44.9138 12.6323 44.9138C12.6726 44.9138 13.3318 44.9002 14.1659 45.09C14.5561 45.1714 14.9865 45.3069 15.4305 45.4967C15.9686 45.3205 16.722 45.1985 17.6099 45.456C18.565 45.7272 19.6816 46.4321 20.8251 47.9368C21.6861 49.0756 23.5022 51.4208 25.8027 54.2812C27.3229 56.1655 29.0583 58.2938 30.9013 60.4764C32.3946 62.2387 33.9417 64.0281 35.4619 65.7227C36.713 67.1054 37.9507 68.4475 39.1614 69.6811L39.4439 69.9793C47.6099 78.3029 40.8027 90.49 40.6143 90.8289V90.8425C40.3991 91.2356 40.0359 91.5067 39.6323 91.6152C39.2287 91.7236 38.7847 91.6829 38.3946 91.466C38.0045 91.2491 37.7354 90.8831 37.6278 90.4764C37.5202 90.0697 37.5605 89.6224 37.7758 89.2293C37.843 89.1208 43.6278 78.9129 37.13 72.2839L36.8475 71.9992C35.6233 70.7521 34.3587 69.3693 33.0673 67.9459C31.4933 66.1971 29.9327 64.3942 28.4395 62.6183C26.583 60.4222 24.8206 58.2803 23.2735 56.3553C21.1211 53.6847 19.4126 51.4886 18.4708 50.255C18.4843 51.0683 18.2825 52.0173 17.9731 53.034C17.6771 53.9965 17.2601 55.0268 16.7758 56.0435L21 63.147C21.861 63.2012 22.6009 63.3232 23.2332 63.513C23.9462 63.7299 24.5516 64.0281 25.0628 64.4348C25.6413 64.8957 26.0717 65.438 26.3946 66.0887C26.6906 66.6852 26.8924 67.3765 27.0269 68.1628C27.8475 68.8271 29.2735 70.1691 29.6233 71.7417C30 73.4362 29.1928 75.3476 25.278 76.8524L25.2915 76.9066L18.5785 78.2622L18.6995 80.011L22.6413 81.2446C23.0717 81.3802 23.4081 81.6784 23.5964 82.0444C23.7847 82.4105 23.8386 82.8578 23.704 83.2916C23.5695 83.7254 23.2735 84.0643 22.9103 84.2541C22.5471 84.4439 22.1031 84.4981 21.6726 84.3626L16.6951 82.8036C16.3722 82.7087 16.0897 82.5189 15.8744 82.2613C15.6726 82.0038 15.5381 81.692 15.5247 81.3395L15.2287 77.0964C15.1883 76.6761 15.296 76.283 15.5247 75.9577C15.7534 75.6323 16.1031 75.3883 16.5202 75.307L24.1345 73.7751C25.3991 73.2735 25.843 72.7448 25.8834 72.2568C25.9103 71.8366 25.6413 71.4163 25.3453 71.0774L13.3587 71.8366C12.9148 71.8637 12.4978 71.701 12.1883 71.4299C11.8789 71.1587 11.6637 70.7521 11.6368 70.3047V70.2776C11.6099 69.8302 11.7713 69.4235 12.0404 69.1117C12.3094 68.7999 12.713 68.583 13.1569 68.5559L23.6099 67.8917C23.556 67.7426 23.5022 67.607 23.4484 67.485C23.3408 67.2681 23.2063 67.0919 23.0448 66.9699C22.7758 66.753 22.3991 66.6038 21.8879 66.5089C21.3363 66.4005 20.6233 66.3463 19.7489 66.3463C18.7668 66.3463 17.9327 66.3463 17.2197 66.3598C16.4395 66.3734 15.713 66.3869 15 66.414C14.287 66.4412 13.5471 66.4683 12.7937 66.4954C12.0538 66.5225 11.287 66.5632 10.4798 66.6038C9.83408 66.6309 9.39013 66.7801 9.08072 66.9834C8.59641 67.2816 8.47534 67.6748 8.43498 67.7832C8.35426 68.3933 7.72197 73.4226 7.1704 78.1673C6.87444 80.6346 6.61883 82.9256 6.49776 84.2677C6.37668 85.6233 7.00897 86.7213 8.47534 87.9821C10.0359 89.3106 12.4978 90.8018 15.9552 92.8759L15.9686 92.8895C16.6413 93.2961 17.3408 93.7164 18.0673 94.1637C25.6951 98.7864 27.4036 97.3901 27.4843 97.3088L27.4978 97.2952C27.8206 96.9834 28.2511 96.8479 28.6682 96.8614C29.0852 96.875 29.4888 97.0512 29.7982 97.3766C30.1076 97.7019 30.2421 98.1357 30.2287 98.556C30.2152 98.9762 30.0404 99.3829 29.7175 99.6811L29.704 99.6947C29.556 99.8303 26.1525 102.88 16.3856 96.9699C15.6457 96.5225 14.9462 96.1023 14.287 95.6956L14.2735 95.682C10.3184 93.3097 7.49327 91.6016 5.69058 89.9071C3.80717 88.1448 3.02691 86.396 3.24215 83.983C3.29596 83.4001 3.36323 82.6816 3.4574 81.8953C3.59193 81.0548 3.69955 80.1601 3.79372 79.2518ZM17.2332 63.1063L15.0538 59.4461C14.6771 60.1375 14.3139 60.7611 13.991 61.2898C13.6278 61.8998 13.3049 62.4149 13.0762 62.781L13.1569 63.2283L13.87 63.2012C14.2063 63.1877 14.5695 63.1741 14.9462 63.1605C15.4439 63.147 15.9417 63.1334 16.4395 63.1199L17.2332 63.1063ZM9.87444 63.3774L9.63229 62.0896C9.6861 62.0083 9.99551 61.5338 9.99551 61.5338C10.0762 61.4253 15.3229 53.4407 15.2556 50.2414C15.2422 49.5094 14.9327 49.0485 14.5561 48.7502C14.2332 48.5062 13.8565 48.3706 13.5336 48.2893C12.7265 49.6449 11.1525 52.2884 9.63229 54.7828C7.96412 57.5211 6.26906 60.2324 5.46188 61.3304C4.81614 62.2116 4.42601 63.0656 4.18386 63.7706C3.95516 64.3942 3.86099 64.9093 3.82063 65.1804L4.92377 69.8709L4.95067 69.6404C5.09865 68.4475 5.24664 67.3223 5.24664 67.3088C5.24664 67.2681 5.26009 67.2003 5.27354 67.1732C5.32735 66.9427 5.55605 66.0345 6.29596 65.1669C6.98206 64.3399 8.09865 63.5672 9.87444 63.3774ZM5.28699 55.5961L5.86547 54.6608C6.24215 54.0507 6.60538 53.4542 6.95516 52.8849C7.52018 50.3905 6.06726 49.5229 5.94619 49.4551L5.89238 49.428L5.86547 49.4145C5.19282 49.0078 4.68161 48.8587 4.29148 48.8451C3.9148 48.8316 3.67265 48.9536 3.49776 49.0891L5.28699 55.5961Z" fill="#3b7ff7"/>
<path d="M16.4812 2L16.4209 11.7878" stroke="#3b7ff7" stroke-width="3" stroke-linecap="round" stroke-linejoin="round"/>
<path d="M3.48022 33L8.67881 38.9538" stroke="#3b7ff7" stroke-width="3" stroke-linecap="round" stroke-linejoin="round"/>
<path d="M28.9027 33.9937L23.7041 39.9473" stroke="#3b7ff7" stroke-width="3" stroke-linecap="round" stroke-linejoin="round"/>
</svg>
